M48
; DRILL file {KiCad 9.0.7} date 2026-02-02T15:01:54+0100
; FORMAT={-:-/ absolute / metric / decimal}
; #@! TF.CreationDate,2026-02-02T15:01:54+01:00
; #@! TF.GenerationSoftware,Kicad,Pcbnew,9.0.7
; #@! TF.FileFunction,Plated,1,2,PTH
FMAT,2
METRIC
; #@! TA.AperFunction,Plated,PTH,ViaDrill
T1C0.300
; #@! TA.AperFunction,Plated,PTH,ComponentDrill
T2C0.700
; #@! TA.AperFunction,Plated,PTH,ComponentDrill
T3C0.850
; #@! TA.AperFunction,Plated,PTH,ComponentDrill
T4C0.900
; #@! TA.AperFunction,Plated,PTH,ComponentDrill
T5C1.000
; #@! TA.AperFunction,Plated,PTH,ComponentDrill
T6C1.100
; #@! TA.AperFunction,Plated,PTH,ComponentDrill
T7C1.220
; #@! TA.AperFunction,Plated,PTH,ComponentDrill
T8C1.420
; #@! TA.AperFunction,Plated,PTH,ComponentDrill
T9C1.430
%
G90
G05
T1
X141.032Y-107.33
X141.038Y-134.532
X141.745Y-75.108
X142.761Y-80.188
X143.396Y-85.776
X143.809Y-115.357
X145.15Y-130.067
X145.167Y-124.066
X145.214Y-86.07
X145.428Y-53.718
X145.563Y-132.625
X146.19Y-134.671
X146.698Y-95.047
X146.825Y-144.577
X146.942Y-127.857
X147.264Y-75.031
X147.268Y-122.599
X147.865Y-116.355
X147.968Y-132.385
X148.349Y-134.417
X148.73Y-117.907
X148.827Y-126.444
X148.857Y-84.76
X148.857Y-87.046
X149.311Y-134.199
X149.365Y-89.205
X149.492Y-112.827
X149.873Y-128.698
X150.0Y-56.439
X150.127Y-95.301
X150.162Y-111.069
X150.385Y-136.067
X150.435Y-122.677
X150.508Y-139.243
X150.508Y-139.243
X150.635Y-143.307
X150.848Y-136.841
X150.874Y-75.076
X151.496Y-55.45
X151.857Y-122.312
X152.032Y-132.004
X152.048Y-130.166
X152.286Y-96.952
X152.413Y-87.935
X152.953Y-131.75
X153.556Y-128.448
X153.988Y-95.047
X153.991Y-102.795
X155.246Y-119.898
X155.68Y-133.479
X155.714Y-135.508
X155.715Y-87.173
X158.993Y-132.445
T2
X142.38Y-132.385
X142.38Y-133.655
X142.38Y-134.925
X142.38Y-136.195
X143.65Y-132.385
X143.65Y-133.655
X143.65Y-134.925
X143.65Y-136.195
T3
X147.46Y-103.81
X147.46Y-109.525
X150.0Y-103.81
X150.0Y-109.525
X152.54Y-103.81
X152.54Y-109.525
T4
X144.92Y-98.73
X147.46Y-98.73
X152.54Y-98.73
X155.08Y-98.73
T5
X142.38Y-89.205
X142.38Y-91.745
X142.38Y-94.285
X142.38Y-96.825
X142.38Y-99.365
X142.38Y-101.905
X142.38Y-104.445
X142.38Y-106.985
X142.38Y-109.525
X142.38Y-112.065
X142.38Y-114.605
X142.38Y-117.145
X142.38Y-119.685
X142.38Y-122.225
X142.38Y-124.765
X144.92Y-77.775
X144.92Y-80.315
X147.46Y-77.775
X147.46Y-80.315
X147.5Y-124.775
X150.0Y-77.775
X150.0Y-80.315
X150.0Y-124.775
X152.5Y-124.775
X152.54Y-77.775
X152.54Y-80.315
X155.08Y-77.775
X155.08Y-80.315
X157.62Y-89.205
X157.62Y-91.745
X157.62Y-94.285
X157.62Y-96.825
X157.62Y-99.365
X157.62Y-101.905
X157.62Y-104.445
X157.62Y-106.985
X157.62Y-109.525
X157.62Y-112.065
X157.62Y-114.605
X157.62Y-117.145
X157.62Y-119.685
X157.62Y-122.225
X157.62Y-124.765
X157.62Y-131.623
X157.62Y-134.163
X157.62Y-136.703
T7
X142.38Y-62.408
X144.412Y-128.575
X147.46Y-62.662
X147.46Y-137.592
X152.54Y-62.408
X152.54Y-137.592
X157.62Y-62.662
T8
X144.92Y-60.2
X144.92Y-64.87
X144.92Y-139.8
X146.62Y-131.115
X155.08Y-60.2
X155.08Y-64.87
X155.08Y-139.8
T9
X144.92Y-51.9
X144.92Y-73.17
X144.92Y-148.1
X154.92Y-131.115
X155.08Y-51.9
X155.08Y-73.17
X155.08Y-148.1
T6
X145.2Y-116.675G85X145.2Y-117.875
G05
X154.8Y-116.675G85X154.8Y-117.875
G05
M30
