G04 #@! TF.GenerationSoftware,KiCad,Pcbnew,9.0.7*
G04 #@! TF.CreationDate,2026-01-04T21:44:44+01:00*
G04 #@! TF.ProjectId,board_B,626f6172-645f-4422-9e6b-696361645f70,rev?*
G04 #@! TF.SameCoordinates,Original*
G04 #@! TF.FileFunction,Legend,Bot*
G04 #@! TF.FilePolarity,Positive*
%FSLAX46Y46*%
G04 Gerber Fmt 4.6, Leading zero omitted, Abs format (unit mm)*
G04 Created by KiCad (PCBNEW 9.0.7) date 2026-01-04 21:44:44*
%MOMM*%
%LPD*%
G01*
G04 APERTURE LIST*
%ADD10C,0.100000*%
%ADD11C,0.125000*%
%ADD12C,0.150000*%
%ADD13C,0.120000*%
G04 APERTURE END LIST*
D10*
X147500000Y-91277000D02*
X152500000Y-91277000D01*
X152500000Y-96277000D01*
X147500000Y-96277000D01*
X147500000Y-91277000D01*
G36*
X147500000Y-91277000D02*
G01*
X152500000Y-91277000D01*
X152500000Y-96277000D01*
X147500000Y-96277000D01*
X147500000Y-91277000D01*
G37*
D11*
X144763809Y-120530381D02*
X144525714Y-120363715D01*
X144763809Y-120244667D02*
X144263809Y-120244667D01*
X144263809Y-120244667D02*
X144263809Y-120435143D01*
X144263809Y-120435143D02*
X144287619Y-120482762D01*
X144287619Y-120482762D02*
X144311428Y-120506572D01*
X144311428Y-120506572D02*
X144359047Y-120530381D01*
X144359047Y-120530381D02*
X144430476Y-120530381D01*
X144430476Y-120530381D02*
X144478095Y-120506572D01*
X144478095Y-120506572D02*
X144501904Y-120482762D01*
X144501904Y-120482762D02*
X144525714Y-120435143D01*
X144525714Y-120435143D02*
X144525714Y-120244667D01*
X144263809Y-120673239D02*
X144763809Y-120839905D01*
X144763809Y-120839905D02*
X144263809Y-121006572D01*
X144263809Y-121411333D02*
X144263809Y-121173238D01*
X144263809Y-121173238D02*
X144501904Y-121149429D01*
X144501904Y-121149429D02*
X144478095Y-121173238D01*
X144478095Y-121173238D02*
X144454285Y-121220857D01*
X144454285Y-121220857D02*
X144454285Y-121339905D01*
X144454285Y-121339905D02*
X144478095Y-121387524D01*
X144478095Y-121387524D02*
X144501904Y-121411333D01*
X144501904Y-121411333D02*
X144549523Y-121435143D01*
X144549523Y-121435143D02*
X144668571Y-121435143D01*
X144668571Y-121435143D02*
X144716190Y-121411333D01*
X144716190Y-121411333D02*
X144740000Y-121387524D01*
X144740000Y-121387524D02*
X144763809Y-121339905D01*
X144763809Y-121339905D02*
X144763809Y-121220857D01*
X144763809Y-121220857D02*
X144740000Y-121173238D01*
X144740000Y-121173238D02*
X144716190Y-121149429D01*
X145086666Y-62894809D02*
X145086666Y-63251952D01*
X145086666Y-63251952D02*
X145110475Y-63323380D01*
X145110475Y-63323380D02*
X145158094Y-63371000D01*
X145158094Y-63371000D02*
X145229523Y-63394809D01*
X145229523Y-63394809D02*
X145277142Y-63394809D01*
X144634285Y-63061476D02*
X144634285Y-63394809D01*
X144753333Y-62871000D02*
X144872380Y-63228142D01*
X144872380Y-63228142D02*
X144562857Y-63228142D01*
X144636809Y-109227381D02*
X144398714Y-109060715D01*
X144636809Y-108941667D02*
X144136809Y-108941667D01*
X144136809Y-108941667D02*
X144136809Y-109132143D01*
X144136809Y-109132143D02*
X144160619Y-109179762D01*
X144160619Y-109179762D02*
X144184428Y-109203572D01*
X144184428Y-109203572D02*
X144232047Y-109227381D01*
X144232047Y-109227381D02*
X144303476Y-109227381D01*
X144303476Y-109227381D02*
X144351095Y-109203572D01*
X144351095Y-109203572D02*
X144374904Y-109179762D01*
X144374904Y-109179762D02*
X144398714Y-109132143D01*
X144398714Y-109132143D02*
X144398714Y-108941667D01*
X144136809Y-109370239D02*
X144636809Y-109536905D01*
X144636809Y-109536905D02*
X144136809Y-109703572D01*
X144636809Y-110132143D02*
X144636809Y-109846429D01*
X144636809Y-109989286D02*
X144136809Y-109989286D01*
X144136809Y-109989286D02*
X144208238Y-109941667D01*
X144208238Y-109941667D02*
X144255857Y-109894048D01*
X144255857Y-109894048D02*
X144279666Y-109846429D01*
X155246666Y-62767809D02*
X155246666Y-63124952D01*
X155246666Y-63124952D02*
X155270475Y-63196380D01*
X155270475Y-63196380D02*
X155318094Y-63244000D01*
X155318094Y-63244000D02*
X155389523Y-63267809D01*
X155389523Y-63267809D02*
X155437142Y-63267809D01*
X154770476Y-62767809D02*
X155008571Y-62767809D01*
X155008571Y-62767809D02*
X155032380Y-63005904D01*
X155032380Y-63005904D02*
X155008571Y-62982095D01*
X155008571Y-62982095D02*
X154960952Y-62958285D01*
X154960952Y-62958285D02*
X154841904Y-62958285D01*
X154841904Y-62958285D02*
X154794285Y-62982095D01*
X154794285Y-62982095D02*
X154770476Y-63005904D01*
X154770476Y-63005904D02*
X154746666Y-63053523D01*
X154746666Y-63053523D02*
X154746666Y-63172571D01*
X154746666Y-63172571D02*
X154770476Y-63220190D01*
X154770476Y-63220190D02*
X154794285Y-63244000D01*
X154794285Y-63244000D02*
X154841904Y-63267809D01*
X154841904Y-63267809D02*
X154960952Y-63267809D01*
X154960952Y-63267809D02*
X155008571Y-63244000D01*
X155008571Y-63244000D02*
X155032380Y-63220190D01*
X144578666Y-130839809D02*
X144578666Y-131196952D01*
X144578666Y-131196952D02*
X144602475Y-131268380D01*
X144602475Y-131268380D02*
X144650094Y-131316000D01*
X144650094Y-131316000D02*
X144721523Y-131339809D01*
X144721523Y-131339809D02*
X144769142Y-131339809D01*
X144269142Y-131054095D02*
X144316761Y-131030285D01*
X144316761Y-131030285D02*
X144340571Y-131006476D01*
X144340571Y-131006476D02*
X144364380Y-130958857D01*
X144364380Y-130958857D02*
X144364380Y-130935047D01*
X144364380Y-130935047D02*
X144340571Y-130887428D01*
X144340571Y-130887428D02*
X144316761Y-130863619D01*
X144316761Y-130863619D02*
X144269142Y-130839809D01*
X144269142Y-130839809D02*
X144173904Y-130839809D01*
X144173904Y-130839809D02*
X144126285Y-130863619D01*
X144126285Y-130863619D02*
X144102476Y-130887428D01*
X144102476Y-130887428D02*
X144078666Y-130935047D01*
X144078666Y-130935047D02*
X144078666Y-130958857D01*
X144078666Y-130958857D02*
X144102476Y-131006476D01*
X144102476Y-131006476D02*
X144126285Y-131030285D01*
X144126285Y-131030285D02*
X144173904Y-131054095D01*
X144173904Y-131054095D02*
X144269142Y-131054095D01*
X144269142Y-131054095D02*
X144316761Y-131077904D01*
X144316761Y-131077904D02*
X144340571Y-131101714D01*
X144340571Y-131101714D02*
X144364380Y-131149333D01*
X144364380Y-131149333D02*
X144364380Y-131244571D01*
X144364380Y-131244571D02*
X144340571Y-131292190D01*
X144340571Y-131292190D02*
X144316761Y-131316000D01*
X144316761Y-131316000D02*
X144269142Y-131339809D01*
X144269142Y-131339809D02*
X144173904Y-131339809D01*
X144173904Y-131339809D02*
X144126285Y-131316000D01*
X144126285Y-131316000D02*
X144102476Y-131292190D01*
X144102476Y-131292190D02*
X144078666Y-131244571D01*
X144078666Y-131244571D02*
X144078666Y-131149333D01*
X144078666Y-131149333D02*
X144102476Y-131101714D01*
X144102476Y-131101714D02*
X144126285Y-131077904D01*
X144126285Y-131077904D02*
X144173904Y-131054095D01*
D12*
X151359819Y-140814666D02*
X152074104Y-140814666D01*
X152074104Y-140814666D02*
X152216961Y-140767047D01*
X152216961Y-140767047D02*
X152312200Y-140671809D01*
X152312200Y-140671809D02*
X152359819Y-140528952D01*
X152359819Y-140528952D02*
X152359819Y-140433714D01*
X151359819Y-141195619D02*
X151359819Y-141814666D01*
X151359819Y-141814666D02*
X151740771Y-141481333D01*
X151740771Y-141481333D02*
X151740771Y-141624190D01*
X151740771Y-141624190D02*
X151788390Y-141719428D01*
X151788390Y-141719428D02*
X151836009Y-141767047D01*
X151836009Y-141767047D02*
X151931247Y-141814666D01*
X151931247Y-141814666D02*
X152169342Y-141814666D01*
X152169342Y-141814666D02*
X152264580Y-141767047D01*
X152264580Y-141767047D02*
X152312200Y-141719428D01*
X152312200Y-141719428D02*
X152359819Y-141624190D01*
X152359819Y-141624190D02*
X152359819Y-141338476D01*
X152359819Y-141338476D02*
X152312200Y-141243238D01*
X152312200Y-141243238D02*
X152264580Y-141195619D01*
X141199819Y-140814666D02*
X141914104Y-140814666D01*
X141914104Y-140814666D02*
X142056961Y-140767047D01*
X142056961Y-140767047D02*
X142152200Y-140671809D01*
X142152200Y-140671809D02*
X142199819Y-140528952D01*
X142199819Y-140528952D02*
X142199819Y-140433714D01*
X141199819Y-141719428D02*
X141199819Y-141528952D01*
X141199819Y-141528952D02*
X141247438Y-141433714D01*
X141247438Y-141433714D02*
X141295057Y-141386095D01*
X141295057Y-141386095D02*
X141437914Y-141290857D01*
X141437914Y-141290857D02*
X141628390Y-141243238D01*
X141628390Y-141243238D02*
X142009342Y-141243238D01*
X142009342Y-141243238D02*
X142104580Y-141290857D01*
X142104580Y-141290857D02*
X142152200Y-141338476D01*
X142152200Y-141338476D02*
X142199819Y-141433714D01*
X142199819Y-141433714D02*
X142199819Y-141624190D01*
X142199819Y-141624190D02*
X142152200Y-141719428D01*
X142152200Y-141719428D02*
X142104580Y-141767047D01*
X142104580Y-141767047D02*
X142009342Y-141814666D01*
X142009342Y-141814666D02*
X141771247Y-141814666D01*
X141771247Y-141814666D02*
X141676009Y-141767047D01*
X141676009Y-141767047D02*
X141628390Y-141719428D01*
X141628390Y-141719428D02*
X141580771Y-141624190D01*
X141580771Y-141624190D02*
X141580771Y-141433714D01*
X141580771Y-141433714D02*
X141628390Y-141338476D01*
X141628390Y-141338476D02*
X141676009Y-141290857D01*
X141676009Y-141290857D02*
X141771247Y-141243238D01*
D11*
X145086666Y-61751809D02*
X145086666Y-62108952D01*
X145086666Y-62108952D02*
X145110475Y-62180380D01*
X145110475Y-62180380D02*
X145158094Y-62228000D01*
X145158094Y-62228000D02*
X145229523Y-62251809D01*
X145229523Y-62251809D02*
X145277142Y-62251809D01*
X144896190Y-61751809D02*
X144562857Y-61751809D01*
X144562857Y-61751809D02*
X144777142Y-62251809D01*
X154179047Y-96287809D02*
X154179047Y-95787809D01*
X154179047Y-95787809D02*
X154059999Y-95787809D01*
X154059999Y-95787809D02*
X153988571Y-95811619D01*
X153988571Y-95811619D02*
X153940952Y-95859238D01*
X153940952Y-95859238D02*
X153917142Y-95906857D01*
X153917142Y-95906857D02*
X153893333Y-96002095D01*
X153893333Y-96002095D02*
X153893333Y-96073523D01*
X153893333Y-96073523D02*
X153917142Y-96168761D01*
X153917142Y-96168761D02*
X153940952Y-96216380D01*
X153940952Y-96216380D02*
X153988571Y-96264000D01*
X153988571Y-96264000D02*
X154059999Y-96287809D01*
X154059999Y-96287809D02*
X154179047Y-96287809D01*
X153464761Y-95787809D02*
X153559999Y-95787809D01*
X153559999Y-95787809D02*
X153607618Y-95811619D01*
X153607618Y-95811619D02*
X153631428Y-95835428D01*
X153631428Y-95835428D02*
X153679047Y-95906857D01*
X153679047Y-95906857D02*
X153702856Y-96002095D01*
X153702856Y-96002095D02*
X153702856Y-96192571D01*
X153702856Y-96192571D02*
X153679047Y-96240190D01*
X153679047Y-96240190D02*
X153655237Y-96264000D01*
X153655237Y-96264000D02*
X153607618Y-96287809D01*
X153607618Y-96287809D02*
X153512380Y-96287809D01*
X153512380Y-96287809D02*
X153464761Y-96264000D01*
X153464761Y-96264000D02*
X153440952Y-96240190D01*
X153440952Y-96240190D02*
X153417142Y-96192571D01*
X153417142Y-96192571D02*
X153417142Y-96073523D01*
X153417142Y-96073523D02*
X153440952Y-96025904D01*
X153440952Y-96025904D02*
X153464761Y-96002095D01*
X153464761Y-96002095D02*
X153512380Y-95978285D01*
X153512380Y-95978285D02*
X153607618Y-95978285D01*
X153607618Y-95978285D02*
X153655237Y-96002095D01*
X153655237Y-96002095D02*
X153679047Y-96025904D01*
X153679047Y-96025904D02*
X153702856Y-96073523D01*
X146559047Y-96287809D02*
X146559047Y-95787809D01*
X146559047Y-95787809D02*
X146439999Y-95787809D01*
X146439999Y-95787809D02*
X146368571Y-95811619D01*
X146368571Y-95811619D02*
X146320952Y-95859238D01*
X146320952Y-95859238D02*
X146297142Y-95906857D01*
X146297142Y-95906857D02*
X146273333Y-96002095D01*
X146273333Y-96002095D02*
X146273333Y-96073523D01*
X146273333Y-96073523D02*
X146297142Y-96168761D01*
X146297142Y-96168761D02*
X146320952Y-96216380D01*
X146320952Y-96216380D02*
X146368571Y-96264000D01*
X146368571Y-96264000D02*
X146439999Y-96287809D01*
X146439999Y-96287809D02*
X146559047Y-96287809D01*
X145820952Y-95787809D02*
X146059047Y-95787809D01*
X146059047Y-95787809D02*
X146082856Y-96025904D01*
X146082856Y-96025904D02*
X146059047Y-96002095D01*
X146059047Y-96002095D02*
X146011428Y-95978285D01*
X146011428Y-95978285D02*
X145892380Y-95978285D01*
X145892380Y-95978285D02*
X145844761Y-96002095D01*
X145844761Y-96002095D02*
X145820952Y-96025904D01*
X145820952Y-96025904D02*
X145797142Y-96073523D01*
X145797142Y-96073523D02*
X145797142Y-96192571D01*
X145797142Y-96192571D02*
X145820952Y-96240190D01*
X145820952Y-96240190D02*
X145844761Y-96264000D01*
X145844761Y-96264000D02*
X145892380Y-96287809D01*
X145892380Y-96287809D02*
X146011428Y-96287809D01*
X146011428Y-96287809D02*
X146059047Y-96264000D01*
X146059047Y-96264000D02*
X146082856Y-96240190D01*
X155246666Y-61751809D02*
X155246666Y-62108952D01*
X155246666Y-62108952D02*
X155270475Y-62180380D01*
X155270475Y-62180380D02*
X155318094Y-62228000D01*
X155318094Y-62228000D02*
X155389523Y-62251809D01*
X155389523Y-62251809D02*
X155437142Y-62251809D01*
X154746666Y-62251809D02*
X155032380Y-62251809D01*
X154889523Y-62251809D02*
X154889523Y-61751809D01*
X154889523Y-61751809D02*
X154937142Y-61823238D01*
X154937142Y-61823238D02*
X154984761Y-61870857D01*
X154984761Y-61870857D02*
X155032380Y-61894666D01*
X144636809Y-103512381D02*
X144398714Y-103345715D01*
X144636809Y-103226667D02*
X144136809Y-103226667D01*
X144136809Y-103226667D02*
X144136809Y-103417143D01*
X144136809Y-103417143D02*
X144160619Y-103464762D01*
X144160619Y-103464762D02*
X144184428Y-103488572D01*
X144184428Y-103488572D02*
X144232047Y-103512381D01*
X144232047Y-103512381D02*
X144303476Y-103512381D01*
X144303476Y-103512381D02*
X144351095Y-103488572D01*
X144351095Y-103488572D02*
X144374904Y-103464762D01*
X144374904Y-103464762D02*
X144398714Y-103417143D01*
X144398714Y-103417143D02*
X144398714Y-103226667D01*
X144136809Y-103655239D02*
X144636809Y-103821905D01*
X144636809Y-103821905D02*
X144136809Y-103988572D01*
X144184428Y-104131429D02*
X144160619Y-104155238D01*
X144160619Y-104155238D02*
X144136809Y-104202857D01*
X144136809Y-104202857D02*
X144136809Y-104321905D01*
X144136809Y-104321905D02*
X144160619Y-104369524D01*
X144160619Y-104369524D02*
X144184428Y-104393333D01*
X144184428Y-104393333D02*
X144232047Y-104417143D01*
X144232047Y-104417143D02*
X144279666Y-104417143D01*
X144279666Y-104417143D02*
X144351095Y-104393333D01*
X144351095Y-104393333D02*
X144636809Y-104107619D01*
X144636809Y-104107619D02*
X144636809Y-104417143D01*
D13*
G04 #@! TO.C,RV5*
X145130000Y-112305000D02*
X154870000Y-112305000D01*
X145130000Y-123895000D02*
X145130000Y-119314000D01*
X145130000Y-123895000D02*
X146620000Y-123895000D01*
X145134000Y-115250000D02*
X145130000Y-112305000D01*
X148340000Y-123895000D02*
X149170000Y-123895000D01*
X150790000Y-123895000D02*
X151320000Y-123895000D01*
X153690000Y-123895000D02*
X154870000Y-123895000D01*
X154870000Y-115250000D02*
X154870000Y-112305000D01*
X154880000Y-123895000D02*
X154880000Y-119314000D01*
G04 #@! TO.C,J4*
X140420000Y-63750000D02*
X140420000Y-74250000D01*
X140420000Y-63750000D02*
X144200000Y-63750000D01*
X140420000Y-74250000D02*
X144120000Y-74250000D01*
X145640000Y-63750000D02*
X149420000Y-63750000D01*
X145720000Y-74250000D02*
X149420000Y-74250000D01*
X148730000Y-61492000D02*
X147870000Y-61492000D01*
X148730000Y-61492000D02*
X148730000Y-62292000D01*
X149420000Y-63750000D02*
X149420000Y-74250000D01*
X146720000Y-68250000D02*
G75*
G02*
X143120000Y-68250000I-1800000J0D01*
G01*
X143120000Y-68250000D02*
G75*
G02*
X146720000Y-68250000I1800000J0D01*
G01*
G04 #@! TO.C,RV1*
X145040000Y-106915000D02*
X154960000Y-106915000D01*
X145040000Y-112135000D02*
X145040000Y-106915000D01*
X146960000Y-112135000D02*
X145040000Y-112135000D01*
X154960000Y-106915000D02*
X154960000Y-112135000D01*
X154960000Y-112135000D02*
X147960000Y-112135000D01*
X147700000Y-112455000D02*
X147220000Y-112455000D01*
X147460000Y-112125000D01*
X147700000Y-112455000D01*
G36*
X147700000Y-112455000D02*
G01*
X147220000Y-112455000D01*
X147460000Y-112125000D01*
X147700000Y-112455000D01*
G37*
G04 #@! TO.C,J5*
X150580000Y-63750000D02*
X150580000Y-74250000D01*
X150580000Y-63750000D02*
X154360000Y-63750000D01*
X150580000Y-74250000D02*
X154280000Y-74250000D01*
X155800000Y-63750000D02*
X159580000Y-63750000D01*
X155880000Y-74250000D02*
X159580000Y-74250000D01*
X158890000Y-61492000D02*
X158030000Y-61492000D01*
X158890000Y-61492000D02*
X158890000Y-62292000D01*
X159580000Y-63750000D02*
X159580000Y-74250000D01*
X156880000Y-68250000D02*
G75*
G02*
X153280000Y-68250000I-1800000J0D01*
G01*
X153280000Y-68250000D02*
G75*
G02*
X156880000Y-68250000I1800000J0D01*
G01*
G04 #@! TO.C,J8*
X143242000Y-127305000D02*
X143242000Y-128165000D01*
X143242000Y-127305000D02*
X144042000Y-127305000D01*
X145500000Y-126615000D02*
X156000000Y-126615000D01*
X145500000Y-130395000D02*
X145500000Y-126615000D01*
X145500000Y-135615000D02*
X145500000Y-131835000D01*
X145500000Y-135615000D02*
X156000000Y-135615000D01*
X156000000Y-130315000D02*
X156000000Y-126615000D01*
X156000000Y-135615000D02*
X156000000Y-131915000D01*
X151800000Y-131115000D02*
G75*
G02*
X148200000Y-131115000I-1800000J0D01*
G01*
X148200000Y-131115000D02*
G75*
G02*
X151800000Y-131115000I1800000J0D01*
G01*
G04 #@! TO.C,J3*
X150580000Y-138680000D02*
X150580000Y-149180000D01*
X150580000Y-138680000D02*
X154360000Y-138680000D01*
X150580000Y-149180000D02*
X154280000Y-149180000D01*
X151270000Y-136449000D02*
X151270000Y-137309000D01*
X151270000Y-136449000D02*
X152070000Y-136449000D01*
X155800000Y-138680000D02*
X159580000Y-138680000D01*
X155880000Y-149180000D02*
X159580000Y-149180000D01*
X159580000Y-138680000D02*
X159580000Y-149180000D01*
X156880000Y-143180000D02*
G75*
G02*
X153280000Y-143180000I-1800000J0D01*
G01*
X153280000Y-143180000D02*
G75*
G02*
X156880000Y-143180000I1800000J0D01*
G01*
G04 #@! TO.C,J6*
X140420000Y-138680000D02*
X140420000Y-149180000D01*
X140420000Y-138680000D02*
X144200000Y-138680000D01*
X140420000Y-149180000D02*
X144120000Y-149180000D01*
X145640000Y-138680000D02*
X149420000Y-138680000D01*
X145720000Y-149180000D02*
X149420000Y-149180000D01*
X148730000Y-136422000D02*
X147870000Y-136422000D01*
X148730000Y-136422000D02*
X148730000Y-137222000D01*
X149420000Y-138680000D02*
X149420000Y-149180000D01*
X146720000Y-143180000D02*
G75*
G02*
X143120000Y-143180000I-1800000J0D01*
G01*
X143120000Y-143180000D02*
G75*
G02*
X146720000Y-143180000I1800000J0D01*
G01*
G04 #@! TO.C,J7*
X140420000Y-61320000D02*
X140420000Y-50820000D01*
X141110000Y-63578000D02*
X141110000Y-62778000D01*
X141110000Y-63578000D02*
X141970000Y-63578000D01*
X144120000Y-50820000D02*
X140420000Y-50820000D01*
X144200000Y-61320000D02*
X140420000Y-61320000D01*
X149420000Y-50820000D02*
X145720000Y-50820000D01*
X149420000Y-61320000D02*
X145640000Y-61320000D01*
X149420000Y-61320000D02*
X149420000Y-50820000D01*
X146720000Y-56820000D02*
G75*
G02*
X143120000Y-56820000I-1800000J0D01*
G01*
X143120000Y-56820000D02*
G75*
G02*
X146720000Y-56820000I1800000J0D01*
G01*
G04 #@! TO.C,D6*
X152250000Y-97650000D02*
X152250000Y-97494000D01*
X152250000Y-99966000D02*
X152250000Y-99810000D01*
X152250000Y-97494484D02*
G75*
G02*
X155481437Y-97650000I1560000J-1235516D01*
G01*
X152769039Y-97650000D02*
G75*
G02*
X154850961Y-97650000I1040961J-1080000D01*
G01*
X154850961Y-99810000D02*
G75*
G02*
X152769039Y-99810000I-1040961J1080000D01*
G01*
X155481437Y-99810000D02*
G75*
G02*
X152250000Y-99965516I-1671437J1080000D01*
G01*
G04 #@! TO.C,D5*
X144630000Y-97650000D02*
X144630000Y-97494000D01*
X144630000Y-99966000D02*
X144630000Y-99810000D01*
X144630000Y-97494484D02*
G75*
G02*
X147861437Y-97650000I1560000J-1235516D01*
G01*
X145149039Y-97650000D02*
G75*
G02*
X147230961Y-97650000I1040961J-1080000D01*
G01*
X147230961Y-99810000D02*
G75*
G02*
X145149039Y-99810000I-1040961J1080000D01*
G01*
X147861437Y-99810000D02*
G75*
G02*
X144630000Y-99965516I-1671437J1080000D01*
G01*
G04 #@! TO.C,J1*
X150580000Y-61320000D02*
X150580000Y-50820000D01*
X151270000Y-63578000D02*
X151270000Y-62778000D01*
X151270000Y-63578000D02*
X152130000Y-63578000D01*
X154280000Y-50820000D02*
X150580000Y-50820000D01*
X154360000Y-61320000D02*
X150580000Y-61320000D01*
X159580000Y-50820000D02*
X155880000Y-50820000D01*
X159580000Y-61320000D02*
X155800000Y-61320000D01*
X159580000Y-61320000D02*
X159580000Y-50820000D01*
X156880000Y-56820000D02*
G75*
G02*
X153280000Y-56820000I-1800000J0D01*
G01*
X153280000Y-56820000D02*
G75*
G02*
X156880000Y-56820000I1800000J0D01*
G01*
G04 #@! TO.C,RV2*
X145040000Y-101200000D02*
X154960000Y-101200000D01*
X145040000Y-106420000D02*
X145040000Y-101200000D01*
X146960000Y-106420000D02*
X145040000Y-106420000D01*
X154960000Y-101200000D02*
X154960000Y-106420000D01*
X154960000Y-106420000D02*
X147960000Y-106420000D01*
X147700000Y-106740000D02*
X147220000Y-106740000D01*
X147460000Y-106410000D01*
X147700000Y-106740000D01*
G36*
X147700000Y-106740000D02*
G01*
X147220000Y-106740000D01*
X147460000Y-106410000D01*
X147700000Y-106740000D01*
G37*
G04 #@! TD*
M02*
