G04 #@! TF.GenerationSoftware,KiCad,Pcbnew,9.0.7*
G04 #@! TF.CreationDate,2026-01-04T21:44:44+01:00*
G04 #@! TF.ProjectId,board_B,626f6172-645f-4422-9e6b-696361645f70,rev?*
G04 #@! TF.SameCoordinates,Original*
G04 #@! TF.FileFunction,Paste,Top*
G04 #@! TF.FilePolarity,Positive*
%FSLAX46Y46*%
G04 Gerber Fmt 4.6, Leading zero omitted, Abs format (unit mm)*
G04 Created by KiCad (PCBNEW 9.0.7) date 2026-01-04 21:44:44*
%MOMM*%
%LPD*%
G01*
G04 APERTURE LIST*
G04 Aperture macros list*
%AMRoundRect*
0 Rectangle with rounded corners*
0 $1 Rounding radius*
0 $2 $3 $4 $5 $6 $7 $8 $9 X,Y pos of 4 corners*
0 Add a 4 corners polygon primitive as box body*
4,1,4,$2,$3,$4,$5,$6,$7,$8,$9,$2,$3,0*
0 Add four circle primitives for the rounded corners*
1,1,$1+$1,$2,$3*
1,1,$1+$1,$4,$5*
1,1,$1+$1,$6,$7*
1,1,$1+$1,$8,$9*
0 Add four rect primitives between the rounded corners*
20,1,$1+$1,$2,$3,$4,$5,0*
20,1,$1+$1,$4,$5,$6,$7,0*
20,1,$1+$1,$6,$7,$8,$9,0*
20,1,$1+$1,$8,$9,$2,$3,0*%
G04 Aperture macros list end*
%ADD10RoundRect,0.200000X-0.275000X0.200000X-0.275000X-0.200000X0.275000X-0.200000X0.275000X0.200000X0*%
%ADD11RoundRect,0.112500X0.187500X0.112500X-0.187500X0.112500X-0.187500X-0.112500X0.187500X-0.112500X0*%
%ADD12RoundRect,0.200000X0.200000X0.275000X-0.200000X0.275000X-0.200000X-0.275000X0.200000X-0.275000X0*%
%ADD13RoundRect,0.200000X0.275000X-0.200000X0.275000X0.200000X-0.275000X0.200000X-0.275000X-0.200000X0*%
%ADD14RoundRect,0.150000X-0.825000X-0.150000X0.825000X-0.150000X0.825000X0.150000X-0.825000X0.150000X0*%
%ADD15RoundRect,0.225000X-0.225000X-0.250000X0.225000X-0.250000X0.225000X0.250000X-0.225000X0.250000X0*%
%ADD16RoundRect,0.225000X0.250000X-0.225000X0.250000X0.225000X-0.250000X0.225000X-0.250000X-0.225000X0*%
%ADD17RoundRect,0.250000X0.250000X0.475000X-0.250000X0.475000X-0.250000X-0.475000X0.250000X-0.475000X0*%
%ADD18RoundRect,0.200000X-0.200000X-0.275000X0.200000X-0.275000X0.200000X0.275000X-0.200000X0.275000X0*%
%ADD19RoundRect,0.250000X-0.250000X-0.475000X0.250000X-0.475000X0.250000X0.475000X-0.250000X0.475000X0*%
%ADD20RoundRect,0.225000X0.225000X0.250000X-0.225000X0.250000X-0.225000X-0.250000X0.225000X-0.250000X0*%
%ADD21RoundRect,0.225000X-0.250000X0.225000X-0.250000X-0.225000X0.250000X-0.225000X0.250000X0.225000X0*%
%ADD22RoundRect,0.250000X0.475000X-0.250000X0.475000X0.250000X-0.475000X0.250000X-0.475000X-0.250000X0*%
%ADD23RoundRect,0.112500X-0.187500X-0.112500X0.187500X-0.112500X0.187500X0.112500X-0.187500X0.112500X0*%
%ADD24RoundRect,0.250000X-0.900000X-0.675000X0.900000X-0.675000X0.900000X0.675000X-0.900000X0.675000X0*%
G04 APERTURE END LIST*
D10*
G04 #@! TO.C,R7*
X145428000Y-141593000D03*
X145428000Y-143243000D03*
G04 #@! TD*
D11*
G04 #@! TO.C,D1*
X155495000Y-57455000D03*
X153395000Y-57455000D03*
G04 #@! TD*
D12*
G04 #@! TO.C,R17*
X146126000Y-122987000D03*
X144476000Y-122987000D03*
G04 #@! TD*
G04 #@! TO.C,R5*
X148476000Y-60249000D03*
X146826000Y-60249000D03*
G04 #@! TD*
D13*
G04 #@! TO.C,R12*
X141872000Y-142989000D03*
X141872000Y-141339000D03*
G04 #@! TD*
G04 #@! TO.C,R14*
X158255000Y-143992000D03*
X158255000Y-142342000D03*
G04 #@! TD*
D14*
G04 #@! TO.C,U4*
X147525000Y-111430000D03*
X147525000Y-112700000D03*
X147525000Y-113970000D03*
X147525000Y-115240000D03*
X152475000Y-115240000D03*
X152475000Y-113970000D03*
X152475000Y-112700000D03*
X152475000Y-111430000D03*
G04 #@! TD*
D13*
G04 #@! TO.C,R16*
X144539000Y-121526000D03*
X144539000Y-119876000D03*
G04 #@! TD*
D15*
G04 #@! TO.C,C12*
X154559000Y-145720000D03*
X156109000Y-145720000D03*
G04 #@! TD*
D16*
G04 #@! TO.C,C14*
X146063000Y-121476000D03*
X146063000Y-119926000D03*
G04 #@! TD*
D17*
G04 #@! TO.C,C6*
X151905000Y-83490000D03*
X150005000Y-83490000D03*
G04 #@! TD*
D18*
G04 #@! TO.C,R4*
X152985000Y-133528000D03*
X154635000Y-133528000D03*
G04 #@! TD*
D19*
G04 #@! TO.C,C4*
X146002000Y-83490000D03*
X147902000Y-83490000D03*
G04 #@! TD*
D18*
G04 #@! TO.C,R6*
X144730000Y-54915000D03*
X146380000Y-54915000D03*
G04 #@! TD*
D12*
G04 #@! TO.C,R25*
X154635000Y-135052000D03*
X152985000Y-135052000D03*
G04 #@! TD*
D10*
G04 #@! TO.C,R18*
X154445000Y-124575000D03*
X154445000Y-126225000D03*
G04 #@! TD*
D18*
G04 #@! TO.C,R15*
X154509000Y-144069000D03*
X156159000Y-144069000D03*
G04 #@! TD*
D20*
G04 #@! TO.C,C10*
X145314000Y-146228000D03*
X143764000Y-146228000D03*
G04 #@! TD*
D14*
G04 #@! TO.C,U3*
X147525000Y-142037000D03*
X147525000Y-143307000D03*
X147525000Y-144577000D03*
X147525000Y-145847000D03*
X152475000Y-145847000D03*
X152475000Y-144577000D03*
X152475000Y-143307000D03*
X152475000Y-142037000D03*
G04 #@! TD*
D12*
G04 #@! TO.C,R10*
X153111000Y-148006000D03*
X151461000Y-148006000D03*
G04 #@! TD*
D21*
G04 #@! TO.C,C13*
X144539000Y-125006000D03*
X144539000Y-126556000D03*
G04 #@! TD*
D18*
G04 #@! TO.C,R1*
X153620000Y-54915000D03*
X155270000Y-54915000D03*
G04 #@! TD*
D22*
G04 #@! TO.C,C5*
X157620000Y-85202000D03*
X157620000Y-83302000D03*
G04 #@! TD*
D13*
G04 #@! TO.C,R3*
X148730000Y-107175000D03*
X148730000Y-105525000D03*
G04 #@! TD*
D21*
G04 #@! TO.C,C17*
X151778000Y-127419000D03*
X151778000Y-128969000D03*
G04 #@! TD*
D10*
G04 #@! TO.C,R8*
X147905000Y-71235000D03*
X147905000Y-72885000D03*
G04 #@! TD*
D16*
G04 #@! TO.C,C2*
X154445000Y-111570000D03*
X154445000Y-110020000D03*
G04 #@! TD*
D10*
G04 #@! TO.C,R23*
X148476000Y-127369000D03*
X148476000Y-129019000D03*
G04 #@! TD*
D18*
G04 #@! TO.C,R2*
X150191000Y-85268000D03*
X151841000Y-85268000D03*
G04 #@! TD*
D23*
G04 #@! TO.C,D3*
X153776000Y-83490000D03*
X155876000Y-83490000D03*
G04 #@! TD*
D21*
G04 #@! TO.C,C11*
X158255000Y-145440000D03*
X158255000Y-146990000D03*
G04 #@! TD*
D24*
G04 #@! TO.C,U1*
X145777000Y-87808000D03*
X145777000Y-90348000D03*
X145777000Y-92888000D03*
X145777000Y-95428000D03*
X154477000Y-95428000D03*
X154477000Y-92888000D03*
X154477000Y-90348000D03*
X154477000Y-87808000D03*
G04 #@! TD*
D20*
G04 #@! TO.C,C8*
X152540000Y-140386000D03*
X150990000Y-140386000D03*
G04 #@! TD*
D10*
G04 #@! TO.C,R9*
X150635000Y-71235000D03*
X150635000Y-72885000D03*
G04 #@! TD*
D21*
G04 #@! TO.C,C7*
X141872000Y-144691000D03*
X141872000Y-146241000D03*
G04 #@! TD*
D13*
G04 #@! TO.C,R11*
X155080000Y-102730000D03*
X155080000Y-101080000D03*
G04 #@! TD*
D12*
G04 #@! TO.C,R27*
X152730000Y-101270000D03*
X151080000Y-101270000D03*
G04 #@! TD*
D21*
G04 #@! TO.C,C3*
X144920000Y-112560000D03*
X144920000Y-114110000D03*
G04 #@! TD*
D13*
G04 #@! TO.C,R24*
X142825000Y-72885000D03*
X142825000Y-71235000D03*
G04 #@! TD*
D15*
G04 #@! TO.C,C1*
X154064000Y-85268000D03*
X155614000Y-85268000D03*
G04 #@! TD*
G04 #@! TO.C,C9*
X147320000Y-147498000D03*
X148870000Y-147498000D03*
G04 #@! TD*
D23*
G04 #@! TO.C,D2*
X142092000Y-83490000D03*
X144192000Y-83490000D03*
G04 #@! TD*
D12*
G04 #@! TO.C,R13*
X145364000Y-144704000D03*
X143714000Y-144704000D03*
G04 #@! TD*
M02*
