M48
; DRILL file {KiCad 9.0.7} date 2026-01-04T21:44:44+0100
; FORMAT={-:-/ absolute / metric / decimal}
; #@! TF.CreationDate,2026-01-04T21:44:44+01:00
; #@! TF.GenerationSoftware,Kicad,Pcbnew,9.0.7
; #@! TF.FileFunction,Plated,1,2,PTH
FMAT,2
METRIC
; #@! TA.AperFunction,Plated,PTH,ViaDrill
T1C0.300
; #@! TA.AperFunction,Plated,PTH,ComponentDrill
T2C0.700
; #@! TA.AperFunction,Plated,PTH,ComponentDrill
T3C0.850
; #@! TA.AperFunction,Plated,PTH,ComponentDrill
T4C0.900
; #@! TA.AperFunction,Plated,PTH,ComponentDrill
T5C1.000
; #@! TA.AperFunction,Plated,PTH,ComponentDrill
T6C1.100
; #@! TA.AperFunction,Plated,PTH,ComponentDrill
T7C1.220
; #@! TA.AperFunction,Plated,PTH,ComponentDrill
T8C1.420
; #@! TA.AperFunction,Plated,PTH,ComponentDrill
T9C1.430
%
G90
G05
T1
X141.805Y-63.978
X142.761Y-148.387
X144.158Y-111.049
X144.285Y-100.889
X145.397Y-124.115
X145.452Y-132.258
X146.385Y-59.236
X146.784Y-107.564
X146.825Y-86.03
X146.864Y-84.76
X146.938Y-127.629
X147.46Y-140.132
X147.593Y-116.611
X147.695Y-61.162
X147.841Y-135.052
X147.954Y-85.313
X147.968Y-117.78
X148.028Y-122.979
X148.476Y-130.099
X148.491Y-118.529
X149.111Y-120.447
X149.292Y-136.541
X149.365Y-102.346
X149.403Y-137.477
X149.456Y-112.863
X149.865Y-128.23
X150.0Y-98.857
X150.0Y-148.895
X150.315Y-107.27
X150.494Y-136.541
X150.508Y-128.956
X151.232Y-126.318
X151.27Y-81.741
X151.98Y-133.988
X152.159Y-102.413
X152.54Y-122.225
X152.54Y-139.208
X153.859Y-129.1
X155.67Y-112.065
X155.842Y-97.206
X156.985Y-87.173
X157.112Y-148.26
X157.888Y-64.105
X158.636Y-73.711
X158.802Y-97.997
X158.993Y-132.445
T2
X142.38Y-132.385
X142.38Y-133.655
X142.38Y-134.925
X142.38Y-136.195
X143.65Y-132.385
X143.65Y-133.655
X143.65Y-134.925
X143.65Y-136.195
T3
X147.46Y-103.81
X147.46Y-109.525
X150.0Y-103.81
X150.0Y-109.525
X152.54Y-103.81
X152.54Y-109.525
T4
X144.92Y-98.73
X147.46Y-98.73
X152.54Y-98.73
X155.08Y-98.73
T5
X142.38Y-89.205
X142.38Y-91.745
X142.38Y-94.285
X142.38Y-96.825
X142.38Y-99.365
X142.38Y-101.905
X142.38Y-104.445
X142.38Y-106.985
X142.38Y-109.525
X142.38Y-112.065
X142.38Y-114.605
X142.38Y-117.145
X142.38Y-119.685
X142.38Y-122.225
X142.38Y-124.765
X144.92Y-77.775
X144.92Y-80.315
X147.46Y-77.775
X147.46Y-80.315
X147.5Y-124.775
X150.0Y-77.775
X150.0Y-80.315
X150.0Y-124.775
X152.5Y-124.775
X152.54Y-77.775
X152.54Y-80.315
X155.08Y-77.775
X155.08Y-80.315
X157.62Y-89.205
X157.62Y-91.745
X157.62Y-94.285
X157.62Y-96.825
X157.62Y-99.365
X157.62Y-101.905
X157.62Y-104.445
X157.62Y-106.985
X157.62Y-109.525
X157.62Y-112.065
X157.62Y-114.605
X157.62Y-117.145
X157.62Y-119.685
X157.62Y-122.225
X157.62Y-124.765
X157.62Y-131.623
X157.62Y-134.163
X157.62Y-136.703
T7
X142.38Y-62.408
X144.412Y-128.575
X147.46Y-62.662
X147.46Y-137.592
X152.54Y-62.408
X152.54Y-137.592
X157.62Y-62.662
T8
X144.92Y-60.2
X144.92Y-64.87
X144.92Y-139.8
X146.62Y-131.115
X155.08Y-60.2
X155.08Y-64.87
X155.08Y-139.8
T9
X144.92Y-51.9
X144.92Y-73.17
X144.92Y-148.1
X154.92Y-131.115
X155.08Y-51.9
X155.08Y-73.17
X155.08Y-148.1
T6
X145.2Y-116.675G85X145.2Y-117.875
G05
X154.8Y-116.675G85X154.8Y-117.875
G05
M30
