G04 #@! TF.GenerationSoftware,KiCad,Pcbnew,9.0.7*
G04 #@! TF.CreationDate,2026-02-02T15:01:54+01:00*
G04 #@! TF.ProjectId,board_B,626f6172-645f-4422-9e6b-696361645f70,3*
G04 #@! TF.SameCoordinates,Original*
G04 #@! TF.FileFunction,Copper,L2,Bot*
G04 #@! TF.FilePolarity,Positive*
%FSLAX46Y46*%
G04 Gerber Fmt 4.6, Leading zero omitted, Abs format (unit mm)*
G04 Created by KiCad (PCBNEW 9.0.7) date 2026-02-02 15:01:54*
%MOMM*%
%LPD*%
G01*
G04 APERTURE LIST*
G04 Aperture macros list*
%AMRoundRect*
0 Rectangle with rounded corners*
0 $1 Rounding radius*
0 $2 $3 $4 $5 $6 $7 $8 $9 X,Y pos of 4 corners*
0 Add a 4 corners polygon primitive as box body*
4,1,4,$2,$3,$4,$5,$6,$7,$8,$9,$2,$3,0*
0 Add four circle primitives for the rounded corners*
1,1,$1+$1,$2,$3*
1,1,$1+$1,$4,$5*
1,1,$1+$1,$6,$7*
1,1,$1+$1,$8,$9*
0 Add four rect primitives between the rounded corners*
20,1,$1+$1,$2,$3,$4,$5,0*
20,1,$1+$1,$4,$5,$6,$7,0*
20,1,$1+$1,$6,$7,$8,$9,0*
20,1,$1+$1,$8,$9,$2,$3,0*%
G04 Aperture macros list end*
G04 #@! TA.AperFunction,ComponentPad*
%ADD10RoundRect,0.250000X-0.600000X0.600000X-0.600000X-0.600000X0.600000X-0.600000X0.600000X0.600000X0*%
G04 #@! TD*
G04 #@! TA.AperFunction,ComponentPad*
%ADD11C,1.700000*%
G04 #@! TD*
G04 #@! TA.AperFunction,ComponentPad*
%ADD12R,1.000000X1.000000*%
G04 #@! TD*
G04 #@! TA.AperFunction,ComponentPad*
%ADD13C,1.000000*%
G04 #@! TD*
G04 #@! TA.AperFunction,ComponentPad*
%ADD14R,1.700000X1.700000*%
G04 #@! TD*
G04 #@! TA.AperFunction,ComponentPad*
%ADD15R,1.600000X1.600000*%
G04 #@! TD*
G04 #@! TA.AperFunction,ComponentPad*
%ADD16O,1.600000X1.600000*%
G04 #@! TD*
G04 #@! TA.AperFunction,ComponentPad*
%ADD17R,1.930000X1.830000*%
G04 #@! TD*
G04 #@! TA.AperFunction,ComponentPad*
%ADD18C,2.130000*%
G04 #@! TD*
G04 #@! TA.AperFunction,ComponentPad*
%ADD19R,1.800000X1.800000*%
G04 #@! TD*
G04 #@! TA.AperFunction,ComponentPad*
%ADD20C,1.800000*%
G04 #@! TD*
G04 #@! TA.AperFunction,ComponentPad*
%ADD21RoundRect,0.412500X-0.412500X-0.412500X0.412500X-0.412500X0.412500X0.412500X-0.412500X0.412500X0*%
G04 #@! TD*
G04 #@! TA.AperFunction,ComponentPad*
%ADD22C,1.650000*%
G04 #@! TD*
G04 #@! TA.AperFunction,ComponentPad*
%ADD23R,1.830000X1.930000*%
G04 #@! TD*
G04 #@! TA.AperFunction,ComponentPad*
%ADD24O,2.720000X3.786000*%
G04 #@! TD*
G04 #@! TA.AperFunction,ViaPad*
%ADD25C,0.600000*%
G04 #@! TD*
G04 #@! TA.AperFunction,Conductor*
%ADD26C,0.200000*%
G04 #@! TD*
G04 APERTURE END LIST*
D10*
G04 #@! TO.P,J2,1,-12V*
G04 #@! TO.N,-12V*
X155080000Y-77775000D03*
D11*
G04 #@! TO.P,J2,2,-12V*
X155080000Y-80315000D03*
G04 #@! TO.P,J2,3,GND*
G04 #@! TO.N,B_GND*
X152540000Y-77775000D03*
G04 #@! TO.P,J2,4,GND*
X152540000Y-80315000D03*
G04 #@! TO.P,J2,5,GND*
X150000000Y-77775000D03*
G04 #@! TO.P,J2,6,GND*
X150000000Y-80315000D03*
G04 #@! TO.P,J2,7,GND*
X147460000Y-77775000D03*
G04 #@! TO.P,J2,8,GND*
X147460000Y-80315000D03*
G04 #@! TO.P,J2,9,+12V*
G04 #@! TO.N,+12V*
X144920000Y-77775000D03*
G04 #@! TO.P,J2,10,+12V*
X144920000Y-80315000D03*
G04 #@! TD*
D12*
G04 #@! TO.P,J9,1,Pin_1*
G04 #@! TO.N,EXP1*
X142380000Y-136195000D03*
D13*
G04 #@! TO.P,J9,2,Pin_2*
G04 #@! TO.N,B_+12V*
X143650000Y-136195000D03*
G04 #@! TO.P,J9,3,Pin_3*
G04 #@! TO.N,EXP3*
X142380000Y-134925000D03*
G04 #@! TO.P,J9,4,Pin_4*
G04 #@! TO.N,B_GND*
X143650000Y-134925000D03*
G04 #@! TO.P,J9,5,Pin_5*
G04 #@! TO.N,EXP5*
X142380000Y-133655000D03*
G04 #@! TO.P,J9,6,Pin_6*
G04 #@! TO.N,B_-12V*
X143650000Y-133655000D03*
G04 #@! TO.P,J9,7,Pin_7*
G04 #@! TO.N,EXP7*
X142380000Y-132385000D03*
G04 #@! TO.P,J9,8,Pin_8*
G04 #@! TO.N,B_+5V*
X143650000Y-132385000D03*
G04 #@! TD*
D14*
G04 #@! TO.P,JP1,1,A*
G04 #@! TO.N,B_+5V*
X157620000Y-131623000D03*
D11*
G04 #@! TO.P,JP1,2,C*
G04 #@! TO.N,Net-(JP1-C)*
X157620000Y-134163000D03*
G04 #@! TO.P,JP1,3,B*
G04 #@! TO.N,B_GND*
X157620000Y-136703000D03*
G04 #@! TD*
D15*
G04 #@! TO.P,A1,1,D1/TX*
G04 #@! TO.N,unconnected-(A1-D1{slash}TX-Pad1)*
X142380000Y-89205000D03*
D16*
G04 #@! TO.P,A1,2,D0/RX*
G04 #@! TO.N,MIDI_IN*
X142380000Y-91745000D03*
G04 #@! TO.P,A1,3,~{RESET}*
G04 #@! TO.N,unconnected-(A1-~{RESET}-Pad3)*
X142380000Y-94285000D03*
G04 #@! TO.P,A1,4,GND*
G04 #@! TO.N,B_GND*
X142380000Y-96825000D03*
G04 #@! TO.P,A1,5,D2*
G04 #@! TO.N,unconnected-(A1-D2-Pad5)*
X142380000Y-99365000D03*
G04 #@! TO.P,A1,6,D3*
G04 #@! TO.N,EXP1*
X142380000Y-101905000D03*
G04 #@! TO.P,A1,7,D4*
G04 #@! TO.N,unconnected-(A1-D4-Pad7)*
X142380000Y-104445000D03*
G04 #@! TO.P,A1,8,D5*
G04 #@! TO.N,EXP3*
X142380000Y-106985000D03*
G04 #@! TO.P,A1,9,D6*
G04 #@! TO.N,EXP7*
X142380000Y-109525000D03*
G04 #@! TO.P,A1,10,D7*
G04 #@! TO.N,CLOCK2*
X142380000Y-112065000D03*
G04 #@! TO.P,A1,11,D8*
G04 #@! TO.N,CLOCK*
X142380000Y-114605000D03*
G04 #@! TO.P,A1,12,D9*
G04 #@! TO.N,PITCH*
X142380000Y-117145000D03*
G04 #@! TO.P,A1,13,D10*
G04 #@! TO.N,CC*
X142380000Y-119685000D03*
G04 #@! TO.P,A1,14,D11*
G04 #@! TO.N,EXP5*
X142380000Y-122225000D03*
G04 #@! TO.P,A1,15,D12*
G04 #@! TO.N,unconnected-(A1-D12-Pad15)*
X142380000Y-124765000D03*
G04 #@! TO.P,A1,16,D13*
G04 #@! TO.N,unconnected-(A1-D13-Pad16)*
X157620000Y-124765000D03*
G04 #@! TO.P,A1,17,3V3*
G04 #@! TO.N,unconnected-(A1-3V3-Pad17)*
X157620000Y-122225000D03*
G04 #@! TO.P,A1,18,AREF*
G04 #@! TO.N,unconnected-(A1-AREF-Pad18)*
X157620000Y-119685000D03*
G04 #@! TO.P,A1,19,A0*
G04 #@! TO.N,unconnected-(A1-A0-Pad19)*
X157620000Y-117145000D03*
G04 #@! TO.P,A1,20,A1*
G04 #@! TO.N,unconnected-(A1-A1-Pad20)*
X157620000Y-114605000D03*
G04 #@! TO.P,A1,21,A2*
G04 #@! TO.N,unconnected-(A1-A2-Pad21)*
X157620000Y-112065000D03*
G04 #@! TO.P,A1,22,A3*
G04 #@! TO.N,unconnected-(A1-A3-Pad22)*
X157620000Y-109525000D03*
G04 #@! TO.P,A1,23,A4*
G04 #@! TO.N,unconnected-(A1-A4-Pad23)*
X157620000Y-106985000D03*
G04 #@! TO.P,A1,24,A5*
G04 #@! TO.N,GATE*
X157620000Y-104445000D03*
G04 #@! TO.P,A1,25,A6*
G04 #@! TO.N,unconnected-(A1-A6-Pad25)*
X157620000Y-101905000D03*
G04 #@! TO.P,A1,26,A7*
G04 #@! TO.N,unconnected-(A1-A7-Pad26)*
X157620000Y-99365000D03*
G04 #@! TO.P,A1,27,+5V*
G04 #@! TO.N,B_+5V*
X157620000Y-96825000D03*
G04 #@! TO.P,A1,28,~{RESET}*
G04 #@! TO.N,unconnected-(A1-~{RESET}-Pad28)*
X157620000Y-94285000D03*
G04 #@! TO.P,A1,29,GND*
G04 #@! TO.N,B_GND*
X157620000Y-91745000D03*
G04 #@! TO.P,A1,30,VIN*
G04 #@! TO.N,B_+12V*
X157620000Y-89205000D03*
G04 #@! TD*
D17*
G04 #@! TO.P,J4,S*
G04 #@! TO.N,B_GND*
X147460000Y-62662000D03*
D18*
G04 #@! TO.P,J4,T*
G04 #@! TO.N,Net-(J4-PadT)*
X144920000Y-73170000D03*
G04 #@! TO.P,J4,TN*
G04 #@! TO.N,unconnected-(J4-PadTN)*
X144920000Y-64870000D03*
G04 #@! TD*
G04 #@! TO.P,J1,R*
G04 #@! TO.N,Net-(J1-PadR)*
X155080000Y-60200000D03*
D17*
G04 #@! TO.P,J1,S*
G04 #@! TO.N,unconnected-(J1-PadS)*
X152540000Y-62408000D03*
D18*
G04 #@! TO.P,J1,T*
G04 #@! TO.N,Net-(D1-A)*
X155080000Y-51900000D03*
G04 #@! TD*
D19*
G04 #@! TO.P,D6,1,K*
G04 #@! TO.N,Net-(D6-K)*
X152540000Y-98730000D03*
D20*
G04 #@! TO.P,D6,2,A*
G04 #@! TO.N,GATE*
X155080000Y-98730000D03*
G04 #@! TD*
D21*
G04 #@! TO.P,RV1,1,1*
G04 #@! TO.N,Net-(R10-Pad2)*
X147460000Y-109525000D03*
D22*
G04 #@! TO.P,RV1,2,2*
G04 #@! TO.N,Net-(R25-Pad1)*
X150000000Y-109525000D03*
G04 #@! TO.P,RV1,3,3*
X152540000Y-109525000D03*
G04 #@! TD*
D23*
G04 #@! TO.P,J8,S*
G04 #@! TO.N,B_GND*
X144412000Y-128575000D03*
D18*
G04 #@! TO.P,J8,T*
G04 #@! TO.N,Net-(J8-PadT)*
X154920000Y-131115000D03*
G04 #@! TO.P,J8,TN*
G04 #@! TO.N,unconnected-(J8-PadTN)*
X146620000Y-131115000D03*
G04 #@! TD*
G04 #@! TO.P,J7,R*
G04 #@! TO.N,Net-(J7-PadR)*
X144920000Y-60200000D03*
D17*
G04 #@! TO.P,J7,S*
G04 #@! TO.N,B_GND*
X142380000Y-62408000D03*
D18*
G04 #@! TO.P,J7,T*
G04 #@! TO.N,Net-(J7-PadT)*
X144920000Y-51900000D03*
G04 #@! TD*
D17*
G04 #@! TO.P,J3,S*
G04 #@! TO.N,B_GND*
X152540000Y-137592000D03*
D18*
G04 #@! TO.P,J3,T*
G04 #@! TO.N,Net-(J3-PadT)*
X155080000Y-148100000D03*
G04 #@! TO.P,J3,TN*
G04 #@! TO.N,unconnected-(J3-PadTN)*
X155080000Y-139800000D03*
G04 #@! TD*
D17*
G04 #@! TO.P,J5,S*
G04 #@! TO.N,B_GND*
X157620000Y-62662000D03*
D18*
G04 #@! TO.P,J5,T*
G04 #@! TO.N,Net-(J5-PadT)*
X155080000Y-73170000D03*
G04 #@! TO.P,J5,TN*
G04 #@! TO.N,unconnected-(J5-PadTN)*
X155080000Y-64870000D03*
G04 #@! TD*
D21*
G04 #@! TO.P,RV2,1,1*
G04 #@! TO.N,B_+12V*
X147460000Y-103810000D03*
D22*
G04 #@! TO.P,RV2,2,2*
G04 #@! TO.N,Net-(R3-Pad2)*
X150000000Y-103810000D03*
G04 #@! TO.P,RV2,3,3*
G04 #@! TO.N,B_-12V*
X152540000Y-103810000D03*
G04 #@! TD*
D19*
G04 #@! TO.P,D5,1,K*
G04 #@! TO.N,Net-(D5-K)*
X144920000Y-98730000D03*
D20*
G04 #@! TO.P,D5,2,A*
G04 #@! TO.N,CLOCK2*
X147460000Y-98730000D03*
G04 #@! TD*
D17*
G04 #@! TO.P,J6,S*
G04 #@! TO.N,B_GND*
X147460000Y-137592000D03*
D18*
G04 #@! TO.P,J6,T*
G04 #@! TO.N,Net-(J6-PadT)*
X144920000Y-148100000D03*
G04 #@! TO.P,J6,TN*
G04 #@! TO.N,unconnected-(J6-PadTN)*
X144920000Y-139800000D03*
G04 #@! TD*
D24*
G04 #@! TO.P,RV5,*
G04 #@! TO.N,*
X145200000Y-117275000D03*
X154800000Y-117275000D03*
D19*
G04 #@! TO.P,RV5,1,1*
G04 #@! TO.N,Net-(R18-Pad1)*
X152500000Y-124775000D03*
D20*
G04 #@! TO.P,RV5,2,2*
G04 #@! TO.N,Net-(U4B-+)*
X150000000Y-124775000D03*
G04 #@! TO.P,RV5,3,3*
X147500000Y-124775000D03*
G04 #@! TD*
D25*
G04 #@! TO.N,B_GND*
X153556000Y-128448000D03*
X150508000Y-139243000D03*
X155715000Y-87173000D03*
X146698000Y-95047000D03*
X142761000Y-80188000D03*
X149365000Y-89205000D03*
X152032000Y-132004000D03*
X148730000Y-117907000D03*
X147968000Y-132385000D03*
X150508000Y-139243000D03*
X148857000Y-87046000D03*
X146190000Y-134671000D03*
X148349000Y-134417000D03*
X143396000Y-85776000D03*
X149492000Y-112827000D03*
X148857000Y-84760000D03*
X150635000Y-143307000D03*
X152413000Y-87935000D03*
X150127000Y-95301000D03*
G04 #@! TO.N,CLOCK2*
X150873900Y-75075900D03*
G04 #@! TO.N,B_+12V*
X152953100Y-131750000D03*
X145214500Y-86069700D03*
X153990700Y-102795000D03*
X150435400Y-122677400D03*
X150848000Y-136840800D03*
G04 #@! TO.N,B_+5V*
X145428000Y-53717900D03*
X153988200Y-95046900D03*
X150000000Y-56439000D03*
G04 #@! TO.N,B_-12V*
X147865200Y-116354700D03*
X149310900Y-134199100D03*
G04 #@! TO.N,Net-(D1-A)*
X151496500Y-55450500D03*
G04 #@! TO.N,Net-(J6-PadT)*
X155714300Y-135508200D03*
G04 #@! TO.N,CLOCK*
X141032500Y-107330400D03*
X141745000Y-75108000D03*
X147263800Y-75030600D03*
G04 #@! TO.N,Net-(R10-Pad2)*
X145166600Y-124065600D03*
G04 #@! TO.N,Net-(J8-PadT)*
X148827200Y-126444500D03*
G04 #@! TO.N,Net-(R25-Pad1)*
X155245900Y-119898500D03*
G04 #@! TO.N,GATE*
X152286000Y-96952000D03*
G04 #@! TO.N,PITCH*
X141038000Y-134531800D03*
G04 #@! TO.N,Net-(U3A-+)*
X146825000Y-144577000D03*
G04 #@! TO.N,Net-(U3A--)*
X150161700Y-111068800D03*
X145562600Y-132625500D03*
X146941700Y-127856600D03*
X147267700Y-122599400D03*
G04 #@! TO.N,SLEW_OUT*
X158992500Y-132445200D03*
X151857300Y-122311600D03*
G04 #@! TO.N,SLEW_IN*
X145150200Y-130066900D03*
X152048500Y-130165900D03*
G04 #@! TO.N,Net-(JP1-C)*
X155679800Y-133478600D03*
G04 #@! TO.N,EXP1*
X143808800Y-115357200D03*
X149873000Y-128698200D03*
X150384700Y-136067200D03*
G04 #@! TD*
D26*
G04 #@! TO.N,CLOCK2*
X142380000Y-112065000D02*
X142380000Y-111191600D01*
X144612700Y-85755800D02*
X148730000Y-81638500D01*
X148730000Y-77219800D02*
X150873900Y-75075900D01*
X143819800Y-109751800D02*
X143819800Y-102370200D01*
X147460000Y-98730000D02*
X144612700Y-95882700D01*
X144612700Y-95882700D02*
X144612700Y-85755800D01*
X148730000Y-81638500D02*
X148730000Y-77219800D01*
X142380000Y-111191600D02*
X143819800Y-109751800D01*
X143819800Y-102370200D02*
X147460000Y-98730000D01*
G04 #@! TO.N,B_+12V*
X156518300Y-89205000D02*
X153381400Y-86068100D01*
X152953100Y-129901000D02*
X150637300Y-127585200D01*
X153381400Y-86068100D02*
X145214500Y-86068100D01*
X149911700Y-123201100D02*
X150435400Y-122677400D01*
X157620000Y-89205000D02*
X156518300Y-89205000D01*
X150000000Y-101270000D02*
X147460000Y-103810000D01*
X145214500Y-86068100D02*
X145214500Y-86069700D01*
X144392300Y-135452700D02*
X150628800Y-135452700D01*
X152465700Y-101270000D02*
X151309900Y-101270000D01*
X152953100Y-131750000D02*
X152953100Y-129901000D01*
X151013500Y-136675300D02*
X150848000Y-136840800D01*
X151309900Y-101270000D02*
X151309900Y-94413400D01*
X146251000Y-125300900D02*
X146251000Y-124221600D01*
X151309900Y-94413400D02*
X156518300Y-89205000D01*
X150637300Y-127585200D02*
X148535300Y-127585200D01*
X150628800Y-135452700D02*
X151013500Y-135837400D01*
X148535300Y-127585200D02*
X146251000Y-125300900D01*
X143650000Y-136195000D02*
X144392300Y-135452700D01*
X151309900Y-101270000D02*
X150000000Y-101270000D01*
X151013500Y-135837400D02*
X151013500Y-136675300D01*
X146251000Y-124221600D02*
X147271500Y-123201100D01*
X153990700Y-102795000D02*
X152465700Y-101270000D01*
X147271500Y-123201100D02*
X149911700Y-123201100D01*
G04 #@! TO.N,B_+5V*
X150000000Y-56312000D02*
X147405900Y-53717900D01*
X155766300Y-96825000D02*
X153988200Y-95046900D01*
X144492200Y-133227200D02*
X154864100Y-133227200D01*
X147405900Y-53717900D02*
X145428000Y-53717900D01*
X157620000Y-131623000D02*
X156468300Y-131623000D01*
X154864100Y-133227200D02*
X156468300Y-131623000D01*
X157620000Y-96825000D02*
X155766300Y-96825000D01*
X143650000Y-132385000D02*
X144492200Y-133227200D01*
X150000000Y-56439000D02*
X150000000Y-56312000D01*
G04 #@! TO.N,B_-12V*
X152540000Y-103810000D02*
X148848300Y-107501700D01*
X148766800Y-133655000D02*
X149310900Y-134199100D01*
X148848300Y-107501700D02*
X148848300Y-115371600D01*
X148848300Y-115371600D02*
X147865200Y-116354700D01*
X143650000Y-133655000D02*
X148766800Y-133655000D01*
G04 #@! TO.N,Net-(D1-A)*
X155047000Y-51900000D02*
X155080000Y-51900000D01*
X151496500Y-55450500D02*
X155047000Y-51900000D01*
G04 #@! TO.N,Net-(U4B-+)*
X147500000Y-124775000D02*
X150000000Y-124775000D01*
G04 #@! TO.N,Net-(J6-PadT)*
X144920000Y-148100000D02*
X144920000Y-147518700D01*
X144920000Y-147518700D02*
X155714300Y-136724400D01*
X155714300Y-136724400D02*
X155714300Y-135508200D01*
G04 #@! TO.N,CLOCK*
X141745000Y-75108000D02*
X141822400Y-75030600D01*
X141032500Y-112293500D02*
X141032500Y-107330400D01*
X142380000Y-113641000D02*
X141032500Y-112293500D01*
X142380000Y-114605000D02*
X142380000Y-113641000D01*
X141822400Y-75030600D02*
X147263800Y-75030600D01*
G04 #@! TO.N,Net-(R10-Pad2)*
X147028000Y-121988300D02*
X145166600Y-123849700D01*
X145166600Y-123849700D02*
X145166600Y-124065600D01*
X147028000Y-109957000D02*
X147028000Y-121988300D01*
X147460000Y-109525000D02*
X147028000Y-109957000D01*
G04 #@! TO.N,Net-(J8-PadT)*
X150347500Y-126444500D02*
X148827200Y-126444500D01*
X154920000Y-131115000D02*
X154920000Y-131017000D01*
X154920000Y-131017000D02*
X150347500Y-126444500D01*
G04 #@! TO.N,Net-(R25-Pad1)*
X156490000Y-113475000D02*
X156490000Y-118654400D01*
X152540000Y-109525000D02*
X150000000Y-109525000D01*
X156490000Y-118654400D02*
X155245900Y-119898500D01*
X152540000Y-109525000D02*
X156490000Y-113475000D01*
G04 #@! TO.N,GATE*
X152286000Y-96952000D02*
X153302000Y-96952000D01*
X157620000Y-104445000D02*
X157620000Y-103481000D01*
X153302000Y-96952000D02*
X155080000Y-98730000D01*
X157620000Y-103481000D02*
X155080000Y-100941000D01*
X155080000Y-100941000D02*
X155080000Y-98730000D01*
G04 #@! TO.N,PITCH*
X140870300Y-119618700D02*
X140870300Y-134364100D01*
X142380000Y-118109000D02*
X140870300Y-119618700D01*
X140870300Y-134364100D02*
X141038000Y-134531800D01*
X142380000Y-117145000D02*
X142380000Y-118109000D01*
G04 #@! TO.N,Net-(U3A--)*
X143158500Y-127498400D02*
X143158500Y-130221400D01*
X143158500Y-130221400D02*
X145562600Y-132625500D01*
X143377000Y-127279900D02*
X143158500Y-127498400D01*
X146941700Y-127856600D02*
X146365000Y-127279900D01*
X146365000Y-127279900D02*
X143377000Y-127279900D01*
X150161700Y-119705400D02*
X147267700Y-122599400D01*
X150161700Y-111068800D02*
X150161700Y-119705400D01*
G04 #@! TO.N,SLEW_OUT*
X151857300Y-122311600D02*
X152265700Y-122311600D01*
X158992500Y-129038400D02*
X158992500Y-132445200D01*
X152265700Y-122311600D02*
X158992500Y-129038400D01*
G04 #@! TO.N,SLEW_IN*
X151180800Y-129298200D02*
X152048500Y-130165900D01*
X146195100Y-129298200D02*
X151180800Y-129298200D01*
X145150200Y-130066900D02*
X145426400Y-130066900D01*
X145426400Y-130066900D02*
X146195100Y-129298200D01*
G04 #@! TO.N,Net-(JP1-C)*
X156364200Y-134163000D02*
X155679800Y-133478600D01*
X157620000Y-134163000D02*
X156364200Y-134163000D01*
G04 #@! TO.N,EXP1*
X148436500Y-128237900D02*
X143510000Y-123311400D01*
X143182100Y-136997100D02*
X144050200Y-136997100D01*
X144050200Y-136997100D02*
X144980100Y-136067200D01*
X144980100Y-136067200D02*
X150384700Y-136067200D01*
X149412700Y-128237900D02*
X148436500Y-128237900D01*
X143510000Y-123311400D02*
X143510000Y-115656000D01*
X149873000Y-128698200D02*
X149412700Y-128237900D01*
X142380000Y-136195000D02*
X143182100Y-136997100D01*
X143510000Y-115656000D02*
X143808800Y-115357200D01*
G04 #@! TO.N,EXP5*
X142380000Y-122225000D02*
X142380000Y-123098400D01*
X141272000Y-124206400D02*
X141272000Y-132547000D01*
X141272000Y-132547000D02*
X142380000Y-133655000D01*
X142380000Y-123098400D02*
X141272000Y-124206400D01*
G04 #@! TD*
G04 #@! TA.AperFunction,Conductor*
G04 #@! TO.N,B_GND*
G36*
X156488834Y-132129950D02*
G01*
X156544767Y-132171822D01*
X156569184Y-132237286D01*
X156569500Y-132246132D01*
X156569500Y-132492752D01*
X156581131Y-132551229D01*
X156581132Y-132551230D01*
X156625447Y-132617552D01*
X156691769Y-132661867D01*
X156691770Y-132661868D01*
X156750247Y-132673499D01*
X156750250Y-132673500D01*
X158474790Y-132673500D01*
X158541829Y-132693185D01*
X158582176Y-132735499D01*
X158592000Y-132752514D01*
X158685186Y-132845700D01*
X158776325Y-132898319D01*
X158793343Y-132908145D01*
X158799314Y-132911592D01*
X158926608Y-132945700D01*
X158926610Y-132945700D01*
X159058389Y-132945700D01*
X159058392Y-132945700D01*
X159168409Y-132916221D01*
X159238256Y-132917884D01*
X159296119Y-132957046D01*
X159323623Y-133021275D01*
X159324500Y-133035996D01*
X159324500Y-149675500D01*
X159304815Y-149742539D01*
X159252011Y-149788294D01*
X159200500Y-149799500D01*
X140799500Y-149799500D01*
X140732461Y-149779815D01*
X140686706Y-149727011D01*
X140675500Y-149675500D01*
X140675500Y-143180004D01*
X143414858Y-143180004D01*
X143416656Y-143253519D01*
X143416657Y-143253540D01*
X143448850Y-143498071D01*
X143520554Y-143734076D01*
X143520555Y-143734081D01*
X143629840Y-143955202D01*
X143629843Y-143955208D01*
X143773773Y-144155507D01*
X143773777Y-144155512D01*
X143948493Y-144329619D01*
X143948500Y-144329625D01*
X144024468Y-144383812D01*
X144149303Y-144472856D01*
X144370809Y-144581370D01*
X144370814Y-144581371D01*
X144370815Y-144581372D01*
X144449544Y-144604991D01*
X144607064Y-144652250D01*
X144851722Y-144683592D01*
X145098215Y-144674553D01*
X145339921Y-144625377D01*
X145339925Y-144625375D01*
X145339927Y-144625375D01*
X145455164Y-144581370D01*
X145570350Y-144537385D01*
X145783313Y-144412939D01*
X145973092Y-144255382D01*
X146134589Y-144068945D01*
X146263468Y-143858634D01*
X146356266Y-143630099D01*
X146410493Y-143389475D01*
X146424692Y-143143226D01*
X146398481Y-142897965D01*
X146332564Y-142660278D01*
X146332562Y-142660275D01*
X146332560Y-142660268D01*
X146228714Y-142436552D01*
X146228712Y-142436547D01*
X146089720Y-142232792D01*
X146089710Y-142232779D01*
X145919301Y-142054456D01*
X145748662Y-141926338D01*
X145722054Y-141906360D01*
X145722052Y-141906359D01*
X145722051Y-141906358D01*
X145722048Y-141906356D01*
X145503267Y-141792466D01*
X145268819Y-141715837D01*
X145268820Y-141715837D01*
X145268813Y-141715835D01*
X145268811Y-141715834D01*
X145268809Y-141715834D01*
X145024994Y-141678525D01*
X145024993Y-141678525D01*
X145022120Y-141678560D01*
X144778351Y-141681538D01*
X144535528Y-141724791D01*
X144535508Y-141724796D01*
X144303017Y-141807126D01*
X144303008Y-141807130D01*
X144087067Y-141926336D01*
X144087064Y-141926338D01*
X143893494Y-142079211D01*
X143727493Y-142261643D01*
X143727492Y-142261644D01*
X143593512Y-142468746D01*
X143495162Y-142694936D01*
X143495159Y-142694944D01*
X143435070Y-142934168D01*
X143414859Y-143179992D01*
X143414858Y-143180004D01*
X140675500Y-143180004D01*
X140675500Y-139700403D01*
X143654500Y-139700403D01*
X143654500Y-139899596D01*
X143685661Y-140096340D01*
X143685661Y-140096343D01*
X143747213Y-140285780D01*
X143747215Y-140285783D01*
X143837647Y-140463266D01*
X143954731Y-140624418D01*
X144095582Y-140765269D01*
X144256734Y-140882353D01*
X144434217Y-140972785D01*
X144434219Y-140972786D01*
X144623657Y-141034338D01*
X144623658Y-141034338D01*
X144623661Y-141034339D01*
X144820403Y-141065500D01*
X144820404Y-141065500D01*
X145019596Y-141065500D01*
X145019597Y-141065500D01*
X145216339Y-141034339D01*
X145216342Y-141034338D01*
X145216343Y-141034338D01*
X145405780Y-140972786D01*
X145405780Y-140972785D01*
X145405783Y-140972785D01*
X145583266Y-140882353D01*
X145744418Y-140765269D01*
X145885269Y-140624418D01*
X146002353Y-140463266D01*
X146092785Y-140285783D01*
X146154339Y-140096339D01*
X146185500Y-139899597D01*
X146185500Y-139700403D01*
X146154339Y-139503661D01*
X146154338Y-139503657D01*
X146154338Y-139503656D01*
X146092786Y-139314219D01*
X146013544Y-139158698D01*
X146002353Y-139136734D01*
X145885269Y-138975582D01*
X145744418Y-138834731D01*
X145583266Y-138717647D01*
X145405780Y-138627213D01*
X145216342Y-138565661D01*
X145068782Y-138542290D01*
X145019597Y-138534500D01*
X144820403Y-138534500D01*
X144754822Y-138544887D01*
X144623659Y-138565661D01*
X144623656Y-138565661D01*
X144434219Y-138627213D01*
X144256733Y-138717647D01*
X144213452Y-138749093D01*
X144095582Y-138834731D01*
X144095580Y-138834733D01*
X144095579Y-138834733D01*
X143954733Y-138975579D01*
X143954733Y-138975580D01*
X143954731Y-138975582D01*
X143916877Y-139027683D01*
X143837647Y-139136733D01*
X143747213Y-139314219D01*
X143685661Y-139503656D01*
X143685661Y-139503659D01*
X143654500Y-139700403D01*
X140675500Y-139700403D01*
X140675500Y-135113638D01*
X140695185Y-135046599D01*
X140747989Y-135000844D01*
X140817147Y-134990900D01*
X140836900Y-134996320D01*
X140836963Y-134996088D01*
X140844812Y-134998191D01*
X140844814Y-134998192D01*
X140972108Y-135032300D01*
X140972110Y-135032300D01*
X141103890Y-135032300D01*
X141103892Y-135032300D01*
X141231186Y-134998192D01*
X141345314Y-134932300D01*
X141438500Y-134839114D01*
X141448114Y-134822462D01*
X141498678Y-134774248D01*
X141567285Y-134761024D01*
X141632150Y-134786991D01*
X141672680Y-134843905D01*
X141679500Y-134884463D01*
X141679500Y-134993993D01*
X141679500Y-134993995D01*
X141679499Y-134993995D01*
X141706418Y-135129322D01*
X141706421Y-135129332D01*
X141759221Y-135256804D01*
X141759228Y-135256817D01*
X141818637Y-135345728D01*
X141839515Y-135412406D01*
X141821031Y-135479786D01*
X141784426Y-135517721D01*
X141735447Y-135550447D01*
X141691132Y-135616769D01*
X141691131Y-135616770D01*
X141679500Y-135675247D01*
X141679500Y-136714752D01*
X141691131Y-136773229D01*
X141691132Y-136773230D01*
X141735447Y-136839552D01*
X141801769Y-136883867D01*
X141801770Y-136883868D01*
X141860247Y-136895499D01*
X141860250Y-136895500D01*
X141860252Y-136895500D01*
X142604167Y-136895500D01*
X142671206Y-136915185D01*
X142691848Y-136931819D01*
X142997589Y-137237560D01*
X143056929Y-137271820D01*
X143066108Y-137277120D01*
X143066112Y-137277122D01*
X143142538Y-137297600D01*
X143142540Y-137297600D01*
X144089760Y-137297600D01*
X144089762Y-137297600D01*
X144166189Y-137277121D01*
X144234711Y-137237560D01*
X144290660Y-137181611D01*
X145068252Y-136404019D01*
X145129575Y-136370534D01*
X145155933Y-136367700D01*
X145898121Y-136367700D01*
X145965160Y-136387385D01*
X146010915Y-136440189D01*
X146020859Y-136509347D01*
X146014303Y-136535032D01*
X146001403Y-136569616D01*
X146001401Y-136569627D01*
X145995000Y-136629155D01*
X145995000Y-137342000D01*
X146903294Y-137342000D01*
X146873442Y-137414069D01*
X146850000Y-137531920D01*
X146850000Y-137652080D01*
X146873442Y-137769931D01*
X146903294Y-137842000D01*
X145995000Y-137842000D01*
X145995000Y-138554844D01*
X146001401Y-138614372D01*
X146001403Y-138614379D01*
X146051645Y-138749086D01*
X146051649Y-138749093D01*
X146137809Y-138864187D01*
X146137812Y-138864190D01*
X146252906Y-138950350D01*
X146252913Y-138950354D01*
X146387620Y-139000596D01*
X146387627Y-139000598D01*
X146447155Y-139006999D01*
X146447172Y-139007000D01*
X147210000Y-139007000D01*
X147210000Y-138148706D01*
X147282069Y-138178558D01*
X147399920Y-138202000D01*
X147520080Y-138202000D01*
X147637931Y-138178558D01*
X147710000Y-138148706D01*
X147710000Y-139007000D01*
X148472828Y-139007000D01*
X148472844Y-139006999D01*
X148532372Y-139000598D01*
X148532379Y-139000596D01*
X148667086Y-138950354D01*
X148667093Y-138950350D01*
X148782187Y-138864190D01*
X148782190Y-138864187D01*
X148868350Y-138749093D01*
X148868354Y-138749086D01*
X148918596Y-138614379D01*
X148918598Y-138614372D01*
X148924999Y-138554844D01*
X148925000Y-138554827D01*
X148925000Y-137842000D01*
X148016706Y-137842000D01*
X148046558Y-137769931D01*
X148070000Y-137652080D01*
X148070000Y-137531920D01*
X148046558Y-137414069D01*
X148016706Y-137342000D01*
X148925000Y-137342000D01*
X148925000Y-136629172D01*
X148924999Y-136629155D01*
X148918598Y-136569627D01*
X148918596Y-136569616D01*
X148905697Y-136535032D01*
X148900713Y-136465340D01*
X148934199Y-136404018D01*
X148995522Y-136370533D01*
X149021879Y-136367700D01*
X149926024Y-136367700D01*
X149993063Y-136387385D01*
X150013704Y-136404018D01*
X150077386Y-136467700D01*
X150191514Y-136533592D01*
X150277605Y-136556659D01*
X150337265Y-136593024D01*
X150367794Y-136655871D01*
X150365286Y-136708526D01*
X150347500Y-136774906D01*
X150347500Y-136774908D01*
X150347500Y-136906692D01*
X150348095Y-136908911D01*
X150381608Y-137033987D01*
X150414554Y-137091050D01*
X150447500Y-137148114D01*
X150540686Y-137241300D01*
X150654814Y-137307192D01*
X150782108Y-137341300D01*
X150782110Y-137341300D01*
X150913888Y-137341300D01*
X150913892Y-137341300D01*
X150971253Y-137325930D01*
X151041098Y-137327593D01*
X151064735Y-137342000D01*
X151983294Y-137342000D01*
X151953442Y-137414069D01*
X151930000Y-137531920D01*
X151930000Y-137652080D01*
X151953442Y-137769931D01*
X151983294Y-137842000D01*
X151075000Y-137842000D01*
X151075000Y-138554844D01*
X151081401Y-138614372D01*
X151081403Y-138614379D01*
X151131645Y-138749086D01*
X151131649Y-138749093D01*
X151217809Y-138864187D01*
X151217812Y-138864190D01*
X151332906Y-138950350D01*
X151332913Y-138950354D01*
X151467620Y-139000596D01*
X151467627Y-139000598D01*
X151527155Y-139006999D01*
X151527172Y-139007000D01*
X152290000Y-139007000D01*
X152290000Y-138148706D01*
X152362069Y-138178558D01*
X152479920Y-138202000D01*
X152600080Y-138202000D01*
X152717931Y-138178558D01*
X152790000Y-138148706D01*
X152790000Y-139007000D01*
X152810683Y-139027683D01*
X152844168Y-139089006D01*
X152839184Y-139158698D01*
X152810683Y-139203045D01*
X147514797Y-144498930D01*
X147453474Y-144532415D01*
X147383782Y-144527431D01*
X147327849Y-144485559D01*
X147307343Y-144443345D01*
X147291392Y-144383814D01*
X147225500Y-144269686D01*
X147132314Y-144176500D01*
X147075250Y-144143554D01*
X147018187Y-144110608D01*
X146954539Y-144093554D01*
X146890892Y-144076500D01*
X146759108Y-144076500D01*
X146631812Y-144110608D01*
X146517686Y-144176500D01*
X146517683Y-144176502D01*
X146424502Y-144269683D01*
X146424500Y-144269686D01*
X146358608Y-144383812D01*
X146350804Y-144412939D01*
X146324500Y-144511108D01*
X146324500Y-144642892D01*
X146341094Y-144704823D01*
X146358608Y-144770187D01*
X146391554Y-144827250D01*
X146424500Y-144884314D01*
X146517686Y-144977500D01*
X146631814Y-145043392D01*
X146691344Y-145059342D01*
X146751002Y-145095705D01*
X146781532Y-145158551D01*
X146773238Y-145227927D01*
X146746930Y-145266797D01*
X145202077Y-146811650D01*
X145140754Y-146845135D01*
X145094997Y-146846442D01*
X145019601Y-146834500D01*
X145019597Y-146834500D01*
X144820403Y-146834500D01*
X144754822Y-146844887D01*
X144623659Y-146865661D01*
X144623656Y-146865661D01*
X144434219Y-146927213D01*
X144256733Y-147017647D01*
X144226917Y-147039310D01*
X144095582Y-147134731D01*
X144095580Y-147134733D01*
X144095579Y-147134733D01*
X143954733Y-147275579D01*
X143954733Y-147275580D01*
X143954731Y-147275582D01*
X143904447Y-147344790D01*
X143837647Y-147436733D01*
X143747213Y-147614219D01*
X143685661Y-147803656D01*
X143685661Y-147803659D01*
X143654500Y-148000403D01*
X143654500Y-148199596D01*
X143685661Y-148396340D01*
X143685661Y-148396343D01*
X143747213Y-148585780D01*
X143747215Y-148585783D01*
X143837647Y-148763266D01*
X143954731Y-148924418D01*
X144095582Y-149065269D01*
X144256734Y-149182353D01*
X144434217Y-149272785D01*
X144434219Y-149272786D01*
X144623657Y-149334338D01*
X144623658Y-149334338D01*
X144623661Y-149334339D01*
X144820403Y-149365500D01*
X144820404Y-149365500D01*
X145019596Y-149365500D01*
X145019597Y-149365500D01*
X145216339Y-149334339D01*
X145216342Y-149334338D01*
X145216343Y-149334338D01*
X145405780Y-149272786D01*
X145405780Y-149272785D01*
X145405783Y-149272785D01*
X145583266Y-149182353D01*
X145744418Y-149065269D01*
X145885269Y-148924418D01*
X146002353Y-148763266D01*
X146092785Y-148585783D01*
X146154339Y-148396339D01*
X146185500Y-148199597D01*
X146185500Y-148000403D01*
X153814500Y-148000403D01*
X153814500Y-148199596D01*
X153845661Y-148396340D01*
X153845661Y-148396343D01*
X153907213Y-148585780D01*
X153907215Y-148585783D01*
X153997647Y-148763266D01*
X154114731Y-148924418D01*
X154255582Y-149065269D01*
X154416734Y-149182353D01*
X154594217Y-149272785D01*
X154594219Y-149272786D01*
X154783657Y-149334338D01*
X154783658Y-149334338D01*
X154783661Y-149334339D01*
X154980403Y-149365500D01*
X154980404Y-149365500D01*
X155179596Y-149365500D01*
X155179597Y-149365500D01*
X155376339Y-149334339D01*
X155376342Y-149334338D01*
X155376343Y-149334338D01*
X155565780Y-149272786D01*
X155565780Y-149272785D01*
X155565783Y-149272785D01*
X155743266Y-149182353D01*
X155904418Y-149065269D01*
X156045269Y-148924418D01*
X156162353Y-148763266D01*
X156252785Y-148585783D01*
X156314339Y-148396339D01*
X156345500Y-148199597D01*
X156345500Y-148000403D01*
X156314339Y-147803661D01*
X156314338Y-147803657D01*
X156314338Y-147803656D01*
X156252786Y-147614219D01*
X156162352Y-147436733D01*
X156045269Y-147275582D01*
X155904418Y-147134731D01*
X155743266Y-147017647D01*
X155565780Y-146927213D01*
X155376342Y-146865661D01*
X155228782Y-146842290D01*
X155179597Y-146834500D01*
X154980403Y-146834500D01*
X154914822Y-146844887D01*
X154783659Y-146865661D01*
X154783656Y-146865661D01*
X154594219Y-146927213D01*
X154416733Y-147017647D01*
X154386917Y-147039310D01*
X154255582Y-147134731D01*
X154255580Y-147134733D01*
X154255579Y-147134733D01*
X154114733Y-147275579D01*
X154114733Y-147275580D01*
X154114731Y-147275582D01*
X154064447Y-147344790D01*
X153997647Y-147436733D01*
X153907213Y-147614219D01*
X153845661Y-147803656D01*
X153845661Y-147803659D01*
X153814500Y-148000403D01*
X146185500Y-148000403D01*
X146154339Y-147803661D01*
X146154338Y-147803657D01*
X146154338Y-147803656D01*
X146092786Y-147614219D01*
X146002352Y-147436733D01*
X145885269Y-147275582D01*
X145824359Y-147214672D01*
X145790874Y-147153349D01*
X145795858Y-147083657D01*
X145824357Y-147039312D01*
X149683665Y-143180004D01*
X153574858Y-143180004D01*
X153576656Y-143253519D01*
X153576657Y-143253540D01*
X153608850Y-143498071D01*
X153680554Y-143734076D01*
X153680555Y-143734081D01*
X153789840Y-143955202D01*
X153789843Y-143955208D01*
X153933773Y-144155507D01*
X153933777Y-144155512D01*
X154108493Y-144329619D01*
X154108500Y-144329625D01*
X154184468Y-144383812D01*
X154309303Y-144472856D01*
X154530809Y-144581370D01*
X154530814Y-144581371D01*
X154530815Y-144581372D01*
X154609544Y-144604991D01*
X154767064Y-144652250D01*
X155011722Y-144683592D01*
X155258215Y-144674553D01*
X155499921Y-144625377D01*
X155499925Y-144625375D01*
X155499927Y-144625375D01*
X155615164Y-144581370D01*
X155730350Y-144537385D01*
X155943313Y-144412939D01*
X156133092Y-144255382D01*
X156294589Y-144068945D01*
X156423468Y-143858634D01*
X156516266Y-143630099D01*
X156570493Y-143389475D01*
X156584692Y-143143226D01*
X156558481Y-142897965D01*
X156492564Y-142660278D01*
X156492562Y-142660275D01*
X156492560Y-142660268D01*
X156388714Y-142436552D01*
X156388712Y-142436547D01*
X156249720Y-142232792D01*
X156249710Y-142232779D01*
X156079301Y-142054456D01*
X155908662Y-141926338D01*
X155882054Y-141906360D01*
X155882052Y-141906359D01*
X155882051Y-141906358D01*
X155882048Y-141906356D01*
X155663267Y-141792466D01*
X155428819Y-141715837D01*
X155428820Y-141715837D01*
X155428813Y-141715835D01*
X155428811Y-141715834D01*
X155428809Y-141715834D01*
X155184994Y-141678525D01*
X155184993Y-141678525D01*
X155182120Y-141678560D01*
X154938351Y-141681538D01*
X154695528Y-141724791D01*
X154695508Y-141724796D01*
X154463017Y-141807126D01*
X154463008Y-141807130D01*
X154247067Y-141926336D01*
X154247064Y-141926338D01*
X154053494Y-142079211D01*
X153887493Y-142261643D01*
X153887492Y-142261644D01*
X153753512Y-142468746D01*
X153655162Y-142694936D01*
X153655159Y-142694944D01*
X153595070Y-142934168D01*
X153574859Y-143179992D01*
X153574858Y-143180004D01*
X149683665Y-143180004D01*
X153725275Y-139138395D01*
X153786597Y-139104911D01*
X153856289Y-139109895D01*
X153912222Y-139151767D01*
X153936639Y-139217231D01*
X153923441Y-139282370D01*
X153907213Y-139314219D01*
X153845661Y-139503656D01*
X153845661Y-139503659D01*
X153814500Y-139700403D01*
X153814500Y-139899596D01*
X153845661Y-140096340D01*
X153845661Y-140096343D01*
X153907213Y-140285780D01*
X153907215Y-140285783D01*
X153997647Y-140463266D01*
X154114731Y-140624418D01*
X154255582Y-140765269D01*
X154416734Y-140882353D01*
X154594217Y-140972785D01*
X154594219Y-140972786D01*
X154783657Y-141034338D01*
X154783658Y-141034338D01*
X154783661Y-141034339D01*
X154980403Y-141065500D01*
X154980404Y-141065500D01*
X155179596Y-141065500D01*
X155179597Y-141065500D01*
X155376339Y-141034339D01*
X155376342Y-141034338D01*
X155376343Y-141034338D01*
X155565780Y-140972786D01*
X155565780Y-140972785D01*
X155565783Y-140972785D01*
X155743266Y-140882353D01*
X155904418Y-140765269D01*
X156045269Y-140624418D01*
X156162353Y-140463266D01*
X156252785Y-140285783D01*
X156314339Y-140096339D01*
X156345500Y-139899597D01*
X156345500Y-139700403D01*
X156314339Y-139503661D01*
X156314338Y-139503657D01*
X156314338Y-139503656D01*
X156252786Y-139314219D01*
X156173544Y-139158698D01*
X156162353Y-139136734D01*
X156045269Y-138975582D01*
X155904418Y-138834731D01*
X155743266Y-138717647D01*
X155565780Y-138627213D01*
X155376342Y-138565661D01*
X155228782Y-138542290D01*
X155179597Y-138534500D01*
X154980403Y-138534500D01*
X154914822Y-138544887D01*
X154783659Y-138565661D01*
X154783656Y-138565661D01*
X154594219Y-138627213D01*
X154562370Y-138643441D01*
X154493701Y-138656336D01*
X154428961Y-138630058D01*
X154388705Y-138572951D01*
X154385713Y-138503146D01*
X154418394Y-138445275D01*
X155954760Y-136908911D01*
X155969219Y-136883867D01*
X155994321Y-136840389D01*
X156014800Y-136763962D01*
X156014800Y-135966876D01*
X156034485Y-135899837D01*
X156051119Y-135879195D01*
X156114800Y-135815514D01*
X156180692Y-135701386D01*
X156214800Y-135574092D01*
X156214800Y-135442308D01*
X156180692Y-135315014D01*
X156114800Y-135200886D01*
X156021614Y-135107700D01*
X155939160Y-135060095D01*
X155907487Y-135041808D01*
X155843839Y-135024754D01*
X155780192Y-135007700D01*
X155648408Y-135007700D01*
X155521112Y-135041808D01*
X155406986Y-135107700D01*
X155406983Y-135107702D01*
X155313802Y-135200883D01*
X155313801Y-135200885D01*
X155313800Y-135200886D01*
X155301602Y-135222013D01*
X155247908Y-135315012D01*
X155228456Y-135387609D01*
X155213800Y-135442308D01*
X155213800Y-135574092D01*
X155230854Y-135637739D01*
X155247908Y-135701387D01*
X155259465Y-135721404D01*
X155313800Y-135815514D01*
X155313802Y-135815516D01*
X155377481Y-135879195D01*
X155410966Y-135940518D01*
X155413800Y-135966876D01*
X155413800Y-136548566D01*
X155394115Y-136615605D01*
X155377481Y-136636247D01*
X154176045Y-137837683D01*
X154114722Y-137871168D01*
X154045030Y-137866184D01*
X154007400Y-137842000D01*
X153096706Y-137842000D01*
X153126558Y-137769931D01*
X153150000Y-137652080D01*
X153150000Y-137531920D01*
X153126558Y-137414069D01*
X153096706Y-137342000D01*
X154005000Y-137342000D01*
X154005000Y-136629172D01*
X154004999Y-136629155D01*
X153998598Y-136569627D01*
X153998596Y-136569620D01*
X153948354Y-136434913D01*
X153948350Y-136434906D01*
X153862190Y-136319812D01*
X153862187Y-136319809D01*
X153747093Y-136233649D01*
X153747086Y-136233645D01*
X153612379Y-136183403D01*
X153612372Y-136183401D01*
X153552844Y-136177000D01*
X152790000Y-136177000D01*
X152790000Y-137035293D01*
X152717931Y-137005442D01*
X152600080Y-136982000D01*
X152479920Y-136982000D01*
X152362069Y-137005442D01*
X152290000Y-137035293D01*
X152290000Y-136177000D01*
X151527155Y-136177000D01*
X151467625Y-136183401D01*
X151466507Y-136183666D01*
X151465613Y-136183618D01*
X151459913Y-136184231D01*
X151459813Y-136183306D01*
X151396738Y-136179921D01*
X151340069Y-136139050D01*
X151314493Y-136074030D01*
X151314000Y-136062987D01*
X151314000Y-135797839D01*
X151311144Y-135787179D01*
X151293521Y-135721411D01*
X151281960Y-135701386D01*
X151253964Y-135652895D01*
X151253958Y-135652887D01*
X150813312Y-135212241D01*
X150813307Y-135212237D01*
X150793645Y-135200885D01*
X150793643Y-135200885D01*
X150766330Y-135185115D01*
X150744790Y-135172679D01*
X150705547Y-135162164D01*
X150668362Y-135152200D01*
X144774000Y-135152200D01*
X144706961Y-135132515D01*
X144661206Y-135079711D01*
X144650000Y-135028200D01*
X144650000Y-134826508D01*
X144649999Y-134826504D01*
X144611572Y-134633318D01*
X144611569Y-134633306D01*
X144536192Y-134451328D01*
X144512572Y-134415979D01*
X144000000Y-134928551D01*
X144000000Y-134878922D01*
X143976148Y-134789905D01*
X143930070Y-134710095D01*
X143864905Y-134644930D01*
X143785095Y-134598852D01*
X143696078Y-134575000D01*
X143646446Y-134575000D01*
X143902675Y-134318770D01*
X143942899Y-134291892D01*
X143981811Y-134275775D01*
X144096542Y-134199114D01*
X144194114Y-134101542D01*
X144233753Y-134042217D01*
X144254874Y-134010609D01*
X144308486Y-133965804D01*
X144357976Y-133955500D01*
X148590967Y-133955500D01*
X148620407Y-133964144D01*
X148650394Y-133970668D01*
X148655409Y-133974422D01*
X148658006Y-133975185D01*
X148678648Y-133991819D01*
X148774081Y-134087252D01*
X148807566Y-134148575D01*
X148810400Y-134174933D01*
X148810400Y-134264992D01*
X148813289Y-134275775D01*
X148844508Y-134392287D01*
X148877454Y-134449350D01*
X148910400Y-134506414D01*
X149003586Y-134599600D01*
X149117714Y-134665492D01*
X149245008Y-134699600D01*
X149245010Y-134699600D01*
X149376790Y-134699600D01*
X149376792Y-134699600D01*
X149504086Y-134665492D01*
X149618214Y-134599600D01*
X149711400Y-134506414D01*
X149777292Y-134392286D01*
X149811400Y-134264992D01*
X149811400Y-134133208D01*
X149777292Y-134005914D01*
X149711400Y-133891786D01*
X149618214Y-133798600D01*
X149549776Y-133759087D01*
X149501560Y-133708520D01*
X149488338Y-133639913D01*
X149514306Y-133575048D01*
X149571220Y-133534520D01*
X149611776Y-133527700D01*
X154903660Y-133527700D01*
X154903662Y-133527700D01*
X154980089Y-133507221D01*
X155004014Y-133493407D01*
X155071909Y-133476935D01*
X155137936Y-133499786D01*
X155181128Y-133554706D01*
X155185785Y-133568696D01*
X155213408Y-133671786D01*
X155279300Y-133785914D01*
X155372486Y-133879100D01*
X155486614Y-133944992D01*
X155613908Y-133979100D01*
X155613910Y-133979100D01*
X155703967Y-133979100D01*
X155771006Y-133998785D01*
X155791648Y-134015419D01*
X156179689Y-134403460D01*
X156248212Y-134443022D01*
X156324638Y-134463500D01*
X156524564Y-134463500D01*
X156591603Y-134483185D01*
X156637358Y-134535989D01*
X156639121Y-134540039D01*
X156689059Y-134660598D01*
X156715119Y-134699600D01*
X156804024Y-134832657D01*
X156950342Y-134978975D01*
X157122405Y-135093943D01*
X157207833Y-135129328D01*
X157287108Y-135162164D01*
X157341511Y-135206005D01*
X157363576Y-135272299D01*
X157346297Y-135339998D01*
X157295160Y-135387609D01*
X157277974Y-135394656D01*
X157101781Y-135451905D01*
X156912439Y-135548380D01*
X156858282Y-135587727D01*
X156858282Y-135587728D01*
X157490591Y-136220037D01*
X157427007Y-136237075D01*
X157312993Y-136302901D01*
X157219901Y-136395993D01*
X157154075Y-136510007D01*
X157137037Y-136573591D01*
X156504728Y-135941282D01*
X156504727Y-135941282D01*
X156465380Y-135995439D01*
X156368904Y-136184782D01*
X156303242Y-136386869D01*
X156303242Y-136386872D01*
X156270000Y-136596753D01*
X156270000Y-136809246D01*
X156303242Y-137019127D01*
X156303242Y-137019130D01*
X156368904Y-137221217D01*
X156465375Y-137410550D01*
X156504728Y-137464716D01*
X157137037Y-136832408D01*
X157154075Y-136895993D01*
X157219901Y-137010007D01*
X157312993Y-137103099D01*
X157427007Y-137168925D01*
X157490590Y-137185962D01*
X156858282Y-137818269D01*
X156858282Y-137818270D01*
X156912449Y-137857624D01*
X157101782Y-137954095D01*
X157303870Y-138019757D01*
X157513754Y-138053000D01*
X157726246Y-138053000D01*
X157936127Y-138019757D01*
X157936130Y-138019757D01*
X158138217Y-137954095D01*
X158327554Y-137857622D01*
X158381716Y-137818270D01*
X158381717Y-137818270D01*
X157749408Y-137185962D01*
X157812993Y-137168925D01*
X157927007Y-137103099D01*
X158020099Y-137010007D01*
X158085925Y-136895993D01*
X158102962Y-136832408D01*
X158735270Y-137464717D01*
X158735270Y-137464716D01*
X158774622Y-137410554D01*
X158871095Y-137221217D01*
X158936757Y-137019130D01*
X158936757Y-137019127D01*
X158970000Y-136809246D01*
X158970000Y-136596753D01*
X158936757Y-136386872D01*
X158936757Y-136386869D01*
X158871095Y-136184782D01*
X158774624Y-135995449D01*
X158735270Y-135941282D01*
X158735269Y-135941282D01*
X158102962Y-136573590D01*
X158085925Y-136510007D01*
X158020099Y-136395993D01*
X157927007Y-136302901D01*
X157812993Y-136237075D01*
X157749409Y-136220037D01*
X158381716Y-135587728D01*
X158327550Y-135548375D01*
X158138216Y-135451904D01*
X157962026Y-135394656D01*
X157904350Y-135355218D01*
X157877152Y-135290860D01*
X157889067Y-135222013D01*
X157936311Y-135170538D01*
X157952882Y-135162168D01*
X158117598Y-135093941D01*
X158289655Y-134978977D01*
X158435977Y-134832655D01*
X158550941Y-134660598D01*
X158630130Y-134469420D01*
X158670500Y-134266465D01*
X158670500Y-134059535D01*
X158630130Y-133856580D01*
X158550941Y-133665402D01*
X158435977Y-133493345D01*
X158435975Y-133493342D01*
X158289657Y-133347024D01*
X158197447Y-133285412D01*
X158117598Y-133232059D01*
X158060620Y-133208458D01*
X157926420Y-133152870D01*
X157926412Y-133152868D01*
X157723469Y-133112500D01*
X157723465Y-133112500D01*
X157516535Y-133112500D01*
X157516530Y-133112500D01*
X157313587Y-133152868D01*
X157313579Y-133152870D01*
X157122403Y-133232058D01*
X156950342Y-133347024D01*
X156804024Y-133493342D01*
X156689058Y-133665402D01*
X156643655Y-133775015D01*
X156599813Y-133829418D01*
X156533519Y-133851482D01*
X156465820Y-133834202D01*
X156441413Y-133815242D01*
X156216619Y-133590448D01*
X156183134Y-133529125D01*
X156180300Y-133502767D01*
X156180300Y-133412710D01*
X156180300Y-133412708D01*
X156146192Y-133285414D01*
X156080300Y-133171286D01*
X155987114Y-133078100D01*
X155872986Y-133012208D01*
X155789477Y-132989832D01*
X155729819Y-132953468D01*
X155699290Y-132890621D01*
X155707585Y-132821245D01*
X155733889Y-132782380D01*
X156357820Y-132158450D01*
X156419142Y-132124966D01*
X156488834Y-132129950D01*
G37*
G04 #@! TD.AperFunction*
G04 #@! TA.AperFunction,Conductor*
G36*
X149226079Y-129618385D02*
G01*
X149271834Y-129671189D01*
X149281778Y-129740347D01*
X149252753Y-129803903D01*
X149228917Y-129825136D01*
X149052792Y-129945279D01*
X149052779Y-129945289D01*
X148874456Y-130115698D01*
X148726358Y-130312948D01*
X148726356Y-130312951D01*
X148612466Y-130531732D01*
X148535837Y-130766180D01*
X148535834Y-130766190D01*
X148498525Y-131010004D01*
X148498525Y-131010005D01*
X148501538Y-131256648D01*
X148544791Y-131499471D01*
X148544796Y-131499491D01*
X148627126Y-131731982D01*
X148627130Y-131731991D01*
X148746336Y-131947932D01*
X148746338Y-131947935D01*
X148800184Y-132016116D01*
X148899210Y-132141504D01*
X149081645Y-132307508D01*
X149288744Y-132441486D01*
X149288746Y-132441487D01*
X149406648Y-132492752D01*
X149514945Y-132539841D01*
X149754171Y-132599930D01*
X150000000Y-132620141D01*
X150000003Y-132620140D01*
X150000004Y-132620141D01*
X150005668Y-132620002D01*
X150073526Y-132618344D01*
X150318074Y-132586149D01*
X150554079Y-132514445D01*
X150775205Y-132405158D01*
X150800059Y-132387299D01*
X150896239Y-132318186D01*
X150975512Y-132261223D01*
X151149621Y-132086505D01*
X151292856Y-131885697D01*
X151401370Y-131664191D01*
X151472250Y-131427936D01*
X151503592Y-131183278D01*
X151494553Y-130936785D01*
X151445377Y-130695079D01*
X151445375Y-130695075D01*
X151445375Y-130695072D01*
X151357385Y-130464650D01*
X151232945Y-130251696D01*
X151232941Y-130251691D01*
X151232939Y-130251687D01*
X151075382Y-130061908D01*
X150888946Y-129900412D01*
X150888947Y-129900412D01*
X150771478Y-129828427D01*
X150724603Y-129776615D01*
X150713180Y-129707686D01*
X150740837Y-129643523D01*
X150798793Y-129604498D01*
X150836268Y-129598700D01*
X151004967Y-129598700D01*
X151072006Y-129618385D01*
X151092648Y-129635019D01*
X151511681Y-130054052D01*
X151545166Y-130115375D01*
X151548000Y-130141733D01*
X151548000Y-130231792D01*
X151555816Y-130260962D01*
X151582108Y-130359087D01*
X151590842Y-130374214D01*
X151648000Y-130473214D01*
X151741186Y-130566400D01*
X151855314Y-130632292D01*
X151982608Y-130666400D01*
X151982610Y-130666400D01*
X152114390Y-130666400D01*
X152114392Y-130666400D01*
X152241686Y-130632292D01*
X152355814Y-130566400D01*
X152440919Y-130481295D01*
X152502242Y-130447810D01*
X152571934Y-130452794D01*
X152627867Y-130494666D01*
X152652284Y-130560130D01*
X152652600Y-130568976D01*
X152652600Y-131291323D01*
X152632915Y-131358362D01*
X152616282Y-131379004D01*
X152552600Y-131442686D01*
X152486708Y-131556812D01*
X152452600Y-131684108D01*
X152452600Y-131815891D01*
X152486708Y-131943187D01*
X152515330Y-131992760D01*
X152552600Y-132057314D01*
X152645786Y-132150500D01*
X152759914Y-132216392D01*
X152887208Y-132250500D01*
X152887210Y-132250500D01*
X153018990Y-132250500D01*
X153018992Y-132250500D01*
X153146286Y-132216392D01*
X153260414Y-132150500D01*
X153353600Y-132057314D01*
X153419492Y-131943186D01*
X153453600Y-131815892D01*
X153453600Y-131684108D01*
X153419492Y-131556814D01*
X153353600Y-131442686D01*
X153289918Y-131379004D01*
X153256434Y-131317680D01*
X153253600Y-131291323D01*
X153253600Y-130074933D01*
X153273285Y-130007894D01*
X153326089Y-129962139D01*
X153395247Y-129952195D01*
X153458803Y-129981220D01*
X153465281Y-129987252D01*
X153805035Y-130327006D01*
X153838520Y-130388329D01*
X153833536Y-130458021D01*
X153827839Y-130470981D01*
X153747214Y-130629216D01*
X153747214Y-130629217D01*
X153685661Y-130818656D01*
X153685661Y-130818659D01*
X153685661Y-130818661D01*
X153654500Y-131015403D01*
X153654500Y-131214597D01*
X153664501Y-131277738D01*
X153685661Y-131411340D01*
X153685661Y-131411343D01*
X153747213Y-131600780D01*
X153814064Y-131731982D01*
X153837647Y-131778266D01*
X153954731Y-131939418D01*
X154095582Y-132080269D01*
X154256734Y-132197353D01*
X154361039Y-132250499D01*
X154434219Y-132287786D01*
X154623657Y-132349338D01*
X154623658Y-132349338D01*
X154623661Y-132349339D01*
X154820403Y-132380500D01*
X154820404Y-132380500D01*
X154986466Y-132380500D01*
X155053505Y-132400185D01*
X155099260Y-132452989D01*
X155109204Y-132522147D01*
X155080179Y-132585703D01*
X155074147Y-132592181D01*
X154775948Y-132890381D01*
X154714625Y-132923866D01*
X154688267Y-132926700D01*
X146161649Y-132926700D01*
X146094610Y-132907015D01*
X146048855Y-132854211D01*
X146038911Y-132785053D01*
X146041871Y-132770619D01*
X146063100Y-132691392D01*
X146063100Y-132559608D01*
X146035646Y-132457147D01*
X146037309Y-132387299D01*
X146076472Y-132329437D01*
X146140700Y-132301933D01*
X146193739Y-132307125D01*
X146262409Y-132329437D01*
X146323661Y-132349339D01*
X146520403Y-132380500D01*
X146520404Y-132380500D01*
X146719596Y-132380500D01*
X146719597Y-132380500D01*
X146916339Y-132349339D01*
X146916342Y-132349338D01*
X146916343Y-132349338D01*
X147105780Y-132287786D01*
X147105780Y-132287785D01*
X147105783Y-132287785D01*
X147283266Y-132197353D01*
X147444418Y-132080269D01*
X147585269Y-131939418D01*
X147702353Y-131778266D01*
X147792785Y-131600783D01*
X147795308Y-131593018D01*
X147854338Y-131411343D01*
X147854338Y-131411342D01*
X147854339Y-131411339D01*
X147885500Y-131214597D01*
X147885500Y-131015403D01*
X147854339Y-130818661D01*
X147854338Y-130818657D01*
X147854338Y-130818656D01*
X147792786Y-130629219D01*
X147769936Y-130584373D01*
X147702353Y-130451734D01*
X147585269Y-130290582D01*
X147444418Y-130149731D01*
X147283266Y-130032647D01*
X147269182Y-130025471D01*
X147105780Y-129942213D01*
X146916342Y-129880661D01*
X146768782Y-129857290D01*
X146719597Y-129849500D01*
X146520403Y-129849500D01*
X146360710Y-129874792D01*
X146291417Y-129865837D01*
X146237965Y-129820841D01*
X146217326Y-129754089D01*
X146236051Y-129686775D01*
X146253625Y-129664645D01*
X146283255Y-129635015D01*
X146344577Y-129601533D01*
X146370933Y-129598700D01*
X149159040Y-129598700D01*
X149226079Y-129618385D01*
G37*
G04 #@! TD.AperFunction*
G04 #@! TA.AperFunction,Conductor*
G36*
X144662000Y-129938778D02*
G01*
X144657775Y-129970870D01*
X144649700Y-130001006D01*
X144649700Y-130132791D01*
X144683808Y-130260087D01*
X144701415Y-130290582D01*
X144749700Y-130374214D01*
X144842886Y-130467400D01*
X144957014Y-130533292D01*
X145084308Y-130567400D01*
X145084310Y-130567400D01*
X145216089Y-130567400D01*
X145216092Y-130567400D01*
X145270662Y-130552778D01*
X145340508Y-130554441D01*
X145398370Y-130593603D01*
X145425875Y-130657831D01*
X145420683Y-130710871D01*
X145385661Y-130818656D01*
X145385661Y-130818659D01*
X145385661Y-130818661D01*
X145354500Y-131015403D01*
X145354500Y-131214597D01*
X145364501Y-131277738D01*
X145385661Y-131411340D01*
X145385661Y-131411343D01*
X145447213Y-131600780D01*
X145514064Y-131731982D01*
X145537647Y-131778266D01*
X145646519Y-131928116D01*
X145650751Y-131939975D01*
X145658995Y-131949489D01*
X145662268Y-131972253D01*
X145669999Y-131993920D01*
X145667147Y-132006184D01*
X145668939Y-132018647D01*
X145659383Y-132039570D01*
X145654174Y-132061974D01*
X145645144Y-132070748D01*
X145639914Y-132082203D01*
X145620561Y-132094640D01*
X145604068Y-132110669D01*
X145590322Y-132114073D01*
X145581136Y-132119977D01*
X145546201Y-132125000D01*
X145538433Y-132125000D01*
X145471394Y-132105315D01*
X145450752Y-132088681D01*
X143613752Y-130251681D01*
X143580267Y-130190358D01*
X143585251Y-130120666D01*
X143627123Y-130064733D01*
X143692587Y-130040316D01*
X143701433Y-130040000D01*
X144162000Y-130040000D01*
X144162000Y-129131706D01*
X144234069Y-129161558D01*
X144351920Y-129185000D01*
X144472080Y-129185000D01*
X144589931Y-129161558D01*
X144662000Y-129131706D01*
X144662000Y-129938778D01*
G37*
G04 #@! TD.AperFunction*
G04 #@! TA.AperFunction,Conductor*
G36*
X159267539Y-50220185D02*
G01*
X159313294Y-50272989D01*
X159324500Y-50324500D01*
X159324500Y-61616295D01*
X159304815Y-61683334D01*
X159252011Y-61729089D01*
X159182853Y-61739033D01*
X159119297Y-61710008D01*
X159081523Y-61651230D01*
X159079822Y-61644806D01*
X159078596Y-61639620D01*
X159028354Y-61504913D01*
X159028350Y-61504906D01*
X158942190Y-61389812D01*
X158942187Y-61389809D01*
X158827093Y-61303649D01*
X158827086Y-61303645D01*
X158692379Y-61253403D01*
X158692372Y-61253401D01*
X158632844Y-61247000D01*
X157870000Y-61247000D01*
X157870000Y-62105293D01*
X157797931Y-62075442D01*
X157680080Y-62052000D01*
X157559920Y-62052000D01*
X157442069Y-62075442D01*
X157370000Y-62105293D01*
X157370000Y-61247000D01*
X156607155Y-61247000D01*
X156547627Y-61253401D01*
X156547620Y-61253403D01*
X156412913Y-61303645D01*
X156412906Y-61303649D01*
X156297812Y-61389809D01*
X156297809Y-61389812D01*
X156211649Y-61504906D01*
X156211645Y-61504913D01*
X156161403Y-61639620D01*
X156161401Y-61639627D01*
X156155000Y-61699155D01*
X156155000Y-62412000D01*
X157063294Y-62412000D01*
X157033442Y-62484069D01*
X157010000Y-62601920D01*
X157010000Y-62722080D01*
X157033442Y-62839931D01*
X157063294Y-62912000D01*
X156155000Y-62912000D01*
X156155000Y-63624844D01*
X156161401Y-63684372D01*
X156161403Y-63684379D01*
X156211645Y-63819086D01*
X156211649Y-63819093D01*
X156297809Y-63934187D01*
X156297812Y-63934190D01*
X156412906Y-64020350D01*
X156412913Y-64020354D01*
X156547620Y-64070596D01*
X156547627Y-64070598D01*
X156607155Y-64076999D01*
X156607172Y-64077000D01*
X157370000Y-64077000D01*
X157370000Y-63218706D01*
X157442069Y-63248558D01*
X157559920Y-63272000D01*
X157680080Y-63272000D01*
X157797931Y-63248558D01*
X157870000Y-63218706D01*
X157870000Y-64077000D01*
X158632828Y-64077000D01*
X158632844Y-64076999D01*
X158692372Y-64070598D01*
X158692379Y-64070596D01*
X158827086Y-64020354D01*
X158827093Y-64020350D01*
X158942187Y-63934190D01*
X158942190Y-63934187D01*
X159028350Y-63819093D01*
X159028354Y-63819086D01*
X159078597Y-63684377D01*
X159079822Y-63679195D01*
X159114392Y-63618477D01*
X159176301Y-63586088D01*
X159245893Y-63592311D01*
X159301073Y-63635171D01*
X159324322Y-63701059D01*
X159324500Y-63707704D01*
X159324500Y-128646067D01*
X159304815Y-128713106D01*
X159252011Y-128758861D01*
X159182853Y-128768805D01*
X159119297Y-128739780D01*
X159112819Y-128733748D01*
X155242614Y-124863543D01*
X156619499Y-124863543D01*
X156657947Y-125056829D01*
X156657950Y-125056839D01*
X156733364Y-125238907D01*
X156733371Y-125238920D01*
X156842860Y-125402781D01*
X156842863Y-125402785D01*
X156982214Y-125542136D01*
X156982218Y-125542139D01*
X157146079Y-125651628D01*
X157146092Y-125651635D01*
X157302043Y-125716231D01*
X157328165Y-125727051D01*
X157328169Y-125727051D01*
X157328170Y-125727052D01*
X157521456Y-125765500D01*
X157521459Y-125765500D01*
X157718543Y-125765500D01*
X157848582Y-125739632D01*
X157911835Y-125727051D01*
X158093914Y-125651632D01*
X158257782Y-125542139D01*
X158397139Y-125402782D01*
X158506632Y-125238914D01*
X158582051Y-125056835D01*
X158620500Y-124863541D01*
X158620500Y-124666459D01*
X158620500Y-124666456D01*
X158582052Y-124473170D01*
X158582051Y-124473169D01*
X158582051Y-124473165D01*
X158555564Y-124409219D01*
X158506635Y-124291092D01*
X158506628Y-124291079D01*
X158397139Y-124127218D01*
X158397136Y-124127214D01*
X158257785Y-123987863D01*
X158257781Y-123987860D01*
X158093920Y-123878371D01*
X158093907Y-123878364D01*
X157911839Y-123802950D01*
X157911829Y-123802947D01*
X157718543Y-123764500D01*
X157718541Y-123764500D01*
X157521459Y-123764500D01*
X157521457Y-123764500D01*
X157328170Y-123802947D01*
X157328160Y-123802950D01*
X157146092Y-123878364D01*
X157146079Y-123878371D01*
X156982218Y-123987860D01*
X156982214Y-123987863D01*
X156842863Y-124127214D01*
X156842860Y-124127218D01*
X156733371Y-124291079D01*
X156733364Y-124291092D01*
X156657950Y-124473160D01*
X156657947Y-124473170D01*
X156619500Y-124666456D01*
X156619500Y-124666459D01*
X156619500Y-124863541D01*
X156619500Y-124863543D01*
X156619499Y-124863543D01*
X155242614Y-124863543D01*
X152702614Y-122323543D01*
X156619499Y-122323543D01*
X156657947Y-122516829D01*
X156657950Y-122516839D01*
X156733364Y-122698907D01*
X156733371Y-122698920D01*
X156842860Y-122862781D01*
X156842863Y-122862785D01*
X156982214Y-123002136D01*
X156982218Y-123002139D01*
X157146079Y-123111628D01*
X157146092Y-123111635D01*
X157306070Y-123177899D01*
X157328165Y-123187051D01*
X157328169Y-123187051D01*
X157328170Y-123187052D01*
X157521456Y-123225500D01*
X157521459Y-123225500D01*
X157718543Y-123225500D01*
X157848582Y-123199632D01*
X157911835Y-123187051D01*
X158093914Y-123111632D01*
X158257782Y-123002139D01*
X158397139Y-122862782D01*
X158506632Y-122698914D01*
X158582051Y-122516835D01*
X158603185Y-122410588D01*
X158620500Y-122323543D01*
X158620500Y-122126456D01*
X158582052Y-121933170D01*
X158582051Y-121933169D01*
X158582051Y-121933165D01*
X158572912Y-121911102D01*
X158506635Y-121751092D01*
X158506628Y-121751079D01*
X158397139Y-121587218D01*
X158397136Y-121587214D01*
X158257785Y-121447863D01*
X158257781Y-121447860D01*
X158093920Y-121338371D01*
X158093907Y-121338364D01*
X157911839Y-121262950D01*
X157911829Y-121262947D01*
X157718543Y-121224500D01*
X157718541Y-121224500D01*
X157521459Y-121224500D01*
X157521457Y-121224500D01*
X157328170Y-121262947D01*
X157328160Y-121262950D01*
X157146092Y-121338364D01*
X157146079Y-121338371D01*
X156982218Y-121447860D01*
X156982214Y-121447863D01*
X156842863Y-121587214D01*
X156842860Y-121587218D01*
X156733371Y-121751079D01*
X156733364Y-121751092D01*
X156657950Y-121933160D01*
X156657947Y-121933170D01*
X156619500Y-122126456D01*
X156619500Y-122126459D01*
X156619500Y-122323541D01*
X156619500Y-122323543D01*
X156619499Y-122323543D01*
X152702614Y-122323543D01*
X152588426Y-122209355D01*
X152450211Y-122071140D01*
X152440766Y-122065687D01*
X152428254Y-122058463D01*
X152428253Y-122058462D01*
X152381691Y-122031580D01*
X152381690Y-122031579D01*
X152305260Y-122011099D01*
X152300180Y-122010431D01*
X152236284Y-121982163D01*
X152228687Y-121975173D01*
X152164616Y-121911102D01*
X152164614Y-121911100D01*
X152107550Y-121878154D01*
X152050487Y-121845208D01*
X151968022Y-121823112D01*
X151923192Y-121811100D01*
X151791408Y-121811100D01*
X151664112Y-121845208D01*
X151549986Y-121911100D01*
X151549983Y-121911102D01*
X151456802Y-122004283D01*
X151456800Y-122004286D01*
X151390908Y-122118412D01*
X151388753Y-122126456D01*
X151356800Y-122245708D01*
X151356800Y-122377492D01*
X151373445Y-122439613D01*
X151390908Y-122504787D01*
X151423854Y-122561850D01*
X151456800Y-122618914D01*
X151549986Y-122712100D01*
X151643357Y-122766008D01*
X151661718Y-122776609D01*
X151664114Y-122777992D01*
X151791408Y-122812100D01*
X151791410Y-122812100D01*
X151923190Y-122812100D01*
X151923192Y-122812100D01*
X152050486Y-122777992D01*
X152130786Y-122731630D01*
X152198684Y-122715158D01*
X152264711Y-122738010D01*
X152280466Y-122751337D01*
X152991948Y-123462819D01*
X153025433Y-123524142D01*
X153020449Y-123593834D01*
X152978577Y-123649767D01*
X152913113Y-123674184D01*
X152904267Y-123674500D01*
X151580247Y-123674500D01*
X151521770Y-123686131D01*
X151521769Y-123686132D01*
X151455447Y-123730447D01*
X151411132Y-123796769D01*
X151411131Y-123796770D01*
X151399500Y-123855247D01*
X151399500Y-125694752D01*
X151411131Y-125753229D01*
X151411132Y-125753230D01*
X151455447Y-125819552D01*
X151521769Y-125863867D01*
X151521770Y-125863868D01*
X151580247Y-125875499D01*
X151580250Y-125875500D01*
X151580252Y-125875500D01*
X153419750Y-125875500D01*
X153419751Y-125875499D01*
X153434568Y-125872552D01*
X153478229Y-125863868D01*
X153478229Y-125863867D01*
X153478231Y-125863867D01*
X153544552Y-125819552D01*
X153588867Y-125753231D01*
X153588867Y-125753229D01*
X153588868Y-125753229D01*
X153600499Y-125694752D01*
X153600500Y-125694750D01*
X153600500Y-124370733D01*
X153620185Y-124303694D01*
X153672989Y-124257939D01*
X153742147Y-124247995D01*
X153805703Y-124277020D01*
X153812181Y-124283052D01*
X158655681Y-129126552D01*
X158689166Y-129187875D01*
X158692000Y-129214233D01*
X158692000Y-130461635D01*
X158672315Y-130528674D01*
X158619511Y-130574429D01*
X158550353Y-130584373D01*
X158543810Y-130583253D01*
X158489748Y-130572500D01*
X156750252Y-130572500D01*
X156750247Y-130572500D01*
X156691770Y-130584131D01*
X156691769Y-130584132D01*
X156625447Y-130628447D01*
X156581132Y-130694769D01*
X156581131Y-130694770D01*
X156569500Y-130753247D01*
X156569500Y-131198500D01*
X156549815Y-131265539D01*
X156497011Y-131311294D01*
X156470602Y-131319933D01*
X156458184Y-131322500D01*
X156428738Y-131322500D01*
X156352311Y-131342979D01*
X156348515Y-131345170D01*
X156334029Y-131348165D01*
X156310427Y-131346231D01*
X156286883Y-131348757D01*
X156276247Y-131343430D01*
X156264393Y-131342459D01*
X156245583Y-131328072D01*
X156224411Y-131317468D01*
X156218344Y-131307237D01*
X156208896Y-131300011D01*
X156200850Y-131277738D01*
X156188772Y-131257371D01*
X156187303Y-131240237D01*
X156185158Y-131234297D01*
X156186348Y-131229085D01*
X156185524Y-131219469D01*
X156185500Y-131219469D01*
X156185500Y-131219185D01*
X156185311Y-131216980D01*
X156185497Y-131214609D01*
X156185500Y-131214597D01*
X156185500Y-131015403D01*
X156154339Y-130818661D01*
X156154338Y-130818657D01*
X156154338Y-130818656D01*
X156092786Y-130629219D01*
X156069936Y-130584373D01*
X156002353Y-130451734D01*
X155885269Y-130290582D01*
X155744418Y-130149731D01*
X155583266Y-130032647D01*
X155569182Y-130025471D01*
X155405780Y-129942213D01*
X155216342Y-129880661D01*
X155068782Y-129857290D01*
X155019597Y-129849500D01*
X154820403Y-129849500D01*
X154754822Y-129859887D01*
X154623659Y-129880661D01*
X154623656Y-129880661D01*
X154434219Y-129942213D01*
X154405822Y-129956682D01*
X154337152Y-129969577D01*
X154272412Y-129943299D01*
X154261848Y-129933877D01*
X150532012Y-126204041D01*
X150532007Y-126204037D01*
X150522565Y-126198586D01*
X150522564Y-126198586D01*
X150463491Y-126164480D01*
X150463490Y-126164479D01*
X150438013Y-126157652D01*
X150387062Y-126144000D01*
X150387060Y-126144000D01*
X149285876Y-126144000D01*
X149218837Y-126124315D01*
X149198195Y-126107681D01*
X149134516Y-126044002D01*
X149134514Y-126044000D01*
X149077450Y-126011054D01*
X149020387Y-125978108D01*
X148956739Y-125961054D01*
X148893092Y-125944000D01*
X148761308Y-125944000D01*
X148634012Y-125978108D01*
X148519886Y-126044000D01*
X148519883Y-126044002D01*
X148426702Y-126137183D01*
X148426700Y-126137186D01*
X148360808Y-126251312D01*
X148326700Y-126378608D01*
X148326700Y-126510391D01*
X148360809Y-126637688D01*
X148360809Y-126637689D01*
X148365317Y-126645497D01*
X148381790Y-126713398D01*
X148358937Y-126779424D01*
X148304016Y-126822615D01*
X148234462Y-126829256D01*
X148172360Y-126797240D01*
X148170249Y-126795178D01*
X147462252Y-126087181D01*
X147428767Y-126025858D01*
X147433751Y-125956166D01*
X147475623Y-125900233D01*
X147541087Y-125875816D01*
X147549933Y-125875500D01*
X147586610Y-125875500D01*
X147586611Y-125875500D01*
X147757701Y-125848402D01*
X147922445Y-125794873D01*
X148076788Y-125716232D01*
X148216928Y-125614414D01*
X148339414Y-125491928D01*
X148441232Y-125351788D01*
X148519873Y-125197445D01*
X148531657Y-125161180D01*
X148545606Y-125140780D01*
X148555874Y-125118297D01*
X148564983Y-125112442D01*
X148571095Y-125103505D01*
X148593860Y-125093884D01*
X148614652Y-125080523D01*
X148631063Y-125078163D01*
X148635454Y-125076308D01*
X148649587Y-125075500D01*
X148850413Y-125075500D01*
X148917452Y-125095185D01*
X148963207Y-125147989D01*
X148968343Y-125161180D01*
X148980126Y-125197445D01*
X149001256Y-125238914D01*
X149058768Y-125351788D01*
X149160586Y-125491928D01*
X149283072Y-125614414D01*
X149423212Y-125716232D01*
X149577555Y-125794873D01*
X149742299Y-125848402D01*
X149913389Y-125875500D01*
X149913390Y-125875500D01*
X150086610Y-125875500D01*
X150086611Y-125875500D01*
X150257701Y-125848402D01*
X150422445Y-125794873D01*
X150576788Y-125716232D01*
X150716928Y-125614414D01*
X150839414Y-125491928D01*
X150941232Y-125351788D01*
X151019873Y-125197445D01*
X151073402Y-125032701D01*
X151100500Y-124861611D01*
X151100500Y-124688389D01*
X151073402Y-124517299D01*
X151019873Y-124352555D01*
X150941232Y-124198212D01*
X150839414Y-124058072D01*
X150716928Y-123935586D01*
X150576788Y-123833768D01*
X150422445Y-123755127D01*
X150257701Y-123701598D01*
X150257699Y-123701597D01*
X150257698Y-123701597D01*
X150123389Y-123680325D01*
X150060254Y-123650396D01*
X150023323Y-123591084D01*
X150024321Y-123521222D01*
X150062931Y-123462989D01*
X150080789Y-123450464D01*
X150085779Y-123447582D01*
X150096211Y-123441560D01*
X150152160Y-123385611D01*
X150323551Y-123214218D01*
X150384874Y-123180734D01*
X150411232Y-123177900D01*
X150501290Y-123177900D01*
X150501292Y-123177900D01*
X150628586Y-123143792D01*
X150742714Y-123077900D01*
X150835900Y-122984714D01*
X150901792Y-122870586D01*
X150935900Y-122743292D01*
X150935900Y-122611508D01*
X150901792Y-122484214D01*
X150835900Y-122370086D01*
X150742714Y-122276900D01*
X150685650Y-122243954D01*
X150628587Y-122211008D01*
X150564939Y-122193954D01*
X150501292Y-122176900D01*
X150369508Y-122176900D01*
X150242212Y-122211008D01*
X150128086Y-122276900D01*
X150128083Y-122276902D01*
X150034902Y-122370083D01*
X150034900Y-122370086D01*
X149969008Y-122484212D01*
X149934900Y-122611508D01*
X149934900Y-122701565D01*
X149926256Y-122731001D01*
X149919733Y-122760991D01*
X149915977Y-122766008D01*
X149915215Y-122768604D01*
X149898582Y-122789246D01*
X149823548Y-122864281D01*
X149762225Y-122897766D01*
X149735866Y-122900600D01*
X147866749Y-122900600D01*
X147799710Y-122880915D01*
X147753955Y-122828111D01*
X147744011Y-122758953D01*
X147746971Y-122744519D01*
X147768200Y-122665292D01*
X147768200Y-122575232D01*
X147787885Y-122508193D01*
X147804519Y-122487551D01*
X149067570Y-121224500D01*
X150402160Y-119889911D01*
X150427643Y-119845773D01*
X150441721Y-119821389D01*
X150462200Y-119744962D01*
X150462200Y-111527476D01*
X150481885Y-111460437D01*
X150498519Y-111439795D01*
X150515995Y-111422319D01*
X150562200Y-111376114D01*
X150628092Y-111261986D01*
X150662200Y-111134692D01*
X150662200Y-111002908D01*
X150628092Y-110875614D01*
X150562200Y-110761486D01*
X150469014Y-110668300D01*
X150467017Y-110667147D01*
X150457255Y-110661510D01*
X150409041Y-110610942D01*
X150395820Y-110542335D01*
X150421790Y-110477471D01*
X150471808Y-110439563D01*
X150485756Y-110433786D01*
X150518908Y-110411635D01*
X150653718Y-110321558D01*
X150796555Y-110178721D01*
X150796558Y-110178718D01*
X150870557Y-110067970D01*
X150908785Y-110010758D01*
X150908785Y-110010757D01*
X150908786Y-110010756D01*
X150953815Y-109902046D01*
X150997656Y-109847644D01*
X151063950Y-109825579D01*
X151068376Y-109825500D01*
X151471624Y-109825500D01*
X151538663Y-109845185D01*
X151584418Y-109897989D01*
X151586185Y-109902047D01*
X151631214Y-110010757D01*
X151631214Y-110010758D01*
X151743438Y-110178713D01*
X151743444Y-110178721D01*
X151886281Y-110321558D01*
X152054237Y-110433782D01*
X152054241Y-110433784D01*
X152054244Y-110433786D01*
X152240873Y-110511091D01*
X152425247Y-110547765D01*
X152438992Y-110550499D01*
X152438996Y-110550500D01*
X152438997Y-110550500D01*
X152641004Y-110550500D01*
X152641005Y-110550499D01*
X152839127Y-110511091D01*
X152947837Y-110466060D01*
X153017305Y-110458592D01*
X153079784Y-110489866D01*
X153082970Y-110492941D01*
X156153181Y-113563152D01*
X156186666Y-113624475D01*
X156189500Y-113650833D01*
X156189500Y-115625259D01*
X156169815Y-115692298D01*
X156117011Y-115738053D01*
X156047853Y-115747997D01*
X155984297Y-115718972D01*
X155977819Y-115712940D01*
X155816599Y-115551720D01*
X155816597Y-115551718D01*
X155617880Y-115407341D01*
X155399024Y-115295828D01*
X155317226Y-115269250D01*
X155165420Y-115219925D01*
X155003682Y-115194308D01*
X154922814Y-115181500D01*
X154677186Y-115181500D01*
X154596318Y-115194308D01*
X154434580Y-115219925D01*
X154434577Y-115219925D01*
X154200973Y-115295829D01*
X153982119Y-115407341D01*
X153949980Y-115430692D01*
X153783403Y-115551718D01*
X153783401Y-115551720D01*
X153783400Y-115551720D01*
X153609720Y-115725400D01*
X153609720Y-115725401D01*
X153609718Y-115725403D01*
X153549773Y-115807910D01*
X153465341Y-115924119D01*
X153353829Y-116142973D01*
X153277925Y-116376577D01*
X153277925Y-116376580D01*
X153270954Y-116420592D01*
X153239500Y-116619186D01*
X153239500Y-117930814D01*
X153255468Y-118031632D01*
X153277925Y-118173419D01*
X153277925Y-118173422D01*
X153337719Y-118357445D01*
X153353828Y-118407024D01*
X153465341Y-118625880D01*
X153609718Y-118824597D01*
X153783403Y-118998282D01*
X153982120Y-119142659D01*
X154200976Y-119254172D01*
X154434582Y-119330075D01*
X154677186Y-119368500D01*
X154677187Y-119368500D01*
X154768724Y-119368500D01*
X154835763Y-119388185D01*
X154881518Y-119440989D01*
X154891462Y-119510147D01*
X154862437Y-119573703D01*
X154856405Y-119580181D01*
X154845402Y-119591183D01*
X154845400Y-119591186D01*
X154779508Y-119705312D01*
X154769364Y-119743171D01*
X154745400Y-119832608D01*
X154745400Y-119964392D01*
X154748734Y-119976835D01*
X154779508Y-120091687D01*
X154812454Y-120148750D01*
X154845400Y-120205814D01*
X154938586Y-120299000D01*
X155052714Y-120364892D01*
X155180008Y-120399000D01*
X155180010Y-120399000D01*
X155311790Y-120399000D01*
X155311792Y-120399000D01*
X155439086Y-120364892D01*
X155553214Y-120299000D01*
X155646400Y-120205814D01*
X155712292Y-120091686D01*
X155746400Y-119964392D01*
X155746400Y-119874332D01*
X155766085Y-119807293D01*
X155782719Y-119786651D01*
X156200870Y-119368500D01*
X156598419Y-118970950D01*
X156659741Y-118937467D01*
X156729433Y-118942451D01*
X156785366Y-118984323D01*
X156809783Y-119049787D01*
X156794931Y-119118060D01*
X156789202Y-119127523D01*
X156733370Y-119211081D01*
X156733364Y-119211092D01*
X156657950Y-119393160D01*
X156657947Y-119393170D01*
X156619500Y-119586456D01*
X156619500Y-119586459D01*
X156619500Y-119783541D01*
X156619500Y-119783543D01*
X156619499Y-119783543D01*
X156657947Y-119976829D01*
X156657950Y-119976839D01*
X156733364Y-120158907D01*
X156733371Y-120158920D01*
X156842860Y-120322781D01*
X156842863Y-120322785D01*
X156982214Y-120462136D01*
X156982218Y-120462139D01*
X157146079Y-120571628D01*
X157146092Y-120571635D01*
X157328160Y-120647049D01*
X157328165Y-120647051D01*
X157328169Y-120647051D01*
X157328170Y-120647052D01*
X157521456Y-120685500D01*
X157521459Y-120685500D01*
X157718543Y-120685500D01*
X157848582Y-120659632D01*
X157911835Y-120647051D01*
X158093914Y-120571632D01*
X158257782Y-120462139D01*
X158397139Y-120322782D01*
X158506632Y-120158914D01*
X158582051Y-119976835D01*
X158599341Y-119889912D01*
X158620500Y-119783543D01*
X158620500Y-119586456D01*
X158582052Y-119393170D01*
X158582051Y-119393169D01*
X158582051Y-119393165D01*
X158571835Y-119368500D01*
X158506635Y-119211092D01*
X158506628Y-119211079D01*
X158397139Y-119047218D01*
X158397136Y-119047214D01*
X158257785Y-118907863D01*
X158257781Y-118907860D01*
X158093920Y-118798371D01*
X158093907Y-118798364D01*
X157911839Y-118722950D01*
X157911829Y-118722947D01*
X157718543Y-118684500D01*
X157718541Y-118684500D01*
X157521459Y-118684500D01*
X157521457Y-118684500D01*
X157328170Y-118722947D01*
X157328160Y-118722950D01*
X157146092Y-118798364D01*
X157146079Y-118798371D01*
X156982218Y-118907860D01*
X156958368Y-118931710D01*
X156897044Y-118965194D01*
X156827352Y-118960208D01*
X156771420Y-118918336D01*
X156747004Y-118852871D01*
X156761857Y-118784598D01*
X156763272Y-118782077D01*
X156770021Y-118770389D01*
X156790500Y-118693962D01*
X156790500Y-118026025D01*
X156810185Y-117958986D01*
X156862989Y-117913231D01*
X156932147Y-117903287D01*
X156983391Y-117922923D01*
X157146079Y-118031628D01*
X157146092Y-118031635D01*
X157304469Y-118097236D01*
X157328165Y-118107051D01*
X157328169Y-118107051D01*
X157328170Y-118107052D01*
X157521456Y-118145500D01*
X157521459Y-118145500D01*
X157718543Y-118145500D01*
X157848582Y-118119632D01*
X157911835Y-118107051D01*
X158093914Y-118031632D01*
X158257782Y-117922139D01*
X158397139Y-117782782D01*
X158506632Y-117618914D01*
X158582051Y-117436835D01*
X158620500Y-117243541D01*
X158620500Y-117046459D01*
X158620500Y-117046456D01*
X158582052Y-116853170D01*
X158582051Y-116853169D01*
X158582051Y-116853165D01*
X158568766Y-116821091D01*
X158506635Y-116671092D01*
X158506628Y-116671079D01*
X158397139Y-116507218D01*
X158397136Y-116507214D01*
X158257785Y-116367863D01*
X158257781Y-116367860D01*
X158093920Y-116258371D01*
X158093907Y-116258364D01*
X157911839Y-116182950D01*
X157911829Y-116182947D01*
X157718543Y-116144500D01*
X157718541Y-116144500D01*
X157521459Y-116144500D01*
X157521457Y-116144500D01*
X157328170Y-116182947D01*
X157328160Y-116182950D01*
X157146092Y-116258364D01*
X157146074Y-116258374D01*
X156983390Y-116367076D01*
X156916713Y-116387954D01*
X156849333Y-116369469D01*
X156802643Y-116317490D01*
X156790500Y-116263974D01*
X156790500Y-115486025D01*
X156810185Y-115418986D01*
X156862989Y-115373231D01*
X156932147Y-115363287D01*
X156983391Y-115382923D01*
X157146079Y-115491628D01*
X157146092Y-115491635D01*
X157328160Y-115567049D01*
X157328165Y-115567051D01*
X157328169Y-115567051D01*
X157328170Y-115567052D01*
X157521456Y-115605500D01*
X157521459Y-115605500D01*
X157718543Y-115605500D01*
X157848582Y-115579632D01*
X157911835Y-115567051D01*
X158093914Y-115491632D01*
X158257782Y-115382139D01*
X158397139Y-115242782D01*
X158506632Y-115078914D01*
X158582051Y-114896835D01*
X158620500Y-114703541D01*
X158620500Y-114506459D01*
X158620500Y-114506456D01*
X158582052Y-114313170D01*
X158582051Y-114313169D01*
X158582051Y-114313165D01*
X158582049Y-114313160D01*
X158506635Y-114131092D01*
X158506628Y-114131079D01*
X158397139Y-113967218D01*
X158397136Y-113967214D01*
X158257785Y-113827863D01*
X158257781Y-113827860D01*
X158093920Y-113718371D01*
X158093907Y-113718364D01*
X157911839Y-113642950D01*
X157911829Y-113642947D01*
X157718543Y-113604500D01*
X157718541Y-113604500D01*
X157521459Y-113604500D01*
X157521457Y-113604500D01*
X157328170Y-113642947D01*
X157328160Y-113642950D01*
X157146092Y-113718364D01*
X157146074Y-113718374D01*
X156983390Y-113827076D01*
X156916713Y-113847954D01*
X156849333Y-113829469D01*
X156802643Y-113777490D01*
X156790500Y-113723974D01*
X156790500Y-113435440D01*
X156790499Y-113435436D01*
X156781149Y-113400538D01*
X156770023Y-113359014D01*
X156770022Y-113359013D01*
X156770022Y-113359012D01*
X156730460Y-113290489D01*
X155603514Y-112163543D01*
X156619499Y-112163543D01*
X156657947Y-112356829D01*
X156657950Y-112356839D01*
X156733364Y-112538907D01*
X156733371Y-112538920D01*
X156842860Y-112702781D01*
X156842863Y-112702785D01*
X156982214Y-112842136D01*
X156982218Y-112842139D01*
X157146079Y-112951628D01*
X157146092Y-112951635D01*
X157328160Y-113027049D01*
X157328165Y-113027051D01*
X157328169Y-113027051D01*
X157328170Y-113027052D01*
X157521456Y-113065500D01*
X157521459Y-113065500D01*
X157718543Y-113065500D01*
X157848582Y-113039632D01*
X157911835Y-113027051D01*
X158093914Y-112951632D01*
X158257782Y-112842139D01*
X158397139Y-112702782D01*
X158506632Y-112538914D01*
X158582051Y-112356835D01*
X158607591Y-112228437D01*
X158620500Y-112163543D01*
X158620500Y-111966456D01*
X158582052Y-111773170D01*
X158582051Y-111773169D01*
X158582051Y-111773165D01*
X158582049Y-111773160D01*
X158506635Y-111591092D01*
X158506628Y-111591079D01*
X158397139Y-111427218D01*
X158397136Y-111427214D01*
X158257785Y-111287863D01*
X158257781Y-111287860D01*
X158093920Y-111178371D01*
X158093907Y-111178364D01*
X157911839Y-111102950D01*
X157911829Y-111102947D01*
X157718543Y-111064500D01*
X157718541Y-111064500D01*
X157521459Y-111064500D01*
X157521457Y-111064500D01*
X157328170Y-111102947D01*
X157328160Y-111102950D01*
X157146092Y-111178364D01*
X157146079Y-111178371D01*
X156982218Y-111287860D01*
X156982214Y-111287863D01*
X156842863Y-111427214D01*
X156842860Y-111427218D01*
X156733371Y-111591079D01*
X156733364Y-111591092D01*
X156657950Y-111773160D01*
X156657947Y-111773170D01*
X156619500Y-111966456D01*
X156619500Y-111966459D01*
X156619500Y-112163541D01*
X156619500Y-112163543D01*
X156619499Y-112163543D01*
X155603514Y-112163543D01*
X153507941Y-110067970D01*
X153474456Y-110006647D01*
X153479440Y-109936955D01*
X153481045Y-109932874D01*
X153526091Y-109824127D01*
X153565500Y-109626003D01*
X153565500Y-109623543D01*
X156619499Y-109623543D01*
X156657947Y-109816829D01*
X156657950Y-109816839D01*
X156733364Y-109998907D01*
X156733371Y-109998920D01*
X156842860Y-110162781D01*
X156842863Y-110162785D01*
X156982214Y-110302136D01*
X156982218Y-110302139D01*
X157146079Y-110411628D01*
X157146092Y-110411635D01*
X157328160Y-110487049D01*
X157328165Y-110487051D01*
X157328169Y-110487051D01*
X157328170Y-110487052D01*
X157521456Y-110525500D01*
X157521459Y-110525500D01*
X157718543Y-110525500D01*
X157882224Y-110492941D01*
X157911835Y-110487051D01*
X158093914Y-110411632D01*
X158257782Y-110302139D01*
X158397139Y-110162782D01*
X158506632Y-109998914D01*
X158582051Y-109816835D01*
X158619747Y-109627329D01*
X158620500Y-109623543D01*
X158620500Y-109426456D01*
X158582052Y-109233170D01*
X158582051Y-109233169D01*
X158582051Y-109233165D01*
X158582049Y-109233160D01*
X158506635Y-109051092D01*
X158506628Y-109051079D01*
X158397139Y-108887218D01*
X158397136Y-108887214D01*
X158257785Y-108747863D01*
X158257781Y-108747860D01*
X158093920Y-108638371D01*
X158093907Y-108638364D01*
X157911839Y-108562950D01*
X157911829Y-108562947D01*
X157718543Y-108524500D01*
X157718541Y-108524500D01*
X157521459Y-108524500D01*
X157521457Y-108524500D01*
X157328170Y-108562947D01*
X157328160Y-108562950D01*
X157146092Y-108638364D01*
X157146079Y-108638371D01*
X156982218Y-108747860D01*
X156982214Y-108747863D01*
X156842863Y-108887214D01*
X156842860Y-108887218D01*
X156733371Y-109051079D01*
X156733364Y-109051092D01*
X156657950Y-109233160D01*
X156657947Y-109233170D01*
X156619500Y-109426456D01*
X156619500Y-109426459D01*
X156619500Y-109623541D01*
X156619500Y-109623543D01*
X156619499Y-109623543D01*
X153565500Y-109623543D01*
X153565500Y-109423997D01*
X153526091Y-109225873D01*
X153448786Y-109039244D01*
X153448784Y-109039241D01*
X153448782Y-109039237D01*
X153336558Y-108871281D01*
X153193718Y-108728441D01*
X153025762Y-108616217D01*
X153025752Y-108616212D01*
X152839127Y-108538909D01*
X152839119Y-108538907D01*
X152641007Y-108499500D01*
X152641003Y-108499500D01*
X152438997Y-108499500D01*
X152438992Y-108499500D01*
X152240880Y-108538907D01*
X152240872Y-108538909D01*
X152054247Y-108616212D01*
X152054237Y-108616217D01*
X151886281Y-108728441D01*
X151743444Y-108871278D01*
X151743438Y-108871286D01*
X151631214Y-109039241D01*
X151631214Y-109039242D01*
X151586185Y-109147953D01*
X151542344Y-109202356D01*
X151476050Y-109224421D01*
X151471624Y-109224500D01*
X151068376Y-109224500D01*
X151001337Y-109204815D01*
X150955582Y-109152011D01*
X150953815Y-109147953D01*
X150927798Y-109085143D01*
X150908786Y-109039244D01*
X150908785Y-109039242D01*
X150908785Y-109039241D01*
X150796561Y-108871286D01*
X150796555Y-108871278D01*
X150653718Y-108728441D01*
X150485762Y-108616217D01*
X150485752Y-108616212D01*
X150299127Y-108538909D01*
X150299119Y-108538907D01*
X150101007Y-108499500D01*
X150101003Y-108499500D01*
X149898997Y-108499500D01*
X149898992Y-108499500D01*
X149700880Y-108538907D01*
X149700872Y-108538909D01*
X149514247Y-108616212D01*
X149514232Y-108616220D01*
X149341690Y-108731509D01*
X149275013Y-108752387D01*
X149207633Y-108733902D01*
X149160943Y-108681923D01*
X149148800Y-108628407D01*
X149148800Y-107677532D01*
X149168485Y-107610493D01*
X149185114Y-107589856D01*
X149691427Y-107083543D01*
X156619499Y-107083543D01*
X156657947Y-107276829D01*
X156657950Y-107276839D01*
X156733364Y-107458907D01*
X156733371Y-107458920D01*
X156842860Y-107622781D01*
X156842863Y-107622785D01*
X156982214Y-107762136D01*
X156982218Y-107762139D01*
X157146079Y-107871628D01*
X157146092Y-107871635D01*
X157328160Y-107947049D01*
X157328165Y-107947051D01*
X157328169Y-107947051D01*
X157328170Y-107947052D01*
X157521456Y-107985500D01*
X157521459Y-107985500D01*
X157718543Y-107985500D01*
X157848582Y-107959632D01*
X157911835Y-107947051D01*
X158093914Y-107871632D01*
X158257782Y-107762139D01*
X158397139Y-107622782D01*
X158506632Y-107458914D01*
X158582051Y-107276835D01*
X158620500Y-107083541D01*
X158620500Y-106886459D01*
X158620500Y-106886456D01*
X158582052Y-106693170D01*
X158582051Y-106693169D01*
X158582051Y-106693165D01*
X158539900Y-106591403D01*
X158506635Y-106511092D01*
X158506628Y-106511079D01*
X158397139Y-106347218D01*
X158397136Y-106347214D01*
X158257785Y-106207863D01*
X158257781Y-106207860D01*
X158093920Y-106098371D01*
X158093907Y-106098364D01*
X157911839Y-106022950D01*
X157911829Y-106022947D01*
X157718543Y-105984500D01*
X157718541Y-105984500D01*
X157521459Y-105984500D01*
X157521457Y-105984500D01*
X157328170Y-106022947D01*
X157328160Y-106022950D01*
X157146092Y-106098364D01*
X157146079Y-106098371D01*
X156982218Y-106207860D01*
X156982214Y-106207863D01*
X156842863Y-106347214D01*
X156842860Y-106347218D01*
X156733371Y-106511079D01*
X156733364Y-106511092D01*
X156657950Y-106693160D01*
X156657947Y-106693170D01*
X156619500Y-106886456D01*
X156619500Y-106886459D01*
X156619500Y-107083541D01*
X156619500Y-107083543D01*
X156619499Y-107083543D01*
X149691427Y-107083543D01*
X151997030Y-104777939D01*
X152058351Y-104744456D01*
X152128043Y-104749440D01*
X152132162Y-104751061D01*
X152240873Y-104796091D01*
X152389563Y-104825667D01*
X152438992Y-104835499D01*
X152438996Y-104835500D01*
X152438997Y-104835500D01*
X152641004Y-104835500D01*
X152641005Y-104835499D01*
X152839127Y-104796091D01*
X153025756Y-104718786D01*
X153193718Y-104606558D01*
X153336558Y-104463718D01*
X153448786Y-104295756D01*
X153526091Y-104109127D01*
X153565500Y-103911003D01*
X153565500Y-103708997D01*
X153526091Y-103510873D01*
X153448786Y-103324244D01*
X153448784Y-103324241D01*
X153448782Y-103324237D01*
X153416777Y-103276338D01*
X153416675Y-103276187D01*
X153336558Y-103156282D01*
X153335126Y-103154850D01*
X153335124Y-103154847D01*
X153193718Y-103013441D01*
X153025762Y-102901217D01*
X153025752Y-102901212D01*
X152839127Y-102823909D01*
X152839119Y-102823907D01*
X152641007Y-102784500D01*
X152641003Y-102784500D01*
X152438997Y-102784500D01*
X152438992Y-102784500D01*
X152240880Y-102823907D01*
X152240872Y-102823909D01*
X152054247Y-102901212D01*
X152054237Y-102901217D01*
X151886281Y-103013441D01*
X151743441Y-103156281D01*
X151631217Y-103324237D01*
X151631212Y-103324247D01*
X151553909Y-103510872D01*
X151553907Y-103510880D01*
X151514500Y-103708992D01*
X151514500Y-103911007D01*
X151553907Y-104109119D01*
X151553909Y-104109127D01*
X151598938Y-104217835D01*
X151606407Y-104287304D01*
X151575132Y-104349784D01*
X151572058Y-104352969D01*
X148663789Y-107261240D01*
X148607841Y-107317187D01*
X148607835Y-107317195D01*
X148568282Y-107385704D01*
X148568279Y-107385709D01*
X148559948Y-107416803D01*
X148548663Y-107458920D01*
X148547800Y-107462139D01*
X148547800Y-108621524D01*
X148528115Y-108688563D01*
X148475311Y-108734318D01*
X148406153Y-108744262D01*
X148342597Y-108715237D01*
X148336119Y-108709205D01*
X148251203Y-108624289D01*
X148251194Y-108624282D01*
X148147486Y-108562950D01*
X148117887Y-108545445D01*
X147969156Y-108502235D01*
X147969153Y-108502234D01*
X147969151Y-108502234D01*
X147938395Y-108499814D01*
X147934405Y-108499500D01*
X147934404Y-108499500D01*
X146985606Y-108499500D01*
X146985584Y-108499501D01*
X146950847Y-108502234D01*
X146950844Y-108502235D01*
X146802113Y-108545445D01*
X146802111Y-108545445D01*
X146802111Y-108545446D01*
X146668805Y-108624282D01*
X146668796Y-108624289D01*
X146559289Y-108733796D01*
X146559282Y-108733805D01*
X146480446Y-108867111D01*
X146480445Y-108867113D01*
X146474604Y-108887218D01*
X146437234Y-109015847D01*
X146437234Y-109015849D01*
X146434500Y-109050589D01*
X146434500Y-109999393D01*
X146434501Y-109999415D01*
X146437234Y-110034152D01*
X146437234Y-110034155D01*
X146437235Y-110034156D01*
X146480445Y-110182887D01*
X146480446Y-110182888D01*
X146559282Y-110316194D01*
X146559289Y-110316203D01*
X146668794Y-110425708D01*
X146668797Y-110425710D01*
X146668802Y-110425715D01*
X146668806Y-110425717D01*
X146674962Y-110430492D01*
X146673745Y-110432059D01*
X146714297Y-110475479D01*
X146727500Y-110531156D01*
X146727500Y-115807910D01*
X146707815Y-115874949D01*
X146655011Y-115920704D01*
X146585853Y-115930648D01*
X146522297Y-115901623D01*
X146503182Y-115880796D01*
X146498934Y-115874949D01*
X146390282Y-115725403D01*
X146216597Y-115551718D01*
X146017880Y-115407341D01*
X145799024Y-115295828D01*
X145717226Y-115269250D01*
X145565420Y-115219925D01*
X145403682Y-115194308D01*
X145322814Y-115181500D01*
X145077186Y-115181500D01*
X144996318Y-115194308D01*
X144834580Y-115219925D01*
X144834577Y-115219925D01*
X144600970Y-115295830D01*
X144481839Y-115356530D01*
X144413170Y-115369426D01*
X144348430Y-115343149D01*
X144308173Y-115286043D01*
X144305779Y-115278169D01*
X144275192Y-115164014D01*
X144209300Y-115049886D01*
X144116114Y-114956700D01*
X144059050Y-114923754D01*
X144001987Y-114890808D01*
X143925527Y-114870321D01*
X143874692Y-114856700D01*
X143742908Y-114856700D01*
X143615614Y-114890808D01*
X143615613Y-114890808D01*
X143615611Y-114890809D01*
X143615610Y-114890809D01*
X143544921Y-114931622D01*
X143477021Y-114948095D01*
X143410994Y-114925242D01*
X143367803Y-114870321D01*
X143361162Y-114800768D01*
X143361304Y-114800043D01*
X143380500Y-114703543D01*
X143380500Y-114506456D01*
X143342052Y-114313170D01*
X143342051Y-114313169D01*
X143342051Y-114313165D01*
X143342049Y-114313160D01*
X143266635Y-114131092D01*
X143266628Y-114131079D01*
X143157139Y-113967218D01*
X143157136Y-113967214D01*
X143017785Y-113827863D01*
X143017781Y-113827860D01*
X142853920Y-113718371D01*
X142853911Y-113718366D01*
X142750588Y-113675569D01*
X142696185Y-113631728D01*
X142678264Y-113593092D01*
X142677700Y-113590988D01*
X142660022Y-113525012D01*
X142620460Y-113456489D01*
X142434834Y-113270863D01*
X142401349Y-113209540D01*
X142406333Y-113139848D01*
X142448205Y-113083915D01*
X142498324Y-113061565D01*
X142543438Y-113052591D01*
X142671835Y-113027051D01*
X142853914Y-112951632D01*
X143017782Y-112842139D01*
X143157139Y-112702782D01*
X143266632Y-112538914D01*
X143342051Y-112356835D01*
X143367591Y-112228437D01*
X143380500Y-112163543D01*
X143380500Y-111966456D01*
X143342052Y-111773170D01*
X143342051Y-111773169D01*
X143342051Y-111773165D01*
X143342049Y-111773160D01*
X143266635Y-111591092D01*
X143266628Y-111591079D01*
X143157139Y-111427218D01*
X143157136Y-111427214D01*
X143017785Y-111287863D01*
X143017781Y-111287860D01*
X142958136Y-111248006D01*
X142913331Y-111194393D01*
X142904624Y-111125068D01*
X142934779Y-111062041D01*
X142939326Y-111057243D01*
X144060260Y-109936311D01*
X144099822Y-109867788D01*
X144120300Y-109791362D01*
X144120300Y-109712238D01*
X144120300Y-102546032D01*
X144139985Y-102478993D01*
X144156614Y-102458356D01*
X146859606Y-99755363D01*
X146920927Y-99721880D01*
X146990619Y-99726864D01*
X147003572Y-99732558D01*
X147037555Y-99749873D01*
X147202299Y-99803402D01*
X147373389Y-99830500D01*
X147373390Y-99830500D01*
X147546610Y-99830500D01*
X147546611Y-99830500D01*
X147717701Y-99803402D01*
X147882445Y-99749873D01*
X148036788Y-99671232D01*
X148176928Y-99569414D01*
X148299414Y-99446928D01*
X148401232Y-99306788D01*
X148479873Y-99152445D01*
X148533402Y-98987701D01*
X148560500Y-98816611D01*
X148560500Y-98643389D01*
X148533402Y-98472299D01*
X148479873Y-98307555D01*
X148401232Y-98153212D01*
X148299414Y-98013072D01*
X148176928Y-97890586D01*
X148036788Y-97788768D01*
X147882445Y-97710127D01*
X147717701Y-97656598D01*
X147717699Y-97656597D01*
X147717698Y-97656597D01*
X147586271Y-97635781D01*
X147546611Y-97629500D01*
X147373389Y-97629500D01*
X147341192Y-97634599D01*
X147202301Y-97656597D01*
X147037557Y-97710125D01*
X147003576Y-97727439D01*
X146934907Y-97740333D01*
X146870167Y-97714054D01*
X146859604Y-97704633D01*
X144949519Y-95794548D01*
X144916034Y-95733225D01*
X144913200Y-95706867D01*
X144913200Y-86668722D01*
X144932885Y-86601683D01*
X144985689Y-86555928D01*
X145054847Y-86545984D01*
X145069276Y-86548943D01*
X145148608Y-86570200D01*
X145148611Y-86570200D01*
X145280390Y-86570200D01*
X145280392Y-86570200D01*
X145407686Y-86536092D01*
X145521814Y-86470200D01*
X145587096Y-86404918D01*
X145648420Y-86371434D01*
X145674777Y-86368600D01*
X153205567Y-86368600D01*
X153272606Y-86388285D01*
X153293248Y-86404919D01*
X156005648Y-89117319D01*
X156039133Y-89178642D01*
X156034149Y-89248334D01*
X156005648Y-89292681D01*
X151069441Y-94228887D01*
X151069435Y-94228895D01*
X151029882Y-94297404D01*
X151029879Y-94297409D01*
X151009400Y-94373839D01*
X151009400Y-100845500D01*
X150989715Y-100912539D01*
X150936911Y-100958294D01*
X150885400Y-100969500D01*
X149960438Y-100969500D01*
X149929867Y-100977691D01*
X149884008Y-100989979D01*
X149884007Y-100989980D01*
X149834841Y-101018367D01*
X149834840Y-101018368D01*
X149815490Y-101029539D01*
X149815487Y-101029541D01*
X148089693Y-102755334D01*
X148028370Y-102788819D01*
X147975631Y-102787014D01*
X147975383Y-102788373D01*
X147969156Y-102787235D01*
X147969155Y-102787234D01*
X147969150Y-102787234D01*
X147938912Y-102784854D01*
X147934405Y-102784500D01*
X147934404Y-102784500D01*
X146985606Y-102784500D01*
X146985584Y-102784501D01*
X146950847Y-102787234D01*
X146935723Y-102791628D01*
X146802113Y-102830445D01*
X146802111Y-102830445D01*
X146802111Y-102830446D01*
X146668805Y-102909282D01*
X146668796Y-102909289D01*
X146559289Y-103018796D01*
X146559282Y-103018805D01*
X146480446Y-103152111D01*
X146480445Y-103152113D01*
X146454755Y-103240540D01*
X146437234Y-103300847D01*
X146437234Y-103300849D01*
X146434500Y-103335589D01*
X146434500Y-104284393D01*
X146434501Y-104284415D01*
X146437234Y-104319152D01*
X146437234Y-104319155D01*
X146437235Y-104319156D01*
X146480445Y-104467887D01*
X146480446Y-104467888D01*
X146559282Y-104601194D01*
X146559289Y-104601203D01*
X146668796Y-104710710D01*
X146668805Y-104710717D01*
X146682449Y-104718786D01*
X146802113Y-104789555D01*
X146950844Y-104832765D01*
X146985595Y-104835500D01*
X147934404Y-104835499D01*
X147969156Y-104832765D01*
X148117887Y-104789555D01*
X148251198Y-104710715D01*
X148360715Y-104601198D01*
X148439555Y-104467887D01*
X148482765Y-104319156D01*
X148485500Y-104284405D01*
X148485499Y-103708992D01*
X148974500Y-103708992D01*
X148974500Y-103911007D01*
X149013907Y-104109119D01*
X149013909Y-104109127D01*
X149091212Y-104295752D01*
X149091217Y-104295762D01*
X149203441Y-104463718D01*
X149346281Y-104606558D01*
X149514237Y-104718782D01*
X149514241Y-104718784D01*
X149514244Y-104718786D01*
X149700873Y-104796091D01*
X149849563Y-104825667D01*
X149898992Y-104835499D01*
X149898996Y-104835500D01*
X149898997Y-104835500D01*
X150101004Y-104835500D01*
X150101005Y-104835499D01*
X150299127Y-104796091D01*
X150485756Y-104718786D01*
X150653718Y-104606558D01*
X150796558Y-104463718D01*
X150908786Y-104295756D01*
X150986091Y-104109127D01*
X151025500Y-103911003D01*
X151025500Y-103708997D01*
X150986091Y-103510873D01*
X150908786Y-103324244D01*
X150908784Y-103324241D01*
X150908782Y-103324237D01*
X150796558Y-103156281D01*
X150653718Y-103013441D01*
X150485762Y-102901217D01*
X150485752Y-102901212D01*
X150299127Y-102823909D01*
X150299119Y-102823907D01*
X150101007Y-102784500D01*
X150101003Y-102784500D01*
X149898997Y-102784500D01*
X149898992Y-102784500D01*
X149700880Y-102823907D01*
X149700872Y-102823909D01*
X149514247Y-102901212D01*
X149514237Y-102901217D01*
X149346281Y-103013441D01*
X149203441Y-103156281D01*
X149091217Y-103324237D01*
X149091212Y-103324247D01*
X149013909Y-103510872D01*
X149013907Y-103510880D01*
X148974500Y-103708992D01*
X148485499Y-103708992D01*
X148485499Y-103335596D01*
X148482765Y-103300844D01*
X148482762Y-103300836D01*
X148481627Y-103294613D01*
X148483296Y-103294308D01*
X148483462Y-103232731D01*
X148514662Y-103180307D01*
X150088152Y-101606819D01*
X150149475Y-101573334D01*
X150175833Y-101570500D01*
X151270338Y-101570500D01*
X152289867Y-101570500D01*
X152356906Y-101590185D01*
X152377548Y-101606819D01*
X153453881Y-102683152D01*
X153487366Y-102744475D01*
X153490200Y-102770833D01*
X153490200Y-102860892D01*
X153501098Y-102901565D01*
X153524309Y-102988188D01*
X153524310Y-102988193D01*
X153538846Y-103013369D01*
X153538856Y-103013384D01*
X153590200Y-103102314D01*
X153683386Y-103195500D01*
X153797514Y-103261392D01*
X153924808Y-103295500D01*
X153924810Y-103295500D01*
X154056590Y-103295500D01*
X154056592Y-103295500D01*
X154183886Y-103261392D01*
X154298014Y-103195500D01*
X154391200Y-103102314D01*
X154457092Y-102988186D01*
X154491200Y-102860892D01*
X154491200Y-102729108D01*
X154457092Y-102601814D01*
X154391200Y-102487686D01*
X154298014Y-102394500D01*
X154240950Y-102361554D01*
X154183887Y-102328608D01*
X154120239Y-102311554D01*
X154056592Y-102294500D01*
X153966533Y-102294500D01*
X153899494Y-102274815D01*
X153878852Y-102258181D01*
X152650212Y-101029541D01*
X152650211Y-101029540D01*
X152630860Y-101018368D01*
X152630860Y-101018366D01*
X152630857Y-101018366D01*
X152581694Y-100989981D01*
X152581691Y-100989979D01*
X152543475Y-100979739D01*
X152505262Y-100969500D01*
X152505260Y-100969500D01*
X151734400Y-100969500D01*
X151667361Y-100949815D01*
X151621606Y-100897011D01*
X151610400Y-100845500D01*
X151610400Y-99954500D01*
X151630085Y-99887461D01*
X151682889Y-99841706D01*
X151734400Y-99830500D01*
X153459750Y-99830500D01*
X153459751Y-99830499D01*
X153474568Y-99827552D01*
X153518229Y-99818868D01*
X153518229Y-99818867D01*
X153518231Y-99818867D01*
X153584552Y-99774552D01*
X153628867Y-99708231D01*
X153628867Y-99708229D01*
X153628868Y-99708229D01*
X153637552Y-99664568D01*
X153640500Y-99649748D01*
X153640500Y-98014833D01*
X153660185Y-97947794D01*
X153712989Y-97902039D01*
X153782147Y-97892095D01*
X153845703Y-97921120D01*
X153852181Y-97927152D01*
X154054633Y-98129604D01*
X154088118Y-98190927D01*
X154083134Y-98260619D01*
X154077439Y-98273576D01*
X154060125Y-98307557D01*
X154006597Y-98472301D01*
X154005636Y-98478371D01*
X153979500Y-98643389D01*
X153979500Y-98816611D01*
X154006598Y-98987701D01*
X154060127Y-99152445D01*
X154138768Y-99306788D01*
X154240586Y-99446928D01*
X154363072Y-99569414D01*
X154468177Y-99645777D01*
X154503213Y-99671233D01*
X154543308Y-99691662D01*
X154657555Y-99749873D01*
X154693818Y-99761655D01*
X154751492Y-99801091D01*
X154778691Y-99865449D01*
X154779500Y-99879586D01*
X154779500Y-100980562D01*
X154782024Y-100989980D01*
X154799979Y-101056990D01*
X154799982Y-101056995D01*
X154839535Y-101125504D01*
X154839541Y-101125512D01*
X157114963Y-103400934D01*
X157148448Y-103462257D01*
X157143464Y-103531949D01*
X157101592Y-103587882D01*
X157096174Y-103591717D01*
X156982214Y-103667863D01*
X156842863Y-103807214D01*
X156842860Y-103807218D01*
X156733371Y-103971079D01*
X156733364Y-103971092D01*
X156657950Y-104153160D01*
X156657947Y-104153170D01*
X156619500Y-104346456D01*
X156619500Y-104346459D01*
X156619500Y-104543541D01*
X156619500Y-104543543D01*
X156619499Y-104543543D01*
X156657947Y-104736829D01*
X156657950Y-104736839D01*
X156733364Y-104918907D01*
X156733371Y-104918920D01*
X156842860Y-105082781D01*
X156842863Y-105082785D01*
X156982214Y-105222136D01*
X156982218Y-105222139D01*
X157146079Y-105331628D01*
X157146092Y-105331635D01*
X157328160Y-105407049D01*
X157328165Y-105407051D01*
X157328169Y-105407051D01*
X157328170Y-105407052D01*
X157521456Y-105445500D01*
X157521459Y-105445500D01*
X157718543Y-105445500D01*
X157848582Y-105419632D01*
X157911835Y-105407051D01*
X158093914Y-105331632D01*
X158257782Y-105222139D01*
X158397139Y-105082782D01*
X158506632Y-104918914D01*
X158582051Y-104736835D01*
X158620500Y-104543541D01*
X158620500Y-104346459D01*
X158620500Y-104346456D01*
X158582052Y-104153170D01*
X158582051Y-104153169D01*
X158582051Y-104153165D01*
X158539900Y-104051403D01*
X158506635Y-103971092D01*
X158506628Y-103971079D01*
X158397139Y-103807218D01*
X158397136Y-103807214D01*
X158257785Y-103667863D01*
X158257781Y-103667860D01*
X158093920Y-103558371D01*
X158093907Y-103558364D01*
X157990588Y-103515569D01*
X157936184Y-103471729D01*
X157918267Y-103433106D01*
X157900021Y-103365011D01*
X157883044Y-103335606D01*
X157860464Y-103296495D01*
X157860458Y-103296487D01*
X157674834Y-103110863D01*
X157641349Y-103049540D01*
X157646333Y-102979848D01*
X157688205Y-102923915D01*
X157738324Y-102901565D01*
X157783438Y-102892591D01*
X157911835Y-102867051D01*
X158093914Y-102791632D01*
X158257782Y-102682139D01*
X158397139Y-102542782D01*
X158506632Y-102378914D01*
X158582051Y-102196835D01*
X158599076Y-102111247D01*
X158620500Y-102003543D01*
X158620500Y-101806456D01*
X158582052Y-101613170D01*
X158582051Y-101613169D01*
X158582051Y-101613165D01*
X158582049Y-101613160D01*
X158506635Y-101431092D01*
X158506628Y-101431079D01*
X158397139Y-101267218D01*
X158397136Y-101267214D01*
X158257785Y-101127863D01*
X158257781Y-101127860D01*
X158093920Y-101018371D01*
X158093907Y-101018364D01*
X157911839Y-100942950D01*
X157911829Y-100942947D01*
X157718543Y-100904500D01*
X157718541Y-100904500D01*
X157521459Y-100904500D01*
X157521457Y-100904500D01*
X157328170Y-100942947D01*
X157328160Y-100942950D01*
X157146092Y-101018364D01*
X157146079Y-101018371D01*
X156982218Y-101127860D01*
X156982214Y-101127863D01*
X156842863Y-101267214D01*
X156842860Y-101267218D01*
X156733371Y-101431079D01*
X156733364Y-101431092D01*
X156657950Y-101613160D01*
X156657947Y-101613170D01*
X156623434Y-101786676D01*
X156591049Y-101848587D01*
X156530333Y-101883161D01*
X156460563Y-101879420D01*
X156414136Y-101850165D01*
X155416819Y-100852848D01*
X155383334Y-100791525D01*
X155380500Y-100765167D01*
X155380500Y-99879586D01*
X155400185Y-99812547D01*
X155452989Y-99766792D01*
X155466171Y-99761658D01*
X155502445Y-99749873D01*
X155656788Y-99671232D01*
X155796928Y-99569414D01*
X155902799Y-99463543D01*
X156619499Y-99463543D01*
X156657947Y-99656829D01*
X156657950Y-99656839D01*
X156733364Y-99838907D01*
X156733371Y-99838920D01*
X156842860Y-100002781D01*
X156842863Y-100002785D01*
X156982214Y-100142136D01*
X156982218Y-100142139D01*
X157146079Y-100251628D01*
X157146092Y-100251635D01*
X157328160Y-100327049D01*
X157328165Y-100327051D01*
X157328169Y-100327051D01*
X157328170Y-100327052D01*
X157521456Y-100365500D01*
X157521459Y-100365500D01*
X157718543Y-100365500D01*
X157848582Y-100339632D01*
X157911835Y-100327051D01*
X158093914Y-100251632D01*
X158257782Y-100142139D01*
X158397139Y-100002782D01*
X158506632Y-99838914D01*
X158517554Y-99812547D01*
X158543514Y-99749872D01*
X158582051Y-99656835D01*
X158620500Y-99463541D01*
X158620500Y-99266459D01*
X158620500Y-99266456D01*
X158582052Y-99073170D01*
X158582051Y-99073169D01*
X158582051Y-99073165D01*
X158546651Y-98987701D01*
X158506635Y-98891092D01*
X158506628Y-98891079D01*
X158397139Y-98727218D01*
X158397136Y-98727214D01*
X158257785Y-98587863D01*
X158257781Y-98587860D01*
X158093920Y-98478371D01*
X158093907Y-98478364D01*
X157911839Y-98402950D01*
X157911829Y-98402947D01*
X157718543Y-98364500D01*
X157718541Y-98364500D01*
X157521459Y-98364500D01*
X157521457Y-98364500D01*
X157328170Y-98402947D01*
X157328160Y-98402950D01*
X157146092Y-98478364D01*
X157146079Y-98478371D01*
X156982218Y-98587860D01*
X156982214Y-98587863D01*
X156842863Y-98727214D01*
X156842860Y-98727218D01*
X156733371Y-98891079D01*
X156733364Y-98891092D01*
X156657950Y-99073160D01*
X156657947Y-99073170D01*
X156619500Y-99266456D01*
X156619500Y-99266459D01*
X156619500Y-99463541D01*
X156619500Y-99463543D01*
X156619499Y-99463543D01*
X155902799Y-99463543D01*
X155919414Y-99446928D01*
X156021232Y-99306788D01*
X156099873Y-99152445D01*
X156153402Y-98987701D01*
X156180500Y-98816611D01*
X156180500Y-98643389D01*
X156153402Y-98472299D01*
X156099873Y-98307555D01*
X156021232Y-98153212D01*
X155919414Y-98013072D01*
X155796928Y-97890586D01*
X155656788Y-97788768D01*
X155502445Y-97710127D01*
X155337701Y-97656598D01*
X155337699Y-97656597D01*
X155337698Y-97656597D01*
X155206271Y-97635781D01*
X155166611Y-97629500D01*
X154993389Y-97629500D01*
X154961192Y-97634599D01*
X154822301Y-97656597D01*
X154657557Y-97710125D01*
X154623576Y-97727439D01*
X154554907Y-97740333D01*
X154490167Y-97714054D01*
X154479604Y-97704633D01*
X153486512Y-96711541D01*
X153486507Y-96711537D01*
X153477065Y-96706086D01*
X153477064Y-96706086D01*
X153417991Y-96671980D01*
X153417990Y-96671979D01*
X153392513Y-96665152D01*
X153341562Y-96651500D01*
X153341560Y-96651500D01*
X152744676Y-96651500D01*
X152677637Y-96631815D01*
X152656995Y-96615181D01*
X152593316Y-96551502D01*
X152593314Y-96551500D01*
X152535278Y-96517993D01*
X152479187Y-96485608D01*
X152415539Y-96468554D01*
X152351892Y-96451500D01*
X152220108Y-96451500D01*
X152092812Y-96485608D01*
X151978686Y-96551500D01*
X151978683Y-96551502D01*
X151885502Y-96644683D01*
X151885500Y-96644686D01*
X151841787Y-96720399D01*
X151791219Y-96768614D01*
X151722612Y-96781836D01*
X151657748Y-96755868D01*
X151617220Y-96698954D01*
X151610400Y-96658398D01*
X151610400Y-94981008D01*
X153487700Y-94981008D01*
X153487700Y-95112792D01*
X153500014Y-95158748D01*
X153521808Y-95240087D01*
X153546604Y-95283034D01*
X153587700Y-95354214D01*
X153680886Y-95447400D01*
X153795014Y-95513292D01*
X153922308Y-95547400D01*
X153922310Y-95547400D01*
X154012367Y-95547400D01*
X154079406Y-95567085D01*
X154100048Y-95583719D01*
X155525840Y-97009511D01*
X155581789Y-97065460D01*
X155581791Y-97065461D01*
X155581795Y-97065464D01*
X155650304Y-97105017D01*
X155650311Y-97105021D01*
X155726738Y-97125500D01*
X156578684Y-97125500D01*
X156645723Y-97145185D01*
X156691478Y-97197989D01*
X156693245Y-97202048D01*
X156733364Y-97298907D01*
X156733371Y-97298920D01*
X156842860Y-97462781D01*
X156842863Y-97462785D01*
X156982214Y-97602136D01*
X156982218Y-97602139D01*
X157146079Y-97711628D01*
X157146092Y-97711635D01*
X157242988Y-97751770D01*
X157328165Y-97787051D01*
X157328169Y-97787051D01*
X157328170Y-97787052D01*
X157521456Y-97825500D01*
X157521459Y-97825500D01*
X157718543Y-97825500D01*
X157848582Y-97799632D01*
X157911835Y-97787051D01*
X158093914Y-97711632D01*
X158257782Y-97602139D01*
X158397139Y-97462782D01*
X158506632Y-97298914D01*
X158510814Y-97288819D01*
X158557312Y-97176561D01*
X158582051Y-97116835D01*
X158620500Y-96923541D01*
X158620500Y-96726459D01*
X158620500Y-96726456D01*
X158582052Y-96533170D01*
X158582051Y-96533169D01*
X158582051Y-96533165D01*
X158563418Y-96488181D01*
X158506635Y-96351092D01*
X158506628Y-96351079D01*
X158397139Y-96187218D01*
X158397136Y-96187214D01*
X158257784Y-96047862D01*
X158257781Y-96047860D01*
X158093920Y-95938371D01*
X158093907Y-95938364D01*
X157911839Y-95862950D01*
X157911829Y-95862947D01*
X157718543Y-95824500D01*
X157718541Y-95824500D01*
X157521459Y-95824500D01*
X157521457Y-95824500D01*
X157328170Y-95862947D01*
X157328160Y-95862950D01*
X157146092Y-95938364D01*
X157146079Y-95938371D01*
X156982218Y-96047860D01*
X156982216Y-96047862D01*
X156842863Y-96187214D01*
X156842860Y-96187218D01*
X156733371Y-96351079D01*
X156733364Y-96351092D01*
X156693245Y-96447952D01*
X156649405Y-96502356D01*
X156583111Y-96524421D01*
X156578684Y-96524500D01*
X155942133Y-96524500D01*
X155875094Y-96504815D01*
X155854452Y-96488181D01*
X154525019Y-95158748D01*
X154491534Y-95097425D01*
X154488700Y-95071067D01*
X154488700Y-94981010D01*
X154488700Y-94981008D01*
X154454592Y-94853714D01*
X154388700Y-94739586D01*
X154295514Y-94646400D01*
X154238450Y-94613454D01*
X154181387Y-94580508D01*
X154117739Y-94563454D01*
X154054092Y-94546400D01*
X153922308Y-94546400D01*
X153795012Y-94580508D01*
X153680886Y-94646400D01*
X153680883Y-94646402D01*
X153587702Y-94739583D01*
X153587700Y-94739586D01*
X153521808Y-94853712D01*
X153487700Y-94981008D01*
X151610400Y-94981008D01*
X151610400Y-94589233D01*
X151630085Y-94522194D01*
X151646719Y-94501552D01*
X152954407Y-93193864D01*
X156524818Y-89623452D01*
X156586139Y-89589969D01*
X156655831Y-89594953D01*
X156711764Y-89636825D01*
X156727057Y-89663680D01*
X156733365Y-89678908D01*
X156733371Y-89678920D01*
X156842860Y-89842781D01*
X156842863Y-89842785D01*
X156982214Y-89982136D01*
X156982218Y-89982139D01*
X157146079Y-90091628D01*
X157146092Y-90091635D01*
X157285918Y-90149552D01*
X157328165Y-90167051D01*
X157460674Y-90193409D01*
X157509061Y-90203034D01*
X157570972Y-90235419D01*
X157605546Y-90296134D01*
X157601807Y-90365904D01*
X157560940Y-90422576D01*
X157504269Y-90447124D01*
X157315581Y-90477010D01*
X157120968Y-90540244D01*
X156938650Y-90633140D01*
X156773105Y-90753417D01*
X156773104Y-90753417D01*
X156628417Y-90898104D01*
X156628417Y-90898105D01*
X156508140Y-91063650D01*
X156415244Y-91245970D01*
X156352009Y-91440586D01*
X156343391Y-91495000D01*
X157186988Y-91495000D01*
X157154075Y-91552007D01*
X157120000Y-91679174D01*
X157120000Y-91810826D01*
X157154075Y-91937993D01*
X157186988Y-91995000D01*
X156343391Y-91995000D01*
X156352009Y-92049413D01*
X156415244Y-92244029D01*
X156508140Y-92426349D01*
X156628417Y-92591894D01*
X156628417Y-92591895D01*
X156773104Y-92736582D01*
X156938650Y-92856859D01*
X157120968Y-92949755D01*
X157315582Y-93012990D01*
X157504268Y-93042875D01*
X157567403Y-93072804D01*
X157604334Y-93132116D01*
X157603336Y-93201978D01*
X157564726Y-93260211D01*
X157509062Y-93286965D01*
X157328170Y-93322947D01*
X157328160Y-93322950D01*
X157146092Y-93398364D01*
X157146079Y-93398371D01*
X156982218Y-93507860D01*
X156982214Y-93507863D01*
X156842863Y-93647214D01*
X156842860Y-93647218D01*
X156733371Y-93811079D01*
X156733364Y-93811092D01*
X156657950Y-93993160D01*
X156657947Y-93993170D01*
X156619500Y-94186456D01*
X156619500Y-94186459D01*
X156619500Y-94383541D01*
X156619500Y-94383543D01*
X156619499Y-94383543D01*
X156657947Y-94576829D01*
X156657950Y-94576839D01*
X156733364Y-94758907D01*
X156733371Y-94758920D01*
X156842860Y-94922781D01*
X156842863Y-94922785D01*
X156982214Y-95062136D01*
X156982218Y-95062139D01*
X157146079Y-95171628D01*
X157146092Y-95171635D01*
X157311350Y-95240086D01*
X157328165Y-95247051D01*
X157328169Y-95247051D01*
X157328170Y-95247052D01*
X157521456Y-95285500D01*
X157521459Y-95285500D01*
X157718543Y-95285500D01*
X157848582Y-95259632D01*
X157911835Y-95247051D01*
X158093914Y-95171632D01*
X158257782Y-95062139D01*
X158397139Y-94922782D01*
X158506632Y-94758914D01*
X158582051Y-94576835D01*
X158620500Y-94383541D01*
X158620500Y-94186459D01*
X158620500Y-94186456D01*
X158582052Y-93993170D01*
X158582051Y-93993169D01*
X158582051Y-93993165D01*
X158582049Y-93993160D01*
X158506635Y-93811092D01*
X158506628Y-93811079D01*
X158397139Y-93647218D01*
X158397136Y-93647214D01*
X158257785Y-93507863D01*
X158257781Y-93507860D01*
X158093920Y-93398371D01*
X158093907Y-93398364D01*
X157911839Y-93322950D01*
X157911829Y-93322947D01*
X157730937Y-93286965D01*
X157669026Y-93254580D01*
X157634452Y-93193864D01*
X157638192Y-93124095D01*
X157679059Y-93067423D01*
X157735731Y-93042875D01*
X157924417Y-93012990D01*
X158119031Y-92949755D01*
X158301349Y-92856859D01*
X158466894Y-92736582D01*
X158466895Y-92736582D01*
X158611582Y-92591895D01*
X158611582Y-92591894D01*
X158731859Y-92426349D01*
X158824755Y-92244029D01*
X158887990Y-92049413D01*
X158896609Y-91995000D01*
X158053012Y-91995000D01*
X158085925Y-91937993D01*
X158120000Y-91810826D01*
X158120000Y-91679174D01*
X158085925Y-91552007D01*
X158053012Y-91495000D01*
X158896609Y-91495000D01*
X158887990Y-91440586D01*
X158824755Y-91245970D01*
X158731859Y-91063650D01*
X158611582Y-90898105D01*
X158611582Y-90898104D01*
X158466895Y-90753417D01*
X158301349Y-90633140D01*
X158119031Y-90540244D01*
X157924417Y-90477009D01*
X157735731Y-90447124D01*
X157672596Y-90417194D01*
X157635665Y-90357883D01*
X157636663Y-90288020D01*
X157675273Y-90229788D01*
X157730938Y-90203034D01*
X157911835Y-90167051D01*
X158093914Y-90091632D01*
X158257782Y-89982139D01*
X158397139Y-89842782D01*
X158506632Y-89678914D01*
X158582051Y-89496835D01*
X158620500Y-89303541D01*
X158620500Y-89106459D01*
X158620500Y-89106456D01*
X158582052Y-88913170D01*
X158582051Y-88913169D01*
X158582051Y-88913165D01*
X158544615Y-88822785D01*
X158506635Y-88731092D01*
X158506628Y-88731079D01*
X158397139Y-88567218D01*
X158397136Y-88567214D01*
X158257785Y-88427863D01*
X158257781Y-88427860D01*
X158093920Y-88318371D01*
X158093907Y-88318364D01*
X157911839Y-88242950D01*
X157911829Y-88242947D01*
X157718543Y-88204500D01*
X157718541Y-88204500D01*
X157521459Y-88204500D01*
X157521457Y-88204500D01*
X157328170Y-88242947D01*
X157328160Y-88242950D01*
X157146092Y-88318364D01*
X157146079Y-88318371D01*
X156982218Y-88427860D01*
X156982214Y-88427863D01*
X156842863Y-88567214D01*
X156842860Y-88567218D01*
X156733371Y-88731079D01*
X156733363Y-88731093D01*
X156727056Y-88746321D01*
X156683213Y-88800723D01*
X156616918Y-88822785D01*
X156549220Y-88805503D01*
X156524816Y-88786545D01*
X153565913Y-85827641D01*
X153565911Y-85827639D01*
X153559239Y-85823788D01*
X153559234Y-85823785D01*
X153497392Y-85788080D01*
X153497391Y-85788079D01*
X153459175Y-85777839D01*
X153420962Y-85767600D01*
X153420960Y-85767600D01*
X145671576Y-85767600D01*
X145604537Y-85747915D01*
X145598264Y-85743607D01*
X145590610Y-85737996D01*
X145521814Y-85669200D01*
X145407686Y-85603308D01*
X145406410Y-85602966D01*
X145398419Y-85597108D01*
X145381145Y-85574508D01*
X145361515Y-85553920D01*
X145360202Y-85547107D01*
X145355990Y-85541597D01*
X145353676Y-85513246D01*
X145348293Y-85485313D01*
X145350871Y-85478872D01*
X145350307Y-85471959D01*
X145363689Y-85446855D01*
X145374261Y-85420449D01*
X145383037Y-85410560D01*
X145383175Y-85410303D01*
X145383356Y-85410201D01*
X145384042Y-85409428D01*
X148970460Y-81823011D01*
X149010022Y-81754488D01*
X149030500Y-81678062D01*
X149030500Y-81598938D01*
X149030500Y-81522672D01*
X149050185Y-81455633D01*
X149102989Y-81409878D01*
X149172147Y-81399934D01*
X149227385Y-81422354D01*
X149292442Y-81469620D01*
X149481782Y-81566095D01*
X149683870Y-81631757D01*
X149893754Y-81665000D01*
X150106246Y-81665000D01*
X150316127Y-81631757D01*
X150316130Y-81631757D01*
X150518217Y-81566095D01*
X150707554Y-81469622D01*
X150761716Y-81430270D01*
X150761717Y-81430270D01*
X150129409Y-80797962D01*
X150192993Y-80780925D01*
X150307007Y-80715099D01*
X150400099Y-80622007D01*
X150465925Y-80507993D01*
X150482962Y-80444408D01*
X151115270Y-81076717D01*
X151115270Y-81076716D01*
X151154622Y-81022554D01*
X151159514Y-81012954D01*
X151207488Y-80962157D01*
X151275308Y-80945361D01*
X151341444Y-80967897D01*
X151380486Y-81012954D01*
X151385375Y-81022550D01*
X151424728Y-81076716D01*
X152057037Y-80444408D01*
X152074075Y-80507993D01*
X152139901Y-80622007D01*
X152232993Y-80715099D01*
X152347007Y-80780925D01*
X152410590Y-80797962D01*
X151778282Y-81430269D01*
X151778282Y-81430270D01*
X151832449Y-81469624D01*
X152021782Y-81566095D01*
X152223870Y-81631757D01*
X152433754Y-81665000D01*
X152646246Y-81665000D01*
X152856127Y-81631757D01*
X152856130Y-81631757D01*
X153058217Y-81566095D01*
X153247554Y-81469622D01*
X153301716Y-81430270D01*
X153301717Y-81430270D01*
X152669408Y-80797962D01*
X152732993Y-80780925D01*
X152847007Y-80715099D01*
X152940099Y-80622007D01*
X153005925Y-80507993D01*
X153022962Y-80444408D01*
X153655270Y-81076717D01*
X153655270Y-81076716D01*
X153694622Y-81022554D01*
X153791095Y-80833217D01*
X153848343Y-80657026D01*
X153887780Y-80599351D01*
X153952139Y-80572152D01*
X154020985Y-80584066D01*
X154072461Y-80631310D01*
X154080835Y-80647891D01*
X154135939Y-80780925D01*
X154149059Y-80812598D01*
X154162836Y-80833217D01*
X154264024Y-80984657D01*
X154410342Y-81130975D01*
X154410345Y-81130977D01*
X154582402Y-81245941D01*
X154773580Y-81325130D01*
X154976530Y-81365499D01*
X154976534Y-81365500D01*
X154976535Y-81365500D01*
X155183466Y-81365500D01*
X155183467Y-81365499D01*
X155386420Y-81325130D01*
X155577598Y-81245941D01*
X155749655Y-81130977D01*
X155895977Y-80984655D01*
X156010941Y-80812598D01*
X156090130Y-80621420D01*
X156130500Y-80418465D01*
X156130500Y-80211535D01*
X156090130Y-80008580D01*
X156010941Y-79817402D01*
X155895977Y-79645345D01*
X155895975Y-79645342D01*
X155749657Y-79499024D01*
X155663626Y-79441541D01*
X155577598Y-79384059D01*
X155386420Y-79304870D01*
X155386412Y-79304868D01*
X155183469Y-79264500D01*
X155183465Y-79264500D01*
X154976535Y-79264500D01*
X154976530Y-79264500D01*
X154773587Y-79304868D01*
X154773579Y-79304870D01*
X154582403Y-79384058D01*
X154410342Y-79499024D01*
X154264024Y-79645342D01*
X154149057Y-79817403D01*
X154080835Y-79982108D01*
X154036994Y-80036511D01*
X153970700Y-80058576D01*
X153903000Y-80041297D01*
X153855390Y-79990159D01*
X153848343Y-79972973D01*
X153791095Y-79796782D01*
X153694624Y-79607449D01*
X153655270Y-79553282D01*
X153655269Y-79553282D01*
X153022962Y-80185590D01*
X153005925Y-80122007D01*
X152940099Y-80007993D01*
X152847007Y-79914901D01*
X152732993Y-79849075D01*
X152669409Y-79832037D01*
X153301716Y-79199728D01*
X153247550Y-79160375D01*
X153237954Y-79155486D01*
X153187157Y-79107512D01*
X153170361Y-79039692D01*
X153192897Y-78973556D01*
X153237954Y-78934514D01*
X153247554Y-78929622D01*
X153301716Y-78890270D01*
X153301717Y-78890270D01*
X152669408Y-78257962D01*
X152732993Y-78240925D01*
X152847007Y-78175099D01*
X152940099Y-78082007D01*
X153005925Y-77967993D01*
X153022962Y-77904408D01*
X153655270Y-78536717D01*
X153655270Y-78536716D01*
X153694622Y-78482554D01*
X153793306Y-78288879D01*
X153794321Y-78289396D01*
X153834779Y-78239192D01*
X153901073Y-78217127D01*
X153968772Y-78234406D01*
X154016383Y-78285542D01*
X154029500Y-78341048D01*
X154029500Y-78429269D01*
X154032353Y-78459699D01*
X154032353Y-78459701D01*
X154077206Y-78587880D01*
X154077207Y-78587882D01*
X154157850Y-78697150D01*
X154267118Y-78777793D01*
X154288089Y-78785131D01*
X154395299Y-78822646D01*
X154425730Y-78825500D01*
X154425734Y-78825500D01*
X155734270Y-78825500D01*
X155764699Y-78822646D01*
X155764701Y-78822646D01*
X155828790Y-78800219D01*
X155892882Y-78777793D01*
X156002150Y-78697150D01*
X156082793Y-78587882D01*
X156119649Y-78482554D01*
X156127646Y-78459701D01*
X156127646Y-78459699D01*
X156130500Y-78429269D01*
X156130500Y-77120730D01*
X156127646Y-77090300D01*
X156127646Y-77090298D01*
X156082793Y-76962119D01*
X156082792Y-76962117D01*
X156002150Y-76852850D01*
X155892882Y-76772207D01*
X155892880Y-76772206D01*
X155764700Y-76727353D01*
X155734270Y-76724500D01*
X155734266Y-76724500D01*
X154425734Y-76724500D01*
X154425730Y-76724500D01*
X154395300Y-76727353D01*
X154395298Y-76727353D01*
X154267119Y-76772206D01*
X154267117Y-76772207D01*
X154157850Y-76852850D01*
X154077207Y-76962117D01*
X154077206Y-76962119D01*
X154032353Y-77090298D01*
X154032353Y-77090300D01*
X154029500Y-77120730D01*
X154029500Y-77208951D01*
X154009815Y-77275990D01*
X153957011Y-77321745D01*
X153887853Y-77331689D01*
X153824297Y-77302664D01*
X153794061Y-77260736D01*
X153793306Y-77261121D01*
X153694624Y-77067449D01*
X153655270Y-77013282D01*
X153655269Y-77013282D01*
X153022962Y-77645590D01*
X153005925Y-77582007D01*
X152940099Y-77467993D01*
X152847007Y-77374901D01*
X152732993Y-77309075D01*
X152669409Y-77292037D01*
X153301716Y-76659728D01*
X153247550Y-76620375D01*
X153058217Y-76523904D01*
X152856129Y-76458242D01*
X152646246Y-76425000D01*
X152433754Y-76425000D01*
X152223872Y-76458242D01*
X152223869Y-76458242D01*
X152021782Y-76523904D01*
X151832439Y-76620380D01*
X151778282Y-76659727D01*
X151778282Y-76659728D01*
X152410591Y-77292037D01*
X152347007Y-77309075D01*
X152232993Y-77374901D01*
X152139901Y-77467993D01*
X152074075Y-77582007D01*
X152057037Y-77645591D01*
X151424728Y-77013282D01*
X151424727Y-77013282D01*
X151385380Y-77067440D01*
X151380483Y-77077051D01*
X151332506Y-77127845D01*
X151264684Y-77144638D01*
X151198550Y-77122098D01*
X151159516Y-77077048D01*
X151154626Y-77067452D01*
X151115270Y-77013282D01*
X151115269Y-77013282D01*
X150482962Y-77645590D01*
X150465925Y-77582007D01*
X150400099Y-77467993D01*
X150307007Y-77374901D01*
X150192993Y-77309075D01*
X150129407Y-77292036D01*
X150761716Y-76659728D01*
X150707550Y-76620375D01*
X150518217Y-76523904D01*
X150316129Y-76458242D01*
X150211530Y-76441675D01*
X150148396Y-76411745D01*
X150111465Y-76352434D01*
X150112463Y-76282571D01*
X150143245Y-76231524D01*
X150762051Y-75612718D01*
X150823374Y-75579234D01*
X150849732Y-75576400D01*
X150939790Y-75576400D01*
X150939792Y-75576400D01*
X151067086Y-75542292D01*
X151181214Y-75476400D01*
X151274400Y-75383214D01*
X151340292Y-75269086D01*
X151374400Y-75141792D01*
X151374400Y-75010008D01*
X151340292Y-74882714D01*
X151274400Y-74768586D01*
X151181214Y-74675400D01*
X151102756Y-74630102D01*
X151067087Y-74609508D01*
X151003439Y-74592454D01*
X150939792Y-74575400D01*
X150808008Y-74575400D01*
X150680712Y-74609508D01*
X150566586Y-74675400D01*
X150566583Y-74675402D01*
X150473402Y-74768583D01*
X150473400Y-74768586D01*
X150407508Y-74882712D01*
X150373400Y-75010008D01*
X150373400Y-75100066D01*
X150353715Y-75167105D01*
X150337081Y-75187747D01*
X148553948Y-76970880D01*
X148553945Y-76970883D01*
X148545489Y-76979340D01*
X148489540Y-77035289D01*
X148449979Y-77103811D01*
X148440489Y-77139223D01*
X148428905Y-77156413D01*
X148420209Y-77163621D01*
X148413760Y-77174792D01*
X147942962Y-77645590D01*
X147925925Y-77582007D01*
X147860099Y-77467993D01*
X147767007Y-77374901D01*
X147652993Y-77309075D01*
X147589409Y-77292037D01*
X148221716Y-76659728D01*
X148167550Y-76620375D01*
X147978217Y-76523904D01*
X147776129Y-76458242D01*
X147566246Y-76425000D01*
X147353754Y-76425000D01*
X147143872Y-76458242D01*
X147143869Y-76458242D01*
X146941782Y-76523904D01*
X146752439Y-76620380D01*
X146698282Y-76659727D01*
X146698282Y-76659728D01*
X147330591Y-77292037D01*
X147267007Y-77309075D01*
X147152993Y-77374901D01*
X147059901Y-77467993D01*
X146994075Y-77582007D01*
X146977037Y-77645591D01*
X146344728Y-77013282D01*
X146344727Y-77013282D01*
X146305380Y-77067439D01*
X146208905Y-77256781D01*
X146151656Y-77432974D01*
X146112218Y-77490649D01*
X146047859Y-77517847D01*
X145979013Y-77505932D01*
X145927537Y-77458688D01*
X145919164Y-77442107D01*
X145850943Y-77277405D01*
X145735975Y-77105342D01*
X145589657Y-76959024D01*
X145503626Y-76901541D01*
X145417598Y-76844059D01*
X145226420Y-76764870D01*
X145226412Y-76764868D01*
X145023469Y-76724500D01*
X145023465Y-76724500D01*
X144816535Y-76724500D01*
X144816530Y-76724500D01*
X144613587Y-76764868D01*
X144613579Y-76764870D01*
X144422403Y-76844058D01*
X144250342Y-76959024D01*
X144104024Y-77105342D01*
X143989058Y-77277403D01*
X143909870Y-77468579D01*
X143909868Y-77468587D01*
X143869500Y-77671530D01*
X143869500Y-77878469D01*
X143909868Y-78081412D01*
X143909870Y-78081420D01*
X143975939Y-78240925D01*
X143989059Y-78272598D01*
X144034796Y-78341048D01*
X144104024Y-78444657D01*
X144250342Y-78590975D01*
X144250345Y-78590977D01*
X144422402Y-78705941D01*
X144613580Y-78785130D01*
X144802187Y-78822646D01*
X144816530Y-78825499D01*
X144816534Y-78825500D01*
X144816535Y-78825500D01*
X145023466Y-78825500D01*
X145023467Y-78825499D01*
X145226420Y-78785130D01*
X145417598Y-78705941D01*
X145589655Y-78590977D01*
X145735977Y-78444655D01*
X145850941Y-78272598D01*
X145919165Y-78107889D01*
X145963004Y-78053488D01*
X146029298Y-78031423D01*
X146096998Y-78048702D01*
X146144609Y-78099839D01*
X146151656Y-78117026D01*
X146208904Y-78293216D01*
X146305375Y-78482550D01*
X146344728Y-78536716D01*
X146977037Y-77904408D01*
X146994075Y-77967993D01*
X147059901Y-78082007D01*
X147152993Y-78175099D01*
X147267007Y-78240925D01*
X147330590Y-78257962D01*
X146698282Y-78890269D01*
X146698282Y-78890270D01*
X146752452Y-78929626D01*
X146762048Y-78934516D01*
X146812844Y-78982491D01*
X146829638Y-79050312D01*
X146807100Y-79116447D01*
X146762051Y-79155483D01*
X146752440Y-79160380D01*
X146698282Y-79199727D01*
X146698282Y-79199728D01*
X147330591Y-79832037D01*
X147267007Y-79849075D01*
X147152993Y-79914901D01*
X147059901Y-80007993D01*
X146994075Y-80122007D01*
X146977037Y-80185591D01*
X146344728Y-79553282D01*
X146344727Y-79553282D01*
X146305380Y-79607439D01*
X146208905Y-79796781D01*
X146151656Y-79972974D01*
X146112218Y-80030649D01*
X146047859Y-80057847D01*
X145979013Y-80045932D01*
X145927537Y-79998688D01*
X145919164Y-79982107D01*
X145850943Y-79817405D01*
X145735975Y-79645342D01*
X145589657Y-79499024D01*
X145503626Y-79441541D01*
X145417598Y-79384059D01*
X145226420Y-79304870D01*
X145226412Y-79304868D01*
X145023469Y-79264500D01*
X145023465Y-79264500D01*
X144816535Y-79264500D01*
X144816530Y-79264500D01*
X144613587Y-79304868D01*
X144613579Y-79304870D01*
X144422403Y-79384058D01*
X144250342Y-79499024D01*
X144104024Y-79645342D01*
X143989058Y-79817403D01*
X143909870Y-80008579D01*
X143909868Y-80008587D01*
X143869500Y-80211530D01*
X143869500Y-80418469D01*
X143909868Y-80621412D01*
X143909870Y-80621420D01*
X143975939Y-80780925D01*
X143989059Y-80812598D01*
X144002836Y-80833217D01*
X144104024Y-80984657D01*
X144250342Y-81130975D01*
X144250345Y-81130977D01*
X144422402Y-81245941D01*
X144613580Y-81325130D01*
X144816530Y-81365499D01*
X144816534Y-81365500D01*
X144816535Y-81365500D01*
X145023466Y-81365500D01*
X145023467Y-81365499D01*
X145226420Y-81325130D01*
X145417598Y-81245941D01*
X145589655Y-81130977D01*
X145735977Y-80984655D01*
X145850941Y-80812598D01*
X145919165Y-80647889D01*
X145963004Y-80593488D01*
X146029298Y-80571423D01*
X146096998Y-80588702D01*
X146144609Y-80639839D01*
X146151656Y-80657026D01*
X146208904Y-80833216D01*
X146305375Y-81022550D01*
X146344728Y-81076716D01*
X146977037Y-80444408D01*
X146994075Y-80507993D01*
X147059901Y-80622007D01*
X147152993Y-80715099D01*
X147267007Y-80780925D01*
X147330589Y-80797962D01*
X146698282Y-81430269D01*
X146698282Y-81430270D01*
X146752449Y-81469624D01*
X146941782Y-81566095D01*
X147143870Y-81631757D01*
X147353754Y-81665000D01*
X147566246Y-81665000D01*
X147776127Y-81631757D01*
X147776130Y-81631757D01*
X147978219Y-81566094D01*
X148094582Y-81506804D01*
X148163251Y-81493907D01*
X148227992Y-81520183D01*
X148268249Y-81577289D01*
X148271242Y-81647094D01*
X148238559Y-81704969D01*
X144428189Y-85515340D01*
X144372241Y-85571287D01*
X144372235Y-85571295D01*
X144332682Y-85639804D01*
X144332679Y-85639809D01*
X144324804Y-85669200D01*
X144312200Y-85716238D01*
X144312200Y-95922262D01*
X144332679Y-95998689D01*
X144361068Y-96047861D01*
X144361069Y-96047862D01*
X144372242Y-96067214D01*
X145722848Y-97417819D01*
X145756333Y-97479142D01*
X145751349Y-97548834D01*
X145709477Y-97604767D01*
X145644013Y-97629184D01*
X145635167Y-97629500D01*
X144000247Y-97629500D01*
X143941770Y-97641131D01*
X143941769Y-97641132D01*
X143875447Y-97685447D01*
X143831132Y-97751769D01*
X143831131Y-97751770D01*
X143819500Y-97810247D01*
X143819500Y-99649752D01*
X143831131Y-99708229D01*
X143831132Y-99708230D01*
X143875447Y-99774552D01*
X143941769Y-99818867D01*
X143941770Y-99818868D01*
X144000247Y-99830499D01*
X144000250Y-99830500D01*
X145635166Y-99830500D01*
X145702205Y-99850185D01*
X145747960Y-99902989D01*
X145757904Y-99972147D01*
X145728879Y-100035703D01*
X145722847Y-100042181D01*
X143635291Y-102129737D01*
X143635290Y-102129738D01*
X143635289Y-102129740D01*
X143588317Y-102176712D01*
X143574945Y-102190084D01*
X143513621Y-102223568D01*
X143443929Y-102218583D01*
X143387996Y-102176712D01*
X143363580Y-102111247D01*
X143365647Y-102078209D01*
X143380500Y-102003542D01*
X143380500Y-101806456D01*
X143342052Y-101613170D01*
X143342051Y-101613169D01*
X143342051Y-101613165D01*
X143342049Y-101613160D01*
X143266635Y-101431092D01*
X143266628Y-101431079D01*
X143157139Y-101267218D01*
X143157136Y-101267214D01*
X143017785Y-101127863D01*
X143017781Y-101127860D01*
X142853920Y-101018371D01*
X142853907Y-101018364D01*
X142671839Y-100942950D01*
X142671829Y-100942947D01*
X142478543Y-100904500D01*
X142478541Y-100904500D01*
X142281459Y-100904500D01*
X142281457Y-100904500D01*
X142088170Y-100942947D01*
X142088160Y-100942950D01*
X141906092Y-101018364D01*
X141906079Y-101018371D01*
X141742218Y-101127860D01*
X141742214Y-101127863D01*
X141602863Y-101267214D01*
X141602860Y-101267218D01*
X141493371Y-101431079D01*
X141493364Y-101431092D01*
X141417950Y-101613160D01*
X141417947Y-101613170D01*
X141379500Y-101806456D01*
X141379500Y-101806459D01*
X141379500Y-102003541D01*
X141379500Y-102003543D01*
X141379499Y-102003543D01*
X141417947Y-102196829D01*
X141417950Y-102196839D01*
X141493364Y-102378907D01*
X141493371Y-102378920D01*
X141602860Y-102542781D01*
X141602863Y-102542785D01*
X141742214Y-102682136D01*
X141742218Y-102682139D01*
X141906079Y-102791628D01*
X141906092Y-102791635D01*
X142088160Y-102867049D01*
X142088165Y-102867051D01*
X142088169Y-102867051D01*
X142088170Y-102867052D01*
X142281456Y-102905500D01*
X142281459Y-102905500D01*
X142478543Y-102905500D01*
X142608582Y-102879632D01*
X142671835Y-102867051D01*
X142853914Y-102791632D01*
X143017782Y-102682139D01*
X143157139Y-102542782D01*
X143266632Y-102378914D01*
X143280739Y-102344855D01*
X143324579Y-102290454D01*
X143390873Y-102268388D01*
X143458572Y-102285667D01*
X143506183Y-102336803D01*
X143519300Y-102392309D01*
X143519300Y-103957690D01*
X143499615Y-104024729D01*
X143446811Y-104070484D01*
X143377653Y-104080428D01*
X143314097Y-104051403D01*
X143280739Y-104005143D01*
X143266633Y-103971088D01*
X143266628Y-103971079D01*
X143157139Y-103807218D01*
X143157136Y-103807214D01*
X143017785Y-103667863D01*
X143017781Y-103667860D01*
X142853920Y-103558371D01*
X142853907Y-103558364D01*
X142671839Y-103482950D01*
X142671829Y-103482947D01*
X142478543Y-103444500D01*
X142478541Y-103444500D01*
X142281459Y-103444500D01*
X142281457Y-103444500D01*
X142088170Y-103482947D01*
X142088160Y-103482950D01*
X141906092Y-103558364D01*
X141906079Y-103558371D01*
X141742218Y-103667860D01*
X141742214Y-103667863D01*
X141602863Y-103807214D01*
X141602860Y-103807218D01*
X141493371Y-103971079D01*
X141493364Y-103971092D01*
X141417950Y-104153160D01*
X141417947Y-104153170D01*
X141379500Y-104346456D01*
X141379500Y-104346459D01*
X141379500Y-104543541D01*
X141379500Y-104543543D01*
X141379499Y-104543543D01*
X141417947Y-104736829D01*
X141417950Y-104736839D01*
X141493364Y-104918907D01*
X141493371Y-104918920D01*
X141602860Y-105082781D01*
X141602863Y-105082785D01*
X141742214Y-105222136D01*
X141742218Y-105222139D01*
X141906079Y-105331628D01*
X141906092Y-105331635D01*
X142088160Y-105407049D01*
X142088165Y-105407051D01*
X142088169Y-105407051D01*
X142088170Y-105407052D01*
X142281456Y-105445500D01*
X142281459Y-105445500D01*
X142478543Y-105445500D01*
X142608582Y-105419632D01*
X142671835Y-105407051D01*
X142853914Y-105331632D01*
X143017782Y-105222139D01*
X143157139Y-105082782D01*
X143266632Y-104918914D01*
X143280739Y-104884855D01*
X143324579Y-104830454D01*
X143390873Y-104808388D01*
X143458572Y-104825667D01*
X143506183Y-104876803D01*
X143519300Y-104932309D01*
X143519300Y-106497690D01*
X143499615Y-106564729D01*
X143446811Y-106610484D01*
X143377653Y-106620428D01*
X143314097Y-106591403D01*
X143280739Y-106545143D01*
X143266633Y-106511088D01*
X143266628Y-106511079D01*
X143157139Y-106347218D01*
X143157136Y-106347214D01*
X143017785Y-106207863D01*
X143017781Y-106207860D01*
X142853920Y-106098371D01*
X142853907Y-106098364D01*
X142671839Y-106022950D01*
X142671829Y-106022947D01*
X142478543Y-105984500D01*
X142478541Y-105984500D01*
X142281459Y-105984500D01*
X142281457Y-105984500D01*
X142088170Y-106022947D01*
X142088160Y-106022950D01*
X141906092Y-106098364D01*
X141906079Y-106098371D01*
X141742218Y-106207860D01*
X141742214Y-106207863D01*
X141602863Y-106347214D01*
X141602860Y-106347218D01*
X141493371Y-106511079D01*
X141493364Y-106511092D01*
X141417950Y-106693160D01*
X141417947Y-106693170D01*
X141401394Y-106776388D01*
X141369009Y-106838299D01*
X141308293Y-106872873D01*
X141238523Y-106869132D01*
X141232330Y-106866760D01*
X141225688Y-106864009D01*
X141225686Y-106864008D01*
X141098392Y-106829900D01*
X140966608Y-106829900D01*
X140839314Y-106864008D01*
X140839313Y-106864008D01*
X140831593Y-106866077D01*
X140761743Y-106864414D01*
X140703881Y-106825251D01*
X140676377Y-106761023D01*
X140675500Y-106746302D01*
X140675500Y-96575000D01*
X141103391Y-96575000D01*
X141946988Y-96575000D01*
X141914075Y-96632007D01*
X141880000Y-96759174D01*
X141880000Y-96890826D01*
X141914075Y-97017993D01*
X141946988Y-97075000D01*
X141103391Y-97075000D01*
X141112009Y-97129413D01*
X141175244Y-97324029D01*
X141268140Y-97506349D01*
X141388417Y-97671894D01*
X141388417Y-97671895D01*
X141533104Y-97816582D01*
X141698650Y-97936859D01*
X141880968Y-98029755D01*
X142075582Y-98092990D01*
X142264268Y-98122875D01*
X142327403Y-98152804D01*
X142364334Y-98212116D01*
X142363336Y-98281978D01*
X142324726Y-98340211D01*
X142269062Y-98366965D01*
X142088170Y-98402947D01*
X142088160Y-98402950D01*
X141906092Y-98478364D01*
X141906079Y-98478371D01*
X141742218Y-98587860D01*
X141742214Y-98587863D01*
X141602863Y-98727214D01*
X141602860Y-98727218D01*
X141493371Y-98891079D01*
X141493364Y-98891092D01*
X141417950Y-99073160D01*
X141417947Y-99073170D01*
X141379500Y-99266456D01*
X141379500Y-99266459D01*
X141379500Y-99463541D01*
X141379500Y-99463543D01*
X141379499Y-99463543D01*
X141417947Y-99656829D01*
X141417950Y-99656839D01*
X141493364Y-99838907D01*
X141493371Y-99838920D01*
X141602860Y-100002781D01*
X141602863Y-100002785D01*
X141742214Y-100142136D01*
X141742218Y-100142139D01*
X141906079Y-100251628D01*
X141906092Y-100251635D01*
X142088160Y-100327049D01*
X142088165Y-100327051D01*
X142088169Y-100327051D01*
X142088170Y-100327052D01*
X142281456Y-100365500D01*
X142281459Y-100365500D01*
X142478543Y-100365500D01*
X142608582Y-100339632D01*
X142671835Y-100327051D01*
X142853914Y-100251632D01*
X143017782Y-100142139D01*
X143157139Y-100002782D01*
X143266632Y-99838914D01*
X143277554Y-99812547D01*
X143303514Y-99749872D01*
X143342051Y-99656835D01*
X143380500Y-99463541D01*
X143380500Y-99266459D01*
X143380500Y-99266456D01*
X143342052Y-99073170D01*
X143342051Y-99073169D01*
X143342051Y-99073165D01*
X143306651Y-98987701D01*
X143266635Y-98891092D01*
X143266628Y-98891079D01*
X143157139Y-98727218D01*
X143157136Y-98727214D01*
X143017785Y-98587863D01*
X143017781Y-98587860D01*
X142853920Y-98478371D01*
X142853907Y-98478364D01*
X142671839Y-98402950D01*
X142671829Y-98402947D01*
X142490937Y-98366965D01*
X142429026Y-98334580D01*
X142394452Y-98273864D01*
X142398192Y-98204095D01*
X142439059Y-98147423D01*
X142495731Y-98122875D01*
X142684417Y-98092990D01*
X142879031Y-98029755D01*
X143061349Y-97936859D01*
X143226894Y-97816582D01*
X143226895Y-97816582D01*
X143371582Y-97671895D01*
X143371582Y-97671894D01*
X143491859Y-97506349D01*
X143584755Y-97324029D01*
X143647990Y-97129413D01*
X143656609Y-97075000D01*
X142813012Y-97075000D01*
X142845925Y-97017993D01*
X142880000Y-96890826D01*
X142880000Y-96759174D01*
X142845925Y-96632007D01*
X142813012Y-96575000D01*
X143656609Y-96575000D01*
X143647990Y-96520586D01*
X143584755Y-96325970D01*
X143491859Y-96143650D01*
X143371582Y-95978105D01*
X143371582Y-95978104D01*
X143226895Y-95833417D01*
X143061349Y-95713140D01*
X142879031Y-95620244D01*
X142684417Y-95557009D01*
X142495731Y-95527124D01*
X142432596Y-95497194D01*
X142395665Y-95437883D01*
X142396663Y-95368020D01*
X142435273Y-95309788D01*
X142490938Y-95283034D01*
X142671835Y-95247051D01*
X142853914Y-95171632D01*
X143017782Y-95062139D01*
X143157139Y-94922782D01*
X143266632Y-94758914D01*
X143342051Y-94576835D01*
X143380500Y-94383541D01*
X143380500Y-94186459D01*
X143380500Y-94186456D01*
X143342052Y-93993170D01*
X143342051Y-93993169D01*
X143342051Y-93993165D01*
X143342049Y-93993160D01*
X143266635Y-93811092D01*
X143266628Y-93811079D01*
X143157139Y-93647218D01*
X143157136Y-93647214D01*
X143017785Y-93507863D01*
X143017781Y-93507860D01*
X142853920Y-93398371D01*
X142853907Y-93398364D01*
X142671839Y-93322950D01*
X142671829Y-93322947D01*
X142478543Y-93284500D01*
X142478541Y-93284500D01*
X142281459Y-93284500D01*
X142281457Y-93284500D01*
X142088170Y-93322947D01*
X142088160Y-93322950D01*
X141906092Y-93398364D01*
X141906079Y-93398371D01*
X141742218Y-93507860D01*
X141742214Y-93507863D01*
X141602863Y-93647214D01*
X141602860Y-93647218D01*
X141493371Y-93811079D01*
X141493364Y-93811092D01*
X141417950Y-93993160D01*
X141417947Y-93993170D01*
X141379500Y-94186456D01*
X141379500Y-94186459D01*
X141379500Y-94383541D01*
X141379500Y-94383543D01*
X141379499Y-94383543D01*
X141417947Y-94576829D01*
X141417950Y-94576839D01*
X141493364Y-94758907D01*
X141493371Y-94758920D01*
X141602860Y-94922781D01*
X141602863Y-94922785D01*
X141742214Y-95062136D01*
X141742218Y-95062139D01*
X141906079Y-95171628D01*
X141906092Y-95171635D01*
X142071350Y-95240086D01*
X142088165Y-95247051D01*
X142220674Y-95273409D01*
X142269061Y-95283034D01*
X142330972Y-95315419D01*
X142365546Y-95376134D01*
X142361807Y-95445904D01*
X142320940Y-95502576D01*
X142264269Y-95527124D01*
X142075581Y-95557010D01*
X141880968Y-95620244D01*
X141698650Y-95713140D01*
X141533105Y-95833417D01*
X141533104Y-95833417D01*
X141388417Y-95978104D01*
X141388417Y-95978105D01*
X141268140Y-96143650D01*
X141175244Y-96325970D01*
X141112009Y-96520586D01*
X141103391Y-96575000D01*
X140675500Y-96575000D01*
X140675500Y-91843543D01*
X141379499Y-91843543D01*
X141417947Y-92036829D01*
X141417950Y-92036839D01*
X141493364Y-92218907D01*
X141493371Y-92218920D01*
X141602860Y-92382781D01*
X141602863Y-92382785D01*
X141742214Y-92522136D01*
X141742218Y-92522139D01*
X141906079Y-92631628D01*
X141906092Y-92631635D01*
X142088160Y-92707049D01*
X142088165Y-92707051D01*
X142088169Y-92707051D01*
X142088170Y-92707052D01*
X142281456Y-92745500D01*
X142281459Y-92745500D01*
X142478543Y-92745500D01*
X142608582Y-92719632D01*
X142671835Y-92707051D01*
X142853914Y-92631632D01*
X143017782Y-92522139D01*
X143157139Y-92382782D01*
X143266632Y-92218914D01*
X143342051Y-92036835D01*
X143380500Y-91843541D01*
X143380500Y-91646459D01*
X143380500Y-91646456D01*
X143342052Y-91453170D01*
X143342051Y-91453169D01*
X143342051Y-91453165D01*
X143297207Y-91344901D01*
X143266635Y-91271092D01*
X143266628Y-91271079D01*
X143157139Y-91107218D01*
X143157136Y-91107214D01*
X143017785Y-90967863D01*
X143017781Y-90967860D01*
X142853920Y-90858371D01*
X142853907Y-90858364D01*
X142671839Y-90782950D01*
X142671829Y-90782947D01*
X142478543Y-90744500D01*
X142478541Y-90744500D01*
X142281459Y-90744500D01*
X142281457Y-90744500D01*
X142088170Y-90782947D01*
X142088160Y-90782950D01*
X141906092Y-90858364D01*
X141906079Y-90858371D01*
X141742218Y-90967860D01*
X141742214Y-90967863D01*
X141602863Y-91107214D01*
X141602860Y-91107218D01*
X141493371Y-91271079D01*
X141493364Y-91271092D01*
X141417950Y-91453160D01*
X141417947Y-91453170D01*
X141379500Y-91646456D01*
X141379500Y-91646459D01*
X141379500Y-91843541D01*
X141379500Y-91843543D01*
X141379499Y-91843543D01*
X140675500Y-91843543D01*
X140675500Y-88385247D01*
X141379500Y-88385247D01*
X141379500Y-90024752D01*
X141391131Y-90083229D01*
X141391132Y-90083230D01*
X141435447Y-90149552D01*
X141501769Y-90193867D01*
X141501770Y-90193868D01*
X141560247Y-90205499D01*
X141560250Y-90205500D01*
X141560252Y-90205500D01*
X143199750Y-90205500D01*
X143199751Y-90205499D01*
X143214568Y-90202552D01*
X143258229Y-90193868D01*
X143258229Y-90193867D01*
X143258231Y-90193867D01*
X143324552Y-90149552D01*
X143368867Y-90083231D01*
X143368867Y-90083229D01*
X143368868Y-90083229D01*
X143380499Y-90024752D01*
X143380500Y-90024750D01*
X143380500Y-88385249D01*
X143380499Y-88385247D01*
X143368868Y-88326770D01*
X143368867Y-88326769D01*
X143324552Y-88260447D01*
X143258230Y-88216132D01*
X143258229Y-88216131D01*
X143199752Y-88204500D01*
X143199748Y-88204500D01*
X141560252Y-88204500D01*
X141560247Y-88204500D01*
X141501770Y-88216131D01*
X141501769Y-88216132D01*
X141435447Y-88260447D01*
X141391132Y-88326769D01*
X141391131Y-88326770D01*
X141379500Y-88385247D01*
X140675500Y-88385247D01*
X140675500Y-75042108D01*
X141244500Y-75042108D01*
X141244500Y-75173892D01*
X141257869Y-75223786D01*
X141278608Y-75301187D01*
X141295879Y-75331100D01*
X141344500Y-75415314D01*
X141437686Y-75508500D01*
X141551814Y-75574392D01*
X141679108Y-75608500D01*
X141679110Y-75608500D01*
X141810890Y-75608500D01*
X141810892Y-75608500D01*
X141938186Y-75574392D01*
X142052314Y-75508500D01*
X142145500Y-75415314D01*
X142158325Y-75393099D01*
X142208891Y-75344885D01*
X142265712Y-75331100D01*
X146805124Y-75331100D01*
X146872163Y-75350785D01*
X146892805Y-75367419D01*
X146956486Y-75431100D01*
X147070614Y-75496992D01*
X147197908Y-75531100D01*
X147197910Y-75531100D01*
X147329690Y-75531100D01*
X147329692Y-75531100D01*
X147456986Y-75496992D01*
X147571114Y-75431100D01*
X147664300Y-75337914D01*
X147730192Y-75223786D01*
X147764300Y-75096492D01*
X147764300Y-74964708D01*
X147730192Y-74837414D01*
X147664300Y-74723286D01*
X147571114Y-74630100D01*
X147514050Y-74597154D01*
X147456987Y-74564208D01*
X147393339Y-74547154D01*
X147329692Y-74530100D01*
X147197908Y-74530100D01*
X147070612Y-74564208D01*
X146956486Y-74630100D01*
X146956483Y-74630102D01*
X146892805Y-74693781D01*
X146831482Y-74727266D01*
X146805124Y-74730100D01*
X142123859Y-74730100D01*
X142059552Y-74711217D01*
X142059352Y-74711564D01*
X142057922Y-74710738D01*
X142056820Y-74710415D01*
X142054333Y-74708666D01*
X142052314Y-74707500D01*
X141996719Y-74675402D01*
X141938187Y-74641608D01*
X141874539Y-74624554D01*
X141810892Y-74607500D01*
X141679108Y-74607500D01*
X141551812Y-74641608D01*
X141437686Y-74707500D01*
X141437683Y-74707502D01*
X141344502Y-74800683D01*
X141344500Y-74800686D01*
X141278608Y-74914812D01*
X141244500Y-75042108D01*
X140675500Y-75042108D01*
X140675500Y-73070403D01*
X143654500Y-73070403D01*
X143654500Y-73269596D01*
X143685661Y-73466340D01*
X143685661Y-73466343D01*
X143747213Y-73655780D01*
X143747215Y-73655783D01*
X143837647Y-73833266D01*
X143954731Y-73994418D01*
X144095582Y-74135269D01*
X144256734Y-74252353D01*
X144434217Y-74342785D01*
X144434219Y-74342786D01*
X144623657Y-74404338D01*
X144623658Y-74404338D01*
X144623661Y-74404339D01*
X144820403Y-74435500D01*
X144820404Y-74435500D01*
X145019596Y-74435500D01*
X145019597Y-74435500D01*
X145216339Y-74404339D01*
X145216342Y-74404338D01*
X145216343Y-74404338D01*
X145405780Y-74342786D01*
X145405780Y-74342785D01*
X145405783Y-74342785D01*
X145583266Y-74252353D01*
X145744418Y-74135269D01*
X145885269Y-73994418D01*
X146002353Y-73833266D01*
X146092785Y-73655783D01*
X146154339Y-73466339D01*
X146185500Y-73269597D01*
X146185500Y-73070403D01*
X153814500Y-73070403D01*
X153814500Y-73269596D01*
X153845661Y-73466340D01*
X153845661Y-73466343D01*
X153907213Y-73655780D01*
X153907215Y-73655783D01*
X153997647Y-73833266D01*
X154114731Y-73994418D01*
X154255582Y-74135269D01*
X154416734Y-74252353D01*
X154594217Y-74342785D01*
X154594219Y-74342786D01*
X154783657Y-74404338D01*
X154783658Y-74404338D01*
X154783661Y-74404339D01*
X154980403Y-74435500D01*
X154980404Y-74435500D01*
X155179596Y-74435500D01*
X155179597Y-74435500D01*
X155376339Y-74404339D01*
X155376342Y-74404338D01*
X155376343Y-74404338D01*
X155565780Y-74342786D01*
X155565780Y-74342785D01*
X155565783Y-74342785D01*
X155743266Y-74252353D01*
X155904418Y-74135269D01*
X156045269Y-73994418D01*
X156162353Y-73833266D01*
X156252785Y-73655783D01*
X156314339Y-73466339D01*
X156345500Y-73269597D01*
X156345500Y-73070403D01*
X156314339Y-72873661D01*
X156314338Y-72873657D01*
X156314338Y-72873656D01*
X156252786Y-72684219D01*
X156162352Y-72506733D01*
X156045269Y-72345582D01*
X155904418Y-72204731D01*
X155743266Y-72087647D01*
X155565780Y-71997213D01*
X155376342Y-71935661D01*
X155228782Y-71912290D01*
X155179597Y-71904500D01*
X154980403Y-71904500D01*
X154914822Y-71914887D01*
X154783659Y-71935661D01*
X154783656Y-71935661D01*
X154594219Y-71997213D01*
X154416733Y-72087647D01*
X154324790Y-72154447D01*
X154255582Y-72204731D01*
X154255580Y-72204733D01*
X154255579Y-72204733D01*
X154114733Y-72345579D01*
X154114733Y-72345580D01*
X154114731Y-72345582D01*
X154064447Y-72414790D01*
X153997647Y-72506733D01*
X153907213Y-72684219D01*
X153845661Y-72873656D01*
X153845661Y-72873659D01*
X153814500Y-73070403D01*
X146185500Y-73070403D01*
X146154339Y-72873661D01*
X146154338Y-72873657D01*
X146154338Y-72873656D01*
X146092786Y-72684219D01*
X146002352Y-72506733D01*
X145885269Y-72345582D01*
X145744418Y-72204731D01*
X145583266Y-72087647D01*
X145405780Y-71997213D01*
X145216342Y-71935661D01*
X145068782Y-71912290D01*
X145019597Y-71904500D01*
X144820403Y-71904500D01*
X144754822Y-71914887D01*
X144623659Y-71935661D01*
X144623656Y-71935661D01*
X144434219Y-71997213D01*
X144256733Y-72087647D01*
X144164790Y-72154447D01*
X144095582Y-72204731D01*
X144095580Y-72204733D01*
X144095579Y-72204733D01*
X143954733Y-72345579D01*
X143954733Y-72345580D01*
X143954731Y-72345582D01*
X143904447Y-72414790D01*
X143837647Y-72506733D01*
X143747213Y-72684219D01*
X143685661Y-72873656D01*
X143685661Y-72873659D01*
X143654500Y-73070403D01*
X140675500Y-73070403D01*
X140675500Y-68250004D01*
X143414858Y-68250004D01*
X143416656Y-68323519D01*
X143416657Y-68323540D01*
X143448850Y-68568071D01*
X143520554Y-68804076D01*
X143520555Y-68804081D01*
X143629840Y-69025202D01*
X143629843Y-69025208D01*
X143773773Y-69225507D01*
X143773777Y-69225512D01*
X143948493Y-69399619D01*
X143948500Y-69399625D01*
X144065300Y-69482937D01*
X144149303Y-69542856D01*
X144370809Y-69651370D01*
X144370814Y-69651371D01*
X144370815Y-69651372D01*
X144449544Y-69674991D01*
X144607064Y-69722250D01*
X144851722Y-69753592D01*
X145098215Y-69744553D01*
X145339921Y-69695377D01*
X145339925Y-69695375D01*
X145339927Y-69695375D01*
X145455164Y-69651370D01*
X145570350Y-69607385D01*
X145783313Y-69482939D01*
X145973092Y-69325382D01*
X146134589Y-69138945D01*
X146263468Y-68928634D01*
X146356266Y-68700099D01*
X146410493Y-68459475D01*
X146420848Y-68279880D01*
X146422571Y-68250004D01*
X153574858Y-68250004D01*
X153576656Y-68323519D01*
X153576657Y-68323540D01*
X153608850Y-68568071D01*
X153680554Y-68804076D01*
X153680555Y-68804081D01*
X153789840Y-69025202D01*
X153789843Y-69025208D01*
X153933773Y-69225507D01*
X153933777Y-69225512D01*
X154108493Y-69399619D01*
X154108500Y-69399625D01*
X154225300Y-69482937D01*
X154309303Y-69542856D01*
X154530809Y-69651370D01*
X154530814Y-69651371D01*
X154530815Y-69651372D01*
X154609544Y-69674991D01*
X154767064Y-69722250D01*
X155011722Y-69753592D01*
X155258215Y-69744553D01*
X155499921Y-69695377D01*
X155499925Y-69695375D01*
X155499927Y-69695375D01*
X155615164Y-69651370D01*
X155730350Y-69607385D01*
X155943313Y-69482939D01*
X156133092Y-69325382D01*
X156294589Y-69138945D01*
X156423468Y-68928634D01*
X156516266Y-68700099D01*
X156570493Y-68459475D01*
X156584692Y-68213226D01*
X156558481Y-67967965D01*
X156492564Y-67730278D01*
X156492562Y-67730275D01*
X156492560Y-67730268D01*
X156388714Y-67506552D01*
X156388712Y-67506547D01*
X156249720Y-67302792D01*
X156249710Y-67302779D01*
X156079301Y-67124456D01*
X155908662Y-66996338D01*
X155882054Y-66976360D01*
X155882052Y-66976359D01*
X155882051Y-66976358D01*
X155882048Y-66976356D01*
X155663267Y-66862466D01*
X155428819Y-66785837D01*
X155428820Y-66785837D01*
X155428813Y-66785835D01*
X155428811Y-66785834D01*
X155428809Y-66785834D01*
X155184994Y-66748525D01*
X155184993Y-66748525D01*
X155182120Y-66748560D01*
X154938351Y-66751538D01*
X154695528Y-66794791D01*
X154695508Y-66794796D01*
X154463017Y-66877126D01*
X154463008Y-66877130D01*
X154247067Y-66996336D01*
X154247064Y-66996338D01*
X154053494Y-67149211D01*
X153887493Y-67331643D01*
X153887492Y-67331644D01*
X153753512Y-67538746D01*
X153655162Y-67764936D01*
X153655159Y-67764944D01*
X153595070Y-68004168D01*
X153574859Y-68249992D01*
X153574858Y-68250004D01*
X146422571Y-68250004D01*
X146422999Y-68242591D01*
X146424692Y-68213225D01*
X146422570Y-68193377D01*
X146398481Y-67967965D01*
X146332564Y-67730278D01*
X146332562Y-67730275D01*
X146332560Y-67730268D01*
X146228714Y-67506552D01*
X146228712Y-67506547D01*
X146089720Y-67302792D01*
X146089710Y-67302779D01*
X145919301Y-67124456D01*
X145748662Y-66996338D01*
X145722054Y-66976360D01*
X145722052Y-66976359D01*
X145722051Y-66976358D01*
X145722048Y-66976356D01*
X145503267Y-66862466D01*
X145268819Y-66785837D01*
X145268820Y-66785837D01*
X145268813Y-66785835D01*
X145268811Y-66785834D01*
X145268809Y-66785834D01*
X145024994Y-66748525D01*
X145024993Y-66748525D01*
X145022120Y-66748560D01*
X144778351Y-66751538D01*
X144535528Y-66794791D01*
X144535508Y-66794796D01*
X144303017Y-66877126D01*
X144303008Y-66877130D01*
X144087067Y-66996336D01*
X144087064Y-66996338D01*
X143893494Y-67149211D01*
X143727493Y-67331643D01*
X143727492Y-67331644D01*
X143593512Y-67538746D01*
X143495162Y-67764936D01*
X143495159Y-67764944D01*
X143435070Y-68004168D01*
X143414859Y-68249992D01*
X143414858Y-68250004D01*
X140675500Y-68250004D01*
X140675500Y-64770403D01*
X143654500Y-64770403D01*
X143654500Y-64969596D01*
X143685661Y-65166340D01*
X143685661Y-65166343D01*
X143747213Y-65355780D01*
X143747215Y-65355783D01*
X143837647Y-65533266D01*
X143954731Y-65694418D01*
X144095582Y-65835269D01*
X144256734Y-65952353D01*
X144434217Y-66042785D01*
X144434219Y-66042786D01*
X144623657Y-66104338D01*
X144623658Y-66104338D01*
X144623661Y-66104339D01*
X144820403Y-66135500D01*
X144820404Y-66135500D01*
X145019596Y-66135500D01*
X145019597Y-66135500D01*
X145216339Y-66104339D01*
X145216342Y-66104338D01*
X145216343Y-66104338D01*
X145405780Y-66042786D01*
X145405780Y-66042785D01*
X145405783Y-66042785D01*
X145583266Y-65952353D01*
X145744418Y-65835269D01*
X145885269Y-65694418D01*
X146002353Y-65533266D01*
X146092785Y-65355783D01*
X146154339Y-65166339D01*
X146185500Y-64969597D01*
X146185500Y-64770403D01*
X153814500Y-64770403D01*
X153814500Y-64969596D01*
X153845661Y-65166340D01*
X153845661Y-65166343D01*
X153907213Y-65355780D01*
X153907215Y-65355783D01*
X153997647Y-65533266D01*
X154114731Y-65694418D01*
X154255582Y-65835269D01*
X154416734Y-65952353D01*
X154594217Y-66042785D01*
X154594219Y-66042786D01*
X154783657Y-66104338D01*
X154783658Y-66104338D01*
X154783661Y-66104339D01*
X154980403Y-66135500D01*
X154980404Y-66135500D01*
X155179596Y-66135500D01*
X155179597Y-66135500D01*
X155376339Y-66104339D01*
X155376342Y-66104338D01*
X155376343Y-66104338D01*
X155565780Y-66042786D01*
X155565780Y-66042785D01*
X155565783Y-66042785D01*
X155743266Y-65952353D01*
X155904418Y-65835269D01*
X156045269Y-65694418D01*
X156162353Y-65533266D01*
X156252785Y-65355783D01*
X156314339Y-65166339D01*
X156345500Y-64969597D01*
X156345500Y-64770403D01*
X156314339Y-64573661D01*
X156314338Y-64573657D01*
X156314338Y-64573656D01*
X156252786Y-64384219D01*
X156162352Y-64206733D01*
X156045269Y-64045582D01*
X155904418Y-63904731D01*
X155743266Y-63787647D01*
X155701468Y-63766350D01*
X155565780Y-63697213D01*
X155376342Y-63635661D01*
X155228782Y-63612290D01*
X155179597Y-63604500D01*
X154980403Y-63604500D01*
X154914822Y-63614887D01*
X154783659Y-63635661D01*
X154783656Y-63635661D01*
X154594219Y-63697213D01*
X154416733Y-63787647D01*
X154324790Y-63854447D01*
X154255582Y-63904731D01*
X154255580Y-63904733D01*
X154255579Y-63904733D01*
X154114733Y-64045579D01*
X154114733Y-64045580D01*
X154114731Y-64045582D01*
X154064447Y-64114790D01*
X153997647Y-64206733D01*
X153907213Y-64384219D01*
X153845661Y-64573656D01*
X153845661Y-64573659D01*
X153814500Y-64770403D01*
X146185500Y-64770403D01*
X146154339Y-64573661D01*
X146154338Y-64573657D01*
X146154338Y-64573656D01*
X146092786Y-64384219D01*
X146002352Y-64206733D01*
X145885269Y-64045582D01*
X145744418Y-63904731D01*
X145583266Y-63787647D01*
X145541468Y-63766350D01*
X145405780Y-63697213D01*
X145216342Y-63635661D01*
X145068782Y-63612290D01*
X145019597Y-63604500D01*
X144820403Y-63604500D01*
X144754822Y-63614887D01*
X144623659Y-63635661D01*
X144623656Y-63635661D01*
X144434219Y-63697213D01*
X144256733Y-63787647D01*
X144164790Y-63854447D01*
X144095582Y-63904731D01*
X144095580Y-63904733D01*
X144095579Y-63904733D01*
X143954733Y-64045579D01*
X143954733Y-64045580D01*
X143954731Y-64045582D01*
X143904447Y-64114790D01*
X143837647Y-64206733D01*
X143747213Y-64384219D01*
X143685661Y-64573656D01*
X143685661Y-64573659D01*
X143654500Y-64770403D01*
X140675500Y-64770403D01*
X140675500Y-63453704D01*
X140695185Y-63386665D01*
X140747989Y-63340910D01*
X140817147Y-63330966D01*
X140880703Y-63359991D01*
X140918477Y-63418769D01*
X140920178Y-63425195D01*
X140921402Y-63430377D01*
X140971645Y-63565086D01*
X140971649Y-63565093D01*
X141057809Y-63680187D01*
X141057812Y-63680190D01*
X141172906Y-63766350D01*
X141172913Y-63766354D01*
X141307620Y-63816596D01*
X141307627Y-63816598D01*
X141367155Y-63822999D01*
X141367172Y-63823000D01*
X142130000Y-63823000D01*
X142130000Y-62964706D01*
X142202069Y-62994558D01*
X142319920Y-63018000D01*
X142440080Y-63018000D01*
X142557931Y-62994558D01*
X142630000Y-62964706D01*
X142630000Y-63823000D01*
X143392828Y-63823000D01*
X143392844Y-63822999D01*
X143452372Y-63816598D01*
X143452379Y-63816596D01*
X143587086Y-63766354D01*
X143587093Y-63766350D01*
X143702187Y-63680190D01*
X143702190Y-63680187D01*
X143788350Y-63565093D01*
X143788354Y-63565086D01*
X143838596Y-63430379D01*
X143838598Y-63430372D01*
X143844999Y-63370844D01*
X143845000Y-63370827D01*
X143845000Y-62658000D01*
X142936706Y-62658000D01*
X142966558Y-62585931D01*
X142990000Y-62468080D01*
X142990000Y-62347920D01*
X142966558Y-62230069D01*
X142936706Y-62158000D01*
X143845000Y-62158000D01*
X143845000Y-61699155D01*
X145995000Y-61699155D01*
X145995000Y-62412000D01*
X146903294Y-62412000D01*
X146873442Y-62484069D01*
X146850000Y-62601920D01*
X146850000Y-62722080D01*
X146873442Y-62839931D01*
X146903294Y-62912000D01*
X145995000Y-62912000D01*
X145995000Y-63624844D01*
X146001401Y-63684372D01*
X146001403Y-63684379D01*
X146051645Y-63819086D01*
X146051649Y-63819093D01*
X146137809Y-63934187D01*
X146137812Y-63934190D01*
X146252906Y-64020350D01*
X146252913Y-64020354D01*
X146387620Y-64070596D01*
X146387627Y-64070598D01*
X146447155Y-64076999D01*
X146447172Y-64077000D01*
X147210000Y-64077000D01*
X147210000Y-63218706D01*
X147282069Y-63248558D01*
X147399920Y-63272000D01*
X147520080Y-63272000D01*
X147637931Y-63248558D01*
X147710000Y-63218706D01*
X147710000Y-64077000D01*
X148472828Y-64077000D01*
X148472844Y-64076999D01*
X148532372Y-64070598D01*
X148532379Y-64070596D01*
X148667086Y-64020354D01*
X148667093Y-64020350D01*
X148782187Y-63934190D01*
X148782190Y-63934187D01*
X148868350Y-63819093D01*
X148868354Y-63819086D01*
X148918596Y-63684379D01*
X148918598Y-63684372D01*
X148924999Y-63624844D01*
X148925000Y-63624827D01*
X148925000Y-62912000D01*
X148016706Y-62912000D01*
X148046558Y-62839931D01*
X148070000Y-62722080D01*
X148070000Y-62601920D01*
X148046558Y-62484069D01*
X148016706Y-62412000D01*
X148925000Y-62412000D01*
X148925000Y-61699172D01*
X148924999Y-61699155D01*
X148918598Y-61639627D01*
X148918596Y-61639620D01*
X148870435Y-61510493D01*
X148870434Y-61510492D01*
X148870434Y-61510490D01*
X148868354Y-61504913D01*
X148868350Y-61504906D01*
X148844650Y-61473247D01*
X151374500Y-61473247D01*
X151374500Y-63342752D01*
X151386131Y-63401229D01*
X151386132Y-63401230D01*
X151430447Y-63467552D01*
X151496769Y-63511867D01*
X151496770Y-63511868D01*
X151555247Y-63523499D01*
X151555250Y-63523500D01*
X151555252Y-63523500D01*
X153524750Y-63523500D01*
X153524751Y-63523499D01*
X153539568Y-63520552D01*
X153583229Y-63511868D01*
X153583229Y-63511867D01*
X153583231Y-63511867D01*
X153649552Y-63467552D01*
X153693867Y-63401231D01*
X153693867Y-63401229D01*
X153693868Y-63401229D01*
X153705499Y-63342752D01*
X153705500Y-63342750D01*
X153705500Y-61473249D01*
X153705499Y-61473247D01*
X153693868Y-61414770D01*
X153693867Y-61414769D01*
X153649552Y-61348447D01*
X153583230Y-61304132D01*
X153583229Y-61304131D01*
X153524752Y-61292500D01*
X153524748Y-61292500D01*
X151555252Y-61292500D01*
X151555247Y-61292500D01*
X151496770Y-61304131D01*
X151496769Y-61304132D01*
X151430447Y-61348447D01*
X151386132Y-61414769D01*
X151386131Y-61414770D01*
X151374500Y-61473247D01*
X148844650Y-61473247D01*
X148782190Y-61389812D01*
X148782187Y-61389809D01*
X148667093Y-61303649D01*
X148667086Y-61303645D01*
X148532379Y-61253403D01*
X148532372Y-61253401D01*
X148472844Y-61247000D01*
X147710000Y-61247000D01*
X147710000Y-62105293D01*
X147637931Y-62075442D01*
X147520080Y-62052000D01*
X147399920Y-62052000D01*
X147282069Y-62075442D01*
X147210000Y-62105293D01*
X147210000Y-61247000D01*
X146447155Y-61247000D01*
X146387627Y-61253401D01*
X146387620Y-61253403D01*
X146252913Y-61303645D01*
X146252906Y-61303649D01*
X146137812Y-61389809D01*
X146137809Y-61389812D01*
X146051649Y-61504906D01*
X146051645Y-61504913D01*
X146001403Y-61639620D01*
X146001401Y-61639627D01*
X145995000Y-61699155D01*
X143845000Y-61699155D01*
X143845000Y-61445172D01*
X143844999Y-61445155D01*
X143838598Y-61385627D01*
X143838596Y-61385620D01*
X143788354Y-61250913D01*
X143788350Y-61250906D01*
X143702190Y-61135812D01*
X143702187Y-61135809D01*
X143587093Y-61049649D01*
X143587086Y-61049645D01*
X143452379Y-60999403D01*
X143452372Y-60999401D01*
X143392844Y-60993000D01*
X142630000Y-60993000D01*
X142630000Y-61851293D01*
X142557931Y-61821442D01*
X142440080Y-61798000D01*
X142319920Y-61798000D01*
X142202069Y-61821442D01*
X142130000Y-61851293D01*
X142130000Y-60993000D01*
X141367155Y-60993000D01*
X141307627Y-60999401D01*
X141307620Y-60999403D01*
X141172913Y-61049645D01*
X141172906Y-61049649D01*
X141057812Y-61135809D01*
X141057809Y-61135812D01*
X140971649Y-61250906D01*
X140971645Y-61250913D01*
X140921403Y-61385620D01*
X140920178Y-61390806D01*
X140885606Y-61451523D01*
X140823697Y-61483911D01*
X140754105Y-61477687D01*
X140698926Y-61434826D01*
X140675678Y-61368937D01*
X140675500Y-61362295D01*
X140675500Y-60100403D01*
X143654500Y-60100403D01*
X143654500Y-60299596D01*
X143685661Y-60496340D01*
X143685661Y-60496343D01*
X143747213Y-60685780D01*
X143747215Y-60685783D01*
X143837647Y-60863266D01*
X143954731Y-61024418D01*
X144095582Y-61165269D01*
X144256734Y-61282353D01*
X144299478Y-61304132D01*
X144434219Y-61372786D01*
X144623657Y-61434338D01*
X144623658Y-61434338D01*
X144623661Y-61434339D01*
X144820403Y-61465500D01*
X144820404Y-61465500D01*
X145019596Y-61465500D01*
X145019597Y-61465500D01*
X145216339Y-61434339D01*
X145216342Y-61434338D01*
X145216343Y-61434338D01*
X145405780Y-61372786D01*
X145405780Y-61372785D01*
X145405783Y-61372785D01*
X145583266Y-61282353D01*
X145744418Y-61165269D01*
X145885269Y-61024418D01*
X146002353Y-60863266D01*
X146092785Y-60685783D01*
X146154339Y-60496339D01*
X146185500Y-60299597D01*
X146185500Y-60100403D01*
X153814500Y-60100403D01*
X153814500Y-60299596D01*
X153845661Y-60496340D01*
X153845661Y-60496343D01*
X153907213Y-60685780D01*
X153907215Y-60685783D01*
X153997647Y-60863266D01*
X154114731Y-61024418D01*
X154255582Y-61165269D01*
X154416734Y-61282353D01*
X154459478Y-61304132D01*
X154594219Y-61372786D01*
X154783657Y-61434338D01*
X154783658Y-61434338D01*
X154783661Y-61434339D01*
X154980403Y-61465500D01*
X154980404Y-61465500D01*
X155179596Y-61465500D01*
X155179597Y-61465500D01*
X155376339Y-61434339D01*
X155376342Y-61434338D01*
X155376343Y-61434338D01*
X155565780Y-61372786D01*
X155565780Y-61372785D01*
X155565783Y-61372785D01*
X155743266Y-61282353D01*
X155904418Y-61165269D01*
X156045269Y-61024418D01*
X156162353Y-60863266D01*
X156252785Y-60685783D01*
X156314339Y-60496339D01*
X156345500Y-60299597D01*
X156345500Y-60100403D01*
X156314339Y-59903661D01*
X156314338Y-59903657D01*
X156314338Y-59903656D01*
X156252786Y-59714219D01*
X156162352Y-59536733D01*
X156045269Y-59375582D01*
X155904418Y-59234731D01*
X155743266Y-59117647D01*
X155565780Y-59027213D01*
X155376342Y-58965661D01*
X155228782Y-58942290D01*
X155179597Y-58934500D01*
X154980403Y-58934500D01*
X154914822Y-58944887D01*
X154783659Y-58965661D01*
X154783656Y-58965661D01*
X154594219Y-59027213D01*
X154416733Y-59117647D01*
X154324790Y-59184447D01*
X154255582Y-59234731D01*
X154255580Y-59234733D01*
X154255579Y-59234733D01*
X154114733Y-59375579D01*
X154114733Y-59375580D01*
X154114731Y-59375582D01*
X154064447Y-59444790D01*
X153997647Y-59536733D01*
X153907213Y-59714219D01*
X153845661Y-59903656D01*
X153845661Y-59903659D01*
X153814500Y-60100403D01*
X146185500Y-60100403D01*
X146154339Y-59903661D01*
X146154338Y-59903657D01*
X146154338Y-59903656D01*
X146092786Y-59714219D01*
X146002352Y-59536733D01*
X145885269Y-59375582D01*
X145744418Y-59234731D01*
X145583266Y-59117647D01*
X145405780Y-59027213D01*
X145216342Y-58965661D01*
X145068782Y-58942290D01*
X145019597Y-58934500D01*
X144820403Y-58934500D01*
X144754822Y-58944887D01*
X144623659Y-58965661D01*
X144623656Y-58965661D01*
X144434219Y-59027213D01*
X144256733Y-59117647D01*
X144164790Y-59184447D01*
X144095582Y-59234731D01*
X144095580Y-59234733D01*
X144095579Y-59234733D01*
X143954733Y-59375579D01*
X143954733Y-59375580D01*
X143954731Y-59375582D01*
X143904447Y-59444790D01*
X143837647Y-59536733D01*
X143747213Y-59714219D01*
X143685661Y-59903656D01*
X143685661Y-59903659D01*
X143654500Y-60100403D01*
X140675500Y-60100403D01*
X140675500Y-56856774D01*
X143415307Y-56856774D01*
X143441519Y-57102032D01*
X143441520Y-57102039D01*
X143507436Y-57339723D01*
X143507439Y-57339731D01*
X143611285Y-57563447D01*
X143611287Y-57563452D01*
X143750279Y-57767207D01*
X143750289Y-57767220D01*
X143897042Y-57920788D01*
X143920697Y-57945542D01*
X144117946Y-58093640D01*
X144117948Y-58093641D01*
X144117951Y-58093643D01*
X144336732Y-58207533D01*
X144336734Y-58207534D01*
X144571187Y-58284165D01*
X144815007Y-58321475D01*
X145055900Y-58318531D01*
X145061648Y-58318461D01*
X145304471Y-58275208D01*
X145304471Y-58275207D01*
X145304482Y-58275206D01*
X145304489Y-58275203D01*
X145304491Y-58275203D01*
X145536982Y-58192873D01*
X145536987Y-58192870D01*
X145536992Y-58192869D01*
X145752932Y-58073664D01*
X145946504Y-57920790D01*
X146112508Y-57738355D01*
X146246486Y-57531256D01*
X146344841Y-57305055D01*
X146404930Y-57065829D01*
X146425141Y-56820000D01*
X146423344Y-56746474D01*
X146391149Y-56501926D01*
X146319445Y-56265921D01*
X146319160Y-56265345D01*
X146210159Y-56044797D01*
X146210156Y-56044791D01*
X146066226Y-55844492D01*
X146066222Y-55844487D01*
X145891506Y-55670380D01*
X145891499Y-55670374D01*
X145690697Y-55527144D01*
X145558974Y-55462614D01*
X145469191Y-55418630D01*
X145469188Y-55418629D01*
X145469186Y-55418628D01*
X145469184Y-55418627D01*
X145232937Y-55347750D01*
X144988282Y-55316408D01*
X144988278Y-55316408D01*
X144741785Y-55325447D01*
X144500072Y-55374624D01*
X144269650Y-55462614D01*
X144056696Y-55587054D01*
X144056685Y-55587062D01*
X143866907Y-55744619D01*
X143705412Y-55931052D01*
X143576533Y-56141363D01*
X143483731Y-56369907D01*
X143429507Y-56610520D01*
X143429507Y-56610525D01*
X143415307Y-56856774D01*
X140675500Y-56856774D01*
X140675500Y-51800403D01*
X143654500Y-51800403D01*
X143654500Y-51999596D01*
X143685661Y-52196340D01*
X143685661Y-52196343D01*
X143747213Y-52385780D01*
X143747215Y-52385783D01*
X143837647Y-52563266D01*
X143954731Y-52724418D01*
X144095582Y-52865269D01*
X144256734Y-52982353D01*
X144423071Y-53067106D01*
X144434219Y-53072786D01*
X144623657Y-53134338D01*
X144623658Y-53134338D01*
X144623661Y-53134339D01*
X144820403Y-53165500D01*
X144820404Y-53165500D01*
X144973224Y-53165500D01*
X145040263Y-53185185D01*
X145086018Y-53237989D01*
X145095962Y-53307147D01*
X145066937Y-53370703D01*
X145060905Y-53377181D01*
X145027502Y-53410583D01*
X145027500Y-53410586D01*
X144961608Y-53524712D01*
X144927500Y-53652008D01*
X144927500Y-53783791D01*
X144961608Y-53911087D01*
X144994554Y-53968150D01*
X145027500Y-54025214D01*
X145120686Y-54118400D01*
X145234814Y-54184292D01*
X145362108Y-54218400D01*
X145362110Y-54218400D01*
X145493890Y-54218400D01*
X145493892Y-54218400D01*
X145621186Y-54184292D01*
X145735314Y-54118400D01*
X145798995Y-54054719D01*
X145860318Y-54021234D01*
X145886676Y-54018400D01*
X147230067Y-54018400D01*
X147297106Y-54038085D01*
X147317748Y-54054719D01*
X149477751Y-56214722D01*
X149511236Y-56276045D01*
X149509846Y-56334492D01*
X149499500Y-56373106D01*
X149499500Y-56504891D01*
X149533608Y-56632187D01*
X149566554Y-56689250D01*
X149599500Y-56746314D01*
X149692686Y-56839500D01*
X149806814Y-56905392D01*
X149934108Y-56939500D01*
X149934110Y-56939500D01*
X150065890Y-56939500D01*
X150065892Y-56939500D01*
X150193186Y-56905392D01*
X150277395Y-56856774D01*
X153575307Y-56856774D01*
X153601519Y-57102032D01*
X153601520Y-57102039D01*
X153667436Y-57339723D01*
X153667439Y-57339731D01*
X153771285Y-57563447D01*
X153771287Y-57563452D01*
X153910279Y-57767207D01*
X153910289Y-57767220D01*
X154057042Y-57920788D01*
X154080697Y-57945542D01*
X154277946Y-58093640D01*
X154277948Y-58093641D01*
X154277951Y-58093643D01*
X154496732Y-58207533D01*
X154496734Y-58207534D01*
X154731187Y-58284165D01*
X154975007Y-58321475D01*
X155215900Y-58318531D01*
X155221648Y-58318461D01*
X155464471Y-58275208D01*
X155464471Y-58275207D01*
X155464482Y-58275206D01*
X155464489Y-58275203D01*
X155464491Y-58275203D01*
X155696982Y-58192873D01*
X155696987Y-58192870D01*
X155696992Y-58192869D01*
X155912932Y-58073664D01*
X156106504Y-57920790D01*
X156272508Y-57738355D01*
X156406486Y-57531256D01*
X156504841Y-57305055D01*
X156564930Y-57065829D01*
X156585141Y-56820000D01*
X156583344Y-56746474D01*
X156551149Y-56501926D01*
X156479445Y-56265921D01*
X156479160Y-56265345D01*
X156370159Y-56044797D01*
X156370156Y-56044791D01*
X156226226Y-55844492D01*
X156226222Y-55844487D01*
X156051506Y-55670380D01*
X156051499Y-55670374D01*
X155850697Y-55527144D01*
X155718974Y-55462614D01*
X155629191Y-55418630D01*
X155629188Y-55418629D01*
X155629186Y-55418628D01*
X155629184Y-55418627D01*
X155392937Y-55347750D01*
X155148282Y-55316408D01*
X155148278Y-55316408D01*
X154901785Y-55325447D01*
X154660072Y-55374624D01*
X154429650Y-55462614D01*
X154216696Y-55587054D01*
X154216685Y-55587062D01*
X154026907Y-55744619D01*
X153865412Y-55931052D01*
X153736533Y-56141363D01*
X153643731Y-56369907D01*
X153589507Y-56610520D01*
X153589507Y-56610525D01*
X153575307Y-56856774D01*
X150277395Y-56856774D01*
X150307314Y-56839500D01*
X150400500Y-56746314D01*
X150466392Y-56632186D01*
X150500500Y-56504892D01*
X150500500Y-56373108D01*
X150466392Y-56245814D01*
X150400500Y-56131686D01*
X150307314Y-56038500D01*
X150193186Y-55972608D01*
X150078283Y-55941820D01*
X150022698Y-55909727D01*
X149497579Y-55384608D01*
X150996000Y-55384608D01*
X150996000Y-55516391D01*
X151030108Y-55643687D01*
X151045516Y-55670374D01*
X151096000Y-55757814D01*
X151189186Y-55851000D01*
X151303314Y-55916892D01*
X151430608Y-55951000D01*
X151430610Y-55951000D01*
X151562390Y-55951000D01*
X151562392Y-55951000D01*
X151689686Y-55916892D01*
X151803814Y-55851000D01*
X151897000Y-55757814D01*
X151962892Y-55643686D01*
X151997000Y-55516392D01*
X151997000Y-55426332D01*
X152016685Y-55359293D01*
X152033319Y-55338651D01*
X153153571Y-54218399D01*
X154335067Y-53036902D01*
X154396388Y-53003419D01*
X154466080Y-53008403D01*
X154479041Y-53014100D01*
X154594219Y-53072786D01*
X154783657Y-53134338D01*
X154783658Y-53134338D01*
X154783661Y-53134339D01*
X154980403Y-53165500D01*
X154980404Y-53165500D01*
X155179596Y-53165500D01*
X155179597Y-53165500D01*
X155376339Y-53134339D01*
X155376342Y-53134338D01*
X155376343Y-53134338D01*
X155565780Y-53072786D01*
X155565780Y-53072785D01*
X155565783Y-53072785D01*
X155743266Y-52982353D01*
X155904418Y-52865269D01*
X156045269Y-52724418D01*
X156162353Y-52563266D01*
X156252785Y-52385783D01*
X156314339Y-52196339D01*
X156345500Y-51999597D01*
X156345500Y-51800403D01*
X156314339Y-51603661D01*
X156314338Y-51603657D01*
X156314338Y-51603656D01*
X156252786Y-51414219D01*
X156162352Y-51236733D01*
X156045269Y-51075582D01*
X155904418Y-50934731D01*
X155743266Y-50817647D01*
X155565780Y-50727213D01*
X155376342Y-50665661D01*
X155228782Y-50642290D01*
X155179597Y-50634500D01*
X154980403Y-50634500D01*
X154914822Y-50644887D01*
X154783659Y-50665661D01*
X154783656Y-50665661D01*
X154594219Y-50727213D01*
X154416733Y-50817647D01*
X154324790Y-50884447D01*
X154255582Y-50934731D01*
X154255580Y-50934733D01*
X154255579Y-50934733D01*
X154114733Y-51075579D01*
X154114733Y-51075580D01*
X154114731Y-51075582D01*
X154064447Y-51144790D01*
X153997647Y-51236733D01*
X153907213Y-51414219D01*
X153845661Y-51603656D01*
X153845661Y-51603659D01*
X153814500Y-51800403D01*
X153814500Y-51999596D01*
X153845661Y-52196339D01*
X153907216Y-52385787D01*
X153943621Y-52457234D01*
X153956517Y-52525903D01*
X153930241Y-52590644D01*
X153920817Y-52601210D01*
X151608347Y-54913681D01*
X151547024Y-54947166D01*
X151520666Y-54950000D01*
X151430608Y-54950000D01*
X151303312Y-54984108D01*
X151189186Y-55050000D01*
X151189183Y-55050002D01*
X151096002Y-55143183D01*
X151096000Y-55143186D01*
X151030108Y-55257312D01*
X150996000Y-55384608D01*
X149497579Y-55384608D01*
X147590412Y-53477441D01*
X147590407Y-53477437D01*
X147580965Y-53471986D01*
X147580964Y-53471986D01*
X147521891Y-53437880D01*
X147521890Y-53437879D01*
X147496413Y-53431052D01*
X147445462Y-53417400D01*
X147445460Y-53417400D01*
X145886676Y-53417400D01*
X145819637Y-53397715D01*
X145798995Y-53381081D01*
X145735316Y-53317402D01*
X145735314Y-53317400D01*
X145621186Y-53251508D01*
X145562165Y-53235693D01*
X145502506Y-53199329D01*
X145471977Y-53136482D01*
X145480272Y-53067106D01*
X145524757Y-53013228D01*
X145537955Y-53005440D01*
X145583266Y-52982353D01*
X145744418Y-52865269D01*
X145885269Y-52724418D01*
X146002353Y-52563266D01*
X146092785Y-52385783D01*
X146154339Y-52196339D01*
X146185500Y-51999597D01*
X146185500Y-51800403D01*
X146154339Y-51603661D01*
X146154338Y-51603657D01*
X146154338Y-51603656D01*
X146092786Y-51414219D01*
X146002352Y-51236733D01*
X145885269Y-51075582D01*
X145744418Y-50934731D01*
X145583266Y-50817647D01*
X145405780Y-50727213D01*
X145216342Y-50665661D01*
X145068782Y-50642290D01*
X145019597Y-50634500D01*
X144820403Y-50634500D01*
X144754822Y-50644887D01*
X144623659Y-50665661D01*
X144623656Y-50665661D01*
X144434219Y-50727213D01*
X144256733Y-50817647D01*
X144164790Y-50884447D01*
X144095582Y-50934731D01*
X144095580Y-50934733D01*
X144095579Y-50934733D01*
X143954733Y-51075579D01*
X143954733Y-51075580D01*
X143954731Y-51075582D01*
X143904447Y-51144790D01*
X143837647Y-51236733D01*
X143747213Y-51414219D01*
X143685661Y-51603656D01*
X143685661Y-51603659D01*
X143654500Y-51800403D01*
X140675500Y-51800403D01*
X140675500Y-50324500D01*
X140695185Y-50257461D01*
X140747989Y-50211706D01*
X140799500Y-50200500D01*
X159200500Y-50200500D01*
X159267539Y-50220185D01*
G37*
G04 #@! TD.AperFunction*
G04 #@! TA.AperFunction,Conductor*
G36*
X146256206Y-127600085D02*
G01*
X146276848Y-127616719D01*
X146404881Y-127744752D01*
X146438366Y-127806075D01*
X146441200Y-127832433D01*
X146441200Y-127922491D01*
X146475308Y-128049787D01*
X146502787Y-128097381D01*
X146541200Y-128163914D01*
X146634386Y-128257100D01*
X146748514Y-128322992D01*
X146875808Y-128357100D01*
X146875810Y-128357100D01*
X147007590Y-128357100D01*
X147007592Y-128357100D01*
X147134886Y-128322992D01*
X147249014Y-128257100D01*
X147342200Y-128163914D01*
X147408092Y-128049786D01*
X147440273Y-127929683D01*
X147476635Y-127870026D01*
X147539482Y-127839496D01*
X147608857Y-127847790D01*
X147647727Y-127874098D01*
X148196040Y-128422411D01*
X148251989Y-128478360D01*
X148251991Y-128478361D01*
X148251995Y-128478364D01*
X148298155Y-128505014D01*
X148320511Y-128517921D01*
X148396938Y-128538400D01*
X148476062Y-128538400D01*
X149236867Y-128538400D01*
X149266307Y-128547044D01*
X149296294Y-128553568D01*
X149301309Y-128557322D01*
X149303906Y-128558085D01*
X149324548Y-128574719D01*
X149336181Y-128586352D01*
X149369666Y-128647675D01*
X149372500Y-128674033D01*
X149372500Y-128764091D01*
X149393270Y-128841607D01*
X149391607Y-128911457D01*
X149352444Y-128969319D01*
X149288216Y-128996823D01*
X149273495Y-128997700D01*
X146155538Y-128997700D01*
X146104586Y-129011352D01*
X146079110Y-129018179D01*
X146012999Y-129056348D01*
X145945098Y-129072819D01*
X145879072Y-129049967D01*
X145835882Y-128995045D01*
X145827000Y-128948960D01*
X145827000Y-128825000D01*
X144968706Y-128825000D01*
X144998558Y-128752931D01*
X145022000Y-128635080D01*
X145022000Y-128514920D01*
X144998558Y-128397069D01*
X144968706Y-128325000D01*
X145827000Y-128325000D01*
X145827000Y-127704400D01*
X145829550Y-127695714D01*
X145828262Y-127686753D01*
X145839240Y-127662712D01*
X145846685Y-127637361D01*
X145853525Y-127631433D01*
X145857287Y-127623197D01*
X145879521Y-127608907D01*
X145899489Y-127591606D01*
X145910003Y-127589318D01*
X145916065Y-127585423D01*
X145951000Y-127580400D01*
X146189167Y-127580400D01*
X146256206Y-127600085D01*
G37*
G04 #@! TD.AperFunction*
G04 #@! TA.AperFunction,Conductor*
G36*
X149341691Y-110318490D02*
G01*
X149346280Y-110321556D01*
X149346282Y-110321558D01*
X149395084Y-110354166D01*
X149514237Y-110433782D01*
X149514241Y-110433784D01*
X149514244Y-110433786D01*
X149700873Y-110511091D01*
X149700877Y-110511091D01*
X149700878Y-110511092D01*
X149732513Y-110517385D01*
X149794424Y-110549770D01*
X149828998Y-110610486D01*
X149825258Y-110680255D01*
X149796003Y-110726682D01*
X149761203Y-110761482D01*
X149761200Y-110761486D01*
X149695308Y-110875612D01*
X149661200Y-111002908D01*
X149661200Y-111134691D01*
X149695308Y-111261987D01*
X149710246Y-111287860D01*
X149761200Y-111376114D01*
X149761202Y-111376116D01*
X149824881Y-111439795D01*
X149858366Y-111501118D01*
X149861200Y-111527476D01*
X149861200Y-119529566D01*
X149841515Y-119596605D01*
X149824881Y-119617247D01*
X147540181Y-121901947D01*
X147478858Y-121935432D01*
X147409166Y-121930448D01*
X147353233Y-121888576D01*
X147328816Y-121823112D01*
X147328500Y-121814266D01*
X147328500Y-116825176D01*
X147348185Y-116758137D01*
X147400989Y-116712382D01*
X147470147Y-116702438D01*
X147533703Y-116731463D01*
X147540181Y-116737495D01*
X147557886Y-116755200D01*
X147672014Y-116821092D01*
X147799308Y-116855200D01*
X147799310Y-116855200D01*
X147931090Y-116855200D01*
X147931092Y-116855200D01*
X148058386Y-116821092D01*
X148172514Y-116755200D01*
X148265700Y-116662014D01*
X148331592Y-116547886D01*
X148365700Y-116420592D01*
X148365700Y-116330532D01*
X148385385Y-116263493D01*
X148402019Y-116242851D01*
X148724166Y-115920704D01*
X149088760Y-115556111D01*
X149098056Y-115540010D01*
X149114350Y-115511788D01*
X149118382Y-115504802D01*
X149128321Y-115487589D01*
X149148800Y-115411162D01*
X149148800Y-110421592D01*
X149168485Y-110354553D01*
X149221289Y-110308798D01*
X149290447Y-110298854D01*
X149341691Y-110318490D01*
G37*
G04 #@! TD.AperFunction*
G04 #@! TA.AperFunction,Conductor*
G36*
X152074075Y-77967993D02*
G01*
X152139901Y-78082007D01*
X152232993Y-78175099D01*
X152347007Y-78240925D01*
X152410590Y-78257962D01*
X151778282Y-78890269D01*
X151778282Y-78890270D01*
X151832452Y-78929626D01*
X151842048Y-78934516D01*
X151892844Y-78982491D01*
X151909638Y-79050312D01*
X151887100Y-79116447D01*
X151842051Y-79155483D01*
X151832440Y-79160380D01*
X151778282Y-79199727D01*
X151778282Y-79199728D01*
X152410591Y-79832037D01*
X152347007Y-79849075D01*
X152232993Y-79914901D01*
X152139901Y-80007993D01*
X152074075Y-80122007D01*
X152057037Y-80185591D01*
X151424728Y-79553282D01*
X151424727Y-79553282D01*
X151385380Y-79607440D01*
X151380483Y-79617051D01*
X151332506Y-79667845D01*
X151264684Y-79684638D01*
X151198550Y-79662098D01*
X151159516Y-79617048D01*
X151154626Y-79607452D01*
X151115270Y-79553282D01*
X151115269Y-79553282D01*
X150482962Y-80185590D01*
X150465925Y-80122007D01*
X150400099Y-80007993D01*
X150307007Y-79914901D01*
X150192993Y-79849075D01*
X150129407Y-79832036D01*
X150761716Y-79199728D01*
X150707550Y-79160375D01*
X150697954Y-79155486D01*
X150647157Y-79107512D01*
X150630361Y-79039692D01*
X150651288Y-78975895D01*
X150730027Y-78858580D01*
X150129409Y-78257962D01*
X150192993Y-78240925D01*
X150307007Y-78175099D01*
X150400099Y-78082007D01*
X150465925Y-77967993D01*
X150482962Y-77904408D01*
X151115270Y-78536717D01*
X151115270Y-78536716D01*
X151154622Y-78482554D01*
X151159514Y-78472954D01*
X151207488Y-78422157D01*
X151275308Y-78405361D01*
X151341444Y-78427897D01*
X151380486Y-78472954D01*
X151385375Y-78482550D01*
X151424728Y-78536716D01*
X152057037Y-77904408D01*
X152074075Y-77967993D01*
G37*
G04 #@! TD.AperFunction*
G04 #@! TD*
M02*
