G04 #@! TF.GenerationSoftware,KiCad,Pcbnew,9.0.7*
G04 #@! TF.CreationDate,2026-01-04T21:44:44+01:00*
G04 #@! TF.ProjectId,board_B,626f6172-645f-4422-9e6b-696361645f70,rev?*
G04 #@! TF.SameCoordinates,Original*
G04 #@! TF.FileFunction,Other,Comment*
%FSLAX46Y46*%
G04 Gerber Fmt 4.6, Leading zero omitted, Abs format (unit mm)*
G04 Created by KiCad (PCBNEW 9.0.7) date 2026-01-04 21:44:44*
%MOMM*%
%LPD*%
G01*
G04 APERTURE LIST*
%ADD10C,0.051000*%
G04 APERTURE END LIST*
D10*
X143681904Y-68432395D02*
X143681904Y-68032395D01*
X143910475Y-68432395D02*
X143739046Y-68203824D01*
X143910475Y-68032395D02*
X143681904Y-68260967D01*
X144081904Y-68222871D02*
X144215237Y-68222871D01*
X144272380Y-68432395D02*
X144081904Y-68432395D01*
X144081904Y-68432395D02*
X144081904Y-68032395D01*
X144081904Y-68032395D02*
X144272380Y-68032395D01*
X144443809Y-68222871D02*
X144577142Y-68222871D01*
X144634285Y-68432395D02*
X144443809Y-68432395D01*
X144443809Y-68432395D02*
X144443809Y-68032395D01*
X144443809Y-68032395D02*
X144634285Y-68032395D01*
X144805714Y-68432395D02*
X144805714Y-68032395D01*
X144805714Y-68032395D02*
X144958095Y-68032395D01*
X144958095Y-68032395D02*
X144996190Y-68051443D01*
X144996190Y-68051443D02*
X145015237Y-68070490D01*
X145015237Y-68070490D02*
X145034285Y-68108586D01*
X145034285Y-68108586D02*
X145034285Y-68165728D01*
X145034285Y-68165728D02*
X145015237Y-68203824D01*
X145015237Y-68203824D02*
X144996190Y-68222871D01*
X144996190Y-68222871D02*
X144958095Y-68241919D01*
X144958095Y-68241919D02*
X144805714Y-68241919D01*
X145281904Y-68032395D02*
X145358095Y-68032395D01*
X145358095Y-68032395D02*
X145396190Y-68051443D01*
X145396190Y-68051443D02*
X145434285Y-68089538D01*
X145434285Y-68089538D02*
X145453333Y-68165728D01*
X145453333Y-68165728D02*
X145453333Y-68299062D01*
X145453333Y-68299062D02*
X145434285Y-68375252D01*
X145434285Y-68375252D02*
X145396190Y-68413348D01*
X145396190Y-68413348D02*
X145358095Y-68432395D01*
X145358095Y-68432395D02*
X145281904Y-68432395D01*
X145281904Y-68432395D02*
X145243809Y-68413348D01*
X145243809Y-68413348D02*
X145205714Y-68375252D01*
X145205714Y-68375252D02*
X145186666Y-68299062D01*
X145186666Y-68299062D02*
X145186666Y-68165728D01*
X145186666Y-68165728D02*
X145205714Y-68089538D01*
X145205714Y-68089538D02*
X145243809Y-68051443D01*
X145243809Y-68051443D02*
X145281904Y-68032395D01*
X145624762Y-68032395D02*
X145624762Y-68356205D01*
X145624762Y-68356205D02*
X145643809Y-68394300D01*
X145643809Y-68394300D02*
X145662857Y-68413348D01*
X145662857Y-68413348D02*
X145700952Y-68432395D01*
X145700952Y-68432395D02*
X145777143Y-68432395D01*
X145777143Y-68432395D02*
X145815238Y-68413348D01*
X145815238Y-68413348D02*
X145834285Y-68394300D01*
X145834285Y-68394300D02*
X145853333Y-68356205D01*
X145853333Y-68356205D02*
X145853333Y-68032395D01*
X145986667Y-68032395D02*
X146215238Y-68032395D01*
X146100952Y-68432395D02*
X146100952Y-68032395D01*
X153841904Y-68432395D02*
X153841904Y-68032395D01*
X154070475Y-68432395D02*
X153899046Y-68203824D01*
X154070475Y-68032395D02*
X153841904Y-68260967D01*
X154241904Y-68222871D02*
X154375237Y-68222871D01*
X154432380Y-68432395D02*
X154241904Y-68432395D01*
X154241904Y-68432395D02*
X154241904Y-68032395D01*
X154241904Y-68032395D02*
X154432380Y-68032395D01*
X154603809Y-68222871D02*
X154737142Y-68222871D01*
X154794285Y-68432395D02*
X154603809Y-68432395D01*
X154603809Y-68432395D02*
X154603809Y-68032395D01*
X154603809Y-68032395D02*
X154794285Y-68032395D01*
X154965714Y-68432395D02*
X154965714Y-68032395D01*
X154965714Y-68032395D02*
X155118095Y-68032395D01*
X155118095Y-68032395D02*
X155156190Y-68051443D01*
X155156190Y-68051443D02*
X155175237Y-68070490D01*
X155175237Y-68070490D02*
X155194285Y-68108586D01*
X155194285Y-68108586D02*
X155194285Y-68165728D01*
X155194285Y-68165728D02*
X155175237Y-68203824D01*
X155175237Y-68203824D02*
X155156190Y-68222871D01*
X155156190Y-68222871D02*
X155118095Y-68241919D01*
X155118095Y-68241919D02*
X154965714Y-68241919D01*
X155441904Y-68032395D02*
X155518095Y-68032395D01*
X155518095Y-68032395D02*
X155556190Y-68051443D01*
X155556190Y-68051443D02*
X155594285Y-68089538D01*
X155594285Y-68089538D02*
X155613333Y-68165728D01*
X155613333Y-68165728D02*
X155613333Y-68299062D01*
X155613333Y-68299062D02*
X155594285Y-68375252D01*
X155594285Y-68375252D02*
X155556190Y-68413348D01*
X155556190Y-68413348D02*
X155518095Y-68432395D01*
X155518095Y-68432395D02*
X155441904Y-68432395D01*
X155441904Y-68432395D02*
X155403809Y-68413348D01*
X155403809Y-68413348D02*
X155365714Y-68375252D01*
X155365714Y-68375252D02*
X155346666Y-68299062D01*
X155346666Y-68299062D02*
X155346666Y-68165728D01*
X155346666Y-68165728D02*
X155365714Y-68089538D01*
X155365714Y-68089538D02*
X155403809Y-68051443D01*
X155403809Y-68051443D02*
X155441904Y-68032395D01*
X155784762Y-68032395D02*
X155784762Y-68356205D01*
X155784762Y-68356205D02*
X155803809Y-68394300D01*
X155803809Y-68394300D02*
X155822857Y-68413348D01*
X155822857Y-68413348D02*
X155860952Y-68432395D01*
X155860952Y-68432395D02*
X155937143Y-68432395D01*
X155937143Y-68432395D02*
X155975238Y-68413348D01*
X155975238Y-68413348D02*
X155994285Y-68394300D01*
X155994285Y-68394300D02*
X156013333Y-68356205D01*
X156013333Y-68356205D02*
X156013333Y-68032395D01*
X156146667Y-68032395D02*
X156375238Y-68032395D01*
X156260952Y-68432395D02*
X156260952Y-68032395D01*
X148761904Y-131297395D02*
X148761904Y-130897395D01*
X148990475Y-131297395D02*
X148819046Y-131068824D01*
X148990475Y-130897395D02*
X148761904Y-131125967D01*
X149161904Y-131087871D02*
X149295237Y-131087871D01*
X149352380Y-131297395D02*
X149161904Y-131297395D01*
X149161904Y-131297395D02*
X149161904Y-130897395D01*
X149161904Y-130897395D02*
X149352380Y-130897395D01*
X149523809Y-131087871D02*
X149657142Y-131087871D01*
X149714285Y-131297395D02*
X149523809Y-131297395D01*
X149523809Y-131297395D02*
X149523809Y-130897395D01*
X149523809Y-130897395D02*
X149714285Y-130897395D01*
X149885714Y-131297395D02*
X149885714Y-130897395D01*
X149885714Y-130897395D02*
X150038095Y-130897395D01*
X150038095Y-130897395D02*
X150076190Y-130916443D01*
X150076190Y-130916443D02*
X150095237Y-130935490D01*
X150095237Y-130935490D02*
X150114285Y-130973586D01*
X150114285Y-130973586D02*
X150114285Y-131030728D01*
X150114285Y-131030728D02*
X150095237Y-131068824D01*
X150095237Y-131068824D02*
X150076190Y-131087871D01*
X150076190Y-131087871D02*
X150038095Y-131106919D01*
X150038095Y-131106919D02*
X149885714Y-131106919D01*
X150361904Y-130897395D02*
X150438095Y-130897395D01*
X150438095Y-130897395D02*
X150476190Y-130916443D01*
X150476190Y-130916443D02*
X150514285Y-130954538D01*
X150514285Y-130954538D02*
X150533333Y-131030728D01*
X150533333Y-131030728D02*
X150533333Y-131164062D01*
X150533333Y-131164062D02*
X150514285Y-131240252D01*
X150514285Y-131240252D02*
X150476190Y-131278348D01*
X150476190Y-131278348D02*
X150438095Y-131297395D01*
X150438095Y-131297395D02*
X150361904Y-131297395D01*
X150361904Y-131297395D02*
X150323809Y-131278348D01*
X150323809Y-131278348D02*
X150285714Y-131240252D01*
X150285714Y-131240252D02*
X150266666Y-131164062D01*
X150266666Y-131164062D02*
X150266666Y-131030728D01*
X150266666Y-131030728D02*
X150285714Y-130954538D01*
X150285714Y-130954538D02*
X150323809Y-130916443D01*
X150323809Y-130916443D02*
X150361904Y-130897395D01*
X150704762Y-130897395D02*
X150704762Y-131221205D01*
X150704762Y-131221205D02*
X150723809Y-131259300D01*
X150723809Y-131259300D02*
X150742857Y-131278348D01*
X150742857Y-131278348D02*
X150780952Y-131297395D01*
X150780952Y-131297395D02*
X150857143Y-131297395D01*
X150857143Y-131297395D02*
X150895238Y-131278348D01*
X150895238Y-131278348D02*
X150914285Y-131259300D01*
X150914285Y-131259300D02*
X150933333Y-131221205D01*
X150933333Y-131221205D02*
X150933333Y-130897395D01*
X151066667Y-130897395D02*
X151295238Y-130897395D01*
X151180952Y-131297395D02*
X151180952Y-130897395D01*
X153841904Y-143362395D02*
X153841904Y-142962395D01*
X154070475Y-143362395D02*
X153899046Y-143133824D01*
X154070475Y-142962395D02*
X153841904Y-143190967D01*
X154241904Y-143152871D02*
X154375237Y-143152871D01*
X154432380Y-143362395D02*
X154241904Y-143362395D01*
X154241904Y-143362395D02*
X154241904Y-142962395D01*
X154241904Y-142962395D02*
X154432380Y-142962395D01*
X154603809Y-143152871D02*
X154737142Y-143152871D01*
X154794285Y-143362395D02*
X154603809Y-143362395D01*
X154603809Y-143362395D02*
X154603809Y-142962395D01*
X154603809Y-142962395D02*
X154794285Y-142962395D01*
X154965714Y-143362395D02*
X154965714Y-142962395D01*
X154965714Y-142962395D02*
X155118095Y-142962395D01*
X155118095Y-142962395D02*
X155156190Y-142981443D01*
X155156190Y-142981443D02*
X155175237Y-143000490D01*
X155175237Y-143000490D02*
X155194285Y-143038586D01*
X155194285Y-143038586D02*
X155194285Y-143095728D01*
X155194285Y-143095728D02*
X155175237Y-143133824D01*
X155175237Y-143133824D02*
X155156190Y-143152871D01*
X155156190Y-143152871D02*
X155118095Y-143171919D01*
X155118095Y-143171919D02*
X154965714Y-143171919D01*
X155441904Y-142962395D02*
X155518095Y-142962395D01*
X155518095Y-142962395D02*
X155556190Y-142981443D01*
X155556190Y-142981443D02*
X155594285Y-143019538D01*
X155594285Y-143019538D02*
X155613333Y-143095728D01*
X155613333Y-143095728D02*
X155613333Y-143229062D01*
X155613333Y-143229062D02*
X155594285Y-143305252D01*
X155594285Y-143305252D02*
X155556190Y-143343348D01*
X155556190Y-143343348D02*
X155518095Y-143362395D01*
X155518095Y-143362395D02*
X155441904Y-143362395D01*
X155441904Y-143362395D02*
X155403809Y-143343348D01*
X155403809Y-143343348D02*
X155365714Y-143305252D01*
X155365714Y-143305252D02*
X155346666Y-143229062D01*
X155346666Y-143229062D02*
X155346666Y-143095728D01*
X155346666Y-143095728D02*
X155365714Y-143019538D01*
X155365714Y-143019538D02*
X155403809Y-142981443D01*
X155403809Y-142981443D02*
X155441904Y-142962395D01*
X155784762Y-142962395D02*
X155784762Y-143286205D01*
X155784762Y-143286205D02*
X155803809Y-143324300D01*
X155803809Y-143324300D02*
X155822857Y-143343348D01*
X155822857Y-143343348D02*
X155860952Y-143362395D01*
X155860952Y-143362395D02*
X155937143Y-143362395D01*
X155937143Y-143362395D02*
X155975238Y-143343348D01*
X155975238Y-143343348D02*
X155994285Y-143324300D01*
X155994285Y-143324300D02*
X156013333Y-143286205D01*
X156013333Y-143286205D02*
X156013333Y-142962395D01*
X156146667Y-142962395D02*
X156375238Y-142962395D01*
X156260952Y-143362395D02*
X156260952Y-142962395D01*
X143681904Y-143362395D02*
X143681904Y-142962395D01*
X143910475Y-143362395D02*
X143739046Y-143133824D01*
X143910475Y-142962395D02*
X143681904Y-143190967D01*
X144081904Y-143152871D02*
X144215237Y-143152871D01*
X144272380Y-143362395D02*
X144081904Y-143362395D01*
X144081904Y-143362395D02*
X144081904Y-142962395D01*
X144081904Y-142962395D02*
X144272380Y-142962395D01*
X144443809Y-143152871D02*
X144577142Y-143152871D01*
X144634285Y-143362395D02*
X144443809Y-143362395D01*
X144443809Y-143362395D02*
X144443809Y-142962395D01*
X144443809Y-142962395D02*
X144634285Y-142962395D01*
X144805714Y-143362395D02*
X144805714Y-142962395D01*
X144805714Y-142962395D02*
X144958095Y-142962395D01*
X144958095Y-142962395D02*
X144996190Y-142981443D01*
X144996190Y-142981443D02*
X145015237Y-143000490D01*
X145015237Y-143000490D02*
X145034285Y-143038586D01*
X145034285Y-143038586D02*
X145034285Y-143095728D01*
X145034285Y-143095728D02*
X145015237Y-143133824D01*
X145015237Y-143133824D02*
X144996190Y-143152871D01*
X144996190Y-143152871D02*
X144958095Y-143171919D01*
X144958095Y-143171919D02*
X144805714Y-143171919D01*
X145281904Y-142962395D02*
X145358095Y-142962395D01*
X145358095Y-142962395D02*
X145396190Y-142981443D01*
X145396190Y-142981443D02*
X145434285Y-143019538D01*
X145434285Y-143019538D02*
X145453333Y-143095728D01*
X145453333Y-143095728D02*
X145453333Y-143229062D01*
X145453333Y-143229062D02*
X145434285Y-143305252D01*
X145434285Y-143305252D02*
X145396190Y-143343348D01*
X145396190Y-143343348D02*
X145358095Y-143362395D01*
X145358095Y-143362395D02*
X145281904Y-143362395D01*
X145281904Y-143362395D02*
X145243809Y-143343348D01*
X145243809Y-143343348D02*
X145205714Y-143305252D01*
X145205714Y-143305252D02*
X145186666Y-143229062D01*
X145186666Y-143229062D02*
X145186666Y-143095728D01*
X145186666Y-143095728D02*
X145205714Y-143019538D01*
X145205714Y-143019538D02*
X145243809Y-142981443D01*
X145243809Y-142981443D02*
X145281904Y-142962395D01*
X145624762Y-142962395D02*
X145624762Y-143286205D01*
X145624762Y-143286205D02*
X145643809Y-143324300D01*
X145643809Y-143324300D02*
X145662857Y-143343348D01*
X145662857Y-143343348D02*
X145700952Y-143362395D01*
X145700952Y-143362395D02*
X145777143Y-143362395D01*
X145777143Y-143362395D02*
X145815238Y-143343348D01*
X145815238Y-143343348D02*
X145834285Y-143324300D01*
X145834285Y-143324300D02*
X145853333Y-143286205D01*
X145853333Y-143286205D02*
X145853333Y-142962395D01*
X145986667Y-142962395D02*
X146215238Y-142962395D01*
X146100952Y-143362395D02*
X146100952Y-142962395D01*
X143681904Y-57002395D02*
X143681904Y-56602395D01*
X143910475Y-57002395D02*
X143739046Y-56773824D01*
X143910475Y-56602395D02*
X143681904Y-56830967D01*
X144081904Y-56792871D02*
X144215237Y-56792871D01*
X144272380Y-57002395D02*
X144081904Y-57002395D01*
X144081904Y-57002395D02*
X144081904Y-56602395D01*
X144081904Y-56602395D02*
X144272380Y-56602395D01*
X144443809Y-56792871D02*
X144577142Y-56792871D01*
X144634285Y-57002395D02*
X144443809Y-57002395D01*
X144443809Y-57002395D02*
X144443809Y-56602395D01*
X144443809Y-56602395D02*
X144634285Y-56602395D01*
X144805714Y-57002395D02*
X144805714Y-56602395D01*
X144805714Y-56602395D02*
X144958095Y-56602395D01*
X144958095Y-56602395D02*
X144996190Y-56621443D01*
X144996190Y-56621443D02*
X145015237Y-56640490D01*
X145015237Y-56640490D02*
X145034285Y-56678586D01*
X145034285Y-56678586D02*
X145034285Y-56735728D01*
X145034285Y-56735728D02*
X145015237Y-56773824D01*
X145015237Y-56773824D02*
X144996190Y-56792871D01*
X144996190Y-56792871D02*
X144958095Y-56811919D01*
X144958095Y-56811919D02*
X144805714Y-56811919D01*
X145281904Y-56602395D02*
X145358095Y-56602395D01*
X145358095Y-56602395D02*
X145396190Y-56621443D01*
X145396190Y-56621443D02*
X145434285Y-56659538D01*
X145434285Y-56659538D02*
X145453333Y-56735728D01*
X145453333Y-56735728D02*
X145453333Y-56869062D01*
X145453333Y-56869062D02*
X145434285Y-56945252D01*
X145434285Y-56945252D02*
X145396190Y-56983348D01*
X145396190Y-56983348D02*
X145358095Y-57002395D01*
X145358095Y-57002395D02*
X145281904Y-57002395D01*
X145281904Y-57002395D02*
X145243809Y-56983348D01*
X145243809Y-56983348D02*
X145205714Y-56945252D01*
X145205714Y-56945252D02*
X145186666Y-56869062D01*
X145186666Y-56869062D02*
X145186666Y-56735728D01*
X145186666Y-56735728D02*
X145205714Y-56659538D01*
X145205714Y-56659538D02*
X145243809Y-56621443D01*
X145243809Y-56621443D02*
X145281904Y-56602395D01*
X145624762Y-56602395D02*
X145624762Y-56926205D01*
X145624762Y-56926205D02*
X145643809Y-56964300D01*
X145643809Y-56964300D02*
X145662857Y-56983348D01*
X145662857Y-56983348D02*
X145700952Y-57002395D01*
X145700952Y-57002395D02*
X145777143Y-57002395D01*
X145777143Y-57002395D02*
X145815238Y-56983348D01*
X145815238Y-56983348D02*
X145834285Y-56964300D01*
X145834285Y-56964300D02*
X145853333Y-56926205D01*
X145853333Y-56926205D02*
X145853333Y-56602395D01*
X145986667Y-56602395D02*
X146215238Y-56602395D01*
X146100952Y-57002395D02*
X146100952Y-56602395D01*
X153841904Y-57002395D02*
X153841904Y-56602395D01*
X154070475Y-57002395D02*
X153899046Y-56773824D01*
X154070475Y-56602395D02*
X153841904Y-56830967D01*
X154241904Y-56792871D02*
X154375237Y-56792871D01*
X154432380Y-57002395D02*
X154241904Y-57002395D01*
X154241904Y-57002395D02*
X154241904Y-56602395D01*
X154241904Y-56602395D02*
X154432380Y-56602395D01*
X154603809Y-56792871D02*
X154737142Y-56792871D01*
X154794285Y-57002395D02*
X154603809Y-57002395D01*
X154603809Y-57002395D02*
X154603809Y-56602395D01*
X154603809Y-56602395D02*
X154794285Y-56602395D01*
X154965714Y-57002395D02*
X154965714Y-56602395D01*
X154965714Y-56602395D02*
X155118095Y-56602395D01*
X155118095Y-56602395D02*
X155156190Y-56621443D01*
X155156190Y-56621443D02*
X155175237Y-56640490D01*
X155175237Y-56640490D02*
X155194285Y-56678586D01*
X155194285Y-56678586D02*
X155194285Y-56735728D01*
X155194285Y-56735728D02*
X155175237Y-56773824D01*
X155175237Y-56773824D02*
X155156190Y-56792871D01*
X155156190Y-56792871D02*
X155118095Y-56811919D01*
X155118095Y-56811919D02*
X154965714Y-56811919D01*
X155441904Y-56602395D02*
X155518095Y-56602395D01*
X155518095Y-56602395D02*
X155556190Y-56621443D01*
X155556190Y-56621443D02*
X155594285Y-56659538D01*
X155594285Y-56659538D02*
X155613333Y-56735728D01*
X155613333Y-56735728D02*
X155613333Y-56869062D01*
X155613333Y-56869062D02*
X155594285Y-56945252D01*
X155594285Y-56945252D02*
X155556190Y-56983348D01*
X155556190Y-56983348D02*
X155518095Y-57002395D01*
X155518095Y-57002395D02*
X155441904Y-57002395D01*
X155441904Y-57002395D02*
X155403809Y-56983348D01*
X155403809Y-56983348D02*
X155365714Y-56945252D01*
X155365714Y-56945252D02*
X155346666Y-56869062D01*
X155346666Y-56869062D02*
X155346666Y-56735728D01*
X155346666Y-56735728D02*
X155365714Y-56659538D01*
X155365714Y-56659538D02*
X155403809Y-56621443D01*
X155403809Y-56621443D02*
X155441904Y-56602395D01*
X155784762Y-56602395D02*
X155784762Y-56926205D01*
X155784762Y-56926205D02*
X155803809Y-56964300D01*
X155803809Y-56964300D02*
X155822857Y-56983348D01*
X155822857Y-56983348D02*
X155860952Y-57002395D01*
X155860952Y-57002395D02*
X155937143Y-57002395D01*
X155937143Y-57002395D02*
X155975238Y-56983348D01*
X155975238Y-56983348D02*
X155994285Y-56964300D01*
X155994285Y-56964300D02*
X156013333Y-56926205D01*
X156013333Y-56926205D02*
X156013333Y-56602395D01*
X156146667Y-56602395D02*
X156375238Y-56602395D01*
X156260952Y-57002395D02*
X156260952Y-56602395D01*
M02*
