G04 #@! TF.GenerationSoftware,KiCad,Pcbnew,9.0.7*
G04 #@! TF.CreationDate,2026-01-04T21:44:44+01:00*
G04 #@! TF.ProjectId,board_B,626f6172-645f-4422-9e6b-696361645f70,rev?*
G04 #@! TF.SameCoordinates,Original*
G04 #@! TF.FileFunction,Copper,L2,Bot*
G04 #@! TF.FilePolarity,Positive*
%FSLAX46Y46*%
G04 Gerber Fmt 4.6, Leading zero omitted, Abs format (unit mm)*
G04 Created by KiCad (PCBNEW 9.0.7) date 2026-01-04 21:44:44*
%MOMM*%
%LPD*%
G01*
G04 APERTURE LIST*
G04 Aperture macros list*
%AMRoundRect*
0 Rectangle with rounded corners*
0 $1 Rounding radius*
0 $2 $3 $4 $5 $6 $7 $8 $9 X,Y pos of 4 corners*
0 Add a 4 corners polygon primitive as box body*
4,1,4,$2,$3,$4,$5,$6,$7,$8,$9,$2,$3,0*
0 Add four circle primitives for the rounded corners*
1,1,$1+$1,$2,$3*
1,1,$1+$1,$4,$5*
1,1,$1+$1,$6,$7*
1,1,$1+$1,$8,$9*
0 Add four rect primitives between the rounded corners*
20,1,$1+$1,$2,$3,$4,$5,0*
20,1,$1+$1,$4,$5,$6,$7,0*
20,1,$1+$1,$6,$7,$8,$9,0*
20,1,$1+$1,$8,$9,$2,$3,0*%
G04 Aperture macros list end*
G04 #@! TA.AperFunction,ComponentPad*
%ADD10R,1.000000X1.000000*%
G04 #@! TD*
G04 #@! TA.AperFunction,ComponentPad*
%ADD11C,1.000000*%
G04 #@! TD*
G04 #@! TA.AperFunction,ComponentPad*
%ADD12RoundRect,0.250000X-0.600000X0.600000X-0.600000X-0.600000X0.600000X-0.600000X0.600000X0.600000X0*%
G04 #@! TD*
G04 #@! TA.AperFunction,ComponentPad*
%ADD13C,1.700000*%
G04 #@! TD*
G04 #@! TA.AperFunction,ComponentPad*
%ADD14R,1.700000X1.700000*%
G04 #@! TD*
G04 #@! TA.AperFunction,ComponentPad*
%ADD15R,1.600000X1.600000*%
G04 #@! TD*
G04 #@! TA.AperFunction,ComponentPad*
%ADD16O,1.600000X1.600000*%
G04 #@! TD*
G04 #@! TA.AperFunction,ComponentPad*
%ADD17O,2.720000X3.786000*%
G04 #@! TD*
G04 #@! TA.AperFunction,ComponentPad*
%ADD18R,1.800000X1.800000*%
G04 #@! TD*
G04 #@! TA.AperFunction,ComponentPad*
%ADD19C,1.800000*%
G04 #@! TD*
G04 #@! TA.AperFunction,ComponentPad*
%ADD20R,1.930000X1.830000*%
G04 #@! TD*
G04 #@! TA.AperFunction,ComponentPad*
%ADD21C,2.130000*%
G04 #@! TD*
G04 #@! TA.AperFunction,ComponentPad*
%ADD22RoundRect,0.412500X-0.412500X-0.412500X0.412500X-0.412500X0.412500X0.412500X-0.412500X0.412500X0*%
G04 #@! TD*
G04 #@! TA.AperFunction,ComponentPad*
%ADD23C,1.650000*%
G04 #@! TD*
G04 #@! TA.AperFunction,ComponentPad*
%ADD24R,1.830000X1.930000*%
G04 #@! TD*
G04 #@! TA.AperFunction,ViaPad*
%ADD25C,0.600000*%
G04 #@! TD*
G04 #@! TA.AperFunction,Conductor*
%ADD26C,0.500000*%
G04 #@! TD*
G04 #@! TA.AperFunction,Conductor*
%ADD27C,0.200000*%
G04 #@! TD*
G04 #@! TA.AperFunction,Conductor*
%ADD28C,0.300000*%
G04 #@! TD*
G04 APERTURE END LIST*
D10*
G04 #@! TO.P,J9,1,Pin_1*
G04 #@! TO.N,EXP1*
X142380000Y-136195000D03*
D11*
G04 #@! TO.P,J9,2,Pin_2*
G04 #@! TO.N,B_+12V*
X143650000Y-136195000D03*
G04 #@! TO.P,J9,3,Pin_3*
G04 #@! TO.N,EXP3*
X142380000Y-134925000D03*
G04 #@! TO.P,J9,4,Pin_4*
G04 #@! TO.N,B_GND*
X143650000Y-134925000D03*
G04 #@! TO.P,J9,5,Pin_5*
G04 #@! TO.N,EXP5*
X142380000Y-133655000D03*
G04 #@! TO.P,J9,6,Pin_6*
G04 #@! TO.N,B_-12V*
X143650000Y-133655000D03*
G04 #@! TO.P,J9,7,Pin_7*
G04 #@! TO.N,EXP7*
X142380000Y-132385000D03*
G04 #@! TO.P,J9,8,Pin_8*
G04 #@! TO.N,B_+5V*
X143650000Y-132385000D03*
G04 #@! TD*
D12*
G04 #@! TO.P,J2,1,-12V*
G04 #@! TO.N,-12V*
X155080000Y-77775000D03*
D13*
G04 #@! TO.P,J2,2,-12V*
X155080000Y-80315000D03*
G04 #@! TO.P,J2,3,GND*
G04 #@! TO.N,B_GND*
X152540000Y-77775000D03*
G04 #@! TO.P,J2,4,GND*
X152540000Y-80315000D03*
G04 #@! TO.P,J2,5,GND*
X150000000Y-77775000D03*
G04 #@! TO.P,J2,6,GND*
X150000000Y-80315000D03*
G04 #@! TO.P,J2,7,GND*
X147460000Y-77775000D03*
G04 #@! TO.P,J2,8,GND*
X147460000Y-80315000D03*
G04 #@! TO.P,J2,9,+12V*
G04 #@! TO.N,+12V*
X144920000Y-77775000D03*
G04 #@! TO.P,J2,10,+12V*
X144920000Y-80315000D03*
G04 #@! TD*
D14*
G04 #@! TO.P,JP1,1,A*
G04 #@! TO.N,B_+5V*
X157620000Y-131623000D03*
D13*
G04 #@! TO.P,JP1,2,C*
G04 #@! TO.N,Net-(JP1-C)*
X157620000Y-134163000D03*
G04 #@! TO.P,JP1,3,B*
G04 #@! TO.N,B_GND*
X157620000Y-136703000D03*
G04 #@! TD*
D15*
G04 #@! TO.P,A1,1,D1/TX*
G04 #@! TO.N,CLOCK*
X142380000Y-89205000D03*
D16*
G04 #@! TO.P,A1,2,D0/RX*
G04 #@! TO.N,CLOCK2*
X142380000Y-91745000D03*
G04 #@! TO.P,A1,3,~{RESET}*
G04 #@! TO.N,unconnected-(A1-~{RESET}-Pad3)*
X142380000Y-94285000D03*
G04 #@! TO.P,A1,4,GND*
G04 #@! TO.N,B_GND*
X142380000Y-96825000D03*
G04 #@! TO.P,A1,5,D2*
G04 #@! TO.N,unconnected-(A1-D2-Pad5)*
X142380000Y-99365000D03*
G04 #@! TO.P,A1,6,D3*
G04 #@! TO.N,EXP1*
X142380000Y-101905000D03*
G04 #@! TO.P,A1,7,D4*
G04 #@! TO.N,unconnected-(A1-D4-Pad7)*
X142380000Y-104445000D03*
G04 #@! TO.P,A1,8,D5*
G04 #@! TO.N,EXP3*
X142380000Y-106985000D03*
G04 #@! TO.P,A1,9,D6*
G04 #@! TO.N,EXP7*
X142380000Y-109525000D03*
G04 #@! TO.P,A1,10,D7*
G04 #@! TO.N,unconnected-(A1-D7-Pad10)*
X142380000Y-112065000D03*
G04 #@! TO.P,A1,11,D8*
G04 #@! TO.N,unconnected-(A1-D8-Pad11)*
X142380000Y-114605000D03*
G04 #@! TO.P,A1,12,D9*
G04 #@! TO.N,PITCH*
X142380000Y-117145000D03*
G04 #@! TO.P,A1,13,D10*
G04 #@! TO.N,CC*
X142380000Y-119685000D03*
G04 #@! TO.P,A1,14,D11*
G04 #@! TO.N,EXP5*
X142380000Y-122225000D03*
G04 #@! TO.P,A1,15,D12*
G04 #@! TO.N,unconnected-(A1-D12-Pad15)*
X142380000Y-124765000D03*
G04 #@! TO.P,A1,16,D13*
G04 #@! TO.N,unconnected-(A1-D13-Pad16)*
X157620000Y-124765000D03*
G04 #@! TO.P,A1,17,3V3*
G04 #@! TO.N,unconnected-(A1-3V3-Pad17)*
X157620000Y-122225000D03*
G04 #@! TO.P,A1,18,AREF*
G04 #@! TO.N,unconnected-(A1-AREF-Pad18)*
X157620000Y-119685000D03*
G04 #@! TO.P,A1,19,A0*
G04 #@! TO.N,unconnected-(A1-A0-Pad19)*
X157620000Y-117145000D03*
G04 #@! TO.P,A1,20,A1*
G04 #@! TO.N,unconnected-(A1-A1-Pad20)*
X157620000Y-114605000D03*
G04 #@! TO.P,A1,21,A2*
G04 #@! TO.N,MIDI_IN*
X157620000Y-112065000D03*
G04 #@! TO.P,A1,22,A3*
G04 #@! TO.N,unconnected-(A1-A3-Pad22)*
X157620000Y-109525000D03*
G04 #@! TO.P,A1,23,A4*
G04 #@! TO.N,unconnected-(A1-A4-Pad23)*
X157620000Y-106985000D03*
G04 #@! TO.P,A1,24,A5*
G04 #@! TO.N,unconnected-(A1-A5-Pad24)*
X157620000Y-104445000D03*
G04 #@! TO.P,A1,25,A6*
G04 #@! TO.N,unconnected-(A1-A6-Pad25)*
X157620000Y-101905000D03*
G04 #@! TO.P,A1,26,A7*
G04 #@! TO.N,GATE*
X157620000Y-99365000D03*
G04 #@! TO.P,A1,27,+5V*
G04 #@! TO.N,B_+5V*
X157620000Y-96825000D03*
G04 #@! TO.P,A1,28,~{RESET}*
G04 #@! TO.N,unconnected-(A1-~{RESET}-Pad28)*
X157620000Y-94285000D03*
G04 #@! TO.P,A1,29,GND*
G04 #@! TO.N,B_GND*
X157620000Y-91745000D03*
G04 #@! TO.P,A1,30,VIN*
G04 #@! TO.N,B_+12V*
X157620000Y-89205000D03*
G04 #@! TD*
D17*
G04 #@! TO.P,RV5,*
G04 #@! TO.N,*
X145200000Y-117275000D03*
X154800000Y-117275000D03*
D18*
G04 #@! TO.P,RV5,1,1*
G04 #@! TO.N,Net-(R18-Pad1)*
X152500000Y-124775000D03*
D19*
G04 #@! TO.P,RV5,2,2*
G04 #@! TO.N,SLEW_OUT*
X150000000Y-124775000D03*
G04 #@! TO.P,RV5,3,3*
X147500000Y-124775000D03*
G04 #@! TD*
D20*
G04 #@! TO.P,J4,S*
G04 #@! TO.N,B_GND*
X147460000Y-62662000D03*
D21*
G04 #@! TO.P,J4,T*
G04 #@! TO.N,Net-(J4-PadT)*
X144920000Y-73170000D03*
G04 #@! TO.P,J4,TN*
G04 #@! TO.N,unconnected-(J4-PadTN)*
X144920000Y-64870000D03*
G04 #@! TD*
D22*
G04 #@! TO.P,RV1,1,1*
G04 #@! TO.N,Net-(R10-Pad2)*
X147460000Y-109525000D03*
D23*
G04 #@! TO.P,RV1,2,2*
G04 #@! TO.N,Net-(R25-Pad1)*
X150000000Y-109525000D03*
G04 #@! TO.P,RV1,3,3*
X152540000Y-109525000D03*
G04 #@! TD*
D20*
G04 #@! TO.P,J5,S*
G04 #@! TO.N,B_GND*
X157620000Y-62662000D03*
D21*
G04 #@! TO.P,J5,T*
G04 #@! TO.N,Net-(J5-PadT)*
X155080000Y-73170000D03*
G04 #@! TO.P,J5,TN*
G04 #@! TO.N,unconnected-(J5-PadTN)*
X155080000Y-64870000D03*
G04 #@! TD*
D24*
G04 #@! TO.P,J8,S*
G04 #@! TO.N,B_GND*
X144412000Y-128575000D03*
D21*
G04 #@! TO.P,J8,T*
G04 #@! TO.N,Net-(J8-PadT)*
X154920000Y-131115000D03*
G04 #@! TO.P,J8,TN*
G04 #@! TO.N,unconnected-(J8-PadTN)*
X146620000Y-131115000D03*
G04 #@! TD*
D20*
G04 #@! TO.P,J3,S*
G04 #@! TO.N,B_GND*
X152540000Y-137592000D03*
D21*
G04 #@! TO.P,J3,T*
G04 #@! TO.N,Net-(J3-PadT)*
X155080000Y-148100000D03*
G04 #@! TO.P,J3,TN*
G04 #@! TO.N,unconnected-(J3-PadTN)*
X155080000Y-139800000D03*
G04 #@! TD*
D20*
G04 #@! TO.P,J6,S*
G04 #@! TO.N,B_GND*
X147460000Y-137592000D03*
D21*
G04 #@! TO.P,J6,T*
G04 #@! TO.N,Net-(J6-PadT)*
X144920000Y-148100000D03*
G04 #@! TO.P,J6,TN*
G04 #@! TO.N,unconnected-(J6-PadTN)*
X144920000Y-139800000D03*
G04 #@! TD*
G04 #@! TO.P,J7,R*
G04 #@! TO.N,Net-(J7-PadR)*
X144920000Y-60200000D03*
D20*
G04 #@! TO.P,J7,S*
G04 #@! TO.N,B_GND*
X142380000Y-62408000D03*
D21*
G04 #@! TO.P,J7,T*
G04 #@! TO.N,Net-(J7-PadT)*
X144920000Y-51900000D03*
G04 #@! TD*
D18*
G04 #@! TO.P,D6,1,K*
G04 #@! TO.N,Net-(D6-K)*
X152540000Y-98730000D03*
D19*
G04 #@! TO.P,D6,2,A*
G04 #@! TO.N,GATE*
X155080000Y-98730000D03*
G04 #@! TD*
D18*
G04 #@! TO.P,D5,1,K*
G04 #@! TO.N,Net-(D5-K)*
X144920000Y-98730000D03*
D19*
G04 #@! TO.P,D5,2,A*
G04 #@! TO.N,CLOCK2*
X147460000Y-98730000D03*
G04 #@! TD*
D21*
G04 #@! TO.P,J1,R*
G04 #@! TO.N,Net-(D1-A)*
X155080000Y-60200000D03*
D20*
G04 #@! TO.P,J1,S*
G04 #@! TO.N,B_GND*
X152540000Y-62408000D03*
D21*
G04 #@! TO.P,J1,T*
G04 #@! TO.N,Net-(J1-PadT)*
X155080000Y-51900000D03*
G04 #@! TD*
D22*
G04 #@! TO.P,RV2,1,1*
G04 #@! TO.N,B_+12V*
X147460000Y-103810000D03*
D23*
G04 #@! TO.P,RV2,2,2*
G04 #@! TO.N,Net-(R3-Pad2)*
X150000000Y-103810000D03*
G04 #@! TO.P,RV2,3,3*
G04 #@! TO.N,B_-12V*
X152540000Y-103810000D03*
G04 #@! TD*
D25*
G04 #@! TO.N,B_GND*
X144158000Y-111049000D03*
X152540000Y-122225000D03*
X142761000Y-148387000D03*
X147841000Y-135052000D03*
X150000000Y-98857000D03*
X150000000Y-148895000D03*
X156985000Y-87173000D03*
X157112000Y-148260000D03*
X152159000Y-102413000D03*
X147460000Y-140132000D03*
X147968000Y-117780000D03*
X149111000Y-120447000D03*
X144285000Y-100889000D03*
X148476000Y-130099000D03*
X150508000Y-128956000D03*
X155842000Y-97206000D03*
G04 #@! TO.N,CLOCK2*
X151270000Y-81740800D03*
G04 #@! TO.N,B_+12V*
X152540000Y-139208500D03*
X146825000Y-86030000D03*
X149365000Y-102346100D03*
G04 #@! TO.N,B_+5V*
X146385000Y-59235600D03*
X157887600Y-64105500D03*
G04 #@! TO.N,B_-12V*
X149402800Y-137477100D03*
X158802400Y-97997400D03*
X147592500Y-116611200D03*
X145396900Y-124115200D03*
G04 #@! TO.N,Net-(D1-K)*
X158636000Y-73711000D03*
X147953600Y-85313500D03*
G04 #@! TO.N,Net-(J6-PadT)*
X151979600Y-133987900D03*
G04 #@! TO.N,MIDI_IN*
X155669600Y-112065000D03*
G04 #@! TO.N,CLOCK*
X146864300Y-84760000D03*
G04 #@! TO.N,Net-(R10-Pad2)*
X149864900Y-128229500D03*
G04 #@! TO.N,Net-(J8-PadT)*
X146937600Y-127629500D03*
G04 #@! TO.N,Net-(R25-Pad1)*
X153859400Y-129099900D03*
G04 #@! TO.N,PITCH*
X145452000Y-132258000D03*
G04 #@! TO.N,Net-(U3A--)*
X150314600Y-107269900D03*
X148028300Y-122979400D03*
G04 #@! TO.N,Net-(U4B--)*
X147695100Y-61161800D03*
X141805000Y-63978500D03*
G04 #@! TO.N,SLEW_OUT*
X151232100Y-126317800D03*
X158992500Y-132445200D03*
G04 #@! TO.N,SLEW_IN*
X150494100Y-136541000D03*
X149292300Y-136541000D03*
G04 #@! TO.N,EXP7*
X149455900Y-112863300D03*
X146783600Y-107563800D03*
X148491000Y-118529250D03*
G04 #@! TD*
D26*
G04 #@! TO.N,B_GND*
X151905000Y-138227000D02*
X152540000Y-137592000D01*
X147460000Y-137592000D02*
X148095000Y-138227000D01*
D27*
X147890000Y-117858000D02*
X147890000Y-119226000D01*
D26*
X148095000Y-138227000D02*
X151905000Y-138227000D01*
D27*
X147968000Y-117780000D02*
X147890000Y-117858000D01*
X147890000Y-119226000D02*
X149111000Y-120447000D01*
D26*
G04 #@! TO.N,CLOCK2*
X147304200Y-81740800D02*
X141129000Y-87916000D01*
X147460000Y-98730000D02*
X147460000Y-96825000D01*
X141110000Y-88431700D02*
X141110000Y-90475000D01*
X141110000Y-90475000D02*
X142380000Y-91745000D01*
X147460000Y-96825000D02*
X142380000Y-91745000D01*
X141129000Y-87916000D02*
X141129000Y-88412700D01*
X141129000Y-88412700D02*
X141110000Y-88431700D01*
X151270000Y-81740800D02*
X147304200Y-81740800D01*
G04 #@! TO.N,B_+12V*
X147460000Y-86030000D02*
X150635000Y-89205000D01*
X146825000Y-86030000D02*
X147460000Y-86030000D01*
D27*
X141141500Y-109169100D02*
X141141500Y-136431700D01*
D26*
X143650000Y-136322000D02*
X143650000Y-136195000D01*
D27*
X143015000Y-108255000D02*
X142055600Y-108255000D01*
X141717600Y-137007800D02*
X143039300Y-137007800D01*
X143039300Y-137007800D02*
X143650000Y-136397100D01*
X148923900Y-102346100D02*
X147460000Y-103810000D01*
X143650000Y-136397100D02*
X143650000Y-136195000D01*
X147460000Y-103810000D02*
X143015000Y-108255000D01*
X142055600Y-108255000D02*
X141141500Y-109169100D01*
D26*
X152540000Y-139208500D02*
X146536500Y-139208500D01*
D27*
X141141500Y-136431700D02*
X141717600Y-137007800D01*
D26*
X146536500Y-139208500D02*
X143650000Y-136322000D01*
D27*
X149365000Y-102346100D02*
X148923900Y-102346100D01*
D26*
X150635000Y-89205000D02*
X157620000Y-89205000D01*
G04 #@! TO.N,B_+5V*
X157887600Y-64105500D02*
X157810100Y-64028000D01*
X144359918Y-133020000D02*
X155158948Y-133020000D01*
X143969000Y-132704000D02*
X144043918Y-132704000D01*
X152034600Y-59235600D02*
X146385000Y-59235600D01*
X156436000Y-131655300D02*
X156468300Y-131623000D01*
X155158948Y-133020000D02*
X156436000Y-131742948D01*
X153564000Y-60827948D02*
X153564000Y-60765000D01*
X156381948Y-64028000D02*
X154064000Y-61710052D01*
X154064000Y-61327948D02*
X153564000Y-60827948D01*
X154064000Y-61710052D02*
X154064000Y-61327948D01*
X153564000Y-60765000D02*
X152034600Y-59235600D01*
X143650000Y-132385000D02*
X143969000Y-132704000D01*
X156436000Y-131742948D02*
X156436000Y-131655300D01*
X157810100Y-64028000D02*
X156381948Y-64028000D01*
X156468300Y-131623000D02*
X157620000Y-131623000D01*
X144043918Y-132704000D02*
X144359918Y-133020000D01*
D27*
G04 #@! TO.N,B_-12V*
X151120600Y-136815500D02*
X151120600Y-136307200D01*
X147334600Y-120623700D02*
X147334600Y-122177500D01*
D28*
X155715000Y-100635000D02*
X152540000Y-103810000D01*
D27*
X147557100Y-116666900D02*
X147333900Y-116890100D01*
D28*
X158802400Y-97997400D02*
X158802400Y-99960600D01*
D27*
X147592500Y-116611200D02*
X147557100Y-116646600D01*
X147333900Y-116890100D02*
X147333900Y-120623000D01*
X147334600Y-122177500D02*
X145396900Y-124115200D01*
D28*
X158802400Y-99960600D02*
X158128000Y-100635000D01*
D27*
X148787400Y-115416300D02*
X147592500Y-116611200D01*
X147333900Y-120623000D02*
X147334600Y-120623700D01*
D28*
X158128000Y-100635000D02*
X155715000Y-100635000D01*
D27*
X152540000Y-103810000D02*
X148787400Y-107562600D01*
X151120600Y-136307200D02*
X148468400Y-133655000D01*
X149402800Y-137477100D02*
X150459000Y-137477100D01*
X148787400Y-107562600D02*
X148787400Y-115416300D01*
X150459000Y-137477100D02*
X151120600Y-136815500D01*
X147557100Y-116646600D02*
X147557100Y-116666900D01*
X148468400Y-133655000D02*
X143650000Y-133655000D01*
D26*
G04 #@! TO.N,Net-(D1-K)*
X158636000Y-73711000D02*
X158636000Y-83674400D01*
X156996900Y-85313500D02*
X147953600Y-85313500D01*
X158636000Y-83674400D02*
X156996900Y-85313500D01*
D28*
G04 #@! TO.N,Net-(J6-PadT)*
X153664000Y-139213473D02*
X154064000Y-138813473D01*
X144920000Y-147971200D02*
X153664000Y-139227200D01*
X153664000Y-139227200D02*
X153664000Y-139213473D01*
X144920000Y-148100000D02*
X144920000Y-147971200D01*
X154064000Y-136072300D02*
X151979600Y-133987900D01*
X154064000Y-138813473D02*
X154064000Y-136072300D01*
D26*
G04 #@! TO.N,MIDI_IN*
X155669600Y-112065000D02*
X157620000Y-112065000D01*
G04 #@! TO.N,CLOCK*
X146864300Y-84760000D02*
X142419300Y-89205000D01*
X142419300Y-89205000D02*
X142380000Y-89205000D01*
D27*
G04 #@! TO.N,Net-(R10-Pad2)*
X146625200Y-128229500D02*
X144795100Y-126399400D01*
X149729800Y-128229500D02*
X146625200Y-128229500D01*
X149864900Y-128229500D02*
X149864900Y-128364600D01*
X144795100Y-126399400D02*
X144795100Y-123715200D01*
X149864900Y-128364600D02*
X149729800Y-128229500D01*
X144795100Y-123715200D02*
X146932900Y-121577400D01*
X146932900Y-110052100D02*
X147460000Y-109525000D01*
X146932900Y-121577400D02*
X146932900Y-110052100D01*
G04 #@! TO.N,Net-(J8-PadT)*
X151434500Y-127629500D02*
X146937600Y-127629500D01*
X154920000Y-131115000D02*
X151434500Y-127629500D01*
G04 #@! TO.N,Net-(R25-Pad1)*
X146190000Y-123967757D02*
X147779357Y-122378400D01*
X146190000Y-125184200D02*
X146190000Y-123967757D01*
X148195600Y-122378400D02*
X150057600Y-120516400D01*
X147925300Y-126919500D02*
X146190000Y-125184200D01*
X151679000Y-126919500D02*
X147925300Y-126919500D01*
D26*
X152540000Y-109525000D02*
X150000000Y-109525000D01*
D27*
X150057600Y-109582600D02*
X150000000Y-109525000D01*
X147779357Y-122378400D02*
X148195600Y-122378400D01*
X153859400Y-129099900D02*
X151679000Y-126919500D01*
X150057600Y-120516400D02*
X150057600Y-109582600D01*
D26*
G04 #@! TO.N,GATE*
X155715000Y-99365000D02*
X155080000Y-98730000D01*
X157620000Y-99365000D02*
X155715000Y-99365000D01*
D27*
G04 #@! TO.N,PITCH*
X145089400Y-132258000D02*
X143194300Y-130362900D01*
X145452000Y-132258000D02*
X145089400Y-132258000D01*
X143883400Y-126724100D02*
X143883400Y-119612400D01*
X143194300Y-130362900D02*
X143194300Y-127413200D01*
X143883400Y-119612400D02*
X142380000Y-118109000D01*
X143194300Y-127413200D02*
X143883400Y-126724100D01*
X142380000Y-118109000D02*
X142380000Y-117145000D01*
G04 #@! TO.N,Net-(U3A--)*
X151897500Y-107269900D02*
X150314600Y-107269900D01*
X148028300Y-122979400D02*
X148610600Y-122979400D01*
X153706900Y-110867200D02*
X153706900Y-109079300D01*
X148610600Y-122979400D02*
X150508000Y-121082000D01*
X150508000Y-121082000D02*
X150508000Y-114066100D01*
X150508000Y-114066100D02*
X153706900Y-110867200D01*
X153706900Y-109079300D02*
X151897500Y-107269900D01*
G04 #@! TO.N,Net-(U4B--)*
X143510300Y-63978500D02*
X146327000Y-61161800D01*
X146327000Y-61161800D02*
X147695100Y-61161800D01*
X141805000Y-63978500D02*
X143510300Y-63978500D01*
D26*
G04 #@! TO.N,SLEW_OUT*
X154704300Y-126294300D02*
X151260000Y-126294300D01*
D27*
X151236500Y-126317800D02*
X151232100Y-126317800D01*
D26*
X158992500Y-132445200D02*
X158992500Y-130582500D01*
X151260000Y-126035000D02*
X150000000Y-124775000D01*
X151260000Y-126294300D02*
X151260000Y-126035000D01*
X158992500Y-130582500D02*
X154704300Y-126294300D01*
X147500000Y-124775000D02*
X150000000Y-124775000D01*
D27*
X151260000Y-126294300D02*
X151236500Y-126317800D01*
D26*
G04 #@! TO.N,SLEW_IN*
X149292300Y-136541000D02*
X150494100Y-136541000D01*
G04 #@! TO.N,EXP7*
X144822400Y-109525000D02*
X146783600Y-107563800D01*
X142380000Y-109525000D02*
X144822400Y-109525000D01*
D27*
X148491000Y-118529250D02*
X148556050Y-118529250D01*
X149455900Y-117629400D02*
X149455900Y-112863300D01*
X148556050Y-118529250D02*
X149455900Y-117629400D01*
G04 #@! TO.N,EXP5*
X143481700Y-124308600D02*
X142499900Y-123326800D01*
X142380000Y-133655000D02*
X141572200Y-132847200D01*
X141572200Y-132847200D02*
X141572200Y-127130900D01*
X142499900Y-123326800D02*
X142499900Y-122344900D01*
X141572200Y-127130900D02*
X143481700Y-125221400D01*
X142499900Y-122344900D02*
X142380000Y-122225000D01*
X143481700Y-125221400D02*
X143481700Y-124308600D01*
G04 #@! TD*
G04 #@! TA.AperFunction,Conductor*
G04 #@! TO.N,B_GND*
G36*
X156495627Y-132422936D02*
G01*
X156551561Y-132464808D01*
X156573911Y-132514927D01*
X156581131Y-132551229D01*
X156581132Y-132551230D01*
X156625447Y-132617552D01*
X156691769Y-132661867D01*
X156691770Y-132661868D01*
X156750247Y-132673499D01*
X156750250Y-132673500D01*
X158474790Y-132673500D01*
X158541829Y-132693185D01*
X158582176Y-132735499D01*
X158592000Y-132752514D01*
X158685186Y-132845700D01*
X158799314Y-132911592D01*
X158926608Y-132945700D01*
X158926610Y-132945700D01*
X159058389Y-132945700D01*
X159058392Y-132945700D01*
X159168409Y-132916221D01*
X159238256Y-132917884D01*
X159296119Y-132957046D01*
X159323623Y-133021275D01*
X159324500Y-133035996D01*
X159324500Y-149675500D01*
X159304815Y-149742539D01*
X159252011Y-149788294D01*
X159200500Y-149799500D01*
X140799500Y-149799500D01*
X140732461Y-149779815D01*
X140686706Y-149727011D01*
X140675500Y-149675500D01*
X140675500Y-143180004D01*
X143414858Y-143180004D01*
X143416656Y-143253519D01*
X143416657Y-143253540D01*
X143448850Y-143498071D01*
X143520554Y-143734076D01*
X143520555Y-143734081D01*
X143629840Y-143955202D01*
X143629843Y-143955208D01*
X143773773Y-144155507D01*
X143773777Y-144155512D01*
X143948493Y-144329619D01*
X143948500Y-144329625D01*
X144065300Y-144412937D01*
X144149303Y-144472856D01*
X144370809Y-144581370D01*
X144370814Y-144581371D01*
X144370815Y-144581372D01*
X144449544Y-144604991D01*
X144607064Y-144652250D01*
X144851722Y-144683592D01*
X145098215Y-144674553D01*
X145339921Y-144625377D01*
X145339925Y-144625375D01*
X145339927Y-144625375D01*
X145455164Y-144581370D01*
X145570350Y-144537385D01*
X145783313Y-144412939D01*
X145973092Y-144255382D01*
X146134589Y-144068945D01*
X146263468Y-143858634D01*
X146356266Y-143630099D01*
X146410493Y-143389475D01*
X146424692Y-143143226D01*
X146398481Y-142897965D01*
X146332564Y-142660278D01*
X146332562Y-142660275D01*
X146332560Y-142660268D01*
X146228714Y-142436552D01*
X146228712Y-142436547D01*
X146089720Y-142232792D01*
X146089710Y-142232779D01*
X145919301Y-142054456D01*
X145748662Y-141926338D01*
X145722054Y-141906360D01*
X145722052Y-141906359D01*
X145722051Y-141906358D01*
X145722048Y-141906356D01*
X145503267Y-141792466D01*
X145268819Y-141715837D01*
X145268820Y-141715837D01*
X145268813Y-141715835D01*
X145268811Y-141715834D01*
X145268809Y-141715834D01*
X145024994Y-141678525D01*
X145024993Y-141678525D01*
X145022120Y-141678560D01*
X144778351Y-141681538D01*
X144535528Y-141724791D01*
X144535508Y-141724796D01*
X144303017Y-141807126D01*
X144303008Y-141807130D01*
X144087067Y-141926336D01*
X144087064Y-141926338D01*
X143893494Y-142079211D01*
X143727493Y-142261643D01*
X143727492Y-142261644D01*
X143593512Y-142468746D01*
X143495162Y-142694936D01*
X143495159Y-142694944D01*
X143435070Y-142934168D01*
X143414859Y-143179992D01*
X143414858Y-143180004D01*
X140675500Y-143180004D01*
X140675500Y-136687573D01*
X140695185Y-136620534D01*
X140747989Y-136574779D01*
X140817147Y-136564835D01*
X140880703Y-136593860D01*
X140897877Y-136612088D01*
X140901038Y-136616208D01*
X140901040Y-136616211D01*
X141477140Y-137192311D01*
X141533089Y-137248260D01*
X141533091Y-137248261D01*
X141533095Y-137248264D01*
X141594844Y-137283914D01*
X141601611Y-137287821D01*
X141678038Y-137308300D01*
X141678040Y-137308300D01*
X143078860Y-137308300D01*
X143078862Y-137308300D01*
X143155289Y-137287821D01*
X143223811Y-137248260D01*
X143279760Y-137192311D01*
X143493806Y-136978264D01*
X143555124Y-136944782D01*
X143624816Y-136949766D01*
X143669164Y-136978267D01*
X145013716Y-138322819D01*
X145047201Y-138384142D01*
X145042217Y-138453834D01*
X145000345Y-138509767D01*
X144934881Y-138534184D01*
X144926035Y-138534500D01*
X144820403Y-138534500D01*
X144754822Y-138544887D01*
X144623659Y-138565661D01*
X144623656Y-138565661D01*
X144434219Y-138627213D01*
X144256733Y-138717647D01*
X144223066Y-138742108D01*
X144095582Y-138834731D01*
X144095580Y-138834733D01*
X144095579Y-138834733D01*
X143954733Y-138975579D01*
X143954733Y-138975580D01*
X143954731Y-138975582D01*
X143938254Y-138998261D01*
X143837647Y-139136733D01*
X143747213Y-139314219D01*
X143685661Y-139503656D01*
X143685661Y-139503659D01*
X143654500Y-139700403D01*
X143654500Y-139899596D01*
X143685661Y-140096340D01*
X143685661Y-140096343D01*
X143747213Y-140285780D01*
X143747215Y-140285783D01*
X143837647Y-140463266D01*
X143954731Y-140624418D01*
X144095582Y-140765269D01*
X144256734Y-140882353D01*
X144434217Y-140972785D01*
X144434219Y-140972786D01*
X144623657Y-141034338D01*
X144623658Y-141034338D01*
X144623661Y-141034339D01*
X144820403Y-141065500D01*
X144820404Y-141065500D01*
X145019596Y-141065500D01*
X145019597Y-141065500D01*
X145216339Y-141034339D01*
X145216342Y-141034338D01*
X145216343Y-141034338D01*
X145405780Y-140972786D01*
X145405780Y-140972785D01*
X145405783Y-140972785D01*
X145583266Y-140882353D01*
X145744418Y-140765269D01*
X145885269Y-140624418D01*
X146002353Y-140463266D01*
X146092785Y-140285783D01*
X146154339Y-140096339D01*
X146185500Y-139899597D01*
X146185500Y-139740514D01*
X146205185Y-139673475D01*
X146257989Y-139627720D01*
X146327147Y-139617776D01*
X146356959Y-139625955D01*
X146362603Y-139628293D01*
X146362614Y-139628299D01*
X146477191Y-139659000D01*
X152286063Y-139659000D01*
X152321946Y-139664305D01*
X152335655Y-139668449D01*
X152346814Y-139674892D01*
X152436111Y-139698818D01*
X152437964Y-139699379D01*
X152465615Y-139717463D01*
X152493834Y-139734663D01*
X152494727Y-139736502D01*
X152496439Y-139737622D01*
X152509926Y-139767789D01*
X152524364Y-139797510D01*
X152524121Y-139799540D01*
X152524956Y-139801407D01*
X152519992Y-139834077D01*
X152516070Y-139866886D01*
X152514700Y-139868909D01*
X152514461Y-139870484D01*
X152510889Y-139874539D01*
X152489762Y-139905755D01*
X145506702Y-146888815D01*
X145445379Y-146922300D01*
X145380703Y-146919065D01*
X145216342Y-146865661D01*
X145068782Y-146842290D01*
X145019597Y-146834500D01*
X144820403Y-146834500D01*
X144754822Y-146844887D01*
X144623659Y-146865661D01*
X144623656Y-146865661D01*
X144434219Y-146927213D01*
X144256733Y-147017647D01*
X144164790Y-147084447D01*
X144095582Y-147134731D01*
X144095580Y-147134733D01*
X144095579Y-147134733D01*
X143954733Y-147275579D01*
X143954733Y-147275580D01*
X143954731Y-147275582D01*
X143909058Y-147338445D01*
X143837647Y-147436733D01*
X143747213Y-147614219D01*
X143685661Y-147803656D01*
X143685661Y-147803659D01*
X143654500Y-148000403D01*
X143654500Y-148199596D01*
X143685661Y-148396340D01*
X143685661Y-148396343D01*
X143747213Y-148585780D01*
X143747215Y-148585783D01*
X143837647Y-148763266D01*
X143954731Y-148924418D01*
X144095582Y-149065269D01*
X144256734Y-149182353D01*
X144434217Y-149272785D01*
X144434219Y-149272786D01*
X144623657Y-149334338D01*
X144623658Y-149334338D01*
X144623661Y-149334339D01*
X144820403Y-149365500D01*
X144820404Y-149365500D01*
X145019596Y-149365500D01*
X145019597Y-149365500D01*
X145216339Y-149334339D01*
X145216342Y-149334338D01*
X145216343Y-149334338D01*
X145405780Y-149272786D01*
X145405780Y-149272785D01*
X145405783Y-149272785D01*
X145583266Y-149182353D01*
X145744418Y-149065269D01*
X145885269Y-148924418D01*
X146002353Y-148763266D01*
X146092785Y-148585783D01*
X146154339Y-148396339D01*
X146185500Y-148199597D01*
X146185500Y-148000403D01*
X153814500Y-148000403D01*
X153814500Y-148199596D01*
X153845661Y-148396340D01*
X153845661Y-148396343D01*
X153907213Y-148585780D01*
X153907215Y-148585783D01*
X153997647Y-148763266D01*
X154114731Y-148924418D01*
X154255582Y-149065269D01*
X154416734Y-149182353D01*
X154594217Y-149272785D01*
X154594219Y-149272786D01*
X154783657Y-149334338D01*
X154783658Y-149334338D01*
X154783661Y-149334339D01*
X154980403Y-149365500D01*
X154980404Y-149365500D01*
X155179596Y-149365500D01*
X155179597Y-149365500D01*
X155376339Y-149334339D01*
X155376342Y-149334338D01*
X155376343Y-149334338D01*
X155565780Y-149272786D01*
X155565780Y-149272785D01*
X155565783Y-149272785D01*
X155743266Y-149182353D01*
X155904418Y-149065269D01*
X156045269Y-148924418D01*
X156162353Y-148763266D01*
X156252785Y-148585783D01*
X156314339Y-148396339D01*
X156345500Y-148199597D01*
X156345500Y-148000403D01*
X156314339Y-147803661D01*
X156314338Y-147803657D01*
X156314338Y-147803656D01*
X156252786Y-147614219D01*
X156252785Y-147614217D01*
X156162353Y-147436734D01*
X156045269Y-147275582D01*
X155904418Y-147134731D01*
X155743266Y-147017647D01*
X155565780Y-146927213D01*
X155376342Y-146865661D01*
X155228782Y-146842290D01*
X155179597Y-146834500D01*
X154980403Y-146834500D01*
X154914822Y-146844887D01*
X154783659Y-146865661D01*
X154783656Y-146865661D01*
X154594219Y-146927213D01*
X154416733Y-147017647D01*
X154324790Y-147084447D01*
X154255582Y-147134731D01*
X154255580Y-147134733D01*
X154255579Y-147134733D01*
X154114733Y-147275579D01*
X154114733Y-147275580D01*
X154114731Y-147275582D01*
X154069058Y-147338445D01*
X153997647Y-147436733D01*
X153907213Y-147614219D01*
X153845661Y-147803656D01*
X153845661Y-147803659D01*
X153814500Y-148000403D01*
X146185500Y-148000403D01*
X146154339Y-147803661D01*
X146154338Y-147803657D01*
X146154338Y-147803656D01*
X146092786Y-147614219D01*
X146092785Y-147614217D01*
X146025630Y-147482418D01*
X146012735Y-147413752D01*
X146039011Y-147349012D01*
X146048426Y-147338454D01*
X150206875Y-143180004D01*
X153574858Y-143180004D01*
X153576656Y-143253519D01*
X153576657Y-143253540D01*
X153608850Y-143498071D01*
X153680554Y-143734076D01*
X153680555Y-143734081D01*
X153789840Y-143955202D01*
X153789843Y-143955208D01*
X153933773Y-144155507D01*
X153933777Y-144155512D01*
X154108493Y-144329619D01*
X154108500Y-144329625D01*
X154225300Y-144412937D01*
X154309303Y-144472856D01*
X154530809Y-144581370D01*
X154530814Y-144581371D01*
X154530815Y-144581372D01*
X154609544Y-144604991D01*
X154767064Y-144652250D01*
X155011722Y-144683592D01*
X155258215Y-144674553D01*
X155499921Y-144625377D01*
X155499925Y-144625375D01*
X155499927Y-144625375D01*
X155615164Y-144581370D01*
X155730350Y-144537385D01*
X155943313Y-144412939D01*
X156133092Y-144255382D01*
X156294589Y-144068945D01*
X156423468Y-143858634D01*
X156516266Y-143630099D01*
X156570493Y-143389475D01*
X156584692Y-143143226D01*
X156558481Y-142897965D01*
X156492564Y-142660278D01*
X156492562Y-142660275D01*
X156492560Y-142660268D01*
X156388714Y-142436552D01*
X156388712Y-142436547D01*
X156249720Y-142232792D01*
X156249710Y-142232779D01*
X156079301Y-142054456D01*
X155908662Y-141926338D01*
X155882054Y-141906360D01*
X155882052Y-141906359D01*
X155882051Y-141906358D01*
X155882048Y-141906356D01*
X155663267Y-141792466D01*
X155428819Y-141715837D01*
X155428820Y-141715837D01*
X155428813Y-141715835D01*
X155428811Y-141715834D01*
X155428809Y-141715834D01*
X155184994Y-141678525D01*
X155184993Y-141678525D01*
X155182120Y-141678560D01*
X154938351Y-141681538D01*
X154695528Y-141724791D01*
X154695508Y-141724796D01*
X154463017Y-141807126D01*
X154463008Y-141807130D01*
X154247067Y-141926336D01*
X154247064Y-141926338D01*
X154053494Y-142079211D01*
X153887493Y-142261643D01*
X153887492Y-142261644D01*
X153753512Y-142468746D01*
X153655162Y-142694936D01*
X153655159Y-142694944D01*
X153595070Y-142934168D01*
X153574859Y-143179992D01*
X153574858Y-143180004D01*
X150206875Y-143180004D01*
X153602819Y-139784060D01*
X153664142Y-139750576D01*
X153733834Y-139755560D01*
X153789767Y-139797432D01*
X153814184Y-139862896D01*
X153814500Y-139871742D01*
X153814500Y-139899596D01*
X153845661Y-140096340D01*
X153845661Y-140096343D01*
X153907213Y-140285780D01*
X153907215Y-140285783D01*
X153997647Y-140463266D01*
X154114731Y-140624418D01*
X154255582Y-140765269D01*
X154416734Y-140882353D01*
X154594217Y-140972785D01*
X154594219Y-140972786D01*
X154783657Y-141034338D01*
X154783658Y-141034338D01*
X154783661Y-141034339D01*
X154980403Y-141065500D01*
X154980404Y-141065500D01*
X155179596Y-141065500D01*
X155179597Y-141065500D01*
X155376339Y-141034339D01*
X155376342Y-141034338D01*
X155376343Y-141034338D01*
X155565780Y-140972786D01*
X155565780Y-140972785D01*
X155565783Y-140972785D01*
X155743266Y-140882353D01*
X155904418Y-140765269D01*
X156045269Y-140624418D01*
X156162353Y-140463266D01*
X156252785Y-140285783D01*
X156314339Y-140096339D01*
X156345500Y-139899597D01*
X156345500Y-139700403D01*
X156314339Y-139503661D01*
X156314338Y-139503657D01*
X156314338Y-139503656D01*
X156252786Y-139314219D01*
X156232493Y-139274392D01*
X156162353Y-139136734D01*
X156045269Y-138975582D01*
X155904418Y-138834731D01*
X155743266Y-138717647D01*
X155724333Y-138708000D01*
X155565780Y-138627213D01*
X155376342Y-138565661D01*
X155228782Y-138542290D01*
X155179597Y-138534500D01*
X154980403Y-138534500D01*
X154914822Y-138544887D01*
X154783659Y-138565661D01*
X154783656Y-138565661D01*
X154594217Y-138627214D01*
X154589718Y-138629078D01*
X154589255Y-138627962D01*
X154526117Y-138639815D01*
X154461378Y-138613534D01*
X154421125Y-138556425D01*
X154414500Y-138516435D01*
X154414500Y-136596753D01*
X156270000Y-136596753D01*
X156270000Y-136809246D01*
X156303242Y-137019127D01*
X156303242Y-137019130D01*
X156368904Y-137221217D01*
X156465375Y-137410550D01*
X156504728Y-137464716D01*
X157137037Y-136832408D01*
X157154075Y-136895993D01*
X157219901Y-137010007D01*
X157312993Y-137103099D01*
X157427007Y-137168925D01*
X157490590Y-137185962D01*
X156858282Y-137818269D01*
X156858282Y-137818270D01*
X156912449Y-137857624D01*
X157101782Y-137954095D01*
X157303870Y-138019757D01*
X157513754Y-138053000D01*
X157726246Y-138053000D01*
X157936127Y-138019757D01*
X157936130Y-138019757D01*
X158138217Y-137954095D01*
X158327554Y-137857622D01*
X158381716Y-137818270D01*
X158381717Y-137818270D01*
X157749408Y-137185962D01*
X157812993Y-137168925D01*
X157927007Y-137103099D01*
X158020099Y-137010007D01*
X158085925Y-136895993D01*
X158102962Y-136832408D01*
X158735270Y-137464717D01*
X158735270Y-137464716D01*
X158774622Y-137410554D01*
X158871095Y-137221217D01*
X158936757Y-137019130D01*
X158936757Y-137019127D01*
X158970000Y-136809246D01*
X158970000Y-136596753D01*
X158936757Y-136386872D01*
X158936757Y-136386869D01*
X158871095Y-136184782D01*
X158774624Y-135995449D01*
X158735270Y-135941282D01*
X158735269Y-135941282D01*
X158102962Y-136573590D01*
X158085925Y-136510007D01*
X158020099Y-136395993D01*
X157927007Y-136302901D01*
X157812993Y-136237075D01*
X157749409Y-136220037D01*
X158381716Y-135587728D01*
X158327550Y-135548375D01*
X158138216Y-135451904D01*
X157962026Y-135394656D01*
X157904350Y-135355218D01*
X157877152Y-135290860D01*
X157889067Y-135222013D01*
X157936311Y-135170538D01*
X157952882Y-135162168D01*
X158117598Y-135093941D01*
X158289655Y-134978977D01*
X158435977Y-134832655D01*
X158550941Y-134660598D01*
X158630130Y-134469420D01*
X158670500Y-134266465D01*
X158670500Y-134059535D01*
X158630130Y-133856580D01*
X158550941Y-133665402D01*
X158435977Y-133493345D01*
X158435975Y-133493342D01*
X158289657Y-133347024D01*
X158203626Y-133289541D01*
X158117598Y-133232059D01*
X158060620Y-133208458D01*
X157926420Y-133152870D01*
X157926412Y-133152868D01*
X157723469Y-133112500D01*
X157723465Y-133112500D01*
X157516535Y-133112500D01*
X157516530Y-133112500D01*
X157313587Y-133152868D01*
X157313579Y-133152870D01*
X157122403Y-133232058D01*
X156950342Y-133347024D01*
X156804024Y-133493342D01*
X156689058Y-133665403D01*
X156609870Y-133856579D01*
X156609868Y-133856587D01*
X156569500Y-134059530D01*
X156569500Y-134266469D01*
X156609868Y-134469412D01*
X156609870Y-134469420D01*
X156689058Y-134660596D01*
X156804024Y-134832657D01*
X156950342Y-134978975D01*
X157122405Y-135093943D01*
X157207814Y-135129320D01*
X157287108Y-135162164D01*
X157341511Y-135206005D01*
X157363576Y-135272299D01*
X157346297Y-135339998D01*
X157295160Y-135387609D01*
X157277974Y-135394656D01*
X157101781Y-135451905D01*
X156912439Y-135548380D01*
X156858282Y-135587727D01*
X156858282Y-135587728D01*
X157490591Y-136220037D01*
X157427007Y-136237075D01*
X157312993Y-136302901D01*
X157219901Y-136395993D01*
X157154075Y-136510007D01*
X157137037Y-136573591D01*
X156504728Y-135941282D01*
X156504727Y-135941282D01*
X156465380Y-135995439D01*
X156368904Y-136184782D01*
X156303242Y-136386869D01*
X156303242Y-136386872D01*
X156270000Y-136596753D01*
X154414500Y-136596753D01*
X154414500Y-136026158D01*
X154414500Y-136026156D01*
X154390614Y-135937012D01*
X154377893Y-135914979D01*
X154344470Y-135857088D01*
X152516419Y-134029037D01*
X152482934Y-133967714D01*
X152480100Y-133941356D01*
X152480100Y-133922010D01*
X152480100Y-133922008D01*
X152445992Y-133794714D01*
X152380100Y-133680586D01*
X152380095Y-133680581D01*
X152375153Y-133674140D01*
X152376669Y-133672976D01*
X152348210Y-133620858D01*
X152353194Y-133551166D01*
X152395066Y-133495233D01*
X152460530Y-133470816D01*
X152469376Y-133470500D01*
X155218256Y-133470500D01*
X155218257Y-133470500D01*
X155308621Y-133446286D01*
X155332835Y-133439799D01*
X155435562Y-133380489D01*
X156364615Y-132451435D01*
X156425936Y-132417952D01*
X156495627Y-132422936D01*
G37*
G04 #@! TD.AperFunction*
G04 #@! TA.AperFunction,Conductor*
G36*
X151953442Y-137414069D02*
G01*
X151930000Y-137531920D01*
X151930000Y-137652080D01*
X151953442Y-137769931D01*
X151983294Y-137842000D01*
X151075000Y-137842000D01*
X151075000Y-138554841D01*
X151082087Y-138620743D01*
X151069683Y-138689503D01*
X151022073Y-138740641D01*
X150958798Y-138758000D01*
X149041202Y-138758000D01*
X148974163Y-138738315D01*
X148928408Y-138685511D01*
X148917913Y-138620743D01*
X148924999Y-138554841D01*
X148925000Y-138554827D01*
X148925000Y-137993944D01*
X148944685Y-137926905D01*
X148997489Y-137881150D01*
X149066647Y-137871206D01*
X149110998Y-137886556D01*
X149209614Y-137943492D01*
X149336908Y-137977600D01*
X149336910Y-137977600D01*
X149468690Y-137977600D01*
X149468692Y-137977600D01*
X149595986Y-137943492D01*
X149710114Y-137877600D01*
X149773795Y-137813919D01*
X149835118Y-137780434D01*
X149861476Y-137777600D01*
X150498560Y-137777600D01*
X150498562Y-137777600D01*
X150574989Y-137757121D01*
X150643511Y-137717560D01*
X150699460Y-137661611D01*
X150982752Y-137378319D01*
X151044075Y-137344834D01*
X151070433Y-137342000D01*
X151983294Y-137342000D01*
X151953442Y-137414069D01*
G37*
G04 #@! TD.AperFunction*
G04 #@! TA.AperFunction,Conductor*
G36*
X148359606Y-133975185D02*
G01*
X148380248Y-133991819D01*
X150267248Y-135878819D01*
X150300733Y-135940142D01*
X150295749Y-136009834D01*
X150253877Y-136065767D01*
X150188413Y-136090184D01*
X150179567Y-136090500D01*
X149546237Y-136090500D01*
X149493549Y-136076381D01*
X149492996Y-136077719D01*
X149485488Y-136074609D01*
X149485486Y-136074608D01*
X149358192Y-136040500D01*
X149226408Y-136040500D01*
X149099112Y-136074608D01*
X148984986Y-136140500D01*
X148984983Y-136140502D01*
X148891802Y-136233683D01*
X148886852Y-136240135D01*
X148884917Y-136238650D01*
X148843271Y-136278346D01*
X148774661Y-136291556D01*
X148712160Y-136267387D01*
X148667089Y-136233647D01*
X148667086Y-136233645D01*
X148532379Y-136183403D01*
X148532372Y-136183401D01*
X148472844Y-136177000D01*
X147710000Y-136177000D01*
X147710000Y-137035293D01*
X147637931Y-137005442D01*
X147520080Y-136982000D01*
X147399920Y-136982000D01*
X147282069Y-137005442D01*
X147210000Y-137035293D01*
X147210000Y-136177000D01*
X146447155Y-136177000D01*
X146387627Y-136183401D01*
X146387620Y-136183403D01*
X146252913Y-136233645D01*
X146252906Y-136233649D01*
X146137812Y-136319809D01*
X146137809Y-136319812D01*
X146051649Y-136434906D01*
X146051645Y-136434913D01*
X146001403Y-136569620D01*
X146001401Y-136569627D01*
X145995000Y-136629155D01*
X145995000Y-137342000D01*
X146903294Y-137342000D01*
X146873442Y-137414069D01*
X146850000Y-137531920D01*
X146850000Y-137652080D01*
X146873442Y-137769931D01*
X146903294Y-137842000D01*
X145994999Y-137842000D01*
X145988731Y-137848268D01*
X145927408Y-137881753D01*
X145857716Y-137876767D01*
X145813370Y-137848267D01*
X144377224Y-136412121D01*
X144343739Y-136350798D01*
X144343288Y-136300246D01*
X144350500Y-136263992D01*
X144350500Y-136126004D01*
X144323581Y-135990677D01*
X144323580Y-135990676D01*
X144323580Y-135990672D01*
X144323578Y-135990667D01*
X144270778Y-135863195D01*
X144270771Y-135863182D01*
X144194114Y-135748458D01*
X144194111Y-135748454D01*
X144096545Y-135650888D01*
X144096537Y-135650882D01*
X143981813Y-135574226D01*
X143981812Y-135574225D01*
X143942902Y-135558108D01*
X143902675Y-135531228D01*
X143646447Y-135275000D01*
X143696078Y-135275000D01*
X143785095Y-135251148D01*
X143864905Y-135205070D01*
X143930070Y-135139905D01*
X143976148Y-135060095D01*
X144000000Y-134971078D01*
X144000000Y-134924999D01*
X144003553Y-134924999D01*
X144003553Y-134925001D01*
X144512572Y-135434020D01*
X144512573Y-135434019D01*
X144536187Y-135398680D01*
X144536190Y-135398676D01*
X144611569Y-135216693D01*
X144611572Y-135216681D01*
X144649999Y-135023495D01*
X144650000Y-135023492D01*
X144650000Y-134826508D01*
X144649999Y-134826504D01*
X144611572Y-134633318D01*
X144611569Y-134633306D01*
X144536192Y-134451328D01*
X144512572Y-134415979D01*
X144003553Y-134924999D01*
X144000000Y-134924999D01*
X144000000Y-134878922D01*
X143976148Y-134789905D01*
X143930070Y-134710095D01*
X143864905Y-134644930D01*
X143785095Y-134598852D01*
X143696078Y-134575000D01*
X143646446Y-134575000D01*
X143902675Y-134318770D01*
X143942899Y-134291892D01*
X143981811Y-134275775D01*
X144096542Y-134199114D01*
X144194114Y-134101542D01*
X144233753Y-134042217D01*
X144254874Y-134010609D01*
X144308486Y-133965804D01*
X144357976Y-133955500D01*
X148292567Y-133955500D01*
X148359606Y-133975185D01*
G37*
G04 #@! TD.AperFunction*
G04 #@! TA.AperFunction,Conductor*
G36*
X151556863Y-133490185D02*
G01*
X151602618Y-133542989D01*
X151612562Y-133612147D01*
X151583537Y-133675703D01*
X151579618Y-133679911D01*
X151579100Y-133680586D01*
X151513208Y-133794712D01*
X151496631Y-133856579D01*
X151479100Y-133922008D01*
X151479100Y-134053792D01*
X151491895Y-134101545D01*
X151513208Y-134181087D01*
X151523616Y-134199114D01*
X151579100Y-134295214D01*
X151672286Y-134388400D01*
X151786414Y-134454292D01*
X151913708Y-134488400D01*
X151933056Y-134488400D01*
X152000095Y-134508085D01*
X152020737Y-134524719D01*
X153461337Y-135965319D01*
X153494822Y-136026642D01*
X153489838Y-136096334D01*
X153447966Y-136152267D01*
X153382502Y-136176684D01*
X153373656Y-136177000D01*
X152790000Y-136177000D01*
X152790000Y-137035293D01*
X152717931Y-137005442D01*
X152600080Y-136982000D01*
X152479920Y-136982000D01*
X152362069Y-137005442D01*
X152290000Y-137035293D01*
X152290000Y-136177000D01*
X151527155Y-136177000D01*
X151480567Y-136182010D01*
X151411807Y-136169605D01*
X151367289Y-136128158D01*
X151366010Y-136129140D01*
X151361058Y-136122687D01*
X148920552Y-133682181D01*
X148887067Y-133620858D01*
X148892051Y-133551166D01*
X148933923Y-133495233D01*
X148999387Y-133470816D01*
X149008233Y-133470500D01*
X151489824Y-133470500D01*
X151556863Y-133490185D01*
G37*
G04 #@! TD.AperFunction*
G04 #@! TA.AperFunction,Conductor*
G36*
X151325706Y-127949685D02*
G01*
X151346348Y-127966319D01*
X153771956Y-130391927D01*
X153805441Y-130453250D01*
X153800457Y-130522942D01*
X153794760Y-130535902D01*
X153747214Y-130629217D01*
X153747214Y-130629218D01*
X153685661Y-130818656D01*
X153685661Y-130818659D01*
X153654500Y-131015403D01*
X153654500Y-131214596D01*
X153685661Y-131411340D01*
X153685661Y-131411343D01*
X153747213Y-131600780D01*
X153828516Y-131760346D01*
X153837647Y-131778266D01*
X153954731Y-131939418D01*
X154095582Y-132080269D01*
X154256734Y-132197353D01*
X154353291Y-132246551D01*
X154434219Y-132287786D01*
X154556658Y-132327569D01*
X154614333Y-132367006D01*
X154641532Y-132431365D01*
X154629617Y-132500211D01*
X154582373Y-132551687D01*
X154518340Y-132569500D01*
X150931560Y-132569500D01*
X150864521Y-132549815D01*
X150818766Y-132497011D01*
X150808822Y-132427853D01*
X150837847Y-132364297D01*
X150859201Y-132344802D01*
X150938547Y-132287785D01*
X150975512Y-132261223D01*
X151149621Y-132086505D01*
X151292856Y-131885697D01*
X151401370Y-131664191D01*
X151472250Y-131427936D01*
X151503592Y-131183278D01*
X151494553Y-130936785D01*
X151445377Y-130695079D01*
X151445375Y-130695075D01*
X151445375Y-130695072D01*
X151357385Y-130464650D01*
X151232945Y-130251696D01*
X151232941Y-130251690D01*
X151232939Y-130251687D01*
X151075382Y-130061908D01*
X150888946Y-129900412D01*
X150888947Y-129900412D01*
X150678636Y-129771533D01*
X150450092Y-129678731D01*
X150209477Y-129624507D01*
X149963224Y-129610307D01*
X149754689Y-129632594D01*
X149717965Y-129636519D01*
X149717962Y-129636519D01*
X149717960Y-129636520D01*
X149480276Y-129702436D01*
X149480268Y-129702439D01*
X149256552Y-129806285D01*
X149256547Y-129806287D01*
X149052792Y-129945279D01*
X149052779Y-129945289D01*
X148874456Y-130115698D01*
X148726358Y-130312948D01*
X148726356Y-130312951D01*
X148612466Y-130531732D01*
X148535837Y-130766180D01*
X148535834Y-130766190D01*
X148498525Y-131010004D01*
X148498525Y-131010005D01*
X148501538Y-131256648D01*
X148544791Y-131499471D01*
X148544796Y-131499491D01*
X148627126Y-131731982D01*
X148627130Y-131731991D01*
X148720784Y-131901644D01*
X148746336Y-131947932D01*
X148850849Y-132080269D01*
X148899211Y-132141505D01*
X149081643Y-132307506D01*
X149081649Y-132307511D01*
X149134014Y-132341387D01*
X149179610Y-132394328D01*
X149189345Y-132463516D01*
X149160129Y-132526984D01*
X149101238Y-132564582D01*
X149066661Y-132569500D01*
X147021660Y-132569500D01*
X146954621Y-132549815D01*
X146908866Y-132497011D01*
X146898922Y-132427853D01*
X146927947Y-132364297D01*
X146983342Y-132327569D01*
X147105780Y-132287786D01*
X147105780Y-132287785D01*
X147105783Y-132287785D01*
X147283266Y-132197353D01*
X147444418Y-132080269D01*
X147585269Y-131939418D01*
X147702353Y-131778266D01*
X147792785Y-131600783D01*
X147825703Y-131499471D01*
X147854338Y-131411343D01*
X147854338Y-131411342D01*
X147854339Y-131411339D01*
X147885500Y-131214597D01*
X147885500Y-131015403D01*
X147854339Y-130818661D01*
X147854338Y-130818657D01*
X147854338Y-130818656D01*
X147792786Y-130629219D01*
X147792393Y-130628447D01*
X147702353Y-130451734D01*
X147585269Y-130290582D01*
X147444418Y-130149731D01*
X147283266Y-130032647D01*
X147279366Y-130030660D01*
X147105780Y-129942213D01*
X146916342Y-129880661D01*
X146768782Y-129857290D01*
X146719597Y-129849500D01*
X146520403Y-129849500D01*
X146454822Y-129859887D01*
X146323659Y-129880661D01*
X146323656Y-129880661D01*
X146134219Y-129942213D01*
X145956733Y-130032647D01*
X145876655Y-130090828D01*
X145795582Y-130149731D01*
X145795580Y-130149733D01*
X145795579Y-130149733D01*
X145654733Y-130290579D01*
X145654733Y-130290580D01*
X145654731Y-130290582D01*
X145638483Y-130312946D01*
X145537647Y-130451733D01*
X145447213Y-130629219D01*
X145385661Y-130818656D01*
X145385661Y-130818659D01*
X145354500Y-131015403D01*
X145354500Y-131214596D01*
X145385661Y-131411340D01*
X145385661Y-131411343D01*
X145448720Y-131605417D01*
X145446526Y-131606129D01*
X145446679Y-131607582D01*
X145451937Y-131617128D01*
X145450268Y-131641717D01*
X145452846Y-131666231D01*
X145447944Y-131675965D01*
X145447207Y-131686837D01*
X145432508Y-131706622D01*
X145421424Y-131728636D01*
X145410945Y-131735647D01*
X145405540Y-131742923D01*
X145385333Y-131752784D01*
X145374624Y-131759950D01*
X145368880Y-131762115D01*
X145258814Y-131791608D01*
X145198788Y-131826263D01*
X145189306Y-131829840D01*
X145164158Y-131831730D01*
X145139649Y-131837676D01*
X145129910Y-131834305D01*
X145119633Y-131835078D01*
X145097455Y-131823072D01*
X145073622Y-131814824D01*
X145058347Y-131801902D01*
X145058189Y-131801817D01*
X145058139Y-131801726D01*
X145057869Y-131801498D01*
X143531119Y-130274748D01*
X143497634Y-130213425D01*
X143494800Y-130187067D01*
X143494800Y-130164000D01*
X143514485Y-130096961D01*
X143567289Y-130051206D01*
X143618800Y-130040000D01*
X144162000Y-130040000D01*
X144162000Y-129131706D01*
X144234069Y-129161558D01*
X144351920Y-129185000D01*
X144472080Y-129185000D01*
X144589931Y-129161558D01*
X144662000Y-129131706D01*
X144662000Y-130040000D01*
X145374828Y-130040000D01*
X145374844Y-130039999D01*
X145434372Y-130033598D01*
X145434379Y-130033596D01*
X145569086Y-129983354D01*
X145569093Y-129983350D01*
X145684187Y-129897190D01*
X145684190Y-129897187D01*
X145770350Y-129782093D01*
X145770354Y-129782086D01*
X145820596Y-129647379D01*
X145820598Y-129647372D01*
X145826999Y-129587844D01*
X145827000Y-129587820D01*
X145827000Y-128825000D01*
X144968706Y-128825000D01*
X144998558Y-128752931D01*
X145022000Y-128635080D01*
X145022000Y-128514920D01*
X144998558Y-128397069D01*
X144968706Y-128325000D01*
X145827000Y-128325000D01*
X145827000Y-128155633D01*
X145846685Y-128088594D01*
X145899489Y-128042839D01*
X145968647Y-128032895D01*
X146032203Y-128061920D01*
X146038681Y-128067952D01*
X146384740Y-128414011D01*
X146440689Y-128469960D01*
X146440691Y-128469961D01*
X146440695Y-128469964D01*
X146509204Y-128509517D01*
X146509211Y-128509521D01*
X146585638Y-128530000D01*
X149406224Y-128530000D01*
X149473263Y-128549685D01*
X149493905Y-128566319D01*
X149557586Y-128630000D01*
X149671714Y-128695892D01*
X149799008Y-128730000D01*
X149799010Y-128730000D01*
X149930790Y-128730000D01*
X149930792Y-128730000D01*
X150058086Y-128695892D01*
X150172214Y-128630000D01*
X150265400Y-128536814D01*
X150331292Y-128422686D01*
X150365400Y-128295392D01*
X150365400Y-128163608D01*
X150344630Y-128086092D01*
X150346293Y-128016243D01*
X150385456Y-127958381D01*
X150449684Y-127930877D01*
X150464405Y-127930000D01*
X151258667Y-127930000D01*
X151325706Y-127949685D01*
G37*
G04 #@! TD.AperFunction*
G04 #@! TA.AperFunction,Conductor*
G36*
X159277151Y-100122600D02*
G01*
X159317680Y-100179514D01*
X159324500Y-100220071D01*
X159324500Y-129978034D01*
X159304815Y-130045073D01*
X159252011Y-130090828D01*
X159182853Y-130100772D01*
X159119297Y-130071747D01*
X159112819Y-130065715D01*
X154980916Y-125933813D01*
X154980914Y-125933811D01*
X154920561Y-125898966D01*
X154878188Y-125874501D01*
X154866080Y-125871257D01*
X154853973Y-125868013D01*
X154853970Y-125868012D01*
X154815778Y-125857778D01*
X154763609Y-125843800D01*
X154763608Y-125843800D01*
X153721946Y-125843800D01*
X153654907Y-125824115D01*
X153609152Y-125771311D01*
X153599208Y-125702153D01*
X153600330Y-125695601D01*
X153600500Y-125694746D01*
X153600500Y-124863543D01*
X156619499Y-124863543D01*
X156657947Y-125056829D01*
X156657950Y-125056839D01*
X156733364Y-125238907D01*
X156733371Y-125238920D01*
X156842860Y-125402781D01*
X156842863Y-125402785D01*
X156982214Y-125542136D01*
X156982218Y-125542139D01*
X157146079Y-125651628D01*
X157146092Y-125651635D01*
X157252237Y-125695601D01*
X157328165Y-125727051D01*
X157328169Y-125727051D01*
X157328170Y-125727052D01*
X157521456Y-125765500D01*
X157521459Y-125765500D01*
X157718543Y-125765500D01*
X157848582Y-125739632D01*
X157911835Y-125727051D01*
X158093914Y-125651632D01*
X158257782Y-125542139D01*
X158397139Y-125402782D01*
X158506632Y-125238914D01*
X158582051Y-125056835D01*
X158620500Y-124863541D01*
X158620500Y-124666459D01*
X158620500Y-124666456D01*
X158582052Y-124473170D01*
X158582051Y-124473169D01*
X158582051Y-124473165D01*
X158532092Y-124352552D01*
X158506635Y-124291092D01*
X158506628Y-124291079D01*
X158397139Y-124127218D01*
X158397136Y-124127214D01*
X158257785Y-123987863D01*
X158257781Y-123987860D01*
X158093920Y-123878371D01*
X158093907Y-123878364D01*
X157911839Y-123802950D01*
X157911829Y-123802947D01*
X157718543Y-123764500D01*
X157718541Y-123764500D01*
X157521459Y-123764500D01*
X157521457Y-123764500D01*
X157328170Y-123802947D01*
X157328160Y-123802950D01*
X157146092Y-123878364D01*
X157146079Y-123878371D01*
X156982218Y-123987860D01*
X156982214Y-123987863D01*
X156842863Y-124127214D01*
X156842860Y-124127218D01*
X156733371Y-124291079D01*
X156733364Y-124291092D01*
X156657950Y-124473160D01*
X156657947Y-124473170D01*
X156619500Y-124666456D01*
X156619500Y-124666459D01*
X156619500Y-124863541D01*
X156619500Y-124863543D01*
X156619499Y-124863543D01*
X153600500Y-124863543D01*
X153600500Y-123855249D01*
X153600499Y-123855247D01*
X153588868Y-123796770D01*
X153588867Y-123796769D01*
X153544552Y-123730447D01*
X153478230Y-123686132D01*
X153478229Y-123686131D01*
X153419752Y-123674500D01*
X153419748Y-123674500D01*
X151580252Y-123674500D01*
X151580247Y-123674500D01*
X151521770Y-123686131D01*
X151521769Y-123686132D01*
X151455447Y-123730447D01*
X151411132Y-123796769D01*
X151411131Y-123796770D01*
X151399500Y-123855247D01*
X151399500Y-125238035D01*
X151379815Y-125305074D01*
X151327011Y-125350829D01*
X151257853Y-125360773D01*
X151194297Y-125331748D01*
X151187819Y-125325716D01*
X151083333Y-125221230D01*
X151049848Y-125159907D01*
X151053083Y-125095231D01*
X151073402Y-125032701D01*
X151100500Y-124861611D01*
X151100500Y-124688389D01*
X151073402Y-124517299D01*
X151019873Y-124352555D01*
X150941232Y-124198212D01*
X150839414Y-124058072D01*
X150716928Y-123935586D01*
X150576788Y-123833768D01*
X150422445Y-123755127D01*
X150257701Y-123701598D01*
X150257699Y-123701597D01*
X150257698Y-123701597D01*
X150093802Y-123675639D01*
X150086611Y-123674500D01*
X149913389Y-123674500D01*
X149906198Y-123675639D01*
X149742302Y-123701597D01*
X149577552Y-123755128D01*
X149423211Y-123833768D01*
X149361821Y-123878371D01*
X149283072Y-123935586D01*
X149283070Y-123935588D01*
X149283069Y-123935588D01*
X149160588Y-124058069D01*
X149160588Y-124058070D01*
X149160586Y-124058072D01*
X149156987Y-124063026D01*
X149058770Y-124198207D01*
X149058766Y-124198214D01*
X149040000Y-124235046D01*
X149028918Y-124256795D01*
X148980947Y-124307590D01*
X148918435Y-124324500D01*
X148581565Y-124324500D01*
X148514526Y-124304815D01*
X148471081Y-124256795D01*
X148441232Y-124198212D01*
X148441231Y-124198211D01*
X148441229Y-124198207D01*
X148411672Y-124157526D01*
X148339414Y-124058072D01*
X148216928Y-123935586D01*
X148076788Y-123833768D01*
X147922445Y-123755127D01*
X147757701Y-123701598D01*
X147757699Y-123701597D01*
X147757698Y-123701597D01*
X147593802Y-123675639D01*
X147586611Y-123674500D01*
X147413389Y-123674500D01*
X147406198Y-123675639D01*
X147242301Y-123701597D01*
X147242297Y-123701598D01*
X147198512Y-123715825D01*
X147128671Y-123717820D01*
X147068839Y-123681739D01*
X147038011Y-123619038D01*
X147045976Y-123549624D01*
X147072514Y-123510213D01*
X147392089Y-123190638D01*
X147453412Y-123157153D01*
X147523104Y-123162137D01*
X147579037Y-123204009D01*
X147587157Y-123216319D01*
X147627797Y-123286710D01*
X147627799Y-123286712D01*
X147627800Y-123286714D01*
X147720986Y-123379900D01*
X147819821Y-123436963D01*
X147829912Y-123442789D01*
X147835114Y-123445792D01*
X147962408Y-123479900D01*
X147962410Y-123479900D01*
X148094190Y-123479900D01*
X148094192Y-123479900D01*
X148221486Y-123445792D01*
X148335614Y-123379900D01*
X148399295Y-123316219D01*
X148460618Y-123282734D01*
X148486976Y-123279900D01*
X148650160Y-123279900D01*
X148650162Y-123279900D01*
X148726589Y-123259421D01*
X148795111Y-123219860D01*
X148851060Y-123163911D01*
X149691428Y-122323543D01*
X156619499Y-122323543D01*
X156657947Y-122516829D01*
X156657950Y-122516839D01*
X156733364Y-122698907D01*
X156733371Y-122698920D01*
X156842860Y-122862781D01*
X156842863Y-122862785D01*
X156982214Y-123002136D01*
X156982218Y-123002139D01*
X157146079Y-123111628D01*
X157146092Y-123111635D01*
X157293243Y-123172586D01*
X157328165Y-123187051D01*
X157328169Y-123187051D01*
X157328170Y-123187052D01*
X157521456Y-123225500D01*
X157521459Y-123225500D01*
X157718543Y-123225500D01*
X157848582Y-123199632D01*
X157911835Y-123187051D01*
X158093914Y-123111632D01*
X158257782Y-123002139D01*
X158397139Y-122862782D01*
X158506632Y-122698914D01*
X158582051Y-122516835D01*
X158620500Y-122323541D01*
X158620500Y-122126459D01*
X158620500Y-122126456D01*
X158582052Y-121933170D01*
X158582051Y-121933169D01*
X158582051Y-121933165D01*
X158558000Y-121875100D01*
X158506635Y-121751092D01*
X158506628Y-121751079D01*
X158397139Y-121587218D01*
X158397136Y-121587214D01*
X158257785Y-121447863D01*
X158257781Y-121447860D01*
X158093920Y-121338371D01*
X158093907Y-121338364D01*
X157911839Y-121262950D01*
X157911829Y-121262947D01*
X157718543Y-121224500D01*
X157718541Y-121224500D01*
X157521459Y-121224500D01*
X157521457Y-121224500D01*
X157328170Y-121262947D01*
X157328160Y-121262950D01*
X157146092Y-121338364D01*
X157146079Y-121338371D01*
X156982218Y-121447860D01*
X156982214Y-121447863D01*
X156842863Y-121587214D01*
X156842860Y-121587218D01*
X156733371Y-121751079D01*
X156733364Y-121751092D01*
X156657950Y-121933160D01*
X156657947Y-121933170D01*
X156619500Y-122126456D01*
X156619500Y-122126459D01*
X156619500Y-122323541D01*
X156619500Y-122323543D01*
X156619499Y-122323543D01*
X149691428Y-122323543D01*
X150748460Y-121266511D01*
X150788021Y-121197989D01*
X150808500Y-121121562D01*
X150808500Y-119783543D01*
X156619499Y-119783543D01*
X156657947Y-119976829D01*
X156657950Y-119976839D01*
X156733364Y-120158907D01*
X156733371Y-120158920D01*
X156842860Y-120322781D01*
X156842863Y-120322785D01*
X156982214Y-120462136D01*
X156982218Y-120462139D01*
X157146079Y-120571628D01*
X157146092Y-120571635D01*
X157328160Y-120647049D01*
X157328165Y-120647051D01*
X157328169Y-120647051D01*
X157328170Y-120647052D01*
X157521456Y-120685500D01*
X157521459Y-120685500D01*
X157718543Y-120685500D01*
X157848582Y-120659632D01*
X157911835Y-120647051D01*
X158093914Y-120571632D01*
X158257782Y-120462139D01*
X158397139Y-120322782D01*
X158506632Y-120158914D01*
X158582051Y-119976835D01*
X158620500Y-119783541D01*
X158620500Y-119586459D01*
X158620500Y-119586456D01*
X158582052Y-119393170D01*
X158582051Y-119393169D01*
X158582051Y-119393165D01*
X158558000Y-119335100D01*
X158506635Y-119211092D01*
X158506628Y-119211079D01*
X158397139Y-119047218D01*
X158397136Y-119047214D01*
X158257785Y-118907863D01*
X158257781Y-118907860D01*
X158093920Y-118798371D01*
X158093907Y-118798364D01*
X157911839Y-118722950D01*
X157911829Y-118722947D01*
X157718543Y-118684500D01*
X157718541Y-118684500D01*
X157521459Y-118684500D01*
X157521457Y-118684500D01*
X157328170Y-118722947D01*
X157328160Y-118722950D01*
X157146092Y-118798364D01*
X157146079Y-118798371D01*
X156982218Y-118907860D01*
X156982214Y-118907863D01*
X156842863Y-119047214D01*
X156842860Y-119047218D01*
X156733371Y-119211079D01*
X156733364Y-119211092D01*
X156657950Y-119393160D01*
X156657947Y-119393170D01*
X156619500Y-119586456D01*
X156619500Y-119586459D01*
X156619500Y-119783541D01*
X156619500Y-119783543D01*
X156619499Y-119783543D01*
X150808500Y-119783543D01*
X150808500Y-116619186D01*
X153239500Y-116619186D01*
X153239500Y-117930814D01*
X153255468Y-118031632D01*
X153277925Y-118173419D01*
X153277925Y-118173422D01*
X153302557Y-118249229D01*
X153353828Y-118407024D01*
X153465341Y-118625880D01*
X153609718Y-118824597D01*
X153783403Y-118998282D01*
X153982120Y-119142659D01*
X154200976Y-119254172D01*
X154434582Y-119330075D01*
X154677186Y-119368500D01*
X154677187Y-119368500D01*
X154922813Y-119368500D01*
X154922814Y-119368500D01*
X155165418Y-119330075D01*
X155165421Y-119330074D01*
X155165422Y-119330074D01*
X155207853Y-119316286D01*
X155399024Y-119254172D01*
X155617880Y-119142659D01*
X155816597Y-118998282D01*
X155990282Y-118824597D01*
X156134659Y-118625880D01*
X156246172Y-118407024D01*
X156322075Y-118173418D01*
X156360500Y-117930814D01*
X156360500Y-117243543D01*
X156619499Y-117243543D01*
X156657947Y-117436829D01*
X156657950Y-117436839D01*
X156733364Y-117618907D01*
X156733371Y-117618920D01*
X156842860Y-117782781D01*
X156842863Y-117782785D01*
X156982214Y-117922136D01*
X156982218Y-117922139D01*
X157146079Y-118031628D01*
X157146092Y-118031635D01*
X157249405Y-118074428D01*
X157328165Y-118107051D01*
X157328169Y-118107051D01*
X157328170Y-118107052D01*
X157521456Y-118145500D01*
X157521459Y-118145500D01*
X157718543Y-118145500D01*
X157870013Y-118115370D01*
X157911835Y-118107051D01*
X158093914Y-118031632D01*
X158257782Y-117922139D01*
X158397139Y-117782782D01*
X158506632Y-117618914D01*
X158582051Y-117436835D01*
X158620500Y-117243541D01*
X158620500Y-117046459D01*
X158620500Y-117046456D01*
X158582052Y-116853170D01*
X158582051Y-116853169D01*
X158582051Y-116853165D01*
X158509120Y-116677092D01*
X158506635Y-116671092D01*
X158506628Y-116671079D01*
X158397139Y-116507218D01*
X158397136Y-116507214D01*
X158257785Y-116367863D01*
X158257781Y-116367860D01*
X158093920Y-116258371D01*
X158093907Y-116258364D01*
X157911839Y-116182950D01*
X157911829Y-116182947D01*
X157718543Y-116144500D01*
X157718541Y-116144500D01*
X157521459Y-116144500D01*
X157521457Y-116144500D01*
X157328170Y-116182947D01*
X157328160Y-116182950D01*
X157146092Y-116258364D01*
X157146079Y-116258371D01*
X156982218Y-116367860D01*
X156982214Y-116367863D01*
X156842863Y-116507214D01*
X156842860Y-116507218D01*
X156733371Y-116671079D01*
X156733364Y-116671092D01*
X156657950Y-116853160D01*
X156657947Y-116853170D01*
X156619500Y-117046456D01*
X156619500Y-117046459D01*
X156619500Y-117243541D01*
X156619500Y-117243543D01*
X156619499Y-117243543D01*
X156360500Y-117243543D01*
X156360500Y-116619186D01*
X156322075Y-116376582D01*
X156322074Y-116376578D01*
X156322074Y-116376577D01*
X156283664Y-116258364D01*
X156246172Y-116142976D01*
X156134659Y-115924120D01*
X155990282Y-115725403D01*
X155816597Y-115551718D01*
X155617880Y-115407341D01*
X155399024Y-115295828D01*
X155284282Y-115258546D01*
X155165420Y-115219925D01*
X155003682Y-115194308D01*
X154922814Y-115181500D01*
X154677186Y-115181500D01*
X154596318Y-115194308D01*
X154434580Y-115219925D01*
X154434577Y-115219925D01*
X154200973Y-115295829D01*
X153982119Y-115407341D01*
X153868744Y-115489713D01*
X153783403Y-115551718D01*
X153783401Y-115551720D01*
X153783400Y-115551720D01*
X153609720Y-115725400D01*
X153609720Y-115725401D01*
X153609718Y-115725403D01*
X153609714Y-115725409D01*
X153465341Y-115924119D01*
X153353829Y-116142973D01*
X153277925Y-116376577D01*
X153277925Y-116376580D01*
X153267401Y-116443026D01*
X153239500Y-116619186D01*
X150808500Y-116619186D01*
X150808500Y-114703543D01*
X156619499Y-114703543D01*
X156657947Y-114896829D01*
X156657950Y-114896839D01*
X156733364Y-115078907D01*
X156733371Y-115078920D01*
X156842860Y-115242781D01*
X156842863Y-115242785D01*
X156982214Y-115382136D01*
X156982218Y-115382139D01*
X157146079Y-115491628D01*
X157146092Y-115491635D01*
X157291152Y-115551720D01*
X157328165Y-115567051D01*
X157328169Y-115567051D01*
X157328170Y-115567052D01*
X157521456Y-115605500D01*
X157521459Y-115605500D01*
X157718543Y-115605500D01*
X157848582Y-115579632D01*
X157911835Y-115567051D01*
X158093914Y-115491632D01*
X158257782Y-115382139D01*
X158397139Y-115242782D01*
X158506632Y-115078914D01*
X158582051Y-114896835D01*
X158620500Y-114703541D01*
X158620500Y-114506459D01*
X158620500Y-114506456D01*
X158582052Y-114313170D01*
X158582051Y-114313169D01*
X158582051Y-114313165D01*
X158552546Y-114241933D01*
X158506635Y-114131092D01*
X158506628Y-114131079D01*
X158397139Y-113967218D01*
X158397136Y-113967214D01*
X158257785Y-113827863D01*
X158257781Y-113827860D01*
X158093920Y-113718371D01*
X158093907Y-113718364D01*
X157911839Y-113642950D01*
X157911829Y-113642947D01*
X157718543Y-113604500D01*
X157718541Y-113604500D01*
X157521459Y-113604500D01*
X157521457Y-113604500D01*
X157328170Y-113642947D01*
X157328160Y-113642950D01*
X157146092Y-113718364D01*
X157146079Y-113718371D01*
X156982218Y-113827860D01*
X156982214Y-113827863D01*
X156842863Y-113967214D01*
X156842860Y-113967218D01*
X156733371Y-114131079D01*
X156733364Y-114131092D01*
X156657950Y-114313160D01*
X156657947Y-114313170D01*
X156619500Y-114506456D01*
X156619500Y-114506459D01*
X156619500Y-114703541D01*
X156619500Y-114703543D01*
X156619499Y-114703543D01*
X150808500Y-114703543D01*
X150808500Y-114241933D01*
X150828185Y-114174894D01*
X150844819Y-114154252D01*
X152999963Y-111999108D01*
X155169100Y-111999108D01*
X155169100Y-112130891D01*
X155203208Y-112258187D01*
X155206709Y-112264250D01*
X155269100Y-112372314D01*
X155362286Y-112465500D01*
X155461121Y-112522563D01*
X155471025Y-112528281D01*
X155476414Y-112531392D01*
X155603708Y-112565500D01*
X155603710Y-112565500D01*
X155735490Y-112565500D01*
X155735492Y-112565500D01*
X155862786Y-112531392D01*
X155862794Y-112531387D01*
X155870296Y-112528281D01*
X155870849Y-112529618D01*
X155923537Y-112515500D01*
X156651444Y-112515500D01*
X156718483Y-112535185D01*
X156754546Y-112570610D01*
X156842857Y-112702777D01*
X156842863Y-112702785D01*
X156982214Y-112842136D01*
X156982218Y-112842139D01*
X157146079Y-112951628D01*
X157146092Y-112951635D01*
X157328160Y-113027049D01*
X157328165Y-113027051D01*
X157328169Y-113027051D01*
X157328170Y-113027052D01*
X157521456Y-113065500D01*
X157521459Y-113065500D01*
X157718543Y-113065500D01*
X157848582Y-113039632D01*
X157911835Y-113027051D01*
X158093914Y-112951632D01*
X158257782Y-112842139D01*
X158397139Y-112702782D01*
X158506632Y-112538914D01*
X158510483Y-112529618D01*
X158564673Y-112398790D01*
X158582051Y-112356835D01*
X158620500Y-112163541D01*
X158620500Y-111966459D01*
X158620500Y-111966456D01*
X158582052Y-111773170D01*
X158582051Y-111773169D01*
X158582051Y-111773165D01*
X158582049Y-111773160D01*
X158506635Y-111591092D01*
X158506628Y-111591079D01*
X158397139Y-111427218D01*
X158397136Y-111427214D01*
X158257785Y-111287863D01*
X158257781Y-111287860D01*
X158093920Y-111178371D01*
X158093907Y-111178364D01*
X157911839Y-111102950D01*
X157911829Y-111102947D01*
X157718543Y-111064500D01*
X157718541Y-111064500D01*
X157521459Y-111064500D01*
X157521457Y-111064500D01*
X157328170Y-111102947D01*
X157328160Y-111102950D01*
X157146092Y-111178364D01*
X157146079Y-111178371D01*
X156982218Y-111287860D01*
X156982214Y-111287863D01*
X156842863Y-111427214D01*
X156842857Y-111427222D01*
X156754546Y-111559390D01*
X156700934Y-111604196D01*
X156651444Y-111614500D01*
X155923537Y-111614500D01*
X155870849Y-111600381D01*
X155870296Y-111601719D01*
X155862788Y-111598609D01*
X155862786Y-111598608D01*
X155735492Y-111564500D01*
X155603708Y-111564500D01*
X155476412Y-111598608D01*
X155362286Y-111664500D01*
X155362283Y-111664502D01*
X155269102Y-111757683D01*
X155269100Y-111757686D01*
X155203208Y-111871812D01*
X155169100Y-111999108D01*
X152999963Y-111999108D01*
X153095771Y-111903300D01*
X153439681Y-111559390D01*
X153947360Y-111051711D01*
X153986922Y-110983188D01*
X154007400Y-110906762D01*
X154007400Y-110827638D01*
X154007400Y-109623543D01*
X156619499Y-109623543D01*
X156657947Y-109816829D01*
X156657950Y-109816839D01*
X156733364Y-109998907D01*
X156733371Y-109998920D01*
X156842860Y-110162781D01*
X156842863Y-110162785D01*
X156982214Y-110302136D01*
X156982218Y-110302139D01*
X157146079Y-110411628D01*
X157146092Y-110411635D01*
X157250680Y-110454956D01*
X157328165Y-110487051D01*
X157328169Y-110487051D01*
X157328170Y-110487052D01*
X157521456Y-110525500D01*
X157521459Y-110525500D01*
X157718543Y-110525500D01*
X157848582Y-110499632D01*
X157911835Y-110487051D01*
X158093914Y-110411632D01*
X158257782Y-110302139D01*
X158397139Y-110162782D01*
X158506632Y-109998914D01*
X158582051Y-109816835D01*
X158620500Y-109623541D01*
X158620500Y-109426459D01*
X158620500Y-109426456D01*
X158582052Y-109233170D01*
X158582051Y-109233169D01*
X158582051Y-109233165D01*
X158539128Y-109129538D01*
X158506635Y-109051092D01*
X158506628Y-109051079D01*
X158397139Y-108887218D01*
X158397136Y-108887214D01*
X158257785Y-108747863D01*
X158257781Y-108747860D01*
X158093920Y-108638371D01*
X158093907Y-108638364D01*
X157911839Y-108562950D01*
X157911829Y-108562947D01*
X157718543Y-108524500D01*
X157718541Y-108524500D01*
X157521459Y-108524500D01*
X157521457Y-108524500D01*
X157328170Y-108562947D01*
X157328160Y-108562950D01*
X157146092Y-108638364D01*
X157146079Y-108638371D01*
X156982218Y-108747860D01*
X156982214Y-108747863D01*
X156842863Y-108887214D01*
X156842860Y-108887218D01*
X156733371Y-109051079D01*
X156733364Y-109051092D01*
X156657950Y-109233160D01*
X156657947Y-109233170D01*
X156619500Y-109426456D01*
X156619500Y-109426459D01*
X156619500Y-109623541D01*
X156619500Y-109623543D01*
X156619499Y-109623543D01*
X154007400Y-109623543D01*
X154007400Y-109039738D01*
X153986921Y-108963311D01*
X153986754Y-108963022D01*
X153947364Y-108894795D01*
X153947358Y-108894787D01*
X152136114Y-107083543D01*
X156619499Y-107083543D01*
X156657947Y-107276829D01*
X156657950Y-107276839D01*
X156733364Y-107458907D01*
X156733371Y-107458920D01*
X156842860Y-107622781D01*
X156842863Y-107622785D01*
X156982214Y-107762136D01*
X156982218Y-107762139D01*
X157146079Y-107871628D01*
X157146092Y-107871635D01*
X157328160Y-107947049D01*
X157328165Y-107947051D01*
X157328169Y-107947051D01*
X157328170Y-107947052D01*
X157521456Y-107985500D01*
X157521459Y-107985500D01*
X157718543Y-107985500D01*
X157848582Y-107959632D01*
X157911835Y-107947051D01*
X158093914Y-107871632D01*
X158257782Y-107762139D01*
X158397139Y-107622782D01*
X158506632Y-107458914D01*
X158582051Y-107276835D01*
X158602795Y-107172551D01*
X158620500Y-107083543D01*
X158620500Y-106886456D01*
X158582052Y-106693170D01*
X158582051Y-106693169D01*
X158582051Y-106693165D01*
X158554957Y-106627753D01*
X158506635Y-106511092D01*
X158506628Y-106511079D01*
X158397139Y-106347218D01*
X158397136Y-106347214D01*
X158257785Y-106207863D01*
X158257781Y-106207860D01*
X158093920Y-106098371D01*
X158093907Y-106098364D01*
X157911839Y-106022950D01*
X157911829Y-106022947D01*
X157718543Y-105984500D01*
X157718541Y-105984500D01*
X157521459Y-105984500D01*
X157521457Y-105984500D01*
X157328170Y-106022947D01*
X157328160Y-106022950D01*
X157146092Y-106098364D01*
X157146079Y-106098371D01*
X156982218Y-106207860D01*
X156982214Y-106207863D01*
X156842863Y-106347214D01*
X156842860Y-106347218D01*
X156733371Y-106511079D01*
X156733364Y-106511092D01*
X156657950Y-106693160D01*
X156657947Y-106693170D01*
X156619500Y-106886456D01*
X156619500Y-106886459D01*
X156619500Y-107083541D01*
X156619500Y-107083543D01*
X156619499Y-107083543D01*
X152136114Y-107083543D01*
X152082012Y-107029441D01*
X152082007Y-107029437D01*
X152072567Y-107023987D01*
X152072564Y-107023986D01*
X152013490Y-106989879D01*
X151988013Y-106983052D01*
X151937062Y-106969400D01*
X151937060Y-106969400D01*
X150773276Y-106969400D01*
X150706237Y-106949715D01*
X150685595Y-106933081D01*
X150621916Y-106869402D01*
X150621914Y-106869400D01*
X150564850Y-106836454D01*
X150507787Y-106803508D01*
X150444139Y-106786454D01*
X150380492Y-106769400D01*
X150304933Y-106769400D01*
X150237894Y-106749715D01*
X150192139Y-106696911D01*
X150182195Y-106627753D01*
X150211220Y-106564197D01*
X150217252Y-106557719D01*
X151443342Y-105331628D01*
X151997030Y-104777939D01*
X152058351Y-104744456D01*
X152128042Y-104749440D01*
X152132162Y-104751061D01*
X152240873Y-104796091D01*
X152417279Y-104831180D01*
X152438992Y-104835499D01*
X152438996Y-104835500D01*
X152438997Y-104835500D01*
X152641004Y-104835500D01*
X152641005Y-104835499D01*
X152839127Y-104796091D01*
X153025756Y-104718786D01*
X153193718Y-104606558D01*
X153256733Y-104543543D01*
X156619499Y-104543543D01*
X156657947Y-104736829D01*
X156657950Y-104736839D01*
X156733364Y-104918907D01*
X156733371Y-104918920D01*
X156842860Y-105082781D01*
X156842863Y-105082785D01*
X156982214Y-105222136D01*
X156982218Y-105222139D01*
X157146079Y-105331628D01*
X157146092Y-105331635D01*
X157328160Y-105407049D01*
X157328165Y-105407051D01*
X157328169Y-105407051D01*
X157328170Y-105407052D01*
X157521456Y-105445500D01*
X157521459Y-105445500D01*
X157718543Y-105445500D01*
X157848582Y-105419632D01*
X157911835Y-105407051D01*
X158093914Y-105331632D01*
X158257782Y-105222139D01*
X158397139Y-105082782D01*
X158506632Y-104918914D01*
X158582051Y-104736835D01*
X158620500Y-104543541D01*
X158620500Y-104346459D01*
X158620500Y-104346456D01*
X158582052Y-104153170D01*
X158582051Y-104153169D01*
X158582051Y-104153165D01*
X158563807Y-104109119D01*
X158506635Y-103971092D01*
X158506628Y-103971079D01*
X158397139Y-103807218D01*
X158397136Y-103807214D01*
X158257785Y-103667863D01*
X158257781Y-103667860D01*
X158093920Y-103558371D01*
X158093907Y-103558364D01*
X157911839Y-103482950D01*
X157911829Y-103482947D01*
X157718543Y-103444500D01*
X157718541Y-103444500D01*
X157521459Y-103444500D01*
X157521457Y-103444500D01*
X157328170Y-103482947D01*
X157328160Y-103482950D01*
X157146092Y-103558364D01*
X157146079Y-103558371D01*
X156982218Y-103667860D01*
X156982214Y-103667863D01*
X156842863Y-103807214D01*
X156842860Y-103807218D01*
X156733371Y-103971079D01*
X156733364Y-103971092D01*
X156657950Y-104153160D01*
X156657947Y-104153170D01*
X156619500Y-104346456D01*
X156619500Y-104346459D01*
X156619500Y-104543541D01*
X156619500Y-104543543D01*
X156619499Y-104543543D01*
X153256733Y-104543543D01*
X153336558Y-104463718D01*
X153448786Y-104295756D01*
X153526091Y-104109127D01*
X153565500Y-103911003D01*
X153565500Y-103708997D01*
X153526091Y-103510873D01*
X153501772Y-103452162D01*
X153494303Y-103382692D01*
X153525578Y-103320213D01*
X153528623Y-103317057D01*
X155823863Y-101021819D01*
X155885186Y-100988334D01*
X155911544Y-100985500D01*
X156825216Y-100985500D01*
X156892255Y-101005185D01*
X156938010Y-101057989D01*
X156947954Y-101127147D01*
X156918929Y-101190703D01*
X156912897Y-101197181D01*
X156842863Y-101267214D01*
X156842860Y-101267218D01*
X156733371Y-101431079D01*
X156733364Y-101431092D01*
X156657950Y-101613160D01*
X156657947Y-101613170D01*
X156619500Y-101806456D01*
X156619500Y-101806459D01*
X156619500Y-102003541D01*
X156619500Y-102003543D01*
X156619499Y-102003543D01*
X156657947Y-102196829D01*
X156657950Y-102196839D01*
X156733364Y-102378907D01*
X156733371Y-102378920D01*
X156842860Y-102542781D01*
X156842863Y-102542785D01*
X156982214Y-102682136D01*
X156982218Y-102682139D01*
X157146079Y-102791628D01*
X157146092Y-102791635D01*
X157282719Y-102848227D01*
X157328165Y-102867051D01*
X157328169Y-102867051D01*
X157328170Y-102867052D01*
X157521456Y-102905500D01*
X157521459Y-102905500D01*
X157718543Y-102905500D01*
X157848582Y-102879632D01*
X157911835Y-102867051D01*
X158093914Y-102791632D01*
X158257782Y-102682139D01*
X158397139Y-102542782D01*
X158506632Y-102378914D01*
X158582051Y-102196835D01*
X158612698Y-102042766D01*
X158620500Y-102003543D01*
X158620500Y-101806456D01*
X158582052Y-101613170D01*
X158582051Y-101613169D01*
X158582051Y-101613165D01*
X158582049Y-101613160D01*
X158506635Y-101431092D01*
X158506628Y-101431079D01*
X158397139Y-101267218D01*
X158397136Y-101267214D01*
X158268670Y-101138748D01*
X158235185Y-101077425D01*
X158240169Y-101007733D01*
X158282041Y-100951800D01*
X158294351Y-100943680D01*
X158312057Y-100933456D01*
X158343212Y-100915470D01*
X159082870Y-100175812D01*
X159083356Y-100174969D01*
X159093113Y-100158072D01*
X159143679Y-100109856D01*
X159212286Y-100096632D01*
X159277151Y-100122600D01*
G37*
G04 #@! TD.AperFunction*
G04 #@! TA.AperFunction,Conductor*
G36*
X143825442Y-128397069D02*
G01*
X143802000Y-128514920D01*
X143802000Y-128635080D01*
X143825442Y-128752931D01*
X143855294Y-128825000D01*
X143618800Y-128825000D01*
X143551761Y-128805315D01*
X143506006Y-128752511D01*
X143494800Y-128701000D01*
X143494800Y-128449000D01*
X143514485Y-128381961D01*
X143567289Y-128336206D01*
X143618800Y-128325000D01*
X143855294Y-128325000D01*
X143825442Y-128397069D01*
G37*
G04 #@! TD.AperFunction*
G04 #@! TA.AperFunction,Conductor*
G36*
X146442869Y-108644147D02*
G01*
X146498802Y-108686019D01*
X146523219Y-108751483D01*
X146508367Y-108819756D01*
X146506267Y-108823449D01*
X146480447Y-108867108D01*
X146480446Y-108867110D01*
X146480445Y-108867112D01*
X146480445Y-108867113D01*
X146472403Y-108894795D01*
X146437234Y-109015847D01*
X146437234Y-109015849D01*
X146434500Y-109050589D01*
X146434500Y-109999393D01*
X146434501Y-109999415D01*
X146437234Y-110034152D01*
X146437234Y-110034155D01*
X146437235Y-110034156D01*
X146480445Y-110182887D01*
X146510818Y-110234245D01*
X146559282Y-110316194D01*
X146559289Y-110316203D01*
X146596080Y-110352993D01*
X146629566Y-110414315D01*
X146632400Y-110440675D01*
X146632400Y-115677017D01*
X146612715Y-115744056D01*
X146559911Y-115789811D01*
X146490753Y-115799755D01*
X146427197Y-115770730D01*
X146408083Y-115749903D01*
X146390286Y-115725409D01*
X146390282Y-115725403D01*
X146216597Y-115551718D01*
X146017880Y-115407341D01*
X145799024Y-115295828D01*
X145684282Y-115258546D01*
X145565420Y-115219925D01*
X145403682Y-115194308D01*
X145322814Y-115181500D01*
X145077186Y-115181500D01*
X144996318Y-115194308D01*
X144834580Y-115219925D01*
X144834577Y-115219925D01*
X144600973Y-115295829D01*
X144382119Y-115407341D01*
X144268744Y-115489713D01*
X144183403Y-115551718D01*
X144183401Y-115551720D01*
X144183400Y-115551720D01*
X144009720Y-115725400D01*
X144009720Y-115725401D01*
X144009718Y-115725403D01*
X144009714Y-115725409D01*
X143865341Y-115924119D01*
X143753829Y-116142973D01*
X143677925Y-116376577D01*
X143677925Y-116376580D01*
X143667401Y-116443026D01*
X143639500Y-116619186D01*
X143639500Y-117930814D01*
X143655468Y-118031632D01*
X143677925Y-118173419D01*
X143677925Y-118173422D01*
X143702557Y-118249229D01*
X143753828Y-118407024D01*
X143865341Y-118625880D01*
X144009718Y-118824597D01*
X144183403Y-118998282D01*
X144382120Y-119142659D01*
X144600976Y-119254172D01*
X144834582Y-119330075D01*
X145077186Y-119368500D01*
X145077187Y-119368500D01*
X145322813Y-119368500D01*
X145322814Y-119368500D01*
X145565418Y-119330075D01*
X145565421Y-119330074D01*
X145565422Y-119330074D01*
X145607853Y-119316286D01*
X145799024Y-119254172D01*
X146017880Y-119142659D01*
X146216597Y-118998282D01*
X146390282Y-118824597D01*
X146408084Y-118800094D01*
X146463411Y-118757431D01*
X146533024Y-118751452D01*
X146594820Y-118784057D01*
X146629177Y-118844896D01*
X146632400Y-118872982D01*
X146632400Y-121401567D01*
X146612715Y-121468606D01*
X146596081Y-121489248D01*
X144554641Y-123530687D01*
X144554635Y-123530695D01*
X144515082Y-123599204D01*
X144515079Y-123599209D01*
X144501426Y-123650162D01*
X144494600Y-123675638D01*
X144494600Y-126438962D01*
X144501016Y-126462906D01*
X144515079Y-126515391D01*
X144515081Y-126515394D01*
X144542977Y-126563710D01*
X144542977Y-126563713D01*
X144542979Y-126563713D01*
X144554639Y-126583909D01*
X144554641Y-126583912D01*
X144869048Y-126898319D01*
X144902533Y-126959642D01*
X144897549Y-127029334D01*
X144855677Y-127085267D01*
X144790213Y-127109684D01*
X144781367Y-127110000D01*
X144662000Y-127110000D01*
X144662000Y-128018293D01*
X144589931Y-127988442D01*
X144472080Y-127965000D01*
X144351920Y-127965000D01*
X144234069Y-127988442D01*
X144162000Y-128018293D01*
X144162000Y-127110000D01*
X144129875Y-127077875D01*
X144096390Y-127016552D01*
X144101374Y-126946860D01*
X144119186Y-126914699D01*
X144123849Y-126908621D01*
X144123860Y-126908611D01*
X144163422Y-126840088D01*
X144183900Y-126763662D01*
X144183900Y-126684538D01*
X144183900Y-119572838D01*
X144163422Y-119496412D01*
X144123860Y-119427889D01*
X142885036Y-118189065D01*
X142851551Y-118127742D01*
X142856535Y-118058050D01*
X142898407Y-118002117D01*
X142903826Y-117998282D01*
X143017782Y-117922139D01*
X143157136Y-117782785D01*
X143157139Y-117782782D01*
X143266632Y-117618914D01*
X143342051Y-117436835D01*
X143380500Y-117243541D01*
X143380500Y-117046459D01*
X143380500Y-117046456D01*
X143342052Y-116853170D01*
X143342051Y-116853169D01*
X143342051Y-116853165D01*
X143269120Y-116677092D01*
X143266635Y-116671092D01*
X143266628Y-116671079D01*
X143157139Y-116507218D01*
X143157136Y-116507214D01*
X143017785Y-116367863D01*
X143017781Y-116367860D01*
X142853920Y-116258371D01*
X142853907Y-116258364D01*
X142671839Y-116182950D01*
X142671829Y-116182947D01*
X142478543Y-116144500D01*
X142478541Y-116144500D01*
X142281459Y-116144500D01*
X142281457Y-116144500D01*
X142088170Y-116182947D01*
X142088160Y-116182950D01*
X141906092Y-116258364D01*
X141906079Y-116258371D01*
X141742218Y-116367860D01*
X141742214Y-116367863D01*
X141653681Y-116456397D01*
X141592358Y-116489882D01*
X141522666Y-116484898D01*
X141466733Y-116443026D01*
X141442316Y-116377562D01*
X141442000Y-116368716D01*
X141442000Y-115381284D01*
X141461685Y-115314245D01*
X141514489Y-115268490D01*
X141583647Y-115258546D01*
X141647203Y-115287571D01*
X141653681Y-115293603D01*
X141742214Y-115382136D01*
X141742218Y-115382139D01*
X141906079Y-115491628D01*
X141906092Y-115491635D01*
X142051152Y-115551720D01*
X142088165Y-115567051D01*
X142088169Y-115567051D01*
X142088170Y-115567052D01*
X142281456Y-115605500D01*
X142281459Y-115605500D01*
X142478543Y-115605500D01*
X142608582Y-115579632D01*
X142671835Y-115567051D01*
X142853914Y-115491632D01*
X143017782Y-115382139D01*
X143157139Y-115242782D01*
X143266632Y-115078914D01*
X143342051Y-114896835D01*
X143380500Y-114703541D01*
X143380500Y-114506459D01*
X143380500Y-114506456D01*
X143342052Y-114313170D01*
X143342051Y-114313169D01*
X143342051Y-114313165D01*
X143312546Y-114241933D01*
X143266635Y-114131092D01*
X143266628Y-114131079D01*
X143157139Y-113967218D01*
X143157136Y-113967214D01*
X143017785Y-113827863D01*
X143017781Y-113827860D01*
X142853920Y-113718371D01*
X142853907Y-113718364D01*
X142671839Y-113642950D01*
X142671829Y-113642947D01*
X142478543Y-113604500D01*
X142478541Y-113604500D01*
X142281459Y-113604500D01*
X142281457Y-113604500D01*
X142088170Y-113642947D01*
X142088160Y-113642950D01*
X141906092Y-113718364D01*
X141906079Y-113718371D01*
X141742218Y-113827860D01*
X141742214Y-113827863D01*
X141653681Y-113916397D01*
X141592358Y-113949882D01*
X141522666Y-113944898D01*
X141466733Y-113903026D01*
X141442316Y-113837562D01*
X141442000Y-113828716D01*
X141442000Y-112841284D01*
X141461685Y-112774245D01*
X141514489Y-112728490D01*
X141583647Y-112718546D01*
X141647203Y-112747571D01*
X141653681Y-112753603D01*
X141742214Y-112842136D01*
X141742218Y-112842139D01*
X141906079Y-112951628D01*
X141906092Y-112951635D01*
X142088160Y-113027049D01*
X142088165Y-113027051D01*
X142088169Y-113027051D01*
X142088170Y-113027052D01*
X142281456Y-113065500D01*
X142281459Y-113065500D01*
X142478543Y-113065500D01*
X142608582Y-113039632D01*
X142671835Y-113027051D01*
X142853914Y-112951632D01*
X143017782Y-112842139D01*
X143157139Y-112702782D01*
X143266632Y-112538914D01*
X143270483Y-112529618D01*
X143324673Y-112398790D01*
X143342051Y-112356835D01*
X143380500Y-112163541D01*
X143380500Y-111966459D01*
X143380500Y-111966456D01*
X143342052Y-111773170D01*
X143342051Y-111773169D01*
X143342051Y-111773165D01*
X143342049Y-111773160D01*
X143266635Y-111591092D01*
X143266628Y-111591079D01*
X143157139Y-111427218D01*
X143157136Y-111427214D01*
X143017785Y-111287863D01*
X143017781Y-111287860D01*
X142853920Y-111178371D01*
X142853907Y-111178364D01*
X142671839Y-111102950D01*
X142671829Y-111102947D01*
X142478543Y-111064500D01*
X142478541Y-111064500D01*
X142281459Y-111064500D01*
X142281457Y-111064500D01*
X142088170Y-111102947D01*
X142088160Y-111102950D01*
X141906092Y-111178364D01*
X141906079Y-111178371D01*
X141742218Y-111287860D01*
X141742214Y-111287863D01*
X141653681Y-111376397D01*
X141592358Y-111409882D01*
X141522666Y-111404898D01*
X141466733Y-111363026D01*
X141442316Y-111297562D01*
X141442000Y-111288716D01*
X141442000Y-110301284D01*
X141461685Y-110234245D01*
X141514489Y-110188490D01*
X141583647Y-110178546D01*
X141647203Y-110207571D01*
X141653681Y-110213603D01*
X141742214Y-110302136D01*
X141742218Y-110302139D01*
X141906079Y-110411628D01*
X141906092Y-110411635D01*
X142010680Y-110454956D01*
X142088165Y-110487051D01*
X142088169Y-110487051D01*
X142088170Y-110487052D01*
X142281456Y-110525500D01*
X142281459Y-110525500D01*
X142478543Y-110525500D01*
X142608582Y-110499632D01*
X142671835Y-110487051D01*
X142853914Y-110411632D01*
X143017782Y-110302139D01*
X143157139Y-110162782D01*
X143216334Y-110074191D01*
X143245454Y-110030610D01*
X143299066Y-109985804D01*
X143348556Y-109975500D01*
X144881708Y-109975500D01*
X144881709Y-109975500D01*
X144972073Y-109951286D01*
X144996287Y-109944799D01*
X145099014Y-109885489D01*
X146311854Y-108672647D01*
X146373177Y-108639163D01*
X146442869Y-108644147D01*
G37*
G04 #@! TD.AperFunction*
G04 #@! TA.AperFunction,Conductor*
G36*
X149074734Y-115656450D02*
G01*
X149130667Y-115698322D01*
X149155084Y-115763786D01*
X149155400Y-115772632D01*
X149155400Y-117453566D01*
X149135715Y-117520605D01*
X149119081Y-117541247D01*
X148666128Y-117994199D01*
X148604805Y-118027684D01*
X148562260Y-118029457D01*
X148556893Y-118028750D01*
X148556892Y-118028750D01*
X148425108Y-118028750D01*
X148297812Y-118062858D01*
X148183686Y-118128750D01*
X148183683Y-118128752D01*
X148090502Y-118221933D01*
X148090500Y-118221936D01*
X148024608Y-118336062D01*
X147990500Y-118463358D01*
X147990500Y-118595141D01*
X148024608Y-118722437D01*
X148041360Y-118751452D01*
X148090500Y-118836564D01*
X148183686Y-118929750D01*
X148297814Y-118995642D01*
X148425108Y-119029750D01*
X148425110Y-119029750D01*
X148556890Y-119029750D01*
X148556892Y-119029750D01*
X148684186Y-118995642D01*
X148798314Y-118929750D01*
X148891500Y-118836564D01*
X148957392Y-118722436D01*
X148991500Y-118595142D01*
X148991500Y-118570133D01*
X149011185Y-118503094D01*
X149027819Y-118482452D01*
X149545419Y-117964852D01*
X149606742Y-117931367D01*
X149676434Y-117936351D01*
X149732367Y-117978223D01*
X149756784Y-118043687D01*
X149757100Y-118052533D01*
X149757100Y-120340567D01*
X149737415Y-120407606D01*
X149720781Y-120428248D01*
X148107448Y-122041581D01*
X148046125Y-122075066D01*
X148019767Y-122077900D01*
X147759100Y-122077900D01*
X147692061Y-122058215D01*
X147646306Y-122005411D01*
X147635100Y-121953900D01*
X147635100Y-120581380D01*
X147634400Y-120570694D01*
X147634400Y-117213277D01*
X147654085Y-117146238D01*
X147706889Y-117100483D01*
X147726302Y-117093503D01*
X147785686Y-117077592D01*
X147899814Y-117011700D01*
X147993000Y-116918514D01*
X148058892Y-116804386D01*
X148093000Y-116677092D01*
X148093000Y-116587032D01*
X148112685Y-116519993D01*
X148129319Y-116499351D01*
X148554289Y-116074381D01*
X148943721Y-115684949D01*
X149005042Y-115651466D01*
X149074734Y-115656450D01*
G37*
G04 #@! TD.AperFunction*
G04 #@! TA.AperFunction,Conductor*
G36*
X159218078Y-83669629D02*
G01*
X159249312Y-83673364D01*
X159252206Y-83675754D01*
X159255900Y-83676417D01*
X159278938Y-83697825D01*
X159303190Y-83717850D01*
X159304332Y-83721423D01*
X159307082Y-83723979D01*
X159314888Y-83754446D01*
X159324465Y-83784402D01*
X159324500Y-83787353D01*
X159324500Y-97512324D01*
X159304815Y-97579363D01*
X159252011Y-97625118D01*
X159182853Y-97635062D01*
X159119297Y-97606037D01*
X159112819Y-97600005D01*
X159109716Y-97596902D01*
X159109714Y-97596900D01*
X159052650Y-97563954D01*
X158995587Y-97531008D01*
X158903556Y-97506349D01*
X158868292Y-97496900D01*
X158736508Y-97496900D01*
X158736506Y-97496900D01*
X158613592Y-97529834D01*
X158543743Y-97528171D01*
X158485880Y-97489008D01*
X158458377Y-97424779D01*
X158469964Y-97355877D01*
X158478392Y-97341178D01*
X158506632Y-97298914D01*
X158582051Y-97116835D01*
X158620500Y-96923541D01*
X158620500Y-96726459D01*
X158620500Y-96726456D01*
X158582052Y-96533170D01*
X158582051Y-96533169D01*
X158582051Y-96533165D01*
X158537207Y-96424901D01*
X158506635Y-96351092D01*
X158506628Y-96351079D01*
X158397139Y-96187218D01*
X158397136Y-96187214D01*
X158257785Y-96047863D01*
X158257781Y-96047860D01*
X158093920Y-95938371D01*
X158093907Y-95938364D01*
X157911839Y-95862950D01*
X157911829Y-95862947D01*
X157718543Y-95824500D01*
X157718541Y-95824500D01*
X157521459Y-95824500D01*
X157521457Y-95824500D01*
X157328170Y-95862947D01*
X157328160Y-95862950D01*
X157146092Y-95938364D01*
X157146079Y-95938371D01*
X156982218Y-96047860D01*
X156982214Y-96047863D01*
X156842863Y-96187214D01*
X156842860Y-96187218D01*
X156733371Y-96351079D01*
X156733364Y-96351092D01*
X156657950Y-96533160D01*
X156657947Y-96533170D01*
X156619500Y-96726456D01*
X156619500Y-96726459D01*
X156619500Y-96923541D01*
X156619500Y-96923543D01*
X156619499Y-96923543D01*
X156657947Y-97116829D01*
X156657950Y-97116839D01*
X156733364Y-97298907D01*
X156733371Y-97298920D01*
X156842860Y-97462781D01*
X156842863Y-97462785D01*
X156982214Y-97602136D01*
X156982218Y-97602139D01*
X157146079Y-97711628D01*
X157146092Y-97711635D01*
X157328160Y-97787049D01*
X157328165Y-97787051D01*
X157328169Y-97787051D01*
X157328170Y-97787052D01*
X157521456Y-97825500D01*
X157521459Y-97825500D01*
X157718543Y-97825500D01*
X157866876Y-97795994D01*
X157911835Y-97787051D01*
X158082212Y-97716479D01*
X158093907Y-97711635D01*
X158093907Y-97711634D01*
X158093914Y-97711632D01*
X158145084Y-97677440D01*
X158211761Y-97656562D01*
X158279141Y-97675046D01*
X158325832Y-97727024D01*
X158337010Y-97795994D01*
X158333751Y-97812634D01*
X158301900Y-97931506D01*
X158301900Y-97931508D01*
X158301900Y-98063292D01*
X158317865Y-98122875D01*
X158336008Y-98190587D01*
X158343807Y-98204095D01*
X158401900Y-98304714D01*
X158401902Y-98304716D01*
X158415581Y-98318395D01*
X158430284Y-98345322D01*
X158446877Y-98371141D01*
X158447768Y-98377341D01*
X158449066Y-98379718D01*
X158451900Y-98406076D01*
X158451900Y-98485578D01*
X158432215Y-98552617D01*
X158379411Y-98598372D01*
X158310253Y-98608316D01*
X158259009Y-98588680D01*
X158093920Y-98478371D01*
X158093907Y-98478364D01*
X157911839Y-98402950D01*
X157911829Y-98402947D01*
X157718543Y-98364500D01*
X157718541Y-98364500D01*
X157521459Y-98364500D01*
X157521457Y-98364500D01*
X157328170Y-98402947D01*
X157328160Y-98402950D01*
X157146092Y-98478364D01*
X157146079Y-98478371D01*
X156982218Y-98587860D01*
X156982214Y-98587863D01*
X156842863Y-98727214D01*
X156842857Y-98727222D01*
X156754546Y-98859390D01*
X156700934Y-98904196D01*
X156651444Y-98914500D01*
X156304500Y-98914500D01*
X156237461Y-98894815D01*
X156191706Y-98842011D01*
X156180500Y-98790500D01*
X156180500Y-98643389D01*
X156171835Y-98588680D01*
X156153402Y-98472299D01*
X156099873Y-98307555D01*
X156021232Y-98153212D01*
X155919414Y-98013072D01*
X155796928Y-97890586D01*
X155656788Y-97788768D01*
X155502445Y-97710127D01*
X155337701Y-97656598D01*
X155337699Y-97656597D01*
X155337698Y-97656597D01*
X155201728Y-97635062D01*
X155166611Y-97629500D01*
X154993389Y-97629500D01*
X154958272Y-97635062D01*
X154822302Y-97656597D01*
X154657552Y-97710128D01*
X154503211Y-97788768D01*
X154470363Y-97812634D01*
X154363072Y-97890586D01*
X154363070Y-97890588D01*
X154363069Y-97890588D01*
X154240588Y-98013069D01*
X154240588Y-98013070D01*
X154240586Y-98013072D01*
X154228465Y-98029755D01*
X154138768Y-98153211D01*
X154060128Y-98307552D01*
X154006597Y-98472302D01*
X153993877Y-98552617D01*
X153979500Y-98643389D01*
X153979500Y-98816611D01*
X154006598Y-98987701D01*
X154060127Y-99152445D01*
X154138768Y-99306788D01*
X154240586Y-99446928D01*
X154363072Y-99569414D01*
X154503212Y-99671232D01*
X154657555Y-99749873D01*
X154822299Y-99803402D01*
X154993389Y-99830500D01*
X154993390Y-99830500D01*
X155166610Y-99830500D01*
X155166611Y-99830500D01*
X155337701Y-99803402D01*
X155435975Y-99771469D01*
X155505812Y-99769474D01*
X155536293Y-99782016D01*
X155541110Y-99784797D01*
X155541111Y-99784797D01*
X155541114Y-99784799D01*
X155655691Y-99815500D01*
X156651444Y-99815500D01*
X156718483Y-99835185D01*
X156754546Y-99870610D01*
X156842857Y-100002777D01*
X156842863Y-100002785D01*
X156912897Y-100072819D01*
X156946382Y-100134142D01*
X156941398Y-100203834D01*
X156899526Y-100259767D01*
X156834062Y-100284184D01*
X156825216Y-100284500D01*
X155668856Y-100284500D01*
X155579712Y-100308386D01*
X155579709Y-100308387D01*
X155499791Y-100354527D01*
X155499786Y-100354531D01*
X153032969Y-102821347D01*
X152971646Y-102854832D01*
X152901954Y-102849848D01*
X152897849Y-102848232D01*
X152839127Y-102823909D01*
X152839119Y-102823907D01*
X152641007Y-102784500D01*
X152641003Y-102784500D01*
X152438997Y-102784500D01*
X152438992Y-102784500D01*
X152240880Y-102823907D01*
X152240872Y-102823909D01*
X152054247Y-102901212D01*
X152054237Y-102901217D01*
X151886281Y-103013441D01*
X151743441Y-103156281D01*
X151631217Y-103324237D01*
X151631212Y-103324247D01*
X151553909Y-103510872D01*
X151553907Y-103510880D01*
X151514500Y-103708992D01*
X151514500Y-103911007D01*
X151553907Y-104109119D01*
X151553909Y-104109127D01*
X151598938Y-104217835D01*
X151606407Y-104287304D01*
X151575132Y-104349784D01*
X151572058Y-104352969D01*
X148602889Y-107322140D01*
X148546941Y-107378087D01*
X148546935Y-107378095D01*
X148507382Y-107446604D01*
X148507379Y-107446609D01*
X148486900Y-107523039D01*
X148486900Y-108560624D01*
X148467215Y-108627663D01*
X148414411Y-108673418D01*
X148345253Y-108683362D01*
X148281697Y-108654337D01*
X148275219Y-108648305D01*
X148251203Y-108624289D01*
X148251194Y-108624282D01*
X148147486Y-108562950D01*
X148117887Y-108545445D01*
X147969156Y-108502235D01*
X147969153Y-108502234D01*
X147969151Y-108502234D01*
X147938395Y-108499814D01*
X147934405Y-108499500D01*
X147934404Y-108499500D01*
X146985606Y-108499500D01*
X146985584Y-108499501D01*
X146950847Y-108502234D01*
X146950844Y-108502235D01*
X146824611Y-108538909D01*
X146802110Y-108545446D01*
X146758447Y-108571268D01*
X146690723Y-108588449D01*
X146624461Y-108566289D01*
X146580699Y-108511822D01*
X146573330Y-108442342D01*
X146604695Y-108379908D01*
X146607612Y-108376889D01*
X146922589Y-108061912D01*
X146969822Y-108034645D01*
X146969268Y-108033306D01*
X146976776Y-108030194D01*
X146976786Y-108030192D01*
X147090914Y-107964300D01*
X147184100Y-107871114D01*
X147249992Y-107756986D01*
X147284100Y-107629692D01*
X147284100Y-107497908D01*
X147249992Y-107370614D01*
X147184100Y-107256486D01*
X147090914Y-107163300D01*
X147033850Y-107130354D01*
X146976787Y-107097408D01*
X146899554Y-107076714D01*
X146849492Y-107063300D01*
X146717708Y-107063300D01*
X146590412Y-107097408D01*
X146476286Y-107163300D01*
X146476283Y-107163302D01*
X146383102Y-107256483D01*
X146383100Y-107256486D01*
X146317207Y-107370614D01*
X146314100Y-107378118D01*
X146312766Y-107377565D01*
X146285487Y-107424808D01*
X144672116Y-109038181D01*
X144610793Y-109071666D01*
X144584435Y-109074500D01*
X143348556Y-109074500D01*
X143281517Y-109054815D01*
X143245454Y-109019390D01*
X143157142Y-108887222D01*
X143157136Y-108887214D01*
X143025712Y-108755790D01*
X142992227Y-108694467D01*
X142997211Y-108624775D01*
X143039083Y-108568842D01*
X143081295Y-108548336D01*
X143130989Y-108535021D01*
X143199511Y-108495460D01*
X143255460Y-108439511D01*
X146830306Y-104864663D01*
X146891627Y-104831180D01*
X146944365Y-104832986D01*
X146944614Y-104831627D01*
X146950842Y-104832764D01*
X146950844Y-104832765D01*
X146985595Y-104835500D01*
X147934404Y-104835499D01*
X147969156Y-104832765D01*
X148117887Y-104789555D01*
X148251198Y-104710715D01*
X148360715Y-104601198D01*
X148439555Y-104467887D01*
X148482765Y-104319156D01*
X148485500Y-104284405D01*
X148485499Y-103335596D01*
X148482765Y-103300844D01*
X148482762Y-103300836D01*
X148481627Y-103294613D01*
X148483296Y-103294308D01*
X148483462Y-103232731D01*
X148514662Y-103180307D01*
X148921104Y-102773865D01*
X148939367Y-102763893D01*
X148954792Y-102749919D01*
X148969415Y-102747485D01*
X148982425Y-102740382D01*
X149003182Y-102741866D01*
X149023714Y-102738450D01*
X149042339Y-102744666D01*
X149052117Y-102745366D01*
X149057789Y-102747643D01*
X149064474Y-102750519D01*
X149171814Y-102812492D01*
X149269113Y-102838563D01*
X149277353Y-102842108D01*
X149297622Y-102858901D01*
X149320100Y-102872602D01*
X149324102Y-102880840D01*
X149331156Y-102886685D01*
X149339128Y-102911773D01*
X149350630Y-102935449D01*
X149349542Y-102944543D01*
X149352317Y-102953273D01*
X149345460Y-102978686D01*
X149342336Y-103004825D01*
X149335806Y-103014472D01*
X149334118Y-103020731D01*
X149327532Y-103026697D01*
X149316029Y-103043694D01*
X149203441Y-103156282D01*
X149091217Y-103324237D01*
X149091212Y-103324247D01*
X149013909Y-103510872D01*
X149013907Y-103510880D01*
X148974500Y-103708992D01*
X148974500Y-103911007D01*
X149013907Y-104109119D01*
X149013909Y-104109127D01*
X149091212Y-104295752D01*
X149091217Y-104295762D01*
X149203441Y-104463718D01*
X149346281Y-104606558D01*
X149514237Y-104718782D01*
X149514241Y-104718784D01*
X149514244Y-104718786D01*
X149700873Y-104796091D01*
X149877279Y-104831180D01*
X149898992Y-104835499D01*
X149898996Y-104835500D01*
X149898997Y-104835500D01*
X150101004Y-104835500D01*
X150101005Y-104835499D01*
X150299127Y-104796091D01*
X150485756Y-104718786D01*
X150653718Y-104606558D01*
X150796558Y-104463718D01*
X150908786Y-104295756D01*
X150986091Y-104109127D01*
X151025500Y-103911003D01*
X151025500Y-103708997D01*
X150986091Y-103510873D01*
X150908786Y-103324244D01*
X150908784Y-103324241D01*
X150908782Y-103324237D01*
X150796558Y-103156281D01*
X150653718Y-103013441D01*
X150485762Y-102901217D01*
X150485752Y-102901212D01*
X150299127Y-102823909D01*
X150299119Y-102823907D01*
X150101007Y-102784500D01*
X150101003Y-102784500D01*
X149904592Y-102784500D01*
X149837553Y-102764815D01*
X149791798Y-102712011D01*
X149781854Y-102642853D01*
X149797205Y-102598500D01*
X149829372Y-102542785D01*
X149831392Y-102539286D01*
X149865500Y-102411992D01*
X149865500Y-102280208D01*
X149831392Y-102152914D01*
X149765500Y-102038786D01*
X149672314Y-101945600D01*
X149615250Y-101912654D01*
X149558187Y-101879708D01*
X149494539Y-101862654D01*
X149430892Y-101845600D01*
X149299108Y-101845600D01*
X149171812Y-101879708D01*
X149057686Y-101945600D01*
X149057683Y-101945602D01*
X148994005Y-102009281D01*
X148932682Y-102042766D01*
X148906324Y-102045600D01*
X148884338Y-102045600D01*
X148833386Y-102059252D01*
X148807910Y-102066079D01*
X148748834Y-102100187D01*
X148748833Y-102100186D01*
X148739392Y-102105637D01*
X148739387Y-102105641D01*
X148089693Y-102755334D01*
X148028370Y-102788819D01*
X147975631Y-102787014D01*
X147975383Y-102788373D01*
X147969156Y-102787235D01*
X147969155Y-102787234D01*
X147969150Y-102787234D01*
X147938912Y-102784854D01*
X147934405Y-102784500D01*
X147934404Y-102784500D01*
X146985606Y-102784500D01*
X146985584Y-102784501D01*
X146950847Y-102787234D01*
X146935723Y-102791628D01*
X146802113Y-102830445D01*
X146802111Y-102830445D01*
X146802111Y-102830446D01*
X146668805Y-102909282D01*
X146668796Y-102909289D01*
X146559289Y-103018796D01*
X146559282Y-103018805D01*
X146480446Y-103152111D01*
X146480445Y-103152113D01*
X146447372Y-103265950D01*
X146437234Y-103300847D01*
X146437234Y-103300849D01*
X146434500Y-103335589D01*
X146434500Y-104284393D01*
X146434501Y-104284415D01*
X146437235Y-104319155D01*
X146438373Y-104325386D01*
X146436710Y-104325689D01*
X146436523Y-104387310D01*
X146405334Y-104439693D01*
X143574945Y-107270083D01*
X143513622Y-107303568D01*
X143443930Y-107298584D01*
X143387997Y-107256712D01*
X143363580Y-107191248D01*
X143365647Y-107158209D01*
X143380500Y-107083542D01*
X143380500Y-106886456D01*
X143342052Y-106693170D01*
X143342051Y-106693169D01*
X143342051Y-106693165D01*
X143314957Y-106627753D01*
X143266635Y-106511092D01*
X143266628Y-106511079D01*
X143157139Y-106347218D01*
X143157136Y-106347214D01*
X143017785Y-106207863D01*
X143017781Y-106207860D01*
X142853920Y-106098371D01*
X142853907Y-106098364D01*
X142671839Y-106022950D01*
X142671829Y-106022947D01*
X142478543Y-105984500D01*
X142478541Y-105984500D01*
X142281459Y-105984500D01*
X142281457Y-105984500D01*
X142088170Y-106022947D01*
X142088160Y-106022950D01*
X141906092Y-106098364D01*
X141906079Y-106098371D01*
X141742218Y-106207860D01*
X141742214Y-106207863D01*
X141602863Y-106347214D01*
X141602860Y-106347218D01*
X141493371Y-106511079D01*
X141493364Y-106511092D01*
X141417950Y-106693160D01*
X141417947Y-106693170D01*
X141379500Y-106886456D01*
X141379500Y-106886459D01*
X141379500Y-107083541D01*
X141379500Y-107083543D01*
X141379499Y-107083543D01*
X141417947Y-107276829D01*
X141417950Y-107276839D01*
X141493364Y-107458907D01*
X141493371Y-107458920D01*
X141602860Y-107622781D01*
X141602863Y-107622785D01*
X141742214Y-107762136D01*
X141742218Y-107762139D01*
X141845143Y-107830912D01*
X141889948Y-107884524D01*
X141898655Y-107953849D01*
X141868500Y-108016877D01*
X141863933Y-108021695D01*
X140957754Y-108927874D01*
X140957725Y-108927903D01*
X140956989Y-108928640D01*
X140901040Y-108984589D01*
X140898173Y-108989554D01*
X140888685Y-108999377D01*
X140864198Y-109013303D01*
X140841444Y-109029917D01*
X140834231Y-109030346D01*
X140827951Y-109033918D01*
X140799821Y-109032394D01*
X140771698Y-109034069D01*
X140765397Y-109030530D01*
X140758183Y-109030140D01*
X140735342Y-109013650D01*
X140710779Y-108999855D01*
X140707391Y-108993472D01*
X140701534Y-108989243D01*
X140691234Y-108963022D01*
X140678028Y-108938136D01*
X140676833Y-108926362D01*
X140675988Y-108924211D01*
X140676403Y-108922128D01*
X140675500Y-108913226D01*
X140675500Y-104543543D01*
X141379499Y-104543543D01*
X141417947Y-104736829D01*
X141417950Y-104736839D01*
X141493364Y-104918907D01*
X141493371Y-104918920D01*
X141602860Y-105082781D01*
X141602863Y-105082785D01*
X141742214Y-105222136D01*
X141742218Y-105222139D01*
X141906079Y-105331628D01*
X141906092Y-105331635D01*
X142088160Y-105407049D01*
X142088165Y-105407051D01*
X142088169Y-105407051D01*
X142088170Y-105407052D01*
X142281456Y-105445500D01*
X142281459Y-105445500D01*
X142478543Y-105445500D01*
X142608582Y-105419632D01*
X142671835Y-105407051D01*
X142853914Y-105331632D01*
X143017782Y-105222139D01*
X143157139Y-105082782D01*
X143266632Y-104918914D01*
X143342051Y-104736835D01*
X143380500Y-104543541D01*
X143380500Y-104346459D01*
X143380500Y-104346456D01*
X143342052Y-104153170D01*
X143342051Y-104153169D01*
X143342051Y-104153165D01*
X143323807Y-104109119D01*
X143266635Y-103971092D01*
X143266628Y-103971079D01*
X143157139Y-103807218D01*
X143157136Y-103807214D01*
X143017785Y-103667863D01*
X143017781Y-103667860D01*
X142853920Y-103558371D01*
X142853907Y-103558364D01*
X142671839Y-103482950D01*
X142671829Y-103482947D01*
X142478543Y-103444500D01*
X142478541Y-103444500D01*
X142281459Y-103444500D01*
X142281457Y-103444500D01*
X142088170Y-103482947D01*
X142088160Y-103482950D01*
X141906092Y-103558364D01*
X141906079Y-103558371D01*
X141742218Y-103667860D01*
X141742214Y-103667863D01*
X141602863Y-103807214D01*
X141602860Y-103807218D01*
X141493371Y-103971079D01*
X141493364Y-103971092D01*
X141417950Y-104153160D01*
X141417947Y-104153170D01*
X141379500Y-104346456D01*
X141379500Y-104346459D01*
X141379500Y-104543541D01*
X141379500Y-104543543D01*
X141379499Y-104543543D01*
X140675500Y-104543543D01*
X140675500Y-102003543D01*
X141379499Y-102003543D01*
X141417947Y-102196829D01*
X141417950Y-102196839D01*
X141493364Y-102378907D01*
X141493371Y-102378920D01*
X141602860Y-102542781D01*
X141602863Y-102542785D01*
X141742214Y-102682136D01*
X141742218Y-102682139D01*
X141906079Y-102791628D01*
X141906092Y-102791635D01*
X142042719Y-102848227D01*
X142088165Y-102867051D01*
X142088169Y-102867051D01*
X142088170Y-102867052D01*
X142281456Y-102905500D01*
X142281459Y-102905500D01*
X142478543Y-102905500D01*
X142608582Y-102879632D01*
X142671835Y-102867051D01*
X142853914Y-102791632D01*
X143017782Y-102682139D01*
X143157139Y-102542782D01*
X143266632Y-102378914D01*
X143342051Y-102196835D01*
X143372698Y-102042766D01*
X143380500Y-102003543D01*
X143380500Y-101806456D01*
X143342052Y-101613170D01*
X143342051Y-101613169D01*
X143342051Y-101613165D01*
X143342049Y-101613160D01*
X143266635Y-101431092D01*
X143266628Y-101431079D01*
X143157139Y-101267218D01*
X143157136Y-101267214D01*
X143017785Y-101127863D01*
X143017781Y-101127860D01*
X142853920Y-101018371D01*
X142853907Y-101018364D01*
X142671839Y-100942950D01*
X142671829Y-100942947D01*
X142478543Y-100904500D01*
X142478541Y-100904500D01*
X142281459Y-100904500D01*
X142281457Y-100904500D01*
X142088170Y-100942947D01*
X142088160Y-100942950D01*
X141906092Y-101018364D01*
X141906079Y-101018371D01*
X141742218Y-101127860D01*
X141742214Y-101127863D01*
X141602863Y-101267214D01*
X141602860Y-101267218D01*
X141493371Y-101431079D01*
X141493364Y-101431092D01*
X141417950Y-101613160D01*
X141417947Y-101613170D01*
X141379500Y-101806456D01*
X141379500Y-101806459D01*
X141379500Y-102003541D01*
X141379500Y-102003543D01*
X141379499Y-102003543D01*
X140675500Y-102003543D01*
X140675500Y-96575000D01*
X141103391Y-96575000D01*
X141946988Y-96575000D01*
X141914075Y-96632007D01*
X141880000Y-96759174D01*
X141880000Y-96890826D01*
X141914075Y-97017993D01*
X141946988Y-97075000D01*
X141103391Y-97075000D01*
X141112009Y-97129413D01*
X141175244Y-97324029D01*
X141268140Y-97506349D01*
X141388417Y-97671894D01*
X141388417Y-97671895D01*
X141533104Y-97816582D01*
X141698650Y-97936859D01*
X141880968Y-98029755D01*
X142075582Y-98092990D01*
X142264268Y-98122875D01*
X142327403Y-98152804D01*
X142364334Y-98212116D01*
X142363336Y-98281978D01*
X142324726Y-98340211D01*
X142269062Y-98366965D01*
X142088170Y-98402947D01*
X142088160Y-98402950D01*
X141906092Y-98478364D01*
X141906079Y-98478371D01*
X141742218Y-98587860D01*
X141742214Y-98587863D01*
X141602863Y-98727214D01*
X141602860Y-98727218D01*
X141493371Y-98891079D01*
X141493364Y-98891092D01*
X141417950Y-99073160D01*
X141417947Y-99073170D01*
X141379500Y-99266456D01*
X141379500Y-99266459D01*
X141379500Y-99463541D01*
X141379500Y-99463543D01*
X141379499Y-99463543D01*
X141417947Y-99656829D01*
X141417950Y-99656839D01*
X141493364Y-99838907D01*
X141493371Y-99838920D01*
X141602860Y-100002781D01*
X141602863Y-100002785D01*
X141742214Y-100142136D01*
X141742218Y-100142139D01*
X141906079Y-100251628D01*
X141906092Y-100251635D01*
X142088160Y-100327049D01*
X142088165Y-100327051D01*
X142088169Y-100327051D01*
X142088170Y-100327052D01*
X142281456Y-100365500D01*
X142281459Y-100365500D01*
X142478543Y-100365500D01*
X142608582Y-100339632D01*
X142671835Y-100327051D01*
X142853914Y-100251632D01*
X143017782Y-100142139D01*
X143157139Y-100002782D01*
X143266632Y-99838914D01*
X143342051Y-99656835D01*
X143380500Y-99463541D01*
X143380500Y-99266459D01*
X143380500Y-99266456D01*
X143342052Y-99073170D01*
X143342051Y-99073169D01*
X143342051Y-99073165D01*
X143306651Y-98987701D01*
X143266635Y-98891092D01*
X143266628Y-98891079D01*
X143157139Y-98727218D01*
X143157136Y-98727214D01*
X143017785Y-98587863D01*
X143017781Y-98587860D01*
X142853920Y-98478371D01*
X142853907Y-98478364D01*
X142671839Y-98402950D01*
X142671829Y-98402947D01*
X142490937Y-98366965D01*
X142429026Y-98334580D01*
X142394452Y-98273864D01*
X142398192Y-98204095D01*
X142439059Y-98147423D01*
X142495731Y-98122875D01*
X142684417Y-98092990D01*
X142879031Y-98029755D01*
X143061349Y-97936859D01*
X143226894Y-97816582D01*
X143226895Y-97816582D01*
X143233230Y-97810247D01*
X143819500Y-97810247D01*
X143819500Y-99649752D01*
X143831131Y-99708229D01*
X143831132Y-99708230D01*
X143875447Y-99774552D01*
X143941769Y-99818867D01*
X143941770Y-99818868D01*
X144000247Y-99830499D01*
X144000250Y-99830500D01*
X144000252Y-99830500D01*
X145839750Y-99830500D01*
X145839751Y-99830499D01*
X145854568Y-99827552D01*
X145898229Y-99818868D01*
X145898229Y-99818867D01*
X145898231Y-99818867D01*
X145964552Y-99774552D01*
X146008867Y-99708231D01*
X146008867Y-99708229D01*
X146008868Y-99708229D01*
X146017552Y-99664568D01*
X146020500Y-99649748D01*
X146020500Y-97810252D01*
X146020500Y-97810249D01*
X146020499Y-97810247D01*
X146008868Y-97751770D01*
X146008867Y-97751769D01*
X145964552Y-97685447D01*
X145898230Y-97641132D01*
X145898229Y-97641131D01*
X145839752Y-97629500D01*
X145839748Y-97629500D01*
X144000252Y-97629500D01*
X144000247Y-97629500D01*
X143941770Y-97641131D01*
X143941769Y-97641132D01*
X143875447Y-97685447D01*
X143831132Y-97751769D01*
X143831131Y-97751770D01*
X143819500Y-97810247D01*
X143233230Y-97810247D01*
X143326999Y-97716479D01*
X143371582Y-97671895D01*
X143371582Y-97671894D01*
X143491859Y-97506349D01*
X143584755Y-97324029D01*
X143647990Y-97129413D01*
X143656609Y-97075000D01*
X142813012Y-97075000D01*
X142845925Y-97017993D01*
X142880000Y-96890826D01*
X142880000Y-96759174D01*
X142845925Y-96632007D01*
X142813012Y-96575000D01*
X143656609Y-96575000D01*
X143647990Y-96520586D01*
X143584755Y-96325970D01*
X143491859Y-96143650D01*
X143371582Y-95978105D01*
X143371582Y-95978104D01*
X143226895Y-95833417D01*
X143061349Y-95713140D01*
X142879031Y-95620244D01*
X142684417Y-95557009D01*
X142495731Y-95527124D01*
X142432596Y-95497194D01*
X142395665Y-95437883D01*
X142396663Y-95368020D01*
X142435273Y-95309788D01*
X142490938Y-95283034D01*
X142671835Y-95247051D01*
X142853914Y-95171632D01*
X143017782Y-95062139D01*
X143157139Y-94922782D01*
X143266632Y-94758914D01*
X143342051Y-94576835D01*
X143380500Y-94383541D01*
X143380500Y-94186459D01*
X143380500Y-94186456D01*
X143342052Y-93993170D01*
X143342051Y-93993169D01*
X143342051Y-93993165D01*
X143342049Y-93993160D01*
X143266635Y-93811092D01*
X143266628Y-93811079D01*
X143157139Y-93647218D01*
X143157136Y-93647214D01*
X143017785Y-93507863D01*
X143017781Y-93507860D01*
X142853920Y-93398371D01*
X142853907Y-93398364D01*
X142671839Y-93322950D01*
X142671829Y-93322947D01*
X142478543Y-93284500D01*
X142478541Y-93284500D01*
X142281459Y-93284500D01*
X142281457Y-93284500D01*
X142088170Y-93322947D01*
X142088160Y-93322950D01*
X141906092Y-93398364D01*
X141906079Y-93398371D01*
X141742218Y-93507860D01*
X141742214Y-93507863D01*
X141602863Y-93647214D01*
X141602860Y-93647218D01*
X141493371Y-93811079D01*
X141493364Y-93811092D01*
X141417950Y-93993160D01*
X141417947Y-93993170D01*
X141379500Y-94186456D01*
X141379500Y-94186459D01*
X141379500Y-94383541D01*
X141379500Y-94383543D01*
X141379499Y-94383543D01*
X141417947Y-94576829D01*
X141417950Y-94576839D01*
X141493364Y-94758907D01*
X141493371Y-94758920D01*
X141602860Y-94922781D01*
X141602863Y-94922785D01*
X141742214Y-95062136D01*
X141742218Y-95062139D01*
X141906079Y-95171628D01*
X141906092Y-95171635D01*
X142088160Y-95247049D01*
X142088165Y-95247051D01*
X142220674Y-95273409D01*
X142269061Y-95283034D01*
X142330972Y-95315419D01*
X142365546Y-95376134D01*
X142361807Y-95445904D01*
X142320940Y-95502576D01*
X142264269Y-95527124D01*
X142075581Y-95557010D01*
X141880968Y-95620244D01*
X141698650Y-95713140D01*
X141533105Y-95833417D01*
X141533104Y-95833417D01*
X141388417Y-95978104D01*
X141388417Y-95978105D01*
X141268140Y-96143650D01*
X141175244Y-96325970D01*
X141112009Y-96520586D01*
X141103391Y-96575000D01*
X140675500Y-96575000D01*
X140675500Y-90976965D01*
X140695185Y-90909926D01*
X140747989Y-90864171D01*
X140817147Y-90854227D01*
X140880703Y-90883252D01*
X140887181Y-90889284D01*
X141376575Y-91378678D01*
X141410060Y-91440001D01*
X141410511Y-91490550D01*
X141379500Y-91646454D01*
X141379500Y-91646459D01*
X141379500Y-91843541D01*
X141379500Y-91843543D01*
X141379499Y-91843543D01*
X141417947Y-92036829D01*
X141417950Y-92036839D01*
X141493364Y-92218907D01*
X141493371Y-92218920D01*
X141602860Y-92382781D01*
X141602863Y-92382785D01*
X141742214Y-92522136D01*
X141742218Y-92522139D01*
X141906079Y-92631628D01*
X141906092Y-92631635D01*
X142064749Y-92697352D01*
X142088165Y-92707051D01*
X142088169Y-92707051D01*
X142088170Y-92707052D01*
X142281456Y-92745500D01*
X142281459Y-92745500D01*
X142478543Y-92745500D01*
X142634448Y-92714488D01*
X142704040Y-92720715D01*
X142746321Y-92748424D01*
X146973181Y-96975284D01*
X147006666Y-97036607D01*
X147009500Y-97062965D01*
X147009500Y-97648433D01*
X146989815Y-97715472D01*
X146941796Y-97758917D01*
X146883214Y-97788766D01*
X146850363Y-97812634D01*
X146743072Y-97890586D01*
X146743070Y-97890588D01*
X146743069Y-97890588D01*
X146620588Y-98013069D01*
X146620588Y-98013070D01*
X146620586Y-98013072D01*
X146608465Y-98029755D01*
X146518768Y-98153211D01*
X146440128Y-98307552D01*
X146386597Y-98472302D01*
X146373877Y-98552617D01*
X146359500Y-98643389D01*
X146359500Y-98816611D01*
X146386598Y-98987701D01*
X146440127Y-99152445D01*
X146518768Y-99306788D01*
X146620586Y-99446928D01*
X146743072Y-99569414D01*
X146883212Y-99671232D01*
X147037555Y-99749873D01*
X147202299Y-99803402D01*
X147373389Y-99830500D01*
X147373390Y-99830500D01*
X147546610Y-99830500D01*
X147546611Y-99830500D01*
X147717701Y-99803402D01*
X147882445Y-99749873D01*
X148036788Y-99671232D01*
X148176928Y-99569414D01*
X148299414Y-99446928D01*
X148401232Y-99306788D01*
X148479873Y-99152445D01*
X148533402Y-98987701D01*
X148560500Y-98816611D01*
X148560500Y-98643389D01*
X148533402Y-98472299D01*
X148479873Y-98307555D01*
X148401232Y-98153212D01*
X148299414Y-98013072D01*
X148176928Y-97890586D01*
X148066351Y-97810247D01*
X151439500Y-97810247D01*
X151439500Y-99649752D01*
X151451131Y-99708229D01*
X151451132Y-99708230D01*
X151495447Y-99774552D01*
X151561769Y-99818867D01*
X151561770Y-99818868D01*
X151620247Y-99830499D01*
X151620250Y-99830500D01*
X151620252Y-99830500D01*
X153459750Y-99830500D01*
X153459751Y-99830499D01*
X153474568Y-99827552D01*
X153518229Y-99818868D01*
X153518229Y-99818867D01*
X153518231Y-99818867D01*
X153584552Y-99774552D01*
X153628867Y-99708231D01*
X153628867Y-99708229D01*
X153628868Y-99708229D01*
X153637552Y-99664568D01*
X153640500Y-99649748D01*
X153640500Y-97810252D01*
X153640500Y-97810249D01*
X153640499Y-97810247D01*
X153628868Y-97751770D01*
X153628867Y-97751769D01*
X153584552Y-97685447D01*
X153518230Y-97641132D01*
X153518229Y-97641131D01*
X153459752Y-97629500D01*
X153459748Y-97629500D01*
X151620252Y-97629500D01*
X151620247Y-97629500D01*
X151561770Y-97641131D01*
X151561769Y-97641132D01*
X151495447Y-97685447D01*
X151451132Y-97751769D01*
X151451131Y-97751770D01*
X151439500Y-97810247D01*
X148066351Y-97810247D01*
X148036788Y-97788768D01*
X148036787Y-97788767D01*
X148036785Y-97788766D01*
X147978204Y-97758917D01*
X147927409Y-97710943D01*
X147910500Y-97648433D01*
X147910500Y-96765693D01*
X147910500Y-96765691D01*
X147879799Y-96651114D01*
X147879799Y-96651113D01*
X147820489Y-96548386D01*
X143383424Y-92111321D01*
X143379620Y-92104355D01*
X143373180Y-92099711D01*
X143363113Y-92074124D01*
X143349939Y-92049998D01*
X143349853Y-92040423D01*
X143347599Y-92034693D01*
X143349488Y-91999449D01*
X143362557Y-91933746D01*
X143362557Y-91933745D01*
X143380500Y-91843543D01*
X143380500Y-91646456D01*
X143342052Y-91453170D01*
X143342051Y-91453169D01*
X143342051Y-91453165D01*
X143297207Y-91344901D01*
X143266635Y-91271092D01*
X143266628Y-91271079D01*
X143157139Y-91107218D01*
X143157136Y-91107214D01*
X143017785Y-90967863D01*
X143017781Y-90967860D01*
X142853920Y-90858371D01*
X142853907Y-90858364D01*
X142671839Y-90782950D01*
X142671829Y-90782947D01*
X142478543Y-90744500D01*
X142478541Y-90744500D01*
X142281459Y-90744500D01*
X142281454Y-90744500D01*
X142125550Y-90775511D01*
X142055958Y-90769284D01*
X142013678Y-90741575D01*
X141689284Y-90417181D01*
X141655799Y-90355858D01*
X141660783Y-90286166D01*
X141702655Y-90230233D01*
X141768119Y-90205816D01*
X141776965Y-90205500D01*
X143199750Y-90205500D01*
X143199751Y-90205499D01*
X143214568Y-90202552D01*
X143258229Y-90193868D01*
X143258229Y-90193867D01*
X143258231Y-90193867D01*
X143324552Y-90149552D01*
X143368867Y-90083231D01*
X143368867Y-90083229D01*
X143368868Y-90083229D01*
X143380499Y-90024752D01*
X143380500Y-90024750D01*
X143380500Y-88932264D01*
X143400185Y-88865225D01*
X143416814Y-88844588D01*
X146139035Y-86122366D01*
X146200356Y-86088883D01*
X146270048Y-86093867D01*
X146325981Y-86135739D01*
X146346487Y-86177952D01*
X146358608Y-86223186D01*
X146424500Y-86337314D01*
X146517686Y-86430500D01*
X146612988Y-86485523D01*
X146626425Y-86493281D01*
X146631814Y-86496392D01*
X146759108Y-86530500D01*
X146759110Y-86530500D01*
X146890890Y-86530500D01*
X146890892Y-86530500D01*
X147018186Y-86496392D01*
X147018194Y-86496387D01*
X147025696Y-86493281D01*
X147026249Y-86494618D01*
X147032424Y-86492963D01*
X147044002Y-86485523D01*
X147078937Y-86480500D01*
X147222035Y-86480500D01*
X147289074Y-86500185D01*
X147309716Y-86516819D01*
X150358386Y-89565489D01*
X150461113Y-89624799D01*
X150485321Y-89631284D01*
X150485324Y-89631286D01*
X150485325Y-89631286D01*
X150515447Y-89639357D01*
X150575691Y-89655500D01*
X156651444Y-89655500D01*
X156718483Y-89675185D01*
X156754546Y-89710610D01*
X156842857Y-89842777D01*
X156842863Y-89842785D01*
X156982214Y-89982136D01*
X156982218Y-89982139D01*
X157146079Y-90091628D01*
X157146092Y-90091635D01*
X157285918Y-90149552D01*
X157328165Y-90167051D01*
X157460674Y-90193409D01*
X157509061Y-90203034D01*
X157570972Y-90235419D01*
X157605546Y-90296134D01*
X157601807Y-90365904D01*
X157560940Y-90422576D01*
X157504269Y-90447124D01*
X157315581Y-90477010D01*
X157120968Y-90540244D01*
X156938650Y-90633140D01*
X156773105Y-90753417D01*
X156773104Y-90753417D01*
X156628417Y-90898104D01*
X156628417Y-90898105D01*
X156508140Y-91063650D01*
X156415244Y-91245970D01*
X156352009Y-91440586D01*
X156343391Y-91495000D01*
X157186988Y-91495000D01*
X157154075Y-91552007D01*
X157120000Y-91679174D01*
X157120000Y-91810826D01*
X157154075Y-91937993D01*
X157186988Y-91995000D01*
X156343391Y-91995000D01*
X156352009Y-92049413D01*
X156415244Y-92244029D01*
X156508140Y-92426349D01*
X156628417Y-92591894D01*
X156628417Y-92591895D01*
X156773104Y-92736582D01*
X156938650Y-92856859D01*
X157120968Y-92949755D01*
X157315582Y-93012990D01*
X157504268Y-93042875D01*
X157567403Y-93072804D01*
X157604334Y-93132116D01*
X157603336Y-93201978D01*
X157564726Y-93260211D01*
X157509062Y-93286965D01*
X157328170Y-93322947D01*
X157328160Y-93322950D01*
X157146092Y-93398364D01*
X157146079Y-93398371D01*
X156982218Y-93507860D01*
X156982214Y-93507863D01*
X156842863Y-93647214D01*
X156842860Y-93647218D01*
X156733371Y-93811079D01*
X156733364Y-93811092D01*
X156657950Y-93993160D01*
X156657947Y-93993170D01*
X156619500Y-94186456D01*
X156619500Y-94186459D01*
X156619500Y-94383541D01*
X156619500Y-94383543D01*
X156619499Y-94383543D01*
X156657947Y-94576829D01*
X156657950Y-94576839D01*
X156733364Y-94758907D01*
X156733371Y-94758920D01*
X156842860Y-94922781D01*
X156842863Y-94922785D01*
X156982214Y-95062136D01*
X156982218Y-95062139D01*
X157146079Y-95171628D01*
X157146092Y-95171635D01*
X157328160Y-95247049D01*
X157328165Y-95247051D01*
X157328169Y-95247051D01*
X157328170Y-95247052D01*
X157521456Y-95285500D01*
X157521459Y-95285500D01*
X157718543Y-95285500D01*
X157848582Y-95259632D01*
X157911835Y-95247051D01*
X158093914Y-95171632D01*
X158257782Y-95062139D01*
X158397139Y-94922782D01*
X158506632Y-94758914D01*
X158582051Y-94576835D01*
X158620500Y-94383541D01*
X158620500Y-94186459D01*
X158620500Y-94186456D01*
X158582052Y-93993170D01*
X158582051Y-93993169D01*
X158582051Y-93993165D01*
X158582049Y-93993160D01*
X158506635Y-93811092D01*
X158506628Y-93811079D01*
X158397139Y-93647218D01*
X158397136Y-93647214D01*
X158257785Y-93507863D01*
X158257781Y-93507860D01*
X158093920Y-93398371D01*
X158093907Y-93398364D01*
X157911839Y-93322950D01*
X157911829Y-93322947D01*
X157730937Y-93286965D01*
X157669026Y-93254580D01*
X157634452Y-93193864D01*
X157638192Y-93124095D01*
X157679059Y-93067423D01*
X157735731Y-93042875D01*
X157924417Y-93012990D01*
X158119031Y-92949755D01*
X158301349Y-92856859D01*
X158466894Y-92736582D01*
X158466895Y-92736582D01*
X158611582Y-92591895D01*
X158611582Y-92591894D01*
X158731859Y-92426349D01*
X158824755Y-92244029D01*
X158887990Y-92049413D01*
X158896609Y-91995000D01*
X158053012Y-91995000D01*
X158085925Y-91937993D01*
X158120000Y-91810826D01*
X158120000Y-91679174D01*
X158085925Y-91552007D01*
X158053012Y-91495000D01*
X158896609Y-91495000D01*
X158887990Y-91440586D01*
X158824755Y-91245970D01*
X158731859Y-91063650D01*
X158611582Y-90898105D01*
X158611582Y-90898104D01*
X158466895Y-90753417D01*
X158301349Y-90633140D01*
X158119031Y-90540244D01*
X157924417Y-90477009D01*
X157735731Y-90447124D01*
X157672596Y-90417194D01*
X157635665Y-90357883D01*
X157636663Y-90288020D01*
X157675273Y-90229788D01*
X157730938Y-90203034D01*
X157911835Y-90167051D01*
X158093914Y-90091632D01*
X158257782Y-89982139D01*
X158397139Y-89842782D01*
X158506632Y-89678914D01*
X158582051Y-89496835D01*
X158620500Y-89303541D01*
X158620500Y-89106459D01*
X158620500Y-89106456D01*
X158582052Y-88913170D01*
X158582051Y-88913169D01*
X158582051Y-88913165D01*
X158553644Y-88844583D01*
X158506635Y-88731092D01*
X158506628Y-88731079D01*
X158397139Y-88567218D01*
X158397136Y-88567214D01*
X158257785Y-88427863D01*
X158257781Y-88427860D01*
X158093920Y-88318371D01*
X158093907Y-88318364D01*
X157911839Y-88242950D01*
X157911829Y-88242947D01*
X157718543Y-88204500D01*
X157718541Y-88204500D01*
X157521459Y-88204500D01*
X157521457Y-88204500D01*
X157328170Y-88242947D01*
X157328160Y-88242950D01*
X157146092Y-88318364D01*
X157146079Y-88318371D01*
X156982218Y-88427860D01*
X156982214Y-88427863D01*
X156842863Y-88567214D01*
X156842857Y-88567222D01*
X156754546Y-88699390D01*
X156700934Y-88744196D01*
X156651444Y-88754500D01*
X150872965Y-88754500D01*
X150805926Y-88734815D01*
X150785284Y-88718181D01*
X148062216Y-85995113D01*
X148061235Y-85993316D01*
X148059469Y-85992278D01*
X148044558Y-85962774D01*
X148028731Y-85933790D01*
X148028877Y-85931748D01*
X148027953Y-85929920D01*
X148031357Y-85897061D01*
X148033715Y-85864098D01*
X148034943Y-85862457D01*
X148035154Y-85860422D01*
X148055782Y-85834620D01*
X148075587Y-85808165D01*
X148077908Y-85806944D01*
X148078784Y-85805850D01*
X148089486Y-85800860D01*
X148110284Y-85789930D01*
X148114004Y-85788675D01*
X148146786Y-85779892D01*
X148156226Y-85774441D01*
X148167924Y-85770498D01*
X148185950Y-85769784D01*
X148207537Y-85764000D01*
X157056208Y-85764000D01*
X157056209Y-85764000D01*
X157146573Y-85739786D01*
X157170787Y-85733299D01*
X157273514Y-85673989D01*
X158996489Y-83951014D01*
X159055798Y-83848287D01*
X159055799Y-83848286D01*
X159081665Y-83751751D01*
X159082809Y-83748305D01*
X159100718Y-83722458D01*
X159117090Y-83695599D01*
X159120466Y-83693959D01*
X159122603Y-83690875D01*
X159151646Y-83678812D01*
X159179937Y-83665070D01*
X159183663Y-83665515D01*
X159187129Y-83664076D01*
X159218078Y-83669629D01*
G37*
G04 #@! TD.AperFunction*
G04 #@! TA.AperFunction,Conductor*
G36*
X151863674Y-59705785D02*
G01*
X151884316Y-59722419D01*
X152943216Y-60781319D01*
X152976701Y-60842642D01*
X152971717Y-60912334D01*
X152929845Y-60968267D01*
X152864381Y-60992684D01*
X152855535Y-60993000D01*
X152790000Y-60993000D01*
X152790000Y-61851293D01*
X152717931Y-61821442D01*
X152600080Y-61798000D01*
X152479920Y-61798000D01*
X152362069Y-61821442D01*
X152290000Y-61851293D01*
X152290000Y-60993000D01*
X151527155Y-60993000D01*
X151467627Y-60999401D01*
X151467620Y-60999403D01*
X151332913Y-61049645D01*
X151332906Y-61049649D01*
X151217812Y-61135809D01*
X151217809Y-61135812D01*
X151131649Y-61250906D01*
X151131645Y-61250913D01*
X151081403Y-61385620D01*
X151081401Y-61385627D01*
X151075000Y-61445155D01*
X151075000Y-62158000D01*
X151983294Y-62158000D01*
X151953442Y-62230069D01*
X151930000Y-62347920D01*
X151930000Y-62468080D01*
X151953442Y-62585931D01*
X151983294Y-62658000D01*
X151075000Y-62658000D01*
X151075000Y-63370844D01*
X151081401Y-63430372D01*
X151081403Y-63430379D01*
X151131645Y-63565086D01*
X151131649Y-63565093D01*
X151217809Y-63680187D01*
X151217812Y-63680190D01*
X151332906Y-63766350D01*
X151332913Y-63766354D01*
X151467620Y-63816596D01*
X151467627Y-63816598D01*
X151527155Y-63822999D01*
X151527172Y-63823000D01*
X152290000Y-63823000D01*
X152290000Y-62964706D01*
X152362069Y-62994558D01*
X152479920Y-63018000D01*
X152600080Y-63018000D01*
X152717931Y-62994558D01*
X152790000Y-62964706D01*
X152790000Y-63823000D01*
X153552828Y-63823000D01*
X153552844Y-63822999D01*
X153612372Y-63816598D01*
X153612379Y-63816596D01*
X153747086Y-63766354D01*
X153747093Y-63766350D01*
X153862187Y-63680190D01*
X153862190Y-63680187D01*
X153948350Y-63565093D01*
X153948354Y-63565086D01*
X153998596Y-63430379D01*
X153998598Y-63430372D01*
X154004999Y-63370844D01*
X154005000Y-63370827D01*
X154005000Y-62587517D01*
X154024685Y-62520478D01*
X154077489Y-62474723D01*
X154146647Y-62464779D01*
X154210203Y-62493804D01*
X154216681Y-62499836D01*
X155109664Y-63392819D01*
X155143149Y-63454142D01*
X155138165Y-63523834D01*
X155096293Y-63579767D01*
X155030829Y-63604184D01*
X155021983Y-63604500D01*
X154980403Y-63604500D01*
X154914822Y-63614887D01*
X154783659Y-63635661D01*
X154783656Y-63635661D01*
X154594219Y-63697213D01*
X154416733Y-63787647D01*
X154324790Y-63854447D01*
X154255582Y-63904731D01*
X154255580Y-63904733D01*
X154255579Y-63904733D01*
X154114733Y-64045579D01*
X154114733Y-64045580D01*
X154114731Y-64045582D01*
X154090657Y-64078717D01*
X153997647Y-64206733D01*
X153907213Y-64384219D01*
X153845661Y-64573656D01*
X153845661Y-64573659D01*
X153814500Y-64770403D01*
X153814500Y-64969596D01*
X153845661Y-65166340D01*
X153845661Y-65166343D01*
X153907213Y-65355780D01*
X153907215Y-65355783D01*
X153997647Y-65533266D01*
X154114731Y-65694418D01*
X154255582Y-65835269D01*
X154416734Y-65952353D01*
X154594217Y-66042785D01*
X154594219Y-66042786D01*
X154783657Y-66104338D01*
X154783658Y-66104338D01*
X154783661Y-66104339D01*
X154980403Y-66135500D01*
X154980404Y-66135500D01*
X155179596Y-66135500D01*
X155179597Y-66135500D01*
X155376339Y-66104339D01*
X155376342Y-66104338D01*
X155376343Y-66104338D01*
X155565780Y-66042786D01*
X155565780Y-66042785D01*
X155565783Y-66042785D01*
X155743266Y-65952353D01*
X155904418Y-65835269D01*
X156045269Y-65694418D01*
X156162353Y-65533266D01*
X156252785Y-65355783D01*
X156314339Y-65166339D01*
X156345500Y-64969597D01*
X156345500Y-64770403D01*
X156321979Y-64621897D01*
X156330934Y-64552604D01*
X156375930Y-64499152D01*
X156442681Y-64478513D01*
X156444452Y-64478500D01*
X157502355Y-64478500D01*
X157569394Y-64498185D01*
X157577841Y-64504124D01*
X157580282Y-64505997D01*
X157580284Y-64505998D01*
X157580286Y-64506000D01*
X157694414Y-64571892D01*
X157821708Y-64606000D01*
X157821710Y-64606000D01*
X157953490Y-64606000D01*
X157953492Y-64606000D01*
X158080786Y-64571892D01*
X158194914Y-64506000D01*
X158288100Y-64412814D01*
X158353992Y-64298686D01*
X158388100Y-64171392D01*
X158388100Y-64171388D01*
X158388765Y-64168907D01*
X158425130Y-64109247D01*
X158487976Y-64078717D01*
X158508540Y-64077000D01*
X158632828Y-64077000D01*
X158632844Y-64076999D01*
X158692372Y-64070598D01*
X158692379Y-64070596D01*
X158827086Y-64020354D01*
X158827093Y-64020350D01*
X158942187Y-63934190D01*
X158942190Y-63934187D01*
X159028350Y-63819093D01*
X159028354Y-63819086D01*
X159078597Y-63684377D01*
X159079822Y-63679195D01*
X159114392Y-63618477D01*
X159176301Y-63586088D01*
X159245893Y-63592311D01*
X159301073Y-63635171D01*
X159324322Y-63701059D01*
X159324500Y-63707704D01*
X159324500Y-73439741D01*
X159304815Y-73506780D01*
X159252011Y-73552535D01*
X159182853Y-73562479D01*
X159119297Y-73533454D01*
X159093113Y-73501742D01*
X159057316Y-73439741D01*
X159036500Y-73403686D01*
X158943314Y-73310500D01*
X158872468Y-73269597D01*
X158829187Y-73244608D01*
X158765539Y-73227554D01*
X158701892Y-73210500D01*
X158570108Y-73210500D01*
X158442812Y-73244608D01*
X158328686Y-73310500D01*
X158328683Y-73310502D01*
X158235502Y-73403683D01*
X158235500Y-73403686D01*
X158169608Y-73517812D01*
X158135500Y-73645108D01*
X158135500Y-73776891D01*
X158169608Y-73904186D01*
X158172718Y-73911693D01*
X158171381Y-73912246D01*
X158185500Y-73964936D01*
X158185500Y-83436435D01*
X158165815Y-83503474D01*
X158149181Y-83524116D01*
X156846616Y-84826681D01*
X156785293Y-84860166D01*
X156758935Y-84863000D01*
X148207537Y-84863000D01*
X148154849Y-84848881D01*
X148154296Y-84850219D01*
X148146788Y-84847109D01*
X148146786Y-84847108D01*
X148019492Y-84813000D01*
X147887708Y-84813000D01*
X147760412Y-84847108D01*
X147646286Y-84913000D01*
X147557115Y-85002171D01*
X147495791Y-85035655D01*
X147426100Y-85030671D01*
X147370166Y-84988799D01*
X147345750Y-84923334D01*
X147349658Y-84882402D01*
X147364800Y-84825892D01*
X147364800Y-84694108D01*
X147330692Y-84566814D01*
X147264800Y-84452686D01*
X147171614Y-84359500D01*
X147114550Y-84326554D01*
X147057487Y-84293608D01*
X146993839Y-84276554D01*
X146930192Y-84259500D01*
X146798408Y-84259500D01*
X146671112Y-84293608D01*
X146556986Y-84359500D01*
X146556983Y-84359502D01*
X146463802Y-84452683D01*
X146463798Y-84452689D01*
X146397906Y-84566816D01*
X146394795Y-84574328D01*
X146393461Y-84573775D01*
X146366186Y-84621009D01*
X142819016Y-88168181D01*
X142757693Y-88201666D01*
X142731335Y-88204500D01*
X141776965Y-88204500D01*
X141709926Y-88184815D01*
X141664171Y-88132011D01*
X141654227Y-88062853D01*
X141683252Y-87999297D01*
X141689284Y-87992819D01*
X144561790Y-85120314D01*
X147454485Y-82227619D01*
X147515808Y-82194134D01*
X147542166Y-82191300D01*
X151016063Y-82191300D01*
X151068750Y-82205418D01*
X151069304Y-82204081D01*
X151076807Y-82207188D01*
X151076814Y-82207192D01*
X151204108Y-82241300D01*
X151204110Y-82241300D01*
X151335890Y-82241300D01*
X151335892Y-82241300D01*
X151463186Y-82207192D01*
X151577314Y-82141300D01*
X151670500Y-82048114D01*
X151736392Y-81933986D01*
X151770500Y-81806692D01*
X151770500Y-81674908D01*
X151769085Y-81669627D01*
X151770748Y-81599780D01*
X151809910Y-81541918D01*
X151874138Y-81514413D01*
X151943040Y-81525999D01*
X151945156Y-81527052D01*
X152021780Y-81566094D01*
X152021779Y-81566094D01*
X152223870Y-81631757D01*
X152433754Y-81665000D01*
X152646246Y-81665000D01*
X152856127Y-81631757D01*
X152856130Y-81631757D01*
X153058217Y-81566095D01*
X153247554Y-81469622D01*
X153301716Y-81430270D01*
X153301717Y-81430270D01*
X152669408Y-80797962D01*
X152732993Y-80780925D01*
X152847007Y-80715099D01*
X152940099Y-80622007D01*
X153005925Y-80507993D01*
X153022962Y-80444408D01*
X153655270Y-81076717D01*
X153655270Y-81076716D01*
X153694622Y-81022554D01*
X153791095Y-80833217D01*
X153848343Y-80657026D01*
X153887780Y-80599351D01*
X153952139Y-80572152D01*
X154020985Y-80584066D01*
X154072461Y-80631310D01*
X154080835Y-80647891D01*
X154135939Y-80780925D01*
X154149059Y-80812598D01*
X154162836Y-80833217D01*
X154264024Y-80984657D01*
X154410342Y-81130975D01*
X154410345Y-81130977D01*
X154582402Y-81245941D01*
X154773580Y-81325130D01*
X154976530Y-81365499D01*
X154976534Y-81365500D01*
X154976535Y-81365500D01*
X155183466Y-81365500D01*
X155183467Y-81365499D01*
X155386420Y-81325130D01*
X155577598Y-81245941D01*
X155749655Y-81130977D01*
X155895977Y-80984655D01*
X156010941Y-80812598D01*
X156090130Y-80621420D01*
X156130500Y-80418465D01*
X156130500Y-80211535D01*
X156090130Y-80008580D01*
X156010941Y-79817402D01*
X155895977Y-79645345D01*
X155895975Y-79645342D01*
X155749657Y-79499024D01*
X155663626Y-79441541D01*
X155577598Y-79384059D01*
X155386420Y-79304870D01*
X155386412Y-79304868D01*
X155183469Y-79264500D01*
X155183465Y-79264500D01*
X154976535Y-79264500D01*
X154976530Y-79264500D01*
X154773587Y-79304868D01*
X154773579Y-79304870D01*
X154582403Y-79384058D01*
X154410342Y-79499024D01*
X154264024Y-79645342D01*
X154149057Y-79817403D01*
X154080835Y-79982108D01*
X154036994Y-80036511D01*
X153970700Y-80058576D01*
X153903000Y-80041297D01*
X153855390Y-79990159D01*
X153848343Y-79972973D01*
X153791095Y-79796782D01*
X153694624Y-79607449D01*
X153655270Y-79553282D01*
X153655269Y-79553282D01*
X153022962Y-80185590D01*
X153005925Y-80122007D01*
X152940099Y-80007993D01*
X152847007Y-79914901D01*
X152732993Y-79849075D01*
X152669409Y-79832037D01*
X153301716Y-79199728D01*
X153247550Y-79160375D01*
X153237954Y-79155486D01*
X153187157Y-79107512D01*
X153170361Y-79039692D01*
X153192897Y-78973556D01*
X153237954Y-78934514D01*
X153247554Y-78929622D01*
X153301716Y-78890270D01*
X153301717Y-78890270D01*
X152669408Y-78257962D01*
X152732993Y-78240925D01*
X152847007Y-78175099D01*
X152940099Y-78082007D01*
X153005925Y-77967993D01*
X153022962Y-77904408D01*
X153655270Y-78536717D01*
X153655270Y-78536716D01*
X153694622Y-78482554D01*
X153793306Y-78288879D01*
X153794321Y-78289396D01*
X153834779Y-78239192D01*
X153901073Y-78217127D01*
X153968772Y-78234406D01*
X154016383Y-78285542D01*
X154029500Y-78341048D01*
X154029500Y-78429269D01*
X154032353Y-78459699D01*
X154032353Y-78459701D01*
X154077206Y-78587880D01*
X154077207Y-78587882D01*
X154157850Y-78697150D01*
X154267118Y-78777793D01*
X154288089Y-78785131D01*
X154395299Y-78822646D01*
X154425730Y-78825500D01*
X154425734Y-78825500D01*
X155734270Y-78825500D01*
X155764699Y-78822646D01*
X155764701Y-78822646D01*
X155828790Y-78800219D01*
X155892882Y-78777793D01*
X156002150Y-78697150D01*
X156082793Y-78587882D01*
X156119649Y-78482554D01*
X156127646Y-78459701D01*
X156127646Y-78459699D01*
X156130500Y-78429269D01*
X156130500Y-77120730D01*
X156127646Y-77090300D01*
X156127646Y-77090298D01*
X156082793Y-76962119D01*
X156082792Y-76962117D01*
X156002150Y-76852850D01*
X155892882Y-76772207D01*
X155892880Y-76772206D01*
X155764700Y-76727353D01*
X155734270Y-76724500D01*
X155734266Y-76724500D01*
X154425734Y-76724500D01*
X154425730Y-76724500D01*
X154395300Y-76727353D01*
X154395298Y-76727353D01*
X154267119Y-76772206D01*
X154267117Y-76772207D01*
X154157850Y-76852850D01*
X154077207Y-76962117D01*
X154077206Y-76962119D01*
X154032353Y-77090298D01*
X154032353Y-77090300D01*
X154029500Y-77120730D01*
X154029500Y-77208951D01*
X154009815Y-77275990D01*
X153957011Y-77321745D01*
X153887853Y-77331689D01*
X153824297Y-77302664D01*
X153794061Y-77260736D01*
X153793306Y-77261121D01*
X153694624Y-77067449D01*
X153655270Y-77013282D01*
X153655269Y-77013282D01*
X153022962Y-77645590D01*
X153005925Y-77582007D01*
X152940099Y-77467993D01*
X152847007Y-77374901D01*
X152732993Y-77309075D01*
X152669409Y-77292037D01*
X153301716Y-76659728D01*
X153247550Y-76620375D01*
X153058217Y-76523904D01*
X152856129Y-76458242D01*
X152646246Y-76425000D01*
X152433754Y-76425000D01*
X152223872Y-76458242D01*
X152223869Y-76458242D01*
X152021782Y-76523904D01*
X151832439Y-76620380D01*
X151778282Y-76659727D01*
X151778282Y-76659728D01*
X152410591Y-77292037D01*
X152347007Y-77309075D01*
X152232993Y-77374901D01*
X152139901Y-77467993D01*
X152074075Y-77582007D01*
X152057037Y-77645591D01*
X151424728Y-77013282D01*
X151424727Y-77013282D01*
X151385380Y-77067440D01*
X151380483Y-77077051D01*
X151332506Y-77127845D01*
X151264684Y-77144638D01*
X151198550Y-77122098D01*
X151159516Y-77077048D01*
X151154626Y-77067452D01*
X151115270Y-77013282D01*
X151115269Y-77013282D01*
X150482962Y-77645590D01*
X150465925Y-77582007D01*
X150400099Y-77467993D01*
X150307007Y-77374901D01*
X150192993Y-77309075D01*
X150129409Y-77292037D01*
X150761716Y-76659728D01*
X150707550Y-76620375D01*
X150518217Y-76523904D01*
X150316129Y-76458242D01*
X150106246Y-76425000D01*
X149893754Y-76425000D01*
X149683872Y-76458242D01*
X149683869Y-76458242D01*
X149481782Y-76523904D01*
X149292439Y-76620380D01*
X149238282Y-76659727D01*
X149238282Y-76659728D01*
X149870591Y-77292037D01*
X149807007Y-77309075D01*
X149692993Y-77374901D01*
X149599901Y-77467993D01*
X149534075Y-77582007D01*
X149517037Y-77645591D01*
X148884728Y-77013282D01*
X148884727Y-77013282D01*
X148845380Y-77067440D01*
X148840483Y-77077051D01*
X148792506Y-77127845D01*
X148724684Y-77144638D01*
X148658550Y-77122098D01*
X148619516Y-77077048D01*
X148614626Y-77067452D01*
X148575270Y-77013282D01*
X148575269Y-77013282D01*
X147942962Y-77645590D01*
X147925925Y-77582007D01*
X147860099Y-77467993D01*
X147767007Y-77374901D01*
X147652993Y-77309075D01*
X147589409Y-77292037D01*
X148221716Y-76659728D01*
X148167550Y-76620375D01*
X147978217Y-76523904D01*
X147776129Y-76458242D01*
X147566246Y-76425000D01*
X147353754Y-76425000D01*
X147143872Y-76458242D01*
X147143869Y-76458242D01*
X146941782Y-76523904D01*
X146752439Y-76620380D01*
X146698282Y-76659727D01*
X146698282Y-76659728D01*
X147330591Y-77292037D01*
X147267007Y-77309075D01*
X147152993Y-77374901D01*
X147059901Y-77467993D01*
X146994075Y-77582007D01*
X146977037Y-77645591D01*
X146344728Y-77013282D01*
X146344727Y-77013282D01*
X146305380Y-77067439D01*
X146208905Y-77256781D01*
X146151656Y-77432974D01*
X146112218Y-77490649D01*
X146047859Y-77517847D01*
X145979013Y-77505932D01*
X145927537Y-77458688D01*
X145919164Y-77442107D01*
X145850943Y-77277405D01*
X145735975Y-77105342D01*
X145589657Y-76959024D01*
X145503626Y-76901541D01*
X145417598Y-76844059D01*
X145226420Y-76764870D01*
X145226412Y-76764868D01*
X145023469Y-76724500D01*
X145023465Y-76724500D01*
X144816535Y-76724500D01*
X144816530Y-76724500D01*
X144613587Y-76764868D01*
X144613579Y-76764870D01*
X144422403Y-76844058D01*
X144250342Y-76959024D01*
X144104024Y-77105342D01*
X143989058Y-77277403D01*
X143909870Y-77468579D01*
X143909868Y-77468587D01*
X143869500Y-77671530D01*
X143869500Y-77878469D01*
X143909868Y-78081412D01*
X143909870Y-78081420D01*
X143975939Y-78240925D01*
X143989059Y-78272598D01*
X144034796Y-78341048D01*
X144104024Y-78444657D01*
X144250342Y-78590975D01*
X144250345Y-78590977D01*
X144422402Y-78705941D01*
X144613580Y-78785130D01*
X144802187Y-78822646D01*
X144816530Y-78825499D01*
X144816534Y-78825500D01*
X144816535Y-78825500D01*
X145023466Y-78825500D01*
X145023467Y-78825499D01*
X145226420Y-78785130D01*
X145417598Y-78705941D01*
X145589655Y-78590977D01*
X145735977Y-78444655D01*
X145850941Y-78272598D01*
X145919165Y-78107889D01*
X145963004Y-78053488D01*
X146029298Y-78031423D01*
X146096998Y-78048702D01*
X146144609Y-78099839D01*
X146151656Y-78117026D01*
X146208904Y-78293216D01*
X146305375Y-78482550D01*
X146344728Y-78536716D01*
X146977037Y-77904408D01*
X146994075Y-77967993D01*
X147059901Y-78082007D01*
X147152993Y-78175099D01*
X147267007Y-78240925D01*
X147330591Y-78257962D01*
X146729971Y-78858581D01*
X146808711Y-78975895D01*
X146809920Y-78979729D01*
X146812844Y-78982491D01*
X146820343Y-79012778D01*
X146829727Y-79042529D01*
X146828671Y-79046408D01*
X146829638Y-79050312D01*
X146819573Y-79079844D01*
X146811383Y-79109947D01*
X146808397Y-79112640D01*
X146807100Y-79116447D01*
X146762051Y-79155483D01*
X146752440Y-79160380D01*
X146698282Y-79199727D01*
X146698282Y-79199728D01*
X147330591Y-79832037D01*
X147267007Y-79849075D01*
X147152993Y-79914901D01*
X147059901Y-80007993D01*
X146994075Y-80122007D01*
X146977037Y-80185591D01*
X146344728Y-79553282D01*
X146344727Y-79553282D01*
X146305380Y-79607439D01*
X146208905Y-79796781D01*
X146151656Y-79972974D01*
X146112218Y-80030649D01*
X146047859Y-80057847D01*
X145979013Y-80045932D01*
X145927537Y-79998688D01*
X145919164Y-79982107D01*
X145850943Y-79817405D01*
X145735975Y-79645342D01*
X145589657Y-79499024D01*
X145503626Y-79441541D01*
X145417598Y-79384059D01*
X145226420Y-79304870D01*
X145226412Y-79304868D01*
X145023469Y-79264500D01*
X145023465Y-79264500D01*
X144816535Y-79264500D01*
X144816530Y-79264500D01*
X144613587Y-79304868D01*
X144613579Y-79304870D01*
X144422403Y-79384058D01*
X144250342Y-79499024D01*
X144104024Y-79645342D01*
X143989058Y-79817403D01*
X143909870Y-80008579D01*
X143909868Y-80008587D01*
X143869500Y-80211530D01*
X143869500Y-80418469D01*
X143909868Y-80621412D01*
X143909870Y-80621420D01*
X143975939Y-80780925D01*
X143989059Y-80812598D01*
X144002836Y-80833217D01*
X144104024Y-80984657D01*
X144250342Y-81130975D01*
X144250345Y-81130977D01*
X144422402Y-81245941D01*
X144613580Y-81325130D01*
X144816530Y-81365499D01*
X144816534Y-81365500D01*
X144816535Y-81365500D01*
X145023466Y-81365500D01*
X145023467Y-81365499D01*
X145226420Y-81325130D01*
X145417598Y-81245941D01*
X145589655Y-81130977D01*
X145735977Y-80984655D01*
X145850941Y-80812598D01*
X145919165Y-80647889D01*
X145963004Y-80593488D01*
X146029298Y-80571423D01*
X146096998Y-80588702D01*
X146144609Y-80639839D01*
X146151656Y-80657026D01*
X146208904Y-80833216D01*
X146305375Y-81022550D01*
X146344728Y-81076716D01*
X146977037Y-80444408D01*
X146994075Y-80507993D01*
X147059901Y-80622007D01*
X147152993Y-80715099D01*
X147267007Y-80780925D01*
X147330590Y-80797962D01*
X146698282Y-81430269D01*
X146698282Y-81430271D01*
X146742617Y-81462482D01*
X146785283Y-81517811D01*
X146791262Y-81587425D01*
X146758657Y-81649220D01*
X146757413Y-81650481D01*
X140887181Y-87520715D01*
X140825858Y-87554200D01*
X140756166Y-87549216D01*
X140700233Y-87507344D01*
X140675816Y-87441880D01*
X140675500Y-87433034D01*
X140675500Y-73070403D01*
X143654500Y-73070403D01*
X143654500Y-73269597D01*
X143660979Y-73310502D01*
X143685661Y-73466340D01*
X143685661Y-73466343D01*
X143747213Y-73655780D01*
X143808923Y-73776892D01*
X143837647Y-73833266D01*
X143954731Y-73994418D01*
X144095582Y-74135269D01*
X144256734Y-74252353D01*
X144434217Y-74342785D01*
X144434219Y-74342786D01*
X144623657Y-74404338D01*
X144623658Y-74404338D01*
X144623661Y-74404339D01*
X144820403Y-74435500D01*
X144820404Y-74435500D01*
X145019596Y-74435500D01*
X145019597Y-74435500D01*
X145216339Y-74404339D01*
X145216342Y-74404338D01*
X145216343Y-74404338D01*
X145405780Y-74342786D01*
X145405780Y-74342785D01*
X145405783Y-74342785D01*
X145583266Y-74252353D01*
X145744418Y-74135269D01*
X145885269Y-73994418D01*
X146002353Y-73833266D01*
X146092785Y-73655783D01*
X146137614Y-73517814D01*
X146154338Y-73466343D01*
X146154338Y-73466342D01*
X146154339Y-73466339D01*
X146185500Y-73269597D01*
X146185500Y-73070403D01*
X153814500Y-73070403D01*
X153814500Y-73269597D01*
X153820979Y-73310502D01*
X153845661Y-73466340D01*
X153845661Y-73466343D01*
X153907213Y-73655780D01*
X153968923Y-73776892D01*
X153997647Y-73833266D01*
X154114731Y-73994418D01*
X154255582Y-74135269D01*
X154416734Y-74252353D01*
X154594217Y-74342785D01*
X154594219Y-74342786D01*
X154783657Y-74404338D01*
X154783658Y-74404338D01*
X154783661Y-74404339D01*
X154980403Y-74435500D01*
X154980404Y-74435500D01*
X155179596Y-74435500D01*
X155179597Y-74435500D01*
X155376339Y-74404339D01*
X155376342Y-74404338D01*
X155376343Y-74404338D01*
X155565780Y-74342786D01*
X155565780Y-74342785D01*
X155565783Y-74342785D01*
X155743266Y-74252353D01*
X155904418Y-74135269D01*
X156045269Y-73994418D01*
X156162353Y-73833266D01*
X156252785Y-73655783D01*
X156297614Y-73517814D01*
X156314338Y-73466343D01*
X156314338Y-73466342D01*
X156314339Y-73466339D01*
X156345500Y-73269597D01*
X156345500Y-73070403D01*
X156314339Y-72873661D01*
X156314338Y-72873657D01*
X156314338Y-72873656D01*
X156252786Y-72684219D01*
X156162352Y-72506733D01*
X156045269Y-72345582D01*
X155904418Y-72204731D01*
X155743266Y-72087647D01*
X155565780Y-71997213D01*
X155376342Y-71935661D01*
X155228782Y-71912290D01*
X155179597Y-71904500D01*
X154980403Y-71904500D01*
X154914822Y-71914887D01*
X154783659Y-71935661D01*
X154783656Y-71935661D01*
X154594219Y-71997213D01*
X154416733Y-72087647D01*
X154324790Y-72154447D01*
X154255582Y-72204731D01*
X154255580Y-72204733D01*
X154255579Y-72204733D01*
X154114733Y-72345579D01*
X154114733Y-72345580D01*
X154114731Y-72345582D01*
X154064447Y-72414790D01*
X153997647Y-72506733D01*
X153907213Y-72684219D01*
X153845661Y-72873656D01*
X153845661Y-72873659D01*
X153845661Y-72873661D01*
X153814500Y-73070403D01*
X146185500Y-73070403D01*
X146154339Y-72873661D01*
X146154338Y-72873657D01*
X146154338Y-72873656D01*
X146092786Y-72684219D01*
X146002352Y-72506733D01*
X145885269Y-72345582D01*
X145744418Y-72204731D01*
X145583266Y-72087647D01*
X145405780Y-71997213D01*
X145216342Y-71935661D01*
X145068782Y-71912290D01*
X145019597Y-71904500D01*
X144820403Y-71904500D01*
X144754822Y-71914887D01*
X144623659Y-71935661D01*
X144623656Y-71935661D01*
X144434219Y-71997213D01*
X144256733Y-72087647D01*
X144164790Y-72154447D01*
X144095582Y-72204731D01*
X144095580Y-72204733D01*
X144095579Y-72204733D01*
X143954733Y-72345579D01*
X143954733Y-72345580D01*
X143954731Y-72345582D01*
X143904447Y-72414790D01*
X143837647Y-72506733D01*
X143747213Y-72684219D01*
X143685661Y-72873656D01*
X143685661Y-72873659D01*
X143685661Y-72873661D01*
X143654500Y-73070403D01*
X140675500Y-73070403D01*
X140675500Y-68250004D01*
X143414858Y-68250004D01*
X143416656Y-68323519D01*
X143416657Y-68323540D01*
X143448850Y-68568071D01*
X143520554Y-68804076D01*
X143520555Y-68804081D01*
X143629840Y-69025202D01*
X143629843Y-69025208D01*
X143773773Y-69225507D01*
X143773777Y-69225512D01*
X143948493Y-69399619D01*
X143948500Y-69399625D01*
X144065300Y-69482937D01*
X144149303Y-69542856D01*
X144370809Y-69651370D01*
X144370814Y-69651371D01*
X144370815Y-69651372D01*
X144449544Y-69674991D01*
X144607064Y-69722250D01*
X144851722Y-69753592D01*
X145098215Y-69744553D01*
X145339921Y-69695377D01*
X145339925Y-69695375D01*
X145339927Y-69695375D01*
X145455164Y-69651370D01*
X145570350Y-69607385D01*
X145783313Y-69482939D01*
X145973092Y-69325382D01*
X146134589Y-69138945D01*
X146263468Y-68928634D01*
X146356266Y-68700099D01*
X146410493Y-68459475D01*
X146420848Y-68279880D01*
X146422571Y-68250004D01*
X153574858Y-68250004D01*
X153576656Y-68323519D01*
X153576657Y-68323540D01*
X153608850Y-68568071D01*
X153680554Y-68804076D01*
X153680555Y-68804081D01*
X153789840Y-69025202D01*
X153789843Y-69025208D01*
X153933773Y-69225507D01*
X153933777Y-69225512D01*
X154108493Y-69399619D01*
X154108500Y-69399625D01*
X154225300Y-69482937D01*
X154309303Y-69542856D01*
X154530809Y-69651370D01*
X154530814Y-69651371D01*
X154530815Y-69651372D01*
X154609544Y-69674991D01*
X154767064Y-69722250D01*
X155011722Y-69753592D01*
X155258215Y-69744553D01*
X155499921Y-69695377D01*
X155499925Y-69695375D01*
X155499927Y-69695375D01*
X155615164Y-69651370D01*
X155730350Y-69607385D01*
X155943313Y-69482939D01*
X156133092Y-69325382D01*
X156294589Y-69138945D01*
X156423468Y-68928634D01*
X156516266Y-68700099D01*
X156570493Y-68459475D01*
X156584692Y-68213226D01*
X156558481Y-67967965D01*
X156492564Y-67730278D01*
X156492562Y-67730275D01*
X156492560Y-67730268D01*
X156388714Y-67506552D01*
X156388712Y-67506547D01*
X156249720Y-67302792D01*
X156249710Y-67302779D01*
X156079301Y-67124456D01*
X155908662Y-66996338D01*
X155882054Y-66976360D01*
X155882052Y-66976359D01*
X155882051Y-66976358D01*
X155882048Y-66976356D01*
X155663267Y-66862466D01*
X155428819Y-66785837D01*
X155428820Y-66785837D01*
X155428813Y-66785835D01*
X155428811Y-66785834D01*
X155428809Y-66785834D01*
X155184994Y-66748525D01*
X155184993Y-66748525D01*
X155182120Y-66748560D01*
X154938351Y-66751538D01*
X154695528Y-66794791D01*
X154695508Y-66794796D01*
X154463017Y-66877126D01*
X154463008Y-66877130D01*
X154247067Y-66996336D01*
X154247064Y-66996338D01*
X154053494Y-67149211D01*
X153887493Y-67331643D01*
X153887492Y-67331644D01*
X153753512Y-67538746D01*
X153655162Y-67764936D01*
X153655159Y-67764944D01*
X153595070Y-68004168D01*
X153574859Y-68249992D01*
X153574858Y-68250004D01*
X146422571Y-68250004D01*
X146422999Y-68242591D01*
X146424692Y-68213225D01*
X146422570Y-68193377D01*
X146398481Y-67967965D01*
X146332564Y-67730278D01*
X146332562Y-67730275D01*
X146332560Y-67730268D01*
X146228714Y-67506552D01*
X146228712Y-67506547D01*
X146089720Y-67302792D01*
X146089710Y-67302779D01*
X145919301Y-67124456D01*
X145748662Y-66996338D01*
X145722054Y-66976360D01*
X145722052Y-66976359D01*
X145722051Y-66976358D01*
X145722048Y-66976356D01*
X145503267Y-66862466D01*
X145268819Y-66785837D01*
X145268820Y-66785837D01*
X145268813Y-66785835D01*
X145268811Y-66785834D01*
X145268809Y-66785834D01*
X145024994Y-66748525D01*
X145024993Y-66748525D01*
X145022120Y-66748560D01*
X144778351Y-66751538D01*
X144535528Y-66794791D01*
X144535508Y-66794796D01*
X144303017Y-66877126D01*
X144303008Y-66877130D01*
X144087067Y-66996336D01*
X144087064Y-66996338D01*
X143893494Y-67149211D01*
X143727493Y-67331643D01*
X143727492Y-67331644D01*
X143593512Y-67538746D01*
X143495162Y-67764936D01*
X143495159Y-67764944D01*
X143435070Y-68004168D01*
X143414859Y-68249992D01*
X143414858Y-68250004D01*
X140675500Y-68250004D01*
X140675500Y-63453704D01*
X140695185Y-63386665D01*
X140747989Y-63340910D01*
X140817147Y-63330966D01*
X140880703Y-63359991D01*
X140918477Y-63418769D01*
X140920178Y-63425195D01*
X140921402Y-63430377D01*
X140971645Y-63565086D01*
X140971649Y-63565093D01*
X141057809Y-63680187D01*
X141057812Y-63680190D01*
X141172906Y-63766350D01*
X141172913Y-63766354D01*
X141224203Y-63785484D01*
X141280137Y-63827355D01*
X141304554Y-63892819D01*
X141304208Y-63904481D01*
X141304500Y-63904481D01*
X141304500Y-63912608D01*
X141304500Y-64044392D01*
X141304819Y-64045582D01*
X141338608Y-64171687D01*
X141358842Y-64206733D01*
X141404500Y-64285814D01*
X141497686Y-64379000D01*
X141611814Y-64444892D01*
X141739108Y-64479000D01*
X141739110Y-64479000D01*
X141870890Y-64479000D01*
X141870892Y-64479000D01*
X141998186Y-64444892D01*
X142112314Y-64379000D01*
X142175995Y-64315319D01*
X142237318Y-64281834D01*
X142263676Y-64279000D01*
X143549859Y-64279000D01*
X143549862Y-64279000D01*
X143582885Y-64270151D01*
X143652733Y-64271814D01*
X143710596Y-64310976D01*
X143738101Y-64375204D01*
X143732909Y-64428244D01*
X143685661Y-64573656D01*
X143685661Y-64573659D01*
X143654500Y-64770403D01*
X143654500Y-64969596D01*
X143685661Y-65166340D01*
X143685661Y-65166343D01*
X143747213Y-65355780D01*
X143747215Y-65355783D01*
X143837647Y-65533266D01*
X143954731Y-65694418D01*
X144095582Y-65835269D01*
X144256734Y-65952353D01*
X144434217Y-66042785D01*
X144434219Y-66042786D01*
X144623657Y-66104338D01*
X144623658Y-66104338D01*
X144623661Y-66104339D01*
X144820403Y-66135500D01*
X144820404Y-66135500D01*
X145019596Y-66135500D01*
X145019597Y-66135500D01*
X145216339Y-66104339D01*
X145216342Y-66104338D01*
X145216343Y-66104338D01*
X145405780Y-66042786D01*
X145405780Y-66042785D01*
X145405783Y-66042785D01*
X145583266Y-65952353D01*
X145744418Y-65835269D01*
X145885269Y-65694418D01*
X146002353Y-65533266D01*
X146092785Y-65355783D01*
X146154339Y-65166339D01*
X146185500Y-64969597D01*
X146185500Y-64770403D01*
X146154339Y-64573661D01*
X146154338Y-64573657D01*
X146154338Y-64573656D01*
X146092786Y-64384219D01*
X146042646Y-64285814D01*
X146002353Y-64206734D01*
X145885269Y-64045582D01*
X145744418Y-63904731D01*
X145583266Y-63787647D01*
X145541468Y-63766350D01*
X145405780Y-63697213D01*
X145216342Y-63635661D01*
X145068782Y-63612290D01*
X145019597Y-63604500D01*
X144820403Y-63604500D01*
X144754822Y-63614887D01*
X144623659Y-63635661D01*
X144623655Y-63635662D01*
X144603009Y-63642370D01*
X144533168Y-63644364D01*
X144473336Y-63608282D01*
X144442510Y-63545580D01*
X144450476Y-63476166D01*
X144477010Y-63436760D01*
X145783319Y-62130452D01*
X145844642Y-62096967D01*
X145914334Y-62101951D01*
X145970267Y-62143823D01*
X145994684Y-62209287D01*
X145995000Y-62218133D01*
X145995000Y-62412000D01*
X146903294Y-62412000D01*
X146873442Y-62484069D01*
X146850000Y-62601920D01*
X146850000Y-62722080D01*
X146873442Y-62839931D01*
X146903294Y-62912000D01*
X145995000Y-62912000D01*
X145995000Y-63624844D01*
X146001401Y-63684372D01*
X146001403Y-63684379D01*
X146051645Y-63819086D01*
X146051649Y-63819093D01*
X146137809Y-63934187D01*
X146137812Y-63934190D01*
X146252906Y-64020350D01*
X146252913Y-64020354D01*
X146387620Y-64070596D01*
X146387627Y-64070598D01*
X146447155Y-64076999D01*
X146447172Y-64077000D01*
X147210000Y-64077000D01*
X147210000Y-63218706D01*
X147282069Y-63248558D01*
X147399920Y-63272000D01*
X147520080Y-63272000D01*
X147637931Y-63248558D01*
X147710000Y-63218706D01*
X147710000Y-64077000D01*
X148472828Y-64077000D01*
X148472844Y-64076999D01*
X148532372Y-64070598D01*
X148532379Y-64070596D01*
X148667086Y-64020354D01*
X148667093Y-64020350D01*
X148782187Y-63934190D01*
X148782190Y-63934187D01*
X148868350Y-63819093D01*
X148868354Y-63819086D01*
X148918596Y-63684379D01*
X148918598Y-63684372D01*
X148924999Y-63624844D01*
X148925000Y-63624827D01*
X148925000Y-62912000D01*
X148016706Y-62912000D01*
X148046558Y-62839931D01*
X148070000Y-62722080D01*
X148070000Y-62601920D01*
X148046558Y-62484069D01*
X148016706Y-62412000D01*
X148925000Y-62412000D01*
X148925000Y-61699172D01*
X148924999Y-61699155D01*
X148918598Y-61639627D01*
X148918596Y-61639620D01*
X148868353Y-61504911D01*
X148868351Y-61504907D01*
X148782190Y-61389812D01*
X148782187Y-61389809D01*
X148667093Y-61303649D01*
X148667086Y-61303645D01*
X148532379Y-61253403D01*
X148532372Y-61253401D01*
X148472844Y-61247000D01*
X148319600Y-61247000D01*
X148252561Y-61227315D01*
X148206806Y-61174511D01*
X148195600Y-61123000D01*
X148195600Y-61095910D01*
X148195600Y-61095908D01*
X148161492Y-60968614D01*
X148095600Y-60854486D01*
X148002414Y-60761300D01*
X147945350Y-60728354D01*
X147888287Y-60695408D01*
X147824639Y-60678354D01*
X147760992Y-60661300D01*
X147629208Y-60661300D01*
X147501912Y-60695408D01*
X147387786Y-60761300D01*
X147387783Y-60761302D01*
X147324105Y-60824981D01*
X147262782Y-60858466D01*
X147236424Y-60861300D01*
X146287437Y-60861300D01*
X146227455Y-60877372D01*
X146157605Y-60875709D01*
X146099743Y-60836546D01*
X146072239Y-60772317D01*
X146083826Y-60703415D01*
X146084879Y-60701299D01*
X146092786Y-60685781D01*
X146154338Y-60496343D01*
X146154338Y-60496342D01*
X146154339Y-60496339D01*
X146185500Y-60299597D01*
X146185500Y-60100403D01*
X146154339Y-59903661D01*
X146154338Y-59903659D01*
X146149564Y-59888966D01*
X146147567Y-59819125D01*
X146183646Y-59759291D01*
X146246346Y-59728461D01*
X146299585Y-59730868D01*
X146319108Y-59736100D01*
X146319110Y-59736100D01*
X146450890Y-59736100D01*
X146450892Y-59736100D01*
X146578186Y-59701992D01*
X146578194Y-59701987D01*
X146585696Y-59698881D01*
X146586249Y-59700218D01*
X146638937Y-59686100D01*
X151796635Y-59686100D01*
X151863674Y-59705785D01*
G37*
G04 #@! TD.AperFunction*
G04 #@! TA.AperFunction,Conductor*
G36*
X149534075Y-77967993D02*
G01*
X149599901Y-78082007D01*
X149692993Y-78175099D01*
X149807007Y-78240925D01*
X149870590Y-78257962D01*
X149238282Y-78890269D01*
X149238282Y-78890270D01*
X149292452Y-78929626D01*
X149302048Y-78934516D01*
X149352844Y-78982491D01*
X149369638Y-79050312D01*
X149347100Y-79116447D01*
X149302051Y-79155483D01*
X149292440Y-79160380D01*
X149238282Y-79199727D01*
X149238282Y-79199728D01*
X149870591Y-79832037D01*
X149807007Y-79849075D01*
X149692993Y-79914901D01*
X149599901Y-80007993D01*
X149534075Y-80122007D01*
X149517037Y-80185591D01*
X148884728Y-79553282D01*
X148884727Y-79553282D01*
X148845380Y-79607440D01*
X148840483Y-79617051D01*
X148792506Y-79667845D01*
X148724684Y-79684638D01*
X148658550Y-79662098D01*
X148619516Y-79617048D01*
X148614626Y-79607452D01*
X148575270Y-79553282D01*
X148575269Y-79553282D01*
X147942962Y-80185590D01*
X147925925Y-80122007D01*
X147860099Y-80007993D01*
X147767007Y-79914901D01*
X147652993Y-79849075D01*
X147589409Y-79832037D01*
X148221716Y-79199728D01*
X148167550Y-79160375D01*
X148157954Y-79155486D01*
X148107157Y-79107512D01*
X148090361Y-79039692D01*
X148111288Y-78975895D01*
X148190027Y-78858581D01*
X147589408Y-78257962D01*
X147652993Y-78240925D01*
X147767007Y-78175099D01*
X147860099Y-78082007D01*
X147925925Y-77967993D01*
X147942962Y-77904409D01*
X148575270Y-78536717D01*
X148575270Y-78536716D01*
X148614622Y-78482554D01*
X148619514Y-78472954D01*
X148667488Y-78422157D01*
X148735308Y-78405361D01*
X148801444Y-78427897D01*
X148840486Y-78472954D01*
X148845375Y-78482550D01*
X148884728Y-78536716D01*
X149517037Y-77904408D01*
X149534075Y-77967993D01*
G37*
G04 #@! TD.AperFunction*
G04 #@! TA.AperFunction,Conductor*
G36*
X152074075Y-77967993D02*
G01*
X152139901Y-78082007D01*
X152232993Y-78175099D01*
X152347007Y-78240925D01*
X152410590Y-78257962D01*
X151778282Y-78890269D01*
X151778282Y-78890270D01*
X151832452Y-78929626D01*
X151842048Y-78934516D01*
X151892844Y-78982491D01*
X151909638Y-79050312D01*
X151887100Y-79116447D01*
X151842051Y-79155483D01*
X151832440Y-79160380D01*
X151778282Y-79199727D01*
X151778282Y-79199728D01*
X152410591Y-79832037D01*
X152347007Y-79849075D01*
X152232993Y-79914901D01*
X152139901Y-80007993D01*
X152074075Y-80122007D01*
X152057037Y-80185591D01*
X151424728Y-79553282D01*
X151424727Y-79553282D01*
X151385380Y-79607440D01*
X151380483Y-79617051D01*
X151332506Y-79667845D01*
X151264684Y-79684638D01*
X151198550Y-79662098D01*
X151159516Y-79617048D01*
X151154626Y-79607452D01*
X151115270Y-79553282D01*
X151115269Y-79553282D01*
X150482962Y-80185589D01*
X150465925Y-80122007D01*
X150400099Y-80007993D01*
X150307007Y-79914901D01*
X150192993Y-79849075D01*
X150129409Y-79832037D01*
X150761716Y-79199728D01*
X150707550Y-79160375D01*
X150697954Y-79155486D01*
X150647157Y-79107512D01*
X150630361Y-79039692D01*
X150651288Y-78975895D01*
X150730027Y-78858581D01*
X150129408Y-78257962D01*
X150192993Y-78240925D01*
X150307007Y-78175099D01*
X150400099Y-78082007D01*
X150465925Y-77967993D01*
X150482962Y-77904408D01*
X151115270Y-78536717D01*
X151115270Y-78536716D01*
X151154622Y-78482554D01*
X151159514Y-78472954D01*
X151207488Y-78422157D01*
X151275308Y-78405361D01*
X151341444Y-78427897D01*
X151380486Y-78472954D01*
X151385375Y-78482550D01*
X151424728Y-78536716D01*
X152057037Y-77904408D01*
X152074075Y-77967993D01*
G37*
G04 #@! TD.AperFunction*
G04 #@! TA.AperFunction,Conductor*
G36*
X159267539Y-50220185D02*
G01*
X159313294Y-50272989D01*
X159324500Y-50324500D01*
X159324500Y-61616295D01*
X159304815Y-61683334D01*
X159252011Y-61729089D01*
X159182853Y-61739033D01*
X159119297Y-61710008D01*
X159081523Y-61651230D01*
X159079822Y-61644806D01*
X159078596Y-61639620D01*
X159028354Y-61504913D01*
X159028350Y-61504906D01*
X158942190Y-61389812D01*
X158942187Y-61389809D01*
X158827093Y-61303649D01*
X158827086Y-61303645D01*
X158692379Y-61253403D01*
X158692372Y-61253401D01*
X158632844Y-61247000D01*
X157870000Y-61247000D01*
X157870000Y-62105293D01*
X157797931Y-62075442D01*
X157680080Y-62052000D01*
X157559920Y-62052000D01*
X157442069Y-62075442D01*
X157370000Y-62105293D01*
X157370000Y-61247000D01*
X156607155Y-61247000D01*
X156547627Y-61253401D01*
X156547620Y-61253403D01*
X156412913Y-61303645D01*
X156412906Y-61303649D01*
X156297812Y-61389809D01*
X156297809Y-61389812D01*
X156211649Y-61504906D01*
X156211645Y-61504913D01*
X156161403Y-61639620D01*
X156161401Y-61639627D01*
X156155000Y-61699155D01*
X156155000Y-62412000D01*
X157063294Y-62412000D01*
X157033442Y-62484069D01*
X157010000Y-62601920D01*
X157010000Y-62722080D01*
X157033442Y-62839931D01*
X157063294Y-62912000D01*
X156155000Y-62912000D01*
X156118681Y-62948319D01*
X156117459Y-62947097D01*
X156082511Y-62977381D01*
X156013353Y-62987325D01*
X155949797Y-62958300D01*
X155943319Y-62952268D01*
X154618171Y-61627120D01*
X154584686Y-61565797D01*
X154589670Y-61496105D01*
X154631542Y-61440172D01*
X154697006Y-61415755D01*
X154744171Y-61421508D01*
X154783661Y-61434339D01*
X154980403Y-61465500D01*
X154980404Y-61465500D01*
X155179596Y-61465500D01*
X155179597Y-61465500D01*
X155376339Y-61434339D01*
X155376342Y-61434338D01*
X155376343Y-61434338D01*
X155565780Y-61372786D01*
X155565780Y-61372785D01*
X155565783Y-61372785D01*
X155743266Y-61282353D01*
X155904418Y-61165269D01*
X156045269Y-61024418D01*
X156162353Y-60863266D01*
X156252785Y-60685783D01*
X156314339Y-60496339D01*
X156345500Y-60299597D01*
X156345500Y-60100403D01*
X156314339Y-59903661D01*
X156314338Y-59903657D01*
X156314338Y-59903656D01*
X156252786Y-59714219D01*
X156246556Y-59701992D01*
X156162353Y-59536734D01*
X156045269Y-59375582D01*
X155904418Y-59234731D01*
X155743266Y-59117647D01*
X155565780Y-59027213D01*
X155376342Y-58965661D01*
X155228782Y-58942290D01*
X155179597Y-58934500D01*
X154980403Y-58934500D01*
X154914822Y-58944887D01*
X154783659Y-58965661D01*
X154783656Y-58965661D01*
X154594219Y-59027213D01*
X154416733Y-59117647D01*
X154345078Y-59169708D01*
X154255582Y-59234731D01*
X154255580Y-59234733D01*
X154255579Y-59234733D01*
X154114733Y-59375579D01*
X154114733Y-59375580D01*
X154114731Y-59375582D01*
X154084498Y-59417194D01*
X153997647Y-59536733D01*
X153907213Y-59714219D01*
X153845661Y-59903656D01*
X153845661Y-59903659D01*
X153814560Y-60100020D01*
X153784631Y-60163155D01*
X153725319Y-60200086D01*
X153655456Y-60199088D01*
X153604406Y-60168303D01*
X152311216Y-58875113D01*
X152311214Y-58875111D01*
X152241914Y-58835100D01*
X152208488Y-58815801D01*
X152196380Y-58812557D01*
X152184273Y-58809313D01*
X152184270Y-58809312D01*
X152146078Y-58799078D01*
X152093909Y-58785100D01*
X152093908Y-58785100D01*
X146638937Y-58785100D01*
X146586249Y-58770981D01*
X146585696Y-58772319D01*
X146578188Y-58769209D01*
X146578186Y-58769208D01*
X146450892Y-58735100D01*
X146319108Y-58735100D01*
X146191812Y-58769208D01*
X146077686Y-58835100D01*
X146077683Y-58835102D01*
X145984502Y-58928283D01*
X145984500Y-58928286D01*
X145918609Y-59042412D01*
X145893786Y-59135053D01*
X145857421Y-59194713D01*
X145794574Y-59225242D01*
X145725198Y-59216947D01*
X145701125Y-59203277D01*
X145654921Y-59169708D01*
X145583266Y-59117647D01*
X145405780Y-59027213D01*
X145216342Y-58965661D01*
X145068782Y-58942290D01*
X145019597Y-58934500D01*
X144820403Y-58934500D01*
X144754822Y-58944887D01*
X144623659Y-58965661D01*
X144623656Y-58965661D01*
X144434219Y-59027213D01*
X144256733Y-59117647D01*
X144185078Y-59169708D01*
X144095582Y-59234731D01*
X144095580Y-59234733D01*
X144095579Y-59234733D01*
X143954733Y-59375579D01*
X143954733Y-59375580D01*
X143954731Y-59375582D01*
X143924498Y-59417194D01*
X143837647Y-59536733D01*
X143747213Y-59714219D01*
X143685661Y-59903656D01*
X143685661Y-59903659D01*
X143654500Y-60100403D01*
X143654500Y-60299596D01*
X143685661Y-60496340D01*
X143685661Y-60496343D01*
X143747213Y-60685780D01*
X143756199Y-60703415D01*
X143837647Y-60863266D01*
X143954731Y-61024418D01*
X144095582Y-61165269D01*
X144256734Y-61282353D01*
X144413629Y-61362295D01*
X144434219Y-61372786D01*
X144623657Y-61434338D01*
X144623658Y-61434338D01*
X144623661Y-61434339D01*
X144820403Y-61465500D01*
X144820404Y-61465500D01*
X145019596Y-61465500D01*
X145019597Y-61465500D01*
X145216339Y-61434339D01*
X145337122Y-61395093D01*
X145406964Y-61393099D01*
X145466797Y-61429179D01*
X145497625Y-61491880D01*
X145489661Y-61561294D01*
X145463122Y-61600706D01*
X144056681Y-63007148D01*
X143995358Y-63040633D01*
X143925666Y-63035649D01*
X143869733Y-62993777D01*
X143845316Y-62928313D01*
X143845000Y-62919467D01*
X143845000Y-62658000D01*
X142936706Y-62658000D01*
X142966558Y-62585931D01*
X142990000Y-62468080D01*
X142990000Y-62347920D01*
X142966558Y-62230069D01*
X142936706Y-62158000D01*
X143845000Y-62158000D01*
X143845000Y-61445172D01*
X143844999Y-61445155D01*
X143838598Y-61385627D01*
X143838596Y-61385620D01*
X143788354Y-61250913D01*
X143788350Y-61250906D01*
X143702190Y-61135812D01*
X143702187Y-61135809D01*
X143587093Y-61049649D01*
X143587086Y-61049645D01*
X143452379Y-60999403D01*
X143452372Y-60999401D01*
X143392844Y-60993000D01*
X142630000Y-60993000D01*
X142630000Y-61851293D01*
X142557931Y-61821442D01*
X142440080Y-61798000D01*
X142319920Y-61798000D01*
X142202069Y-61821442D01*
X142130000Y-61851293D01*
X142130000Y-60993000D01*
X141367155Y-60993000D01*
X141307627Y-60999401D01*
X141307620Y-60999403D01*
X141172913Y-61049645D01*
X141172906Y-61049649D01*
X141057812Y-61135809D01*
X141057809Y-61135812D01*
X140971649Y-61250906D01*
X140971645Y-61250913D01*
X140921403Y-61385620D01*
X140920178Y-61390806D01*
X140885606Y-61451523D01*
X140823697Y-61483911D01*
X140754105Y-61477687D01*
X140698926Y-61434826D01*
X140675678Y-61368937D01*
X140675500Y-61362295D01*
X140675500Y-56856774D01*
X143415307Y-56856774D01*
X143441519Y-57102032D01*
X143441520Y-57102039D01*
X143507436Y-57339723D01*
X143507439Y-57339731D01*
X143611285Y-57563447D01*
X143611287Y-57563452D01*
X143750279Y-57767207D01*
X143750289Y-57767220D01*
X143897042Y-57920788D01*
X143920697Y-57945542D01*
X144117946Y-58093640D01*
X144117948Y-58093641D01*
X144117951Y-58093643D01*
X144336732Y-58207533D01*
X144336734Y-58207534D01*
X144571187Y-58284165D01*
X144815007Y-58321475D01*
X145055900Y-58318531D01*
X145061648Y-58318461D01*
X145304471Y-58275208D01*
X145304471Y-58275207D01*
X145304482Y-58275206D01*
X145304489Y-58275203D01*
X145304491Y-58275203D01*
X145536982Y-58192873D01*
X145536987Y-58192870D01*
X145536992Y-58192869D01*
X145752932Y-58073664D01*
X145946504Y-57920790D01*
X146112508Y-57738355D01*
X146246486Y-57531256D01*
X146344841Y-57305055D01*
X146404930Y-57065829D01*
X146422118Y-56856774D01*
X153575307Y-56856774D01*
X153601519Y-57102032D01*
X153601520Y-57102039D01*
X153667436Y-57339723D01*
X153667439Y-57339731D01*
X153771285Y-57563447D01*
X153771287Y-57563452D01*
X153910279Y-57767207D01*
X153910289Y-57767220D01*
X154057042Y-57920788D01*
X154080697Y-57945542D01*
X154277946Y-58093640D01*
X154277948Y-58093641D01*
X154277951Y-58093643D01*
X154496732Y-58207533D01*
X154496734Y-58207534D01*
X154731187Y-58284165D01*
X154975007Y-58321475D01*
X155215900Y-58318531D01*
X155221648Y-58318461D01*
X155464471Y-58275208D01*
X155464471Y-58275207D01*
X155464482Y-58275206D01*
X155464489Y-58275203D01*
X155464491Y-58275203D01*
X155696982Y-58192873D01*
X155696987Y-58192870D01*
X155696992Y-58192869D01*
X155912932Y-58073664D01*
X156106504Y-57920790D01*
X156272508Y-57738355D01*
X156406486Y-57531256D01*
X156504841Y-57305055D01*
X156564930Y-57065829D01*
X156585141Y-56820000D01*
X156583344Y-56746474D01*
X156551149Y-56501926D01*
X156479445Y-56265921D01*
X156370158Y-56044795D01*
X156370156Y-56044791D01*
X156226226Y-55844492D01*
X156226222Y-55844487D01*
X156051506Y-55670380D01*
X156051499Y-55670374D01*
X155850697Y-55527144D01*
X155718974Y-55462614D01*
X155629191Y-55418630D01*
X155629188Y-55418629D01*
X155629186Y-55418628D01*
X155629184Y-55418627D01*
X155392937Y-55347750D01*
X155148282Y-55316408D01*
X155148278Y-55316408D01*
X154901785Y-55325447D01*
X154660072Y-55374624D01*
X154429650Y-55462614D01*
X154216696Y-55587054D01*
X154216685Y-55587062D01*
X154026907Y-55744619D01*
X153865412Y-55931052D01*
X153736533Y-56141363D01*
X153643731Y-56369907D01*
X153589507Y-56610520D01*
X153589507Y-56610525D01*
X153575307Y-56856774D01*
X146422118Y-56856774D01*
X146423123Y-56844555D01*
X146423123Y-56844554D01*
X146425140Y-56820011D01*
X146425141Y-56819995D01*
X146424967Y-56812914D01*
X146423344Y-56746474D01*
X146391149Y-56501926D01*
X146319445Y-56265921D01*
X146210158Y-56044795D01*
X146210156Y-56044791D01*
X146066226Y-55844492D01*
X146066222Y-55844487D01*
X145891506Y-55670380D01*
X145891499Y-55670374D01*
X145690697Y-55527144D01*
X145558974Y-55462614D01*
X145469191Y-55418630D01*
X145469188Y-55418629D01*
X145469186Y-55418628D01*
X145469184Y-55418627D01*
X145232937Y-55347750D01*
X144988282Y-55316408D01*
X144988278Y-55316408D01*
X144741785Y-55325447D01*
X144500072Y-55374624D01*
X144269650Y-55462614D01*
X144056696Y-55587054D01*
X144056685Y-55587062D01*
X143866907Y-55744619D01*
X143705412Y-55931052D01*
X143576533Y-56141363D01*
X143483731Y-56369907D01*
X143429507Y-56610520D01*
X143429507Y-56610525D01*
X143415307Y-56856774D01*
X140675500Y-56856774D01*
X140675500Y-51800403D01*
X143654500Y-51800403D01*
X143654500Y-51999596D01*
X143685661Y-52196340D01*
X143685661Y-52196343D01*
X143747213Y-52385780D01*
X143747215Y-52385783D01*
X143837647Y-52563266D01*
X143954731Y-52724418D01*
X144095582Y-52865269D01*
X144256734Y-52982353D01*
X144434217Y-53072785D01*
X144434219Y-53072786D01*
X144623657Y-53134338D01*
X144623658Y-53134338D01*
X144623661Y-53134339D01*
X144820403Y-53165500D01*
X144820404Y-53165500D01*
X145019596Y-53165500D01*
X145019597Y-53165500D01*
X145216339Y-53134339D01*
X145216342Y-53134338D01*
X145216343Y-53134338D01*
X145405780Y-53072786D01*
X145405780Y-53072785D01*
X145405783Y-53072785D01*
X145583266Y-52982353D01*
X145744418Y-52865269D01*
X145885269Y-52724418D01*
X146002353Y-52563266D01*
X146092785Y-52385783D01*
X146154339Y-52196339D01*
X146185500Y-51999597D01*
X146185500Y-51800403D01*
X153814500Y-51800403D01*
X153814500Y-51999596D01*
X153845661Y-52196340D01*
X153845661Y-52196343D01*
X153907213Y-52385780D01*
X153907215Y-52385783D01*
X153997647Y-52563266D01*
X154114731Y-52724418D01*
X154255582Y-52865269D01*
X154416734Y-52982353D01*
X154594217Y-53072785D01*
X154594219Y-53072786D01*
X154783657Y-53134338D01*
X154783658Y-53134338D01*
X154783661Y-53134339D01*
X154980403Y-53165500D01*
X154980404Y-53165500D01*
X155179596Y-53165500D01*
X155179597Y-53165500D01*
X155376339Y-53134339D01*
X155376342Y-53134338D01*
X155376343Y-53134338D01*
X155565780Y-53072786D01*
X155565780Y-53072785D01*
X155565783Y-53072785D01*
X155743266Y-52982353D01*
X155904418Y-52865269D01*
X156045269Y-52724418D01*
X156162353Y-52563266D01*
X156252785Y-52385783D01*
X156314339Y-52196339D01*
X156345500Y-51999597D01*
X156345500Y-51800403D01*
X156314339Y-51603661D01*
X156314338Y-51603657D01*
X156314338Y-51603656D01*
X156252786Y-51414219D01*
X156162352Y-51236733D01*
X156045269Y-51075582D01*
X155904418Y-50934731D01*
X155743266Y-50817647D01*
X155565780Y-50727213D01*
X155376342Y-50665661D01*
X155228782Y-50642290D01*
X155179597Y-50634500D01*
X154980403Y-50634500D01*
X154914822Y-50644887D01*
X154783659Y-50665661D01*
X154783656Y-50665661D01*
X154594219Y-50727213D01*
X154416733Y-50817647D01*
X154324790Y-50884447D01*
X154255582Y-50934731D01*
X154255580Y-50934733D01*
X154255579Y-50934733D01*
X154114733Y-51075579D01*
X154114733Y-51075580D01*
X154114731Y-51075582D01*
X154064447Y-51144790D01*
X153997647Y-51236733D01*
X153907213Y-51414219D01*
X153845661Y-51603656D01*
X153845661Y-51603659D01*
X153814500Y-51800403D01*
X146185500Y-51800403D01*
X146154339Y-51603661D01*
X146154338Y-51603657D01*
X146154338Y-51603656D01*
X146092786Y-51414219D01*
X146002352Y-51236733D01*
X145885269Y-51075582D01*
X145744418Y-50934731D01*
X145583266Y-50817647D01*
X145405780Y-50727213D01*
X145216342Y-50665661D01*
X145068782Y-50642290D01*
X145019597Y-50634500D01*
X144820403Y-50634500D01*
X144754822Y-50644887D01*
X144623659Y-50665661D01*
X144623656Y-50665661D01*
X144434219Y-50727213D01*
X144256733Y-50817647D01*
X144164790Y-50884447D01*
X144095582Y-50934731D01*
X144095580Y-50934733D01*
X144095579Y-50934733D01*
X143954733Y-51075579D01*
X143954733Y-51075580D01*
X143954731Y-51075582D01*
X143904447Y-51144790D01*
X143837647Y-51236733D01*
X143747213Y-51414219D01*
X143685661Y-51603656D01*
X143685661Y-51603659D01*
X143654500Y-51800403D01*
X140675500Y-51800403D01*
X140675500Y-50324500D01*
X140695185Y-50257461D01*
X140747989Y-50211706D01*
X140799500Y-50200500D01*
X159200500Y-50200500D01*
X159267539Y-50220185D01*
G37*
G04 #@! TD.AperFunction*
G04 #@! TD*
M02*
